<svg width="56" height="56" viewBox="0 0 56 56" fill="none" xmlns="http://www.w3.org/2000/svg">
<g id="&#236;&#149;&#132;&#236;&#157;&#180;&#236;&#189;&#152;/24*24/&#234;&#184;&#176;&#237;&#148;&#132;&#237;&#138;&#184;">
<path id="Fill 1" fill-rule="evenodd" clip-rule="evenodd" d="M19.4404 44.5727H5.98344C4.47685 44.5727 3.25391 43.3456 3.25391 41.834V18.602C3.25391 17.0927 4.47685 15.8633 5.98344 15.8633H19.4404V44.5727ZM11.1648 9.10231C11.5159 8.47246 12.125 8.05723 12.8318 7.95692C12.9388 7.94293 13.0457 7.93359 13.1527 7.93359C13.7479 7.93359 14.3151 8.1692 14.7429 8.60077L18.6117 12.4778H13.1434C12.3203 12.4778 11.6089 12.0696 11.1904 11.3581C10.7742 10.6443 10.7649 9.82547 11.1648 9.10231V9.10231ZM27.3957 8.59951C27.9025 8.08864 28.6047 7.86469 29.3092 7.95567C30.0206 8.05598 30.6274 8.47121 30.9762 9.10106C31.3761 9.82188 31.3668 10.643 30.9483 11.3568C30.5321 12.0683 29.8207 12.4766 28.9953 12.4766H23.5316L27.3957 8.59951ZM36.1535 12.5983H33.9285C34.7143 10.9747 34.705 9.11086 33.8192 7.51058C32.9683 5.98028 31.4896 4.96553 29.7575 4.72059C28.016 4.48032 26.3281 5.05184 25.0935 6.29054L21.069 10.3262L17.0468 6.29054C15.8122 5.05184 14.1196 4.47798 12.3852 4.72059C10.6554 4.9632 9.17438 5.98028 8.32344 7.51058C7.4353 9.10853 7.42367 10.9747 8.20951 12.5983H5.98451C2.68536 12.5983 0 15.2927 0 18.6029V41.8349C0 45.1451 2.68536 47.8395 5.98451 47.8395H23.3917C24.2914 47.8395 25.0191 47.1093 25.0191 46.2065C25.0191 45.3037 24.2914 44.5736 23.3917 44.5736H22.6965V15.8642H36.1535C37.6601 15.8642 38.883 17.0936 38.883 18.6029V29.5272C38.883 30.43 39.6131 31.1602 40.5128 31.1602C41.4103 31.1602 42.1403 30.43 42.1403 29.5272V18.6029C42.1403 15.2927 39.4526 12.5983 36.1535 12.5983V12.5983Z" fill="#333333"/>
<path id="Combined Shape" fill-rule="evenodd" clip-rule="evenodd" d="M50.127 44.0834C50.127 42.3222 51.2105 40.7942 52.7426 40.1364V37.7663H32.7617V40.1084C34.3218 40.7546 35.4215 42.2918 35.4215 44.0834C35.4215 45.8773 34.3195 47.4169 32.7617 48.0584V50.3982H52.7426V48.0305C51.2105 47.3749 50.127 45.8447 50.127 44.0834ZM55.9987 41.4293C55.9987 42.3227 55.2872 43.0482 54.3968 43.0622C53.8295 43.0716 53.3831 43.5195 53.3831 44.084C53.3831 44.6485 53.8295 45.0964 54.3968 45.1057C55.2872 45.1197 55.9987 45.8476 55.9987 46.7387V50.7977C55.9987 52.3793 54.7176 53.667 53.1413 53.667H32.3652C30.7912 53.667 29.5078 52.3793 29.5078 50.7977V46.7457C29.5078 45.8429 30.2355 45.1127 31.1353 45.1127C31.7072 45.1127 32.1653 44.6532 32.1653 44.084C32.1653 43.5171 31.7072 43.0552 31.1423 43.0552C30.2425 43.0552 29.5078 42.3227 29.5078 41.4223V37.3679C29.5078 35.7887 30.7912 34.501 32.3652 34.501H53.1413C54.7176 34.501 55.9987 35.7887 55.9987 37.3679V41.4293ZM48.046 47.6397C48.046 48.5425 47.3183 49.2726 46.4185 49.2726C45.5187 49.2726 44.791 48.5425 44.791 47.6397V40.5294C44.791 39.6266 45.5187 38.8965 46.4185 38.8965C47.3183 38.8965 48.046 39.6266 48.046 40.5294V47.6397Z" fill="#3182F6"/>
</g>
</svg>
