<svg width="56" height="56" viewBox="0 0 56 56" fill="none" xmlns="http://www.w3.org/2000/svg">
<mask id="path-1-inside-1_289_9835" fill="white">
<path fill-rule="evenodd" clip-rule="evenodd" d="M49.0007 12.834H7.00065C6.35631 12.834 5.83398 13.3563 5.83398 14.0006V21.9371C4.80438 21.3415 3.60899 21.0007 2.33398 21.0007V14.0006C2.33398 11.4233 4.42332 9.33398 7.00065 9.33398H49.0007C51.578 9.33398 53.6673 11.4233 53.6673 14.0007L53.6673 21.0007C52.3923 21.0007 51.1969 21.3415 50.1673 21.9371V14.0007C50.1673 13.3563 49.645 12.834 49.0007 12.834ZM50.1673 34.0642V42.0007C50.1673 42.645 49.645 43.1673 49.0007 43.1673H7.00065C6.35632 43.1673 5.83398 42.645 5.83398 42.0007V34.0642C4.80438 34.6598 3.60899 35.0007 2.33398 35.0007V42.0007C2.33398 44.578 4.42332 46.6673 7.00065 46.6673H49.0007C51.578 46.6673 53.6673 44.578 53.6673 42.0007L53.6673 35.0007C52.3923 35.0007 51.1969 34.6598 50.1673 34.0642Z"/>
</mask>
<path fill-rule="evenodd" clip-rule="evenodd" d="M49.0007 12.834H7.00065C6.35631 12.834 5.83398 13.3563 5.83398 14.0006V21.9371C4.80438 21.3415 3.60899 21.0007 2.33398 21.0007V14.0006C2.33398 11.4233 4.42332 9.33398 7.00065 9.33398H49.0007C51.578 9.33398 53.6673 11.4233 53.6673 14.0007L53.6673 21.0007C52.3923 21.0007 51.1969 21.3415 50.1673 21.9371V14.0007C50.1673 13.3563 49.645 12.834 49.0007 12.834ZM50.1673 34.0642V42.0007C50.1673 42.645 49.645 43.1673 49.0007 43.1673H7.00065C6.35632 43.1673 5.83398 42.645 5.83398 42.0007V34.0642C4.80438 34.6598 3.60899 35.0007 2.33398 35.0007V42.0007C2.33398 44.578 4.42332 46.6673 7.00065 46.6673H49.0007C51.578 46.6673 53.6673 44.578 53.6673 42.0007L53.6673 35.0007C52.3923 35.0007 51.1969 34.6598 50.1673 34.0642Z" fill="#C4C4C4"/>
<path d="M5.83398 21.9371L4.66562 23.9569L8.16732 25.9825V21.9371H5.83398ZM2.33398 21.0007H0.000650883V23.334H2.33398V21.0007ZM53.6673 14.0007L51.334 14.0007L51.334 14.0007L53.6673 14.0007ZM53.6673 21.0007V23.334H56.0007L56.0007 21.0007L53.6673 21.0007ZM50.1673 21.9371H47.834V25.9825L51.3357 23.9569L50.1673 21.9371ZM50.1673 34.0642L51.3357 32.0444L47.834 30.0188V34.0642H50.1673ZM5.83398 34.0642H8.16732V30.0188L4.66562 32.0444L5.83398 34.0642ZM2.33398 35.0007V32.6673H0.000650883V35.0007H2.33398ZM53.6673 42.0007L51.334 42.0007V42.0007H53.6673ZM53.6673 35.0007L56.0007 35.0007L56.0007 32.6673H53.6673V35.0007ZM7.00065 15.1673H49.0007V10.5007H7.00065V15.1673ZM8.16732 14.0006C8.16732 14.645 7.64498 15.1673 7.00065 15.1673V10.5007C5.06765 10.5007 3.50065 12.0677 3.50065 14.0006H8.16732ZM8.16732 21.9371V14.0006H3.50065V21.9371H8.16732ZM2.33398 23.334C3.18786 23.334 3.9816 23.5612 4.66562 23.9569L7.00235 19.9174C5.62716 19.1219 4.03012 18.6673 2.33398 18.6673V23.334ZM0.000650883 14.0006V21.0007H4.66732V14.0006H0.000650883ZM7.00065 7.00065C3.13466 7.00065 0.000650883 10.1347 0.000650883 14.0006H4.66732C4.66732 12.712 5.71198 11.6673 7.00065 11.6673V7.00065ZM49.0007 7.00065H7.00065V11.6673H49.0007V7.00065ZM56.0007 14.0007C56.0007 10.1347 52.8666 7.00065 49.0007 7.00065V11.6673C50.2893 11.6673 51.334 12.712 51.334 14.0007H56.0007ZM56.0007 21.0007L56.0007 14.0007L51.334 14.0007L51.334 21.0007L56.0007 21.0007ZM51.3357 23.9569C52.0197 23.5612 52.8134 23.334 53.6673 23.334V18.6673C51.9712 18.6673 50.3741 19.1219 48.999 19.9174L51.3357 23.9569ZM47.834 14.0007V21.9371H52.5007V14.0007H47.834ZM49.0007 15.1673C48.3563 15.1673 47.834 14.645 47.834 14.0007H52.5007C52.5007 12.0677 50.9336 10.5007 49.0007 10.5007V15.1673ZM47.834 34.0642V42.0007H52.5007V34.0642H47.834ZM47.834 42.0007C47.834 41.3563 48.3563 40.834 49.0007 40.834V45.5007C50.9337 45.5007 52.5007 43.9336 52.5007 42.0007H47.834ZM49.0007 40.834H7.00065V45.5007H49.0007V40.834ZM7.00065 40.834C7.645 40.834 8.16732 41.3563 8.16732 42.0007H3.50065C3.50065 43.9336 5.06764 45.5007 7.00065 45.5007V40.834ZM8.16732 42.0007V34.0642H3.50065V42.0007H8.16732ZM4.66562 32.0444C3.9816 32.4401 3.18786 32.6673 2.33398 32.6673V37.334C4.03011 37.334 5.62716 36.8794 7.00235 36.0839L4.66562 32.0444ZM0.000650883 35.0007V42.0007H4.66732V35.0007H0.000650883ZM0.000650883 42.0007C0.000650883 45.8666 3.13465 49.0007 7.00065 49.0007V44.334C5.71199 44.334 4.66732 43.2893 4.66732 42.0007H0.000650883ZM7.00065 49.0007H49.0007V44.334H7.00065V49.0007ZM49.0007 49.0007C52.8666 49.0007 56.0007 45.8667 56.0007 42.0007H51.334C51.334 43.2893 50.2893 44.334 49.0007 44.334V49.0007ZM56.0007 42.0007L56.0007 35.0007L51.334 35.0007L51.334 42.0007L56.0007 42.0007ZM53.6673 32.6673C52.8134 32.6673 52.0197 32.4401 51.3357 32.0444L48.999 36.0839C50.3741 36.8794 51.9712 37.334 53.6673 37.334V32.6673Z" fill="#333333" mask="url(#path-1-inside-1_289_9835)"/>
<path d="M53.667 35C49.801 35 46.667 31.866 46.667 28C46.667 24.134 49.801 21 53.667 21" stroke="#333333" stroke-width="3.5"/>
<path d="M2.33301 35C6.199 35 9.33301 31.866 9.33301 28C9.33301 24.134 6.199 21 2.33301 21" stroke="#333333" stroke-width="3.5"/>
<line x1="39.083" y1="20.417" x2="39.083" y2="35.5837" stroke="#00C300" stroke-width="3.5" stroke-linecap="round"/>
</svg>
