<svg width="56" height="56" viewBox="0 0 56 56" fill="none" xmlns="http://www.w3.org/2000/svg">
<path fill-rule="evenodd" clip-rule="evenodd" d="M0 25.8401C0 11.5913 11.6889 0 26.0561 0C40.4233 0 52.1122 11.5913 52.1122 25.8401C52.1122 26.739 51.3828 27.4661 50.4861 27.4661C49.5872 27.4661 48.8578 26.739 48.8578 25.8401C48.8578 13.3869 38.63 3.25207 26.0561 3.25207C13.4822 3.25207 3.2544 13.3869 3.2544 25.8401C3.2544 38.2955 13.4822 48.4304 26.0561 48.4304C26.9551 48.4304 27.6821 49.1574 27.6821 50.0564C27.6821 50.9554 26.9551 51.6824 26.0561 51.6824C11.6889 51.6824 0 40.0888 0 25.8401ZM23.7594 23.9731L28.3843 23.9662C29.6526 23.9662 30.6794 22.9232 30.6794 21.6386C30.6794 20.354 29.6526 19.3087 28.389 19.3087H23.7594V23.9731ZM21.0788 14.642H27.9499C31.6039 14.642 35.1301 17.5968 35.3298 21.246C35.5505 25.2786 32.3495 28.6352 28.389 28.6352L23.7594 28.6422V33.3089V33.3112C23.7594 34.6005 22.7164 35.6458 21.4295 35.6458C20.1403 35.6458 19.0973 34.6005 19.0973 33.3112V16.6258C19.0973 15.5294 19.987 14.642 21.0788 14.642Z" fill="#333333"/>
<path fill-rule="evenodd" clip-rule="evenodd" d="M42.2606 35.3772C46.3303 35.3772 48.8809 36.2785 49.687 36.843C48.8786 37.4051 46.3303 38.3064 42.2606 38.3064C38.1932 38.3064 35.645 37.4051 34.8366 36.843C35.6426 36.2785 38.1909 35.3772 42.2606 35.3772ZM42.2603 41.5583C47.6726 41.5583 53.1361 40.0996 53.1361 36.8428C53.1361 33.5838 47.6726 32.125 42.2603 32.125C36.8479 32.125 31.3867 33.5838 31.3867 36.8428C31.3867 40.0996 36.8479 41.5583 42.2603 41.5583ZM51.5333 47.2091C50.6367 47.2091 49.9352 47.8246 49.9352 48.7213C49.61 49.2207 46.9433 50.4147 42.2603 50.4147C37.5773 50.4147 34.9129 49.2207 34.6411 48.9489C34.6411 48.05 33.9117 47.3229 33.0128 47.3229C32.1161 47.3229 31.3867 48.05 31.3867 48.9489C31.3867 52.208 36.8479 53.6668 42.2603 53.6668C47.6726 53.6668 53.1338 52.208 53.1338 48.9489C53.1338 48.05 52.4323 47.2091 51.5333 47.2091ZM49.8933 42.4795C49.9792 41.6619 50.6715 41.0254 51.51 41.0254C52.409 41.0254 53.1361 41.7525 53.1361 42.6514C53.1361 45.9128 47.6749 47.3693 42.2625 47.3693C36.8478 47.3693 31.389 45.9128 31.389 42.6514C31.389 41.7525 32.1161 41.0254 33.015 41.0254C33.8536 41.0254 34.5458 41.6619 34.6318 42.4795C35.1057 43.0068 37.7445 44.1172 42.2625 44.1172C46.7783 44.1172 49.4218 43.0068 49.8933 42.4795Z" fill="#FEBA02"/>
</svg>
