<svg width="33" height="32" viewBox="0 0 33 32" fill="none" xmlns="http://www.w3.org/2000/svg">
<g id="icon/spot/32X32/camera">
<path id="Combined Shape" fill-rule="evenodd" clip-rule="evenodd" d="M10.0488 18.6784C10.0488 21.8484 12.6268 24.4264 15.7968 24.4264C18.9668 24.4264 21.5448 21.8484 21.5448 18.6784C21.5448 15.5084 18.9668 12.9294 15.7968 12.9294C12.6268 12.9294 10.0488 15.5084 10.0488 18.6784ZM8.24805 18.6784C8.24805 14.5164 11.635 11.1294 15.797 11.1294C19.959 11.1294 23.346 14.5164 23.346 18.6784C23.346 22.8404 19.959 26.2274 15.797 26.2274C11.635 26.2274 8.24805 22.8404 8.24805 18.6784ZM11.1797 18.7947C11.1797 16.1507 13.3307 13.9997 15.9747 13.9997C16.4717 13.9997 16.8747 14.4027 16.8747 14.8997C16.8747 15.3967 16.4717 15.8007 15.9747 15.8007C14.3237 15.8007 12.9807 17.1437 12.9807 18.7947C12.9807 19.2917 12.5777 19.6947 12.0797 19.6947C11.5827 19.6947 11.1797 19.2917 11.1797 18.7947Z" fill="#3182F6"/>
<path id="Combined Shape_2" fill-rule="evenodd" clip-rule="evenodd" d="M27.6887 28.7687C28.8477 28.7687 29.7887 27.8267 29.7887 26.6687V10.2637C29.7887 9.10672 28.8477 8.16372 27.6887 8.16372H24.4667C24.4657 8.16372 24.4647 8.16347 24.4637 8.16322C24.4627 8.16297 24.4617 8.16272 24.4607 8.16272H7.37069C7.37013 8.16272 7.36957 8.1628 7.36901 8.16291C7.36757 8.1632 7.36613 8.16372 7.36469 8.16372H3.90369C2.74569 8.16372 1.80469 9.10672 1.80469 10.2637V26.6687C1.80469 27.8267 2.74569 28.7687 3.90369 28.7687H27.6887ZM10.1464 3.79968C9.65336 3.79968 9.21736 4.13168 9.08536 4.60768L8.56836 6.36268H23.2644L22.7514 4.62268C22.6154 4.13168 22.1794 3.79968 21.6854 3.79968H10.1464ZM25.1399 6.36363H27.6889C29.8399 6.36363 31.5899 8.11363 31.5899 10.2636V26.6686C31.5899 28.8186 29.8399 30.5686 27.6889 30.5686H3.90391C1.75391 30.5686 0.00390625 28.8186 0.00390625 26.6686V10.2636C0.00390625 8.11363 1.75391 6.36363 3.90391 6.36363H5.78791C5.78891 6.36363 5.78966 6.36338 5.79041 6.36313C5.79116 6.36288 5.79191 6.36263 5.79291 6.36263H6.69191L7.35391 4.11363C7.69591 2.87563 8.84591 1.99963 10.1459 1.99963H21.6849C22.9859 1.99963 24.1359 2.87563 24.4809 4.12863L25.1399 6.36363ZM23.2486 10.5104H26.7166C27.2136 10.5104 27.6166 10.9134 27.6166 11.4104C27.6166 11.9074 27.2136 12.3104 26.7166 12.3104H23.2486C22.7516 12.3104 22.3486 11.9074 22.3486 11.4104C22.3486 10.9134 22.7516 10.5104 23.2486 10.5104Z" fill="#111111"/>
</g>
</svg>
