<svg width="14" height="2" viewBox="0 0 14 2" fill="none" xmlns="http://www.w3.org/2000/svg">
<path fill-rule="evenodd" clip-rule="evenodd" d="M1 2C1.55228 2 2 1.55228 2 1C2 0.447715 1.55228 0 1 0C0.447715 0 0 0.447715 0 1C0 1.55228 0.447715 2 1 2ZM5 2C5.55228 2 6 1.55228 6 1C6 0.447715 5.55228 0 5 0C4.44772 0 4 0.447715 4 1C4 1.55228 4.44772 2 5 2ZM10 1C10 1.55228 9.55229 2 9 2C8.44771 2 8 1.55228 8 1C8 0.447715 8.44771 0 9 0C9.55229 0 10 0.447715 10 1ZM13 2C13.5523 2 14 1.55228 14 1C14 0.447715 13.5523 0 13 0C12.4477 0 12 0.447715 12 1C12 1.55228 12.4477 2 13 2Z" fill="#CCCCCC"/>
</svg>
