<svg width="32" height="32" viewBox="0 0 32 32" fill="none" xmlns="http://www.w3.org/2000/svg">
<path fill-rule="evenodd" clip-rule="evenodd" d="M19.3496 21.9545C19.3496 19.7414 21.1827 17.9411 23.4355 17.9411C25.6882 17.9411 27.5213 19.7414 27.5213 21.9545V27.1595H19.3496V21.9545ZM30.1007 27.1595H29.3195V21.9545C29.3195 19.0527 27.1537 16.6466 24.3345 16.2168V15.2522C24.3345 14.7554 23.932 14.3525 23.4355 14.3525C22.939 14.3525 22.5354 14.7554 22.5354 15.2522V16.2168C19.7172 16.6466 17.5504 19.0527 17.5504 21.9545V27.1595H16.7702C16.2737 27.1595 15.8711 27.5623 15.8711 28.0591C15.8711 28.5559 16.2737 28.9598 16.7702 28.9598H21.1498C21.3556 30.1193 22.3396 31 23.5304 31C24.7192 31 25.7032 30.1193 25.909 28.9598H30.1007C30.5972 28.9598 30.9998 28.5559 30.9998 28.0591C30.9998 27.5623 30.5972 27.1595 30.1007 27.1595Z" fill="#3182F6"/>
<path fill-rule="evenodd" clip-rule="evenodd" d="M2.79883 9.26239V6.23858C2.79883 5.08003 3.73888 4.1394 4.89671 4.1394H7.23135V5.57784C7.23135 6.07564 7.63494 6.47848 8.13144 6.47848C8.62794 6.47848 9.03053 6.07564 9.03053 5.57784V4.1394H21.2752V5.57784C21.2752 6.07564 21.6778 6.47848 22.1753 6.47848C22.6718 6.47848 23.0744 6.07564 23.0744 5.57784V4.1394H25.41C26.5668 4.1394 27.5069 5.08003 27.5069 6.23858V9.26239H2.79883ZM25.4103 2.33908H23.0747V0.900646C23.0747 0.403841 22.6721 0 22.1756 0C21.6781 0 21.2755 0.403841 21.2755 0.900646V2.33908H9.03089V0.900646C9.03089 0.403841 8.6283 0 8.1318 0C7.6353 0 7.23171 0.403841 7.23171 0.900646V2.33908H4.89706C2.74823 2.33908 1 4.08839 1 6.23854V25.1551C1 27.3053 2.74823 29.0546 4.89706 29.0546H12.3865C12.883 29.0546 13.2856 28.6507 13.2856 28.1539C13.2856 27.6571 12.883 27.2543 12.3865 27.2543H4.89706C3.73923 27.2543 2.79918 26.3136 2.79918 25.1551V11.0626H27.5072V13.9055C27.5072 14.4023 27.9108 14.8052 28.4073 14.8052C28.9038 14.8052 29.3064 14.4023 29.3064 13.9055V6.23854C29.3064 4.08839 27.5582 2.33908 25.4103 2.33908Z" fill="#111111"/>
</svg>
