<svg width="33" height="32" viewBox="0 0 33 32" fill="none" xmlns="http://www.w3.org/2000/svg">
<g id="icon/picto/20X20/megaphone">
<g id="icon/spot/32X32/card_gift">
<path id="Fill 1" fill-rule="evenodd" clip-rule="evenodd" d="M28.1131 2H4.89574C2.74979 2 1.00391 3.74556 1.00391 5.8901V23.3317C1.00391 25.4763 2.74979 27.2218 4.89574 27.2218H11.995C12.4909 27.2218 12.8929 26.8198 12.8929 26.3241C12.8929 25.8284 12.4909 25.4254 11.995 25.4254H4.89574C3.73946 25.4254 2.80068 24.4868 2.80068 23.3317V10.7258H26.0819C26.5777 10.7258 26.9797 10.3238 26.9797 9.82808C26.9797 9.33234 26.5777 8.92937 26.0819 8.92937H2.80068V5.8901C2.80068 4.73504 3.73946 3.79643 4.89574 3.79643H28.1131C29.2683 3.79643 30.2081 4.73504 30.2081 5.8901V12.9312C30.2081 13.4269 30.6102 13.8289 31.106 13.8289C31.6019 13.8289 32.0039 13.4269 32.0039 12.9312V5.8901C32.0039 3.74556 30.258 2 28.1131 2Z" fill="#111111"/>
<path id="Fill 4" fill-rule="evenodd" clip-rule="evenodd" d="M29.2064 28.606C29.2064 28.9362 28.938 29.2045 28.6078 29.2045H24.6202V20.5066H28.6078C28.938 20.5066 29.2064 20.774 29.2064 21.1041V28.606ZM18.2373 28.606V21.1041C18.2373 20.7739 18.5047 20.5066 18.8349 20.5066H22.8245V29.2045H18.8349C18.5047 29.2045 18.2373 28.9361 18.2373 28.606ZM28.6078 18.7102H28.1828L28.1878 16.9028C28.1878 16.439 27.9104 16.024 27.4814 15.8445C27.0554 15.667 26.5606 15.7607 26.2633 16.055L23.9019 18.1536C23.828 18.2185 23.7692 18.2943 23.7223 18.3761C23.6744 18.2943 23.6155 18.2185 23.5417 18.1536L21.2162 16.0869C20.885 15.7597 20.3931 15.664 19.9621 15.8445C19.5341 16.024 19.2558 16.439 19.2558 16.9058L19.2618 18.7102H18.8348C17.5149 18.7102 16.4404 19.7845 16.4404 21.1041V28.606C16.4404 29.9257 17.5149 30.9999 18.8348 30.9999H28.6078C29.9287 30.9999 31.0031 29.9257 31.0031 28.606V21.1041C31.0031 19.7845 29.9287 18.7102 28.6078 18.7102Z" fill="#3182F6"/>
</g>
</g>
</svg>
