<svg width="12" height="13" viewBox="0 0 12 13" fill="none" xmlns="http://www.w3.org/2000/svg">
<path d="M6 10.481C5.75147 10.481 5.55 10.6825 5.55 10.931C5.55 11.1796 5.75147 11.381 6 11.381V10.481ZM10.5 11.381C10.7485 11.381 10.95 11.1796 10.95 10.931C10.95 10.6825 10.7485 10.481 10.5 10.481V11.381ZM8.25 2.68102L7.9318 2.36282L8.25 2.68102ZM9 2.37036V1.92036V2.37036ZM10.0607 3.43102L9.61066 3.43102L10.0607 3.43102ZM9.75 4.18102L9.4318 3.86282L9.75 4.18102ZM3.5 10.431L3.60914 10.8676C3.68827 10.8478 3.76053 10.8069 3.8182 10.7492L3.5 10.431ZM1.5 10.931L1.06344 10.8219C1.0251 10.9752 1.07003 11.1374 1.1818 11.2492C1.29357 11.361 1.45579 11.4059 1.60914 11.3676L1.5 10.931ZM2 8.93102L1.6818 8.61282C1.62413 8.6705 1.58322 8.74276 1.56344 8.82188L2 8.93102ZM6 11.381H10.5V10.481H6V11.381ZM8.5682 2.99922C8.68272 2.8847 8.83804 2.82036 9 2.82036V1.92036C8.59935 1.92036 8.21511 2.07952 7.9318 2.36282L8.5682 2.99922ZM9 2.82036C9.08019 2.82036 9.1596 2.83616 9.23369 2.86685L9.5781 2.03535C9.39482 1.95944 9.19838 1.92036 9 1.92036V2.82036ZM9.23369 2.86685C9.30778 2.89753 9.3751 2.94251 9.4318 2.99922L10.0682 2.36282C9.92792 2.22255 9.76139 2.11127 9.5781 2.03535L9.23369 2.86685ZM9.4318 2.99922C9.48851 3.05592 9.53349 3.12324 9.56418 3.19733L10.3957 2.85292C10.3198 2.66963 10.2085 2.5031 10.0682 2.36282L9.4318 2.99922ZM9.56418 3.19733C9.59487 3.27142 9.61066 3.35083 9.61066 3.43102L10.5107 3.43102C10.5107 3.23264 10.4716 3.0362 10.3957 2.85292L9.56418 3.19733ZM9.61066 3.43102C9.61066 3.51121 9.59487 3.59062 9.56418 3.66471L10.3957 4.00913C10.4716 3.82584 10.5107 3.6294 10.5107 3.43102L9.61066 3.43102ZM9.56418 3.66471C9.53349 3.7388 9.48851 3.80612 9.4318 3.86282L10.0682 4.49922C10.2085 4.35894 10.3198 4.19241 10.3957 4.00913L9.56418 3.66471ZM9.4318 3.86282L3.1818 10.1128L3.8182 10.7492L10.0682 4.49922L9.4318 3.86282ZM3.39086 9.99446L1.39086 10.4945L1.60914 11.3676L3.60914 10.8676L3.39086 9.99446ZM1.93656 11.0402L2.43656 9.04016L1.56344 8.82188L1.06344 10.8219L1.93656 11.0402ZM2.3182 9.24922L8.5682 2.99922L7.9318 2.36282L1.6818 8.61282L2.3182 9.24922Z" fill="white"/>
</svg>
