<svg width="32" height="32" viewBox="0 0 32 32" fill="none" xmlns="http://www.w3.org/2000/svg">
<path fill-rule="evenodd" clip-rule="evenodd" d="M20.006 1.13971L25.7942 6.91404C26.5299 7.64891 26.9367 8.62609 26.9367 9.66409V12.9965C26.9367 13.492 26.5329 13.8939 26.0361 13.8939C25.5394 13.8939 25.1366 13.492 25.1366 12.9965V9.66409C25.1366 9.10471 24.9187 8.57923 24.5218 8.18337L18.7336 2.40904C18.6176 2.29338 18.4877 2.19865 18.3538 2.11489V8.81754H22.7597C23.2564 8.81754 23.6593 9.22038 23.6593 9.71595C23.6593 10.2115 23.2564 10.6134 22.7597 10.6134H17.4532C16.9564 10.6134 16.5536 10.2115 16.5536 9.71595V1.79581H4.89915C3.7417 1.79581 2.80015 2.7351 2.80015 3.88977V27.36C2.80015 28.5147 3.7417 29.453 4.89915 29.453H13.1522C13.649 29.453 14.0518 29.8558 14.0518 30.3514C14.0518 30.8469 13.649 31.2488 13.1522 31.2488H4.89915C2.74917 31.2488 1 29.5038 1 27.36V3.88977C1 1.74496 2.74917 0 4.89915 0H17.2493C17.2748 0 17.2995 0.00353761 17.3242 0.00708635C17.345 0.0100642 17.3658 0.0130498 17.3872 0.0139597C17.3978 0.0130463 17.4077 0.010041 17.4175 0.0070517C17.4292 0.00351462 17.4407 0 17.4532 0C17.5009 0 17.5438 0.0119217 17.5869 0.023893C17.6061 0.0292325 17.6254 0.0345819 17.6451 0.0388877C18.5347 0.128629 19.3643 0.499558 20.006 1.13971ZM6.6486 10.8732H11.2064C11.7032 10.8732 12.106 10.4714 12.106 9.9758C12.106 9.48023 11.7032 9.07739 11.2064 9.07739H6.6486C6.15183 9.07739 5.74902 9.48023 5.74902 9.9758C5.74902 10.4714 6.15183 10.8732 6.6486 10.8732ZM15.2275 13.3076H6.6486C6.15183 13.3076 5.74902 13.7095 5.74902 14.205C5.74902 14.7006 6.15183 15.1034 6.6486 15.1034H15.2275C15.7243 15.1034 16.1271 14.7006 16.1271 14.205C16.1271 13.7095 15.7243 13.3076 15.2275 13.3076Z" fill="#111111"/>
<path fill-rule="evenodd" clip-rule="evenodd" d="M21.5667 28.336C18.9367 28.336 16.7979 26.1964 16.7979 23.5676C16.7979 20.9377 18.9367 18.7981 21.5667 18.7981C24.1968 18.7981 26.3356 20.9377 26.3356 23.5676C26.3356 26.1964 24.1968 28.336 21.5667 28.336ZM29.7839 29.8287L27.0799 27.124C27.7439 26.0976 28.1343 24.8775 28.1343 23.5676C28.1343 19.9473 25.1878 17 21.5672 17C17.9466 17 15 19.9473 15 23.5676C15 27.1879 17.9466 30.1342 21.5672 30.1342C23.2277 30.1342 24.7424 29.5092 25.9007 28.4878L28.5128 31.1007C28.6885 31.2754 28.9182 31.3633 29.1488 31.3633C29.3785 31.3633 29.6091 31.2754 29.7839 31.1007C30.1353 30.7493 30.1353 30.1802 29.7839 29.8287Z" fill="#3182F6"/>
</svg>
