<svg width="32" height="32" viewBox="0 0 32 32" fill="none" xmlns="http://www.w3.org/2000/svg">
<path fill-rule="evenodd" clip-rule="evenodd" d="M15.295 22.7441C15.0653 22.7441 14.8345 22.6561 14.6587 22.4801L11.3868 19.2051C11.0351 18.8531 11.0351 18.2831 11.3868 17.9321C11.7375 17.5801 12.3079 17.5801 12.6586 17.9321L15.295 20.5711L20.3412 15.5191C20.6919 15.1681 21.2623 15.1681 21.613 15.5191C21.9646 15.8711 21.9646 16.4411 21.613 16.7931L15.9314 22.4801C15.7556 22.6561 15.5248 22.7441 15.295 22.7441Z" fill="#3182F6"/>
<path fill-rule="evenodd" clip-rule="evenodd" d="M26.7003 27.207C26.7003 28.307 25.8101 29.2 24.7172 29.2H7.28192C6.18897 29.2 5.29883 28.307 5.29883 27.207V4.79403C5.29883 3.69403 6.18897 2.80103 7.28192 2.80103H18.4482V10.429C18.4482 10.926 18.8518 11.329 19.3483 11.329H24.4494C24.946 11.329 25.3486 10.926 25.3486 10.429C25.3486 9.93202 24.946 9.52803 24.4494 9.52803H20.2475V3.13203C20.3564 3.20503 20.4593 3.28803 20.5542 3.38403L26.1188 8.96903C26.4885 9.34003 26.7003 9.85303 26.7003 10.379V27.207ZM27.3921 7.697L21.8284 2.113C21.206 1.487 20.3988 1.124 19.5326 1.037C19.4717 1.023 19.4137 1 19.3488 1C19.3258 1 19.3068 1.011 19.2838 1.013C19.2399 1.012 19.1969 1 19.152 1H7.28237C5.19737 1 3.5 2.702 3.5 4.794V27.207C3.5 29.299 5.19737 31.001 7.28237 31.001H24.7176C26.8036 31.001 28.5 29.299 28.5 27.207V10.379C28.5 9.381 28.0954 8.403 27.3921 7.697Z" fill="#111111"/>
</svg>
