<svg width="32" height="32" viewBox="0 0 32 32" fill="none" xmlns="http://www.w3.org/2000/svg">
<g id="icon/spot/32X32/mobile_message">
<path id="Combined Shape" fill-rule="evenodd" clip-rule="evenodd" d="M16.1933 32H5.67638C3.64948 32 2 30.3522 2 28.3252V3.67377C2 1.64776 3.64948 0 5.67638 0H18.9431C20.97 0 22.6195 1.64776 22.6195 3.67377V8.54817C22.6195 9.04419 22.2161 9.4464 21.7199 9.4464C21.2236 9.4464 20.8212 9.04419 20.8212 8.54817V3.67377C20.8212 2.6388 19.9785 1.79646 18.9431 1.79646H5.67638C4.64096 1.79646 3.79825 2.6388 3.79825 3.67377V28.3252C3.79825 29.3602 4.64096 30.2025 5.67638 30.2025H16.1933C16.6895 30.2025 17.0919 30.6057 17.0919 31.1018C17.0919 31.5978 16.6895 32 16.1933 32ZM13.5679 26.4737C13.5679 27.1654 13.0058 27.7273 12.3098 27.7273C11.6159 27.7283 11.0528 27.1664 11.0518 26.4747C11.0518 25.7831 11.6149 25.2212 12.3098 25.2212C13.0048 25.2202 13.5679 25.7821 13.5679 26.4737ZM10.3526 5.32791H14.2666C14.7629 5.32791 15.1653 4.9257 15.1653 4.42968C15.1653 3.93366 14.7629 3.53045 14.2666 3.53045H10.3526C9.85639 3.53045 9.45401 3.93366 9.45401 4.42968C9.45401 4.9257 9.85639 5.32791 10.3526 5.32791Z" fill="#111111"/>
<path id="Combined Shape_2" fill-rule="evenodd" clip-rule="evenodd" d="M15.5527 14.7237C15.5527 13.567 16.4933 12.6278 17.6495 12.6278H26.1056C27.2618 12.6278 28.2014 13.567 28.2014 14.7237V19.9723C28.2014 21.1291 27.2618 22.0682 26.1056 22.0682H24.4411C24.2784 22.0682 24.1186 22.1131 23.9789 22.197L21.1132 23.9156V22.9665C21.1132 22.4704 20.7099 22.0682 20.2136 22.0682H17.6495C16.4933 22.0682 15.5527 21.1291 15.5527 19.9723V14.7237ZM19.7717 26.284C19.9095 26.3619 20.0612 26.4008 20.214 26.4008C20.3747 26.4008 20.5345 26.3579 20.6763 26.272L24.6901 23.8658H26.106C28.2527 23.8658 30 22.1192 30 19.9724V14.7238C30 12.577 28.2527 10.8304 26.106 10.8304H17.6499C15.5032 10.8304 13.7559 12.577 13.7559 14.7238V19.9724C13.7559 22.1192 15.5032 23.8658 17.6499 23.8658H19.3154V25.5016C19.3154 25.8259 19.4901 26.1233 19.7717 26.284ZM18.4455 18.2209C18.9408 18.2209 19.3432 17.8237 19.3432 17.3336C19.3432 16.8446 18.9408 16.4474 18.4455 16.4474C17.9493 16.4474 17.5459 16.8446 17.5459 17.3336C17.5459 17.8237 17.9493 18.2209 18.4455 18.2209ZM21.8781 18.2209C22.3744 18.2209 22.7767 17.8237 22.7767 17.3336C22.7767 16.8446 22.3744 16.4474 21.8781 16.4474C21.3819 16.4474 20.9795 16.8446 20.9795 17.3336C20.9795 17.8237 21.3819 18.2209 21.8781 18.2209ZM26.2104 17.3336C26.2104 17.8237 25.808 18.2209 25.3117 18.2209C24.8155 18.2209 24.4121 17.8237 24.4121 17.3336C24.4121 16.8446 24.8155 16.4474 25.3117 16.4474C25.808 16.4474 26.2104 16.8446 26.2104 17.3336Z" fill="#3182F6"/>
</g>
</svg>
