<svg width="18" height="18" viewBox="0 0 18 18" fill="none" xmlns="http://www.w3.org/2000/svg">
<path fill-rule="evenodd" clip-rule="evenodd" d="M9.00078 14.94C5.72478 14.94 3.05988 12.276 3.05988 8.99999C3.05988 5.72489 5.72478 3.05999 9.00078 3.05999C12.2759 3.05999 14.9408 5.72489 14.9408 8.99999C14.9408 12.276 12.2759 14.94 9.00078 14.94ZM9.00078 1.79999C5.02368 1.79999 1.80078 5.02379 1.80078 8.99999C1.80078 12.9762 5.02368 16.2 9.00078 16.2C12.977 16.2 16.2008 12.9762 16.2008 8.99999C16.2008 5.02379 12.977 1.79999 9.00078 1.79999ZM9.00078 11.1743C8.50308 11.1743 8.10078 11.5775 8.10078 12.0743C8.10078 12.5711 8.50308 12.9743 9.00078 12.9743C9.49758 12.9743 9.90078 12.5711 9.90078 12.0743C9.90078 11.5775 9.49758 11.1743 9.00078 11.1743ZM7.49544 5.87078L7.56114 5.80418C8.37204 4.99058 9.69324 4.99058 10.5059 5.80238C11.3177 6.61418 11.3177 7.93448 10.5059 8.74628L9.51954 9.73358V9.95858C9.51954 10.306 9.23694 10.5886 8.88954 10.5886C8.54124 10.5886 8.25864 10.306 8.25864 9.95858V9.47258C8.25864 9.30518 8.32614 9.14498 8.44314 9.02708L9.61494 7.85528C9.77064 7.69958 9.85614 7.49348 9.85614 7.27478C9.85614 7.05518 9.77064 6.84908 9.61494 6.69338C9.29544 6.37298 8.77344 6.37298 8.45304 6.69338L8.38644 6.75998C8.22984 6.91658 8.14434 7.12268 8.14434 7.34228C8.14434 7.69058 7.86264 7.97228 7.51434 7.97228C7.16694 7.97228 6.88434 7.69058 6.88434 7.34228C6.88434 6.78608 7.10124 6.26318 7.49544 5.87078Z" fill="#F5F5F5"/>
</svg>
