<svg width="40" height="40" viewBox="0 0 40 40" fill="none" xmlns="http://www.w3.org/2000/svg">
<rect width="40" height="40" rx="20" fill="#EEEEEE"/>
<path d="M10 16C10 14.3431 11.3431 13 13 13C14.6569 13 16 14.3431 16 16C16 17.6569 14.6569 19 13 19C11.3431 19 10 17.6569 10 16Z" fill="#C4C4C4"/>
<rect x="24" y="13" width="6" height="6" rx="3" fill="#C4C4C4"/>
<path d="M30 25.5003C30 29.09 25.0426 33 20 33C14.9574 33 10 29.09 10 25.5003C10 21.9106 14.9574 23.0002 20 23.0002C25.0426 23.0002 30 21.9106 30 25.5003Z" fill="#C4C4C4"/>
</svg>
