<svg width="20" height="20" viewBox="0 0 20 20" fill="none" xmlns="http://www.w3.org/2000/svg">
<g id="&#236;&#149;&#132;&#236;&#157;&#180;&#236;&#189;&#152;/20x20/&#236;&#157;&#184;&#237;&#143;&#172;">
<path id="Combined Shape" fill-rule="evenodd" clip-rule="evenodd" d="M10.0004 16.5999C6.36039 16.5999 3.40039 13.6399 3.40039 9.9999C3.40039 6.3609 6.36039 3.3999 10.0004 3.3999C13.6404 3.3999 16.6004 6.3609 16.6004 9.9999C16.6004 13.6399 13.6404 16.5999 10.0004 16.5999ZM10 2C5.582 2 2 5.582 2 10C2 14.418 5.582 18 10 18C14.418 18 18 14.418 18 10C18 5.582 14.418 2 10 2ZM9.9998 8.70361C9.6128 8.70361 9.2998 9.01661 9.2998 9.40361V13.4416C9.2998 13.8286 9.6128 14.1416 9.9998 14.1416C10.3868 14.1416 10.6998 13.8286 10.6998 13.4416V9.40361C10.6998 9.01661 10.3868 8.70361 9.9998 8.70361ZM9 6.8588C9 6.3068 9.448 5.8588 10 5.8588C10.553 5.8588 11 6.3068 11 6.8588C11 7.4108 10.553 7.8588 10 7.8588C9.448 7.8588 9 7.4108 9 6.8588Z" fill="#111111"/>
</g>
</svg>
