<svg width="32" height="32" viewBox="0 0 32 32" fill="none" xmlns="http://www.w3.org/2000/svg">
<path fill-rule="evenodd" clip-rule="evenodd" d="M16.1933 32H5.67638C3.64948 32 2 30.3522 2 28.3252V3.67377C2 1.64776 3.64948 0 5.67638 0H18.9431C20.97 0 22.6195 1.64776 22.6195 3.67377V8.54817C22.6195 9.04419 22.2161 9.4464 21.7199 9.4464C21.2236 9.4464 20.8212 9.04419 20.8212 8.54817V3.67377C20.8212 2.6388 19.9785 1.79646 18.9431 1.79646H5.67638C4.64096 1.79646 3.79825 2.6388 3.79825 3.67377V28.3252C3.79825 29.3602 4.64096 30.2025 5.67638 30.2025H16.1933C16.6895 30.2025 17.0919 30.6057 17.0919 31.1018C17.0919 31.5978 16.6895 32 16.1933 32ZM13.5679 26.4737C13.5679 27.1654 13.0058 27.7273 12.3098 27.7273C11.6159 27.7283 11.0528 27.1664 11.0518 26.4747C11.0518 25.7831 11.6149 25.2212 12.3098 25.2212C13.0048 25.2202 13.5679 25.7821 13.5679 26.4737ZM10.3526 5.32791H14.2666C14.7629 5.32791 15.1653 4.9257 15.1653 4.42968C15.1653 3.93366 14.7629 3.53045 14.2666 3.53045H10.3526C9.85639 3.53045 9.45401 3.93366 9.45401 4.42968C9.45401 4.9257 9.85639 5.32791 10.3526 5.32791Z" fill="#111111"/>
<path fill-rule="evenodd" clip-rule="evenodd" d="M15.5508 14.7238C15.5508 13.5671 16.4913 12.6279 17.6476 12.6279H26.1037C27.2599 12.6279 28.1994 13.5671 28.1994 14.7238V19.9725C28.1994 21.1292 27.2599 22.0683 26.1037 22.0683H24.4392C24.2764 22.0683 24.1167 22.1133 23.9769 22.1971L21.1113 23.9157V22.9666C21.1113 22.4706 20.7079 22.0683 20.2117 22.0683H17.6476C16.4913 22.0683 15.5508 21.1292 15.5508 19.9725V14.7238ZM19.7697 26.2841C19.9075 26.362 20.0593 26.4009 20.212 26.4009C20.3728 26.4009 20.5325 26.358 20.6743 26.2722L24.6882 23.8659H26.104C28.2507 23.8659 29.9981 22.1193 29.9981 19.9726V14.7239C29.9981 12.5771 28.2507 10.8306 26.104 10.8306H17.648C15.5012 10.8306 13.7539 12.5771 13.7539 14.7239V19.9726C13.7539 22.1193 15.5012 23.8659 17.648 23.8659H19.3134V25.5017C19.3134 25.826 19.4881 26.1235 19.7697 26.2841ZM18.4436 18.221C18.9388 18.221 19.3412 17.8238 19.3412 17.3338C19.3412 16.8447 18.9388 16.4475 18.4436 16.4475C17.9473 16.4475 17.5439 16.8447 17.5439 17.3338C17.5439 17.8238 17.9473 18.221 18.4436 18.221ZM21.8762 18.221C22.3724 18.221 22.7748 17.8238 22.7748 17.3338C22.7748 16.8447 22.3724 16.4475 21.8762 16.4475C21.3799 16.4475 20.9775 16.8447 20.9775 17.3338C20.9775 17.8238 21.3799 18.221 21.8762 18.221ZM26.2084 17.3338C26.2084 17.8238 25.806 18.221 25.3098 18.221C24.8135 18.221 24.4102 17.8238 24.4102 17.3338C24.4102 16.8447 24.8135 16.4475 25.3098 16.4475C25.806 16.4475 26.2084 16.8447 26.2084 17.3338Z" fill="#3182F6"/>
</svg>
