<svg width="52" height="52" viewBox="0 0 52 52" fill="none" xmlns="http://www.w3.org/2000/svg">
<path fill-rule="evenodd" clip-rule="evenodd" d="M34.653 17.8027C34.9754 17.8027 35.2845 17.9308 35.5125 18.1587L41.8439 24.4902C42.0719 24.7181 42.2 25.0273 42.2 25.3497V34.9002C42.2 35.5715 41.6557 36.1157 40.9844 36.1157H12.4242C11.7529 36.1157 11.2087 35.5715 11.2087 34.9002V19.0182C11.2087 19.0088 11.2088 18.9994 11.209 18.9901V29.8772H32.9431V17.8027H34.653Z" fill="#277DF9"/>
<circle r="3.52173" transform="matrix(-1 0 0 1 19.1466 36.1164)" fill="#FEBA02"/>
<circle r="3.52173" transform="matrix(-1 0 0 1 34.4523 36.1164)" fill="#FEBA02"/>
<path d="M12.2146 31.8828H10.4075C10.0718 31.8828 9.7997 32.1549 9.7997 32.4905V33.6899C9.7997 34.0256 10.0718 34.2977 10.4075 34.2977H12.2146V31.8828Z" fill="#80AEFF"/>
<path fill-rule="evenodd" clip-rule="evenodd" d="M31.3325 15.3875C31.3325 14.7162 30.7883 14.1719 30.117 14.1719H12.0214C11.3501 14.1719 10.8058 14.7162 10.8058 15.3875V27.0914C10.8058 27.7627 11.3501 28.3069 12.0214 28.3069H30.117C30.7883 28.3069 31.3325 27.7627 31.3325 27.0914V15.3875Z" fill="#B6D4FF"/>
</svg>
