<svg width="20" height="20" viewBox="0 0 20 20" fill="none" xmlns="http://www.w3.org/2000/svg">
<g id="&#236;&#149;&#132;&#236;&#157;&#180;&#236;&#189;&#152;/20x20/&#236;&#130;&#173;&#236;&#160;&#156;">
<path id="Fill 1" fill-rule="evenodd" clip-rule="evenodd" d="M20 10C20 15.523 15.522 20 10 20C4.478 20 0 15.523 0 10C0 4.478 4.478 0 10 0C15.522 0 20 4.478 20 10Z" fill="#DCDCDC"/>
<path id="Fill 4" fill-rule="evenodd" clip-rule="evenodd" d="M10.9978 10.0006L13.7908 7.25055C14.0658 6.97855 14.0698 6.53555 13.7988 6.25955C13.5248 5.98355 13.0838 5.98155 12.8088 6.25255L9.99977 9.01855L7.19077 6.25255C6.91477 5.98055 6.47377 5.98355 6.20077 6.25955C5.92977 6.53555 5.93377 6.97855 6.20877 7.25055L9.00177 10.0006L6.20877 12.7506C5.93377 13.0216 5.92977 13.4656 6.20077 13.7406C6.33877 13.8796 6.51877 13.9496 6.69977 13.9496C6.87777 13.9496 7.05477 13.8826 7.19077 13.7486L9.99977 10.9826L12.8088 13.7486C12.9448 13.8826 13.1218 13.9496 13.2998 13.9496C13.4798 13.9496 13.6608 13.8796 13.7988 13.7406C14.0698 13.4656 14.0658 13.0216 13.7908 12.7506L10.9978 10.0006Z" fill="white"/>
</g>
</svg>
