<svg width="20" height="20" viewBox="0 0 20 20" fill="none" xmlns="http://www.w3.org/2000/svg">
<g id="&#236;&#149;&#132;&#236;&#157;&#180;&#236;&#189;&#152;/20x20/&#234;&#179;&#181;&#236;&#156;&#160;">
<path id="Fill 1" fill-rule="evenodd" clip-rule="evenodd" d="M14.1206 16.6485C13.3056 16.6485 12.6416 15.9875 12.6416 15.1745C12.6416 14.3615 13.3056 13.6995 14.1206 13.6995C14.9356 13.6995 15.5996 14.3615 15.5996 15.1745C15.5996 15.9875 14.9356 16.6485 14.1206 16.6485ZM4.88039 11.6936C4.06439 11.6936 3.40039 11.0326 3.40039 10.2196C3.40039 9.40661 4.06439 8.74561 4.88039 8.74561C5.69539 8.74561 6.35839 9.40661 6.35839 10.2196C6.35839 11.0326 5.69539 11.6936 4.88039 11.6936ZM14.1206 3.39941C14.9356 3.39941 15.5996 4.06141 15.5996 4.87441C15.5996 5.68741 14.9356 6.34841 14.1206 6.34841C13.3056 6.34841 12.6416 5.68741 12.6416 4.87441C12.6416 4.06141 13.3056 3.39941 14.1206 3.39941ZM14.121 12.2995C13.088 12.2995 12.187 12.8505 11.68 13.6695L7.499 11.3985C7.662 11.0375 7.759 10.6405 7.759 10.2195C7.759 9.73051 7.624 9.27751 7.408 8.87451L11.763 6.51451C12.284 7.25851 13.145 7.74951 14.121 7.74951C15.709 7.74951 17.001 6.45951 17.001 4.87451C17.001 3.28951 15.709 1.99951 14.121 1.99951C12.534 1.99951 11.242 3.28951 11.242 4.87451C11.242 4.98151 11.263 5.08351 11.274 5.18751L6.536 7.75351C6.505 7.77151 6.485 7.79851 6.457 7.81951C6.004 7.52151 5.463 7.34451 4.88 7.34451C3.292 7.34451 2 8.63451 2 10.2195C2 11.8045 3.292 13.0935 4.88 13.0935C5.529 13.0935 6.123 12.8695 6.605 12.5055L11.257 15.0335C11.254 15.0815 11.242 15.1265 11.242 15.1745C11.242 16.7595 12.534 18.0485 14.121 18.0485C15.709 18.0485 17.001 16.7595 17.001 15.1745C17.001 13.5895 15.709 12.2995 14.121 12.2995Z" fill="#111111"/>
</g>
</svg>
