<svg width="20" height="20" viewBox="0 0 20 20" fill="none" xmlns="http://www.w3.org/2000/svg">
<path fill-rule="evenodd" clip-rule="evenodd" d="M16.4323 18.6C16.5973 18.6 16.7323 18.466 16.7323 18.3V9.71797C16.7323 9.55197 16.5973 9.41797 16.4323 9.41797H3.58027C3.41527 9.41797 3.28027 9.55197 3.28027 9.71797V18.3C3.28027 18.466 3.41527 18.6 3.58027 18.6H16.4323ZM10.0051 1.3999C8.20812 1.3999 6.74512 2.9149 6.74512 4.7779V8.0179H13.2661V4.7779C13.2661 2.9149 11.8031 1.3999 10.0051 1.3999ZM14.6669 8.018H16.4319C17.3699 8.018 18.1319 8.78 18.1319 9.718V18.3C18.1319 19.237 17.3699 20 16.4319 20H3.57991C2.64191 20 1.87891 19.237 1.87891 18.3V9.718C1.87891 8.78 2.64191 8.018 3.57991 8.018H5.34391V4.778C5.34391 2.143 7.43491 0 10.0049 0C12.5759 0 14.6669 2.143 14.6669 4.778V8.018ZM9.30566 13.3125C9.30566 12.9255 9.61866 12.6125 10.0057 12.6125C10.3927 12.6125 10.7057 12.9255 10.7057 13.3125V15.5495C10.7057 15.9365 10.3927 16.2495 10.0057 16.2495C9.61866 16.2495 9.30566 15.9365 9.30566 15.5495V13.3125Z" fill="#C7C7C7"/>
</svg>
