<svg width="16" height="16" viewBox="0 0 16 16" fill="none" xmlns="http://www.w3.org/2000/svg">
<path fill-rule="evenodd" clip-rule="evenodd" d="M13.8396 7.39599C13.53 7.39599 13.2796 7.64399 13.2796 7.94879C13.2796 10.896 10.9108 13.2936 7.99961 13.2936C5.08921 13.2936 2.72041 10.896 2.72041 7.94879C2.72041 5.00159 5.08921 2.60399 7.99961 2.60399C9.09401 2.60399 10.1484 2.95119 11.0332 3.58239H9.45881C9.15001 3.58239 8.89881 3.83039 8.89881 4.13599C8.89881 4.44159 9.15001 4.68959 9.45881 4.68959H12.266C12.5756 4.68959 12.826 4.44159 12.826 4.13599V1.35359C12.826 1.04799 12.5756 0.799988 12.266 0.799988C11.9564 0.799988 11.706 1.04799 11.706 1.35359V2.69919C10.6268 1.92319 9.33961 1.49759 7.99961 1.49759C4.47081 1.49759 1.59961 4.39199 1.59961 7.94879C1.59961 11.5064 4.47081 14.4 7.99961 14.4C11.5284 14.4 14.3996 11.5064 14.3996 7.94879C14.3996 7.64399 14.1492 7.39599 13.8396 7.39599" fill="#3182F6"/>
</svg>
