<svg width="12" height="12" viewBox="0 0 12 12" fill="none" xmlns="http://www.w3.org/2000/svg">
<path fill-rule="evenodd" clip-rule="evenodd" d="M6.52703 0.633889C6.89696 0.263964 7.49672 0.263964 7.86665 0.63389L8.5279 1.29514L8.52707 1.29597C8.05145 1.77158 8.05145 2.54271 8.52707 3.01833C9.00268 3.49395 9.77381 3.49395 10.2494 3.01833L10.2503 3.0175L11.12 3.88725C11.4899 4.25717 11.4899 4.85694 11.12 5.22686L5.22784 11.119C4.85791 11.489 4.25815 11.489 3.88822 11.119L3.01369 10.2445C3.41507 9.766 3.39078 9.05158 2.94084 8.60163C2.49089 8.15168 1.77647 8.1274 1.29797 8.52878L0.634865 7.86567C0.26494 7.49575 0.264941 6.89598 0.634866 6.52606L6.52703 0.633889Z" fill="#277DF9"/>
<path d="M6.02249 3.42673L8.44685 5.8511" stroke="white" stroke-width="0.71044" stroke-linecap="round" stroke-linejoin="round"/>
</svg>
