<svg width="24" height="24" viewBox="0 0 24 24" fill="none" xmlns="http://www.w3.org/2000/svg">
<path d="M14.4273 13.9276C14.1776 14.1955 13.8765 14.4104 13.542 14.5595C13.2074 14.7086 12.8463 14.7887 12.4801 14.7952C12.1139 14.8016 11.7501 14.7343 11.4106 14.5971C11.071 14.4599 10.7625 14.2558 10.5035 13.9968C10.2445 13.7378 10.0404 13.4293 9.90319 13.0897C9.76602 12.7501 9.69866 12.3864 9.70512 12.0202C9.71158 11.654 9.79174 11.2929 9.9408 10.9583C10.0899 10.6238 10.3048 10.3227 10.5727 10.073M17.9 17.4003C16.346 18.5848 14.4537 19.2411 12.5 19.273C6.13636 19.273 2.5 12.0003 2.5 12.0003C3.63081 9.89292 5.19921 8.05175 7.1 6.60029L17.9 17.4003ZM10.5909 4.94574C11.2167 4.79927 11.8573 4.72605 12.5 4.72756C18.8636 4.72756 22.5 12.0003 22.5 12.0003C21.9482 13.0327 21.2901 14.0046 20.5364 14.9003L10.5909 4.94574Z" stroke="#666666" stroke-width="1.5" stroke-linecap="round" stroke-linejoin="round"/>
<path d="M2.5 2L22.5 22" stroke="#666666" stroke-width="1.5" stroke-linecap="round" stroke-linejoin="round"/>
</svg>
