<svg width="20" height="20" viewBox="0 0 20 20" fill="none" xmlns="http://www.w3.org/2000/svg">
<g id="&#236;&#149;&#132;&#236;&#157;&#180;&#236;&#189;&#152;/20x20/&#235;&#146;&#164;&#235;&#161;&#156;">
<path id="Fill 1" fill-rule="evenodd" clip-rule="evenodd" d="M7.358 15C7.165 15 6.979 14.928 6.837 14.798L2.243 10.542C2.086 10.4 2 10.214 2 10.016C2 9.813 2.084 9.624 2.231 9.486L6.837 5.203C6.978 5.072 7.164 5 7.359 5C7.567 5 7.759 5.08 7.902 5.225C8.041 5.364 8.114 5.546 8.11 5.739C8.106 5.932 8.025 6.113 7.88 6.247L4.607 9.29H17.248C17.663 9.29 18 9.615 18 10.016C18 10.415 17.663 10.74 17.248 10.74H4.629L7.879 13.752C8.023 13.886 8.105 14.066 8.11 14.259C8.114 14.452 8.041 14.635 7.903 14.774C7.759 14.92 7.566 15 7.358 15Z" fill="#111111"/>
</g>
</svg>
