<svg width="38" height="38" viewBox="0 0 38 38" fill="none" xmlns="http://www.w3.org/2000/svg">
<path d="M21.7995 3.78045C20.5836 3.51886 13.5817 1.73378 13.5817 1.73378C13.5817 1.73378 11.5039 1.24174 11.5039 2.91903V15.5689C11.5039 15.5689 11.6424 16.8615 13.1812 16.8615C14.208 16.8615 17.8502 15.889 20.1617 15.2413C20.4684 15.1554 20.7513 15.0755 21.0018 15.0039C21.6936 14.8064 22.1373 14.6759 22.1373 14.6759C22.1373 14.6759 22.9992 14.399 22.9992 13.368V9.08924C22.5675 9.17055 22.1605 9.24721 21.8534 9.30483V12.5962C21.8534 13.4502 21.2726 13.5589 21.2726 13.5589C21.2726 13.5589 21.1634 13.5822 20.9743 13.6221C20.7787 13.6635 20.4976 13.722 20.1612 13.7912C18.6001 14.1118 15.8644 14.6508 15.1229 14.6508C14.0682 14.6508 13.9729 13.7341 13.9729 13.7341V4.76498C13.9729 3.57601 15.397 3.92448 15.397 3.92448C15.397 3.92448 20.4335 4.86952 21.2722 5.02936C21.8831 5.14598 21.8529 5.75696 21.8529 5.75696V8.30867C22.1847 8.22783 22.5791 8.13026 22.9987 8.02525V5.58086C22.9987 5.58086 23.014 4.04203 21.7986 3.78045H21.7995Z" fill="#47C7F4"/>
<path d="M26.8458 7.05489C26.8458 7.05489 24.7151 7.59804 23.0025 8.02502C22.5829 8.12957 22.1884 8.22714 21.8567 8.30845C21.4748 8.40137 21.1755 8.47292 21.0162 8.50684C20.1538 8.69222 20.1645 9.78409 20.1645 9.78409V13.791C20.5005 13.7218 20.7815 13.6632 20.9776 13.6219V9.90861C20.9776 9.90861 20.9558 9.47512 21.3893 9.39241C21.4813 9.37476 21.6453 9.34363 21.8562 9.30413C22.1633 9.24606 22.5704 9.16986 23.002 9.08855C24.1868 8.86599 25.5565 8.60859 25.5565 8.60859C25.5565 8.60859 26.5666 8.36141 26.5666 9.20471V15.5673C26.5666 15.5673 26.4992 16.2173 25.7512 16.2173C25.0031 16.2173 21.3888 15.4427 21.3888 15.4427C21.3888 15.4427 21.0952 15.3861 21.0041 15.0032C20.7537 15.0748 20.4707 15.1547 20.1641 15.2406V15.3075C20.1641 16.0389 20.7755 16.2354 20.7755 16.2354C20.7755 16.2354 26.0374 17.7858 27.1292 17.7858C28.2211 17.7858 28.3191 16.8687 28.3191 16.8687V7.89586C28.3191 6.70642 26.8454 7.05489 26.8454 7.05489H26.8458Z" fill="#F8971F"/>
<path d="M4.3433 23.8828C2.58516 23.8828 1.16016 25.0569 1.16016 26.5056C1.16016 27.9543 2.58516 29.1284 4.3433 29.1284C6.10143 29.1284 7.52644 27.9538 7.52644 26.5056C7.52644 25.0574 6.10143 23.8828 4.3433 23.8828ZM4.3433 28.339C3.5697 28.339 2.94292 27.518 2.94292 26.5056C2.94292 25.4932 3.57016 24.6722 4.3433 24.6722C5.11643 24.6722 5.74367 25.4932 5.74367 26.5056C5.74367 27.518 5.11643 28.339 4.3433 28.339Z" fill="#263B80"/>
<path d="M16.3628 23.8828C14.6047 23.8828 13.1797 25.0569 13.1797 26.5056C13.1797 27.9543 14.6047 29.1284 16.3628 29.1284C18.121 29.1284 19.546 27.9538 19.546 26.5056C19.546 25.0574 18.121 23.8828 16.3628 23.8828ZM16.3628 28.339C15.5892 28.339 14.9624 27.518 14.9624 26.5056C14.9624 25.4932 15.5897 24.6722 16.3628 24.6722C17.136 24.6722 17.7632 25.4932 17.7632 26.5056C17.7632 27.518 17.136 28.339 16.3628 28.339Z" fill="#263B80"/>
<path d="M8.97656 23.3994V32.3123H10.7082V27.1173H12.3381V26.1495H10.6576V23.3994H8.97656Z" fill="#263B80"/>
<path d="M19.3438 26.0478C19.3438 26.0478 20.719 23.6029 22.374 23.043C24.0295 22.4827 23.8511 24.1382 23.8511 24.1382L21.6864 29.9185C21.6864 29.9185 21.6102 32.3634 25.0986 28.4159C25.0986 28.4159 23.4687 31.4462 21.5846 31.4462C19.7006 31.4462 19.7001 30.7841 19.8785 30.0458C20.0569 29.3076 22.0432 24.4434 22.0432 24.4434C22.0432 24.4434 22.374 22.5333 19.3438 26.0478Z" fill="#263B80"/>
<path d="M34.038 23.4248V27.5758H31.8733V24.749H32.79V23.8323H25.2013L25.1758 24.7745H26.6017V27.7286H25.2264V28.6453H30.7522C32.0764 28.6453 34.0626 28.0343 34.0626 28.0343V29.6642H35.9727V23.4248H34.0376H34.038ZM29.8109 27.7537H28.423V24.749H29.8109V27.7537Z" fill="#263B80"/>
<path d="M28.9957 31.3188V30.1475H27.1367V32.3372H28.69H28.9957H35.9985V31.3188H28.9957Z" fill="#263B80"/>
</svg>
