<svg width="13" height="13" viewBox="0 0 13 13" fill="none" xmlns="http://www.w3.org/2000/svg">
<path d="M10.7767 1.79303C10.2238 1.2344 9.56617 0.791112 8.84174 0.488737C8.11731 0.186363 7.3404 0.0308794 6.55581 0.0312507C3.2538 0.0312507 0.586792 2.71516 0.586792 6.02881C0.586792 9.34246 3.2538 12.0264 6.55581 12.0264C9.34235 12.0264 11.6657 10.1146 12.3306 7.5282H10.7767C10.469 8.40498 9.89767 9.16432 9.14164 9.70144C8.38562 10.2386 7.48212 10.527 6.55581 10.527C4.08304 10.527 2.07344 8.5103 2.07344 6.02881C2.07344 3.54732 4.08304 1.53064 6.55581 1.53064C7.79593 1.53064 8.90158 2.04793 9.7084 2.8651L7.30287 5.27911H12.5323V0.0312507L10.7767 1.79303Z" fill="#212121"/>
</svg>
