<svg width="32" height="32" viewBox="0 0 32 32" fill="none" xmlns="http://www.w3.org/2000/svg">
<path fill-rule="evenodd" clip-rule="evenodd" d="M5.5 1.75C3.42893 1.75 1.75 3.42894 1.75 5.5V12.1667C1.75 14.2377 3.42893 15.9167 5.5 15.9167H6.83333C7.24755 15.9167 7.58333 15.5809 7.58333 15.1667C7.58333 14.7525 7.24755 14.4167 6.83333 14.4167H5.5C4.25736 14.4167 3.25 13.4093 3.25 12.1667V5.5C3.25 4.25736 4.25736 3.25 5.5 3.25H6.6665H7.74982V26.8333C7.74982 28.9044 9.42876 30.5833 11.4998 30.5833H26.8332C28.9042 30.5833 30.5832 28.9044 30.5832 26.8333V5.5C30.5832 3.42893 28.9042 1.75 26.8332 1.75H8.5H8.49982H6.6665H5.5ZM9.24982 26.8333V3.25H26.8332C28.0758 3.25 29.0832 4.25736 29.0832 5.5V26.8333C29.0832 28.076 28.0758 29.0833 26.8332 29.0833H11.4998C10.2572 29.0833 9.24982 28.076 9.24982 26.8333Z" fill="black"/>
<path d="M12.6665 11.3333H17.3332M12.6665 18H25.3332M12.6665 22H25.3332" stroke="#3182F6" stroke-width="1.5" stroke-linecap="round"/>
</svg>
