<svg width="32" height="32" viewBox="0 0 32 32" fill="none" xmlns="http://www.w3.org/2000/svg">
<path d="M27.3744 8.70711C27.7649 8.31658 27.7649 7.68342 27.3744 7.29289C26.9839 6.90237 26.3507 6.90237 25.9602 7.29289L27.3744 8.70711ZM12.0007 22.6667L11.2935 23.3738C11.6841 23.7643 12.3172 23.7643 12.7078 23.3738L12.0007 22.6667ZM6.04109 15.2929C5.65057 14.9024 5.0174 14.9024 4.62688 15.2929C4.23635 15.6834 4.23635 16.3166 4.62688 16.7071L6.04109 15.2929ZM25.9602 7.29289L11.2935 21.9596L12.7078 23.3738L27.3744 8.70711L25.9602 7.29289ZM12.7078 21.9596L6.04109 15.2929L4.62688 16.7071L11.2935 23.3738L12.7078 21.9596Z" fill="#C7C7C7"/>
</svg>
