<svg width="20" height="20" viewBox="0 0 20 20" fill="none" xmlns="http://www.w3.org/2000/svg">
<g id="&#236;&#149;&#132;&#236;&#157;&#180;&#236;&#189;&#152;/20x20/&#234;&#178;&#189;&#234;&#179;&#160;">
<path id="Combined Shape" fill-rule="evenodd" clip-rule="evenodd" d="M16.8893 16.0959C16.9893 16.0959 17.0443 16.0389 17.0713 15.9909C17.0943 15.9499 17.1263 15.8679 17.0713 15.7729L10.1833 3.9059C10.0763 3.7219 9.92725 3.7219 9.82025 3.9059L2.93225 15.7739C2.87825 15.8679 2.90925 15.9499 2.93225 15.9909C2.96025 16.0389 3.01425 16.0959 3.11425 16.0959H16.8893ZM11.3943 3.2019L18.2823 15.0709C18.5763 15.5769 18.5773 16.1819 18.2853 16.6899C17.9943 17.1949 17.4713 17.4969 16.8893 17.4969H3.11425C2.53225 17.4969 2.00925 17.1949 1.71825 16.6899C1.42625 16.1819 1.42725 15.5769 1.72125 15.0709L8.60925 3.2019C8.90125 2.6999 9.42225 2.3999 10.0023 2.3999C10.5823 2.3999 11.1023 2.6999 11.3943 3.2019ZM10.0018 12.2951C10.3888 12.2951 10.7018 11.9821 10.7018 11.5951V7.38311C10.7018 6.99611 10.3888 6.68311 10.0018 6.68311C9.61476 6.68311 9.30176 6.99611 9.30176 7.38311V11.5951C9.30176 11.9821 9.61476 12.2951 10.0018 12.2951ZM10.002 13.1242C9.44895 13.1242 9.00195 13.5722 9.00195 14.1242C9.00195 14.6762 9.44895 15.1242 10.002 15.1242C10.555 15.1242 11.002 14.6762 11.002 14.1242C11.002 13.5722 10.555 13.1242 10.002 13.1242Z" fill="#111111"/>
</g>
</svg>
