<svg width="20" height="20" viewBox="0 0 20 20" fill="none" xmlns="http://www.w3.org/2000/svg">
<g id="&#236;&#149;&#132;&#236;&#157;&#180;&#236;&#189;&#152;/20x20/&#235;&#139;&#171;&#234;&#184;&#176;">
<path id="Fill 1" fill-rule="evenodd" clip-rule="evenodd" d="M11.1825 10.0003L17.7555 3.42741C18.0815 3.10145 18.0815 2.57132 17.7555 2.24536C17.4284 1.91821 16.8994 1.91821 16.5735 2.24536L10.0004 8.81825L3.42744 2.24536C3.10028 1.91821 2.57133 1.91821 2.24537 2.24536C1.91821 2.57132 1.91821 3.10145 2.24537 3.42741L8.81838 10.0003L2.24537 16.5732C1.91821 16.8991 1.91821 17.4293 2.24537 17.7552C2.40775 17.9188 2.62267 18 2.8364 18C3.04894 18 3.26386 17.9188 3.42744 17.7552L10.0004 11.1823L16.5735 17.7552C16.7358 17.9188 16.9508 18 17.1645 18C17.377 18 17.5919 17.9188 17.7555 17.7552C18.0815 17.4293 18.0815 16.8991 17.7555 16.5732L11.1825 10.0003Z" fill="#111111"/>
</g>
</svg>
