<svg width="16" height="16" viewBox="0 0 16 16" fill="none" xmlns="http://www.w3.org/2000/svg">
<path d="M8 12.5835C7.58579 12.5835 7.25 12.9193 7.25 13.3335C7.25 13.7477 7.58579 14.0835 8 14.0835V12.5835ZM14 14.0835C14.4142 14.0835 14.75 13.7477 14.75 13.3335C14.75 12.9193 14.4142 12.5835 14 12.5835V14.0835ZM11 2.33349L10.4697 1.80316L11 2.33349ZM12 1.91928V1.16928V1.91928ZM13.4142 3.33349H12.6642H13.4142ZM13 4.33349L12.4697 3.80316L13 4.33349ZM4.66667 12.6668L4.84857 13.3944C4.98044 13.3615 5.10088 13.2933 5.197 13.1972L4.66667 12.6668ZM2 13.3335L1.27239 13.1516C1.2085 13.4072 1.28338 13.6775 1.46967 13.8638C1.65596 14.0501 1.92632 14.125 2.1819 14.0611L2 13.3335ZM2.66667 10.6668L2.13634 10.1365C2.04022 10.2326 1.97203 10.3531 1.93906 10.4849L2.66667 10.6668ZM8 14.0835H14V12.5835H8V14.0835ZM11.5303 2.86382C11.6549 2.73926 11.8238 2.66928 12 2.66928V1.16928C11.426 1.16928 10.8755 1.3973 10.4697 1.80316L11.5303 2.86382ZM12 2.66928C12.0872 2.66928 12.1736 2.68646 12.2542 2.71984L12.8282 1.33402C12.5656 1.22526 12.2842 1.16928 12 1.16928V2.66928ZM12.2542 2.71984C12.3348 2.75322 12.408 2.80215 12.4697 2.86382L13.5303 1.80316C13.3294 1.6022 13.0908 1.44278 12.8282 1.33402L12.2542 2.71984ZM12.4697 2.86382C12.5313 2.9255 12.5803 2.99873 12.6137 3.07931L13.9995 2.50529C13.8907 2.24271 13.7313 2.00413 13.5303 1.80316L12.4697 2.86382ZM12.6137 3.07931C12.647 3.1599 12.6642 3.24627 12.6642 3.33349H14.1642C14.1642 3.04929 14.1082 2.76786 13.9995 2.50529L12.6137 3.07931ZM12.6642 3.33349C12.6642 3.42072 12.647 3.50709 12.6137 3.58768L13.9995 4.1617C14.1082 3.89913 14.1642 3.6177 14.1642 3.33349H12.6642ZM12.6137 3.58768C12.5803 3.66826 12.5313 3.74149 12.4697 3.80316L13.5303 4.86382C13.7313 4.66286 13.8907 4.42428 13.9995 4.1617L12.6137 3.58768ZM12.4697 3.80316L4.13634 12.1365L5.197 13.1972L13.5303 4.86382L12.4697 3.80316ZM4.48477 11.9392L1.8181 12.6059L2.1819 14.0611L4.84857 13.3944L4.48477 11.9392ZM2.72761 13.5154L3.39427 10.8487L1.93906 10.4849L1.27239 13.1516L2.72761 13.5154ZM3.197 11.1972L11.5303 2.86382L10.4697 1.80316L2.13634 10.1365L3.197 11.1972Z" fill="#333333"/>
</svg>
