<svg width="16" height="16" viewBox="0 0 16 16" fill="none" xmlns="http://www.w3.org/2000/svg">
<g clip-path="url(#clip0_80_738)">
<path d="M8 0C3.58157 0 0 3.0816 0 6.8851C0 9.35992 1.51662 11.5289 3.79456 12.7424C3.62689 13.4216 3.18882 15.2058 3.10121 15.5873C2.99245 16.0608 3.25982 16.0543 3.43656 15.9276C3.57402 15.8273 5.6284 14.3063 6.51511 13.6502C6.99698 13.7274 7.49245 13.7686 8 13.7686C12.4184 13.7686 16 10.6869 16 6.8851C16 3.08325 12.4184 0 8 0Z" fill="#371C1D"/>
<path d="M2.41838 5.61728H3.24165C3.24165 5.61728 3.24618 8.07895 3.24165 8.65284C3.24165 9.07217 4.09814 9.0771 4.09663 8.65942L4.09965 5.65017C4.09965 5.65017 4.37609 5.65182 4.91838 5.65182C5.43047 5.65182 5.43047 4.77535 4.91838 4.77535C4.34134 4.77535 2.41385 4.75726 2.41385 4.75726C1.93047 4.75726 1.93198 5.61728 2.41385 5.61728" fill="#F9E000"/>
<path d="M6.35941 5.77677L6.81712 7.33895H5.86243L6.35941 5.77677ZM5.84582 5.04501C5.6434 5.53011 4.91077 7.82404 4.66908 8.43247C4.49385 8.87152 5.25065 9.23 5.42588 8.79095L5.59053 8.16443H7.09657C7.09657 8.16443 7.04521 8.19074 7.24461 8.76464C7.40624 9.23 8.18872 8.9077 8.02709 8.44234C7.79597 7.778 6.99536 5.38376 6.84884 5.04501C6.78237 4.88879 6.54068 4.77533 6.30654 4.77533C6.11319 4.77533 5.92437 4.85262 5.84431 5.04501" fill="#F9E000"/>
<path d="M8.31715 5.18807C8.31715 5.96752 8.32168 8.48016 8.32168 8.48016C8.32168 8.48016 8.25521 8.98006 8.64947 8.98006C9.04373 8.98006 9.91533 8.97512 10.302 8.97512C10.6887 8.97512 10.6872 8.07893 10.3005 8.07893C9.91382 8.07893 9.20687 8.07399 9.20687 8.07399C9.20687 8.07399 9.20989 5.75046 9.20838 5.18478C9.20838 4.91181 8.98482 4.77533 8.76276 4.77533C8.54071 4.77533 8.31564 4.91346 8.31715 5.18643" fill="#F9E000"/>
<path d="M10.7915 5.0631C10.8005 5.40514 10.7809 8.4966 10.7809 8.72518C10.7809 9.08694 11.6268 9.0853 11.6268 8.72518C11.6268 8.30585 11.6268 7.50832 11.6268 7.50832L11.8745 7.29126L12.9606 8.90277C13.1797 9.21849 13.87 8.64789 13.651 8.33381L12.4984 6.68119C12.4984 6.68119 13.2809 5.76033 13.589 5.42651C13.7688 5.23248 13.2114 4.62076 13.0316 4.81644C12.8579 5.0039 11.6313 6.3408 11.6313 6.3408C11.6313 6.3408 11.6419 5.50216 11.6313 5.03844C11.6268 4.86249 11.4289 4.77698 11.225 4.77698C11.0075 4.77698 10.7854 4.874 10.7899 5.0631" fill="#F9E000"/>
</g>
<defs>
<clipPath id="clip0_80_738">
<rect width="16" height="16" fill="white"/>
</clipPath>
</defs>
</svg>
