<svg width="24" height="24" viewBox="0 0 24 24" fill="none" xmlns="http://www.w3.org/2000/svg">
<path d="M12 19.3713C11.5858 19.3713 11.25 19.7071 11.25 20.1213C11.25 20.5356 11.5858 20.8713 12 20.8713V19.3713ZM21 20.8713C21.4142 20.8713 21.75 20.5356 21.75 20.1213C21.75 19.7071 21.4142 19.3713 21 19.3713V20.8713ZM16.5 3.62132L15.9697 3.09099L16.5 3.62132ZM18 3V2.25V3ZM20.1213 5.12132H19.3713H20.1213ZM19.5 6.62132L18.9697 6.09099L19.5 6.62132ZM7 19.1213L7.1819 19.8489C7.31378 19.816 7.43421 19.7478 7.53033 19.6517L7 19.1213ZM3 20.1213L2.27239 19.9394C2.2085 20.195 2.28338 20.4654 2.46967 20.6517C2.65596 20.8379 2.92632 20.9128 3.1819 20.8489L3 20.1213ZM4 16.1213L3.46967 15.591C3.37355 15.6871 3.30536 15.8075 3.27239 15.9394L4 16.1213ZM12 20.8713H21V19.3713H12V20.8713ZM17.0303 4.15165C17.2875 3.89448 17.6363 3.75 18 3.75V2.25C17.2385 2.25 16.5081 2.55251 15.9697 3.09099L17.0303 4.15165ZM18 3.75C18.1801 3.75 18.3584 3.78547 18.5248 3.85439L19.0988 2.46857C18.7504 2.32427 18.3771 2.25 18 2.25V3.75ZM18.5248 3.85439C18.6912 3.9233 18.8423 4.02431 18.9697 4.15165L20.0303 3.09099C19.7637 2.82436 19.4472 2.61286 19.0988 2.46857L18.5248 3.85439ZM18.9697 4.15165C19.097 4.27899 19.198 4.43016 19.2669 4.59654L20.6528 4.02251C20.5085 3.67415 20.297 3.35762 20.0303 3.09099L18.9697 4.15165ZM19.2669 4.59654C19.3358 4.76292 19.3713 4.94124 19.3713 5.12132H20.8713C20.8713 4.74425 20.7971 4.37088 20.6528 4.02251L19.2669 4.59654ZM19.3713 5.12132C19.3713 5.3014 19.3358 5.47973 19.2669 5.6461L20.6528 6.22013C20.7971 5.87176 20.8713 5.49839 20.8713 5.12132H19.3713ZM19.2669 5.6461C19.198 5.81248 19.097 5.96365 18.9697 6.09099L20.0303 7.15165C20.297 6.88502 20.5085 6.56849 20.6528 6.22013L19.2669 5.6461ZM18.9697 6.09099L6.46967 18.591L7.53033 19.6517L20.0303 7.15165L18.9697 6.09099ZM6.8181 18.3937L2.8181 19.3937L3.1819 20.8489L7.1819 19.8489L6.8181 18.3937ZM3.72761 20.3032L4.72761 16.3032L3.27239 15.9394L2.27239 19.9394L3.72761 20.3032ZM4.53033 16.6517L17.0303 4.15165L15.9697 3.09099L3.46967 15.591L4.53033 16.6517Z" fill="black"/>
</svg>
