<svg width="52" height="52" viewBox="0 0 52 52" fill="none" xmlns="http://www.w3.org/2000/svg">
<mask id="mask0_4211_4494" style="mask-type:alpha" maskUnits="userSpaceOnUse" x="6" y="6" width="40" height="40">
<rect x="6" y="6" width="40" height="40" fill="white"/>
</mask>
<g mask="url(#mask0_4211_4494)">
<rect x="11.2758" y="14.2678" width="27.5917" height="27.7332" rx="1.59999" fill="#3182F6"/>
<rect x="13.3984" y="10" width="4.24488" height="7.46663" rx="1.06666" fill="#80AEFF"/>
<rect x="22.9486" y="10" width="4.24488" height="7.46663" rx="1.06666" fill="#80AEFF"/>
<rect x="32.5" y="10" width="4.24488" height="7.46663" rx="1.06666" fill="#80AEFF"/>
<rect x="13.3984" y="20.6696" width="4.24488" height="4.26665" rx="1.06666" fill="#B6D4FF"/>
<rect x="13.3984" y="27.0624" width="4.24488" height="4.26665" rx="1.06666" fill="#B6D4FF"/>
<rect x="19.7656" y="20.6696" width="4.24488" height="4.26665" rx="1.06666" fill="#B6D4FF"/>
<rect x="19.7656" y="27.0624" width="4.24488" height="4.26665" rx="1.06666" fill="#B6D4FF"/>
<rect x="26.1328" y="20.6696" width="4.24488" height="4.26665" rx="1.06666" fill="#B6D4FF"/>
<rect x="26.1328" y="27.0624" width="4.24488" height="4.26665" rx="1.06666" fill="#FEBA02"/>
<rect x="32.5" y="20.6696" width="4.24488" height="4.26665" rx="1.06666" fill="#B6D4FF"/>
<rect x="32.5" y="27.0624" width="4.24488" height="4.26665" rx="1.06666" fill="#B6D4FF"/>
<rect x="13.3984" y="33.4642" width="4.24488" height="4.26665" rx="1.06666" fill="#B6D4FF"/>
<rect x="19.7656" y="33.4642" width="4.24488" height="4.26665" rx="1.06666" fill="#B6D4FF"/>
<rect x="26.1328" y="33.4642" width="4.24488" height="4.26665" rx="1.06666" fill="#B6D4FF"/>
<rect x="32.5" y="33.4642" width="4.24488" height="4.26665" rx="1.06666" fill="#B6D4FF"/>
</g>
</svg>
