<svg width="24" height="24" viewBox="0 0 24 24" fill="none" xmlns="http://www.w3.org/2000/svg">
<path d="M7 17V16.25C6.80109 16.25 6.61032 16.329 6.46967 16.4697L7 17ZM3 21H2.25C2.25 21.3033 2.43273 21.5768 2.71299 21.6929C2.99324 21.809 3.31583 21.7448 3.53033 21.5303L3 21ZM5 3V2.25V3ZM19 3V2.25V3ZM20.25 15C20.25 15.3315 20.1183 15.6495 19.8839 15.8839L20.9445 16.9445C21.4603 16.4288 21.75 15.7293 21.75 15H20.25ZM19.8839 15.8839C19.6495 16.1183 19.3315 16.25 19 16.25V17.75C19.7293 17.75 20.4288 17.4603 20.9445 16.9445L19.8839 15.8839ZM19 16.25H7V17.75H19V16.25ZM6.46967 16.4697L2.46967 20.4697L3.53033 21.5303L7.53033 17.5303L6.46967 16.4697ZM3.75 21V5H2.25V21H3.75ZM3.75 5C3.75 4.66848 3.8817 4.35054 4.11612 4.11612L3.05546 3.05546C2.53973 3.57118 2.25 4.27065 2.25 5H3.75ZM4.11612 4.11612C4.35054 3.8817 4.66848 3.75 5 3.75V2.25C4.27065 2.25 3.57118 2.53973 3.05546 3.05546L4.11612 4.11612ZM5 3.75H19V2.25H5V3.75ZM19 3.75C19.3315 3.75 19.6495 3.8817 19.8839 4.11612L20.9445 3.05546C20.4288 2.53973 19.7293 2.25 19 2.25V3.75ZM19.8839 4.11612C20.1183 4.35054 20.25 4.66848 20.25 5H21.75C21.75 4.27065 21.4603 3.57118 20.9445 3.05546L19.8839 4.11612ZM20.25 5V15H21.75V5H20.25Z" fill="black"/>
</svg>
