<svg width="20" height="20" viewBox="0 0 20 20" fill="none" xmlns="http://www.w3.org/2000/svg">
<path d="M5.23333 9.16663C5.23333 9.498 5.50196 9.76663 5.83333 9.76663C6.1647 9.76663 6.43333 9.498 6.43333 9.16663H5.23333ZM5.83333 5.83329H5.23333H5.83333ZM10 1.66663V1.06663V1.66663ZM13.5667 9.16663C13.5667 9.498 13.8353 9.76663 14.1667 9.76663C14.498 9.76663 14.7667 9.498 14.7667 9.16663H13.5667ZM4.16667 9.76663H15.8333V8.56663H4.16667V9.76663ZM15.8333 9.76663C16.4224 9.76663 16.9 10.2442 16.9 10.8333H18.1C18.1 9.58145 17.0852 8.56663 15.8333 8.56663V9.76663ZM16.9 10.8333V16.6666H18.1V10.8333H16.9ZM16.9 16.6666C16.9 17.2557 16.4224 17.7333 15.8333 17.7333V18.9333C17.0852 18.9333 18.1 17.9185 18.1 16.6666H16.9ZM15.8333 17.7333H4.16667V18.9333H15.8333V17.7333ZM4.16667 17.7333C3.57756 17.7333 3.1 17.2557 3.1 16.6666H1.9C1.9 17.9185 2.91482 18.9333 4.16667 18.9333V17.7333ZM3.1 16.6666V10.8333H1.9V16.6666H3.1ZM3.1 10.8333C3.1 10.2442 3.57756 9.76663 4.16667 9.76663V8.56663C2.91482 8.56663 1.9 9.58145 1.9 10.8333H3.1ZM6.43333 9.16663V5.83329H5.23333V9.16663H6.43333ZM6.43333 5.83329C6.43333 4.88735 6.80911 3.98016 7.47799 3.31128L6.62946 2.46275C5.73553 3.35667 5.23333 4.56909 5.23333 5.83329L6.43333 5.83329ZM7.47799 3.31128C8.14687 2.6424 9.05406 2.26663 10 2.26663V1.06663C8.7358 1.06663 7.52338 1.56883 6.62946 2.46275L7.47799 3.31128ZM10 2.26663C10.9459 2.26663 11.8531 2.6424 12.522 3.31128L13.3705 2.46275C12.4766 1.56883 11.2642 1.06663 10 1.06663V2.26663ZM12.522 3.31128C13.1909 3.98016 13.5667 4.88735 13.5667 5.83329H14.7667C14.7667 4.56909 14.2645 3.35667 13.3705 2.46275L12.522 3.31128ZM13.5667 5.83329V9.16663H14.7667V5.83329H13.5667Z" fill="black"/>
</svg>
