<svg width="32" height="32" viewBox="0 0 32 32" fill="none" xmlns="http://www.w3.org/2000/svg">
<path d="M27.3923 14.129H23.1187" stroke="#3182F6" stroke-width="1.5" stroke-linecap="round"/>
<path fill-rule="evenodd" clip-rule="evenodd" d="M4.75 3C2.67893 3 1 4.67894 1 6.75V21.5079C1 23.1711 2.0828 24.5814 3.58192 25.0724C3.58971 24.5453 3.73112 24.0505 3.97379 23.6204C3.11362 23.3043 2.5 22.4777 2.5 21.5079V6.75C2.5 5.50736 3.50736 4.5 4.75 4.5H17.0658C18.3084 4.5 19.3158 5.50736 19.3158 6.75V23.7579H9.36764C9.57193 24.1675 9.68684 24.6296 9.68684 25.1184C9.68684 25.1652 9.68579 25.2117 9.68371 25.2579H20.0658H20.8158V24.5079V6.75C20.8158 4.67893 19.1369 3 17.0658 3H4.75Z" fill="black"/>
<circle cx="6.63417" cy="25.1184" r="3.05263" stroke="#3182F6" stroke-width="1.5"/>
<path fill-rule="evenodd" clip-rule="evenodd" d="M23.6024 10.3264H20.0654V11.8264H23.6024C24.2451 11.8264 24.8571 12.1012 25.2841 12.5815L28.5155 16.2169C28.8816 16.6287 29.0839 17.1606 29.0839 17.7117V19.0132V21.5079C29.0839 22.4778 28.4702 23.3043 27.6101 23.6205C27.8527 24.0505 27.9941 24.5453 28.0019 25.0724C29.5011 24.5815 30.5839 23.1712 30.5839 21.5079V19.0132V17.7117C30.5839 16.7933 30.2468 15.9068 29.6366 15.2203L26.4052 11.585C25.6936 10.7844 24.6736 10.3264 23.6024 10.3264ZM21.9001 25.2579C21.8981 25.2117 21.897 25.1652 21.897 25.1185C21.897 24.6296 22.0119 24.1676 22.2162 23.7579H20.0654V25.2579H21.9001Z" fill="black"/>
<circle cx="24.9501" cy="25.1184" r="3.05263" stroke="#3182F6" stroke-width="1.5"/>
</svg>
