<svg width="24" height="24" viewBox="0 0 24 24" fill="none" xmlns="http://www.w3.org/2000/svg">
<path d="M12.75 6C12.75 5.58579 12.4142 5.25 12 5.25C11.5858 5.25 11.25 5.58579 11.25 6H12.75ZM12 12H11.25C11.25 12.2841 11.4105 12.5438 11.6646 12.6708L12 12ZM15.6646 14.6708C16.0351 14.8561 16.4856 14.7059 16.6708 14.3354C16.8561 13.9649 16.7059 13.5144 16.3354 13.3292L15.6646 14.6708ZM21.25 12C21.25 17.1086 17.1086 21.25 12 21.25V22.75C17.9371 22.75 22.75 17.9371 22.75 12H21.25ZM12 21.25C6.89137 21.25 2.75 17.1086 2.75 12H1.25C1.25 17.9371 6.06294 22.75 12 22.75V21.25ZM2.75 12C2.75 6.89137 6.89137 2.75 12 2.75V1.25C6.06294 1.25 1.25 6.06294 1.25 12H2.75ZM12 2.75C17.1086 2.75 21.25 6.89137 21.25 12H22.75C22.75 6.06294 17.9371 1.25 12 1.25V2.75ZM11.25 6V12H12.75V6H11.25ZM11.6646 12.6708L15.6646 14.6708L16.3354 13.3292L12.3354 11.3292L11.6646 12.6708Z" fill="black"/>
</svg>
