<svg width="20" height="20" viewBox="0 0 20 20" fill="none" xmlns="http://www.w3.org/2000/svg">
<g id="&#236;&#149;&#132;&#236;&#157;&#180;&#236;&#189;&#152;/20x20/&#235;&#182;&#129;&#235;&#167;&#136;&#237;&#129;&#172;_&#237;&#153;&#156;&#236;&#132;&#177;">
<path id="Fill 1" fill-rule="evenodd" clip-rule="evenodd" d="M10.0004 12.4979C10.1384 12.4979 10.2744 12.5389 10.3944 12.6189L14.6004 15.4779V4.1239C14.6004 4.0009 14.4954 3.8999 14.3664 3.8999H5.63439C5.50539 3.8999 5.40039 4.0009 5.40039 4.1239V15.4779L9.60639 12.6189C9.72639 12.5389 9.86239 12.4979 10.0004 12.4979ZM15.3 17.5C15.162 17.5 15.024 17.459 14.906 17.379L10 14.044L5.094 17.379C4.879 17.525 4.601 17.539 4.373 17.419C4.144 17.298 4 17.06 4 16.8V4.124C4 3.229 4.733 2.5 5.634 2.5H14.366C15.267 2.5 16 3.229 16 4.124V16.8C16 17.06 15.856 17.298 15.627 17.419C15.524 17.473 15.412 17.5 15.3 17.5Z" fill="#111111"/>
</g>
</svg>
