<svg width="16" height="16" viewBox="0 0 16 16" fill="none" xmlns="http://www.w3.org/2000/svg">
<path d="M12.0233 8.4367C12.0065 6.66532 13.5462 5.81486 13.6142 5.77544C12.749 4.57187 11.3999 4.40413 10.9214 4.384C9.77282 4.27412 8.67982 5.0273 8.09889 5.0273C7.51797 5.0273 6.61744 4.40245 5.66747 4.42006C4.41379 4.436 3.26253 5.11201 2.61715 6.17299C1.31757 8.31509 2.28343 11.4905 3.55211 13.2275C4.17012 14.0779 4.90732 15.0333 5.87583 14.9989C6.81079 14.9645 7.16393 14.426 8.29224 14.426C9.42055 14.426 9.7375 14.9989 10.7254 14.9846C11.7293 14.9645 12.3658 14.114 12.9785 13.2635C13.6883 12.2764 13.9832 11.3211 14 11.2707C13.9779 11.2632 12.0418 10.557 12.0224 8.4367H12.0233Z" fill="white"/>
<path d="M10.1649 3.23436C10.6805 2.64306 11.0275 1.81943 10.9321 1C10.1914 1.02684 9.29352 1.47052 8.76291 2.05931C8.28528 2.58519 7.86591 3.42559 7.9798 4.2274C8.80529 4.28695 9.65196 3.82733 10.1649 3.23436Z" fill="white"/>
</svg>
