<svg width="20" height="20" viewBox="0 0 20 20" fill="none" xmlns="http://www.w3.org/2000/svg">
<g id="&#236;&#149;&#132;&#236;&#157;&#180;&#236;&#189;&#152;/20x20/&#236;&#160;&#132;&#236;&#178;&#180;&#235;&#169;&#148;&#235;&#137;&#180;">
<g id="Group 7">
<path id="Fill 1" fill-rule="evenodd" clip-rule="evenodd" d="M17.3 10.4H2.7C2.314 10.4 2 10.087 2 9.7C2 9.313 2.314 9 2.7 9H17.3C17.687 9 18 9.313 18 9.7C18 10.087 17.687 10.4 17.3 10.4Z" fill="#111111"/>
<path id="Fill 5" fill-rule="evenodd" clip-rule="evenodd" d="M17.3 4.4H2.7C2.314 4.4 2 4.087 2 3.7C2 3.313 2.314 3 2.7 3H17.3C17.687 3 18 3.313 18 3.7C18 4.087 17.687 4.4 17.3 4.4Z" fill="#111111"/>
<path id="Fill 4" fill-rule="evenodd" clip-rule="evenodd" d="M17.3 16.4H2.7C2.314 16.4 2 16.087 2 15.7C2 15.313 2.314 15 2.7 15H17.3C17.687 15 18 15.313 18 15.7C18 16.087 17.687 16.4 17.3 16.4Z" fill="#111111"/>
</g>
</g>
</svg>
