<svg width="16" height="16" viewBox="0 0 16 16" fill="none" xmlns="http://www.w3.org/2000/svg">
<path d="M13.6465 14.3536C13.8417 14.5488 14.1583 14.5488 14.3536 14.3536C14.5488 14.1583 14.5488 13.8417 14.3536 13.6465L13.6465 14.3536ZM11.4536 10.7465C11.2583 10.5512 10.9417 10.5512 10.7465 10.7465C10.5512 10.9417 10.5512 11.2583 10.7465 11.4536L11.4536 10.7465ZM12.1667 7.33333C12.1667 10.0027 10.0027 12.1667 7.33333 12.1667V13.1667C10.555 13.1667 13.1667 10.555 13.1667 7.33333H12.1667ZM7.33333 12.1667C4.66396 12.1667 2.5 10.0027 2.5 7.33333H1.5C1.5 10.555 4.11167 13.1667 7.33333 13.1667V12.1667ZM2.5 7.33333C2.5 4.66396 4.66396 2.5 7.33333 2.5V1.5C4.11167 1.5 1.5 4.11167 1.5 7.33333H2.5ZM7.33333 2.5C10.0027 2.5 12.1667 4.66396 12.1667 7.33333H13.1667C13.1667 4.11167 10.555 1.5 7.33333 1.5V2.5ZM14.3536 13.6465L11.4536 10.7465L10.7465 11.4536L13.6465 14.3536L14.3536 13.6465Z" fill="#C7C7C7"/>
</svg>
