<svg width="20" height="20" viewBox="0 0 20 20" fill="none" xmlns="http://www.w3.org/2000/svg">
<g id="&#236;&#149;&#132;&#236;&#157;&#180;&#236;&#189;&#152;/20x20/&#236;&#158;&#172;&#235;&#176;&#156;&#236;&#134;&#161;">
<path id="Combined Shape" fill-rule="evenodd" clip-rule="evenodd" d="M16.4504 3.39697H2.58937C2.48537 3.39697 2.40137 3.48179 2.40137 3.58557V4.37787L9.52037 8.54292L16.6394 4.37787V3.58557C16.6394 3.48179 16.5554 3.39697 16.4504 3.39697ZM9.52 10.0507C9.398 10.0507 9.275 10.0188 9.165 9.95492L2.401 5.99742V13.9324C2.401 14.0372 2.485 14.121 2.589 14.121H5.663C6.05 14.121 6.363 14.4343 6.363 14.8195C6.363 15.2056 6.05 15.518 5.663 15.518H2.589C1.713 15.518 1 14.8075 1 13.9324V3.5856C1 2.71147 1.713 2 2.589 2H16.45C17.326 2 18.039 2.71147 18.039 3.5856V10.3102C18.039 10.6953 17.726 11.0087 17.339 11.0087C16.952 11.0087 16.639 10.6953 16.639 10.3102V5.99742L9.874 9.95492C9.765 10.0188 9.642 10.0507 9.52 10.0507ZM16.958 14.3131L18.784 16.0554C18.923 16.1871 19.001 16.3687 19.001 16.5593C19.001 16.7509 18.923 16.9325 18.785 17.0642L16.963 18.8055C16.827 18.9352 16.652 19.0001 16.478 19.0001C16.294 19.0001 16.11 18.9282 15.972 18.7845C15.705 18.5061 15.715 18.0641 15.994 17.7977L16.557 17.2588H12.177C10.701 17.2588 9.50098 16.0604 9.50098 14.5875C9.50098 13.1137 10.701 11.9153 12.177 11.9153H13.057C13.444 11.9153 13.758 12.2286 13.758 12.6138C13.758 13 13.444 13.3123 13.057 13.3123H12.177C11.473 13.3123 10.901 13.8841 10.901 14.5875C10.901 15.29 11.473 15.8618 12.177 15.8618H16.555L15.991 15.323C15.712 15.0565 15.701 14.6145 15.969 14.3351C16.237 14.0577 16.679 14.0467 16.958 14.3131Z" fill="#111111"/>
</g>
</svg>
