<svg width="32" height="32" viewBox="0 0 32 32" fill="none" xmlns="http://www.w3.org/2000/svg">
<path fill-rule="evenodd" clip-rule="evenodd" d="M4.1665 1.75C2.09544 1.75 0.416504 3.42893 0.416504 5.5V23.1667C0.416504 25.2377 2.09544 26.9167 4.1665 26.9167H13.1665C13.5807 26.9167 13.9165 26.5809 13.9165 26.1667C13.9165 25.7525 13.5807 25.4167 13.1665 25.4167H4.1665C2.92386 25.4167 1.9165 24.4093 1.9165 23.1667V10.25H26.1667C26.5809 10.25 26.9167 9.91421 26.9167 9.5C26.9167 9.08579 26.5809 8.75 26.1667 8.75H1.9165V5.5C1.9165 4.25736 2.92386 3.25 4.1665 3.25H27.4998C28.7425 3.25 29.7498 4.25736 29.7498 5.5V14.8333C29.7498 15.2475 30.0856 15.5833 30.4998 15.5833C30.9141 15.5833 31.2498 15.2475 31.2498 14.8333V5.5C31.2498 3.42893 29.5709 1.75 27.4998 1.75H4.1665Z" fill="#111111"/>
<path fill-rule="evenodd" clip-rule="evenodd" d="M30.3136 19.678C30.3462 19.7006 30.3769 19.7247 30.4058 19.75H30.5C30.9142 19.75 31.25 20.0858 31.25 20.5C31.25 20.9142 30.9142 21.25 30.5 21.25H30.4058C30.3769 21.2753 30.3462 21.2994 30.3136 21.322L28.0695 22.8767C27.4063 23.3362 26.5 22.8615 26.5 22.0547V21.25H16.5C16.0858 21.25 15.75 20.9142 15.75 20.5C15.75 20.0858 16.0858 19.75 16.5 19.75H26.5V18.9453C26.5 18.1384 27.4063 17.6638 28.0695 18.1233L30.3136 19.678ZM20.8335 26.4167V25.7427C20.8335 24.9359 19.9272 24.4612 19.264 24.9207L17.1006 26.4195C16.7173 26.453 16.4167 26.7747 16.4167 27.1667C16.4167 27.4034 16.5264 27.6146 16.6977 27.752C16.7695 27.8932 16.8769 28.0203 17.0199 28.1194L19.264 29.6742C19.9272 30.1336 20.8335 29.659 20.8335 28.8522V27.9167H20.8585H20.8852H20.9119H20.9385H20.9651H20.9916H21.0181H21.0446H21.0711H21.0975H21.1238H21.1502H21.1765H21.2027H21.229H21.2552H21.2813H21.3075H21.3336H21.3596H21.3857H21.4117H21.4377H21.4636H21.4895H21.5154H21.5412H21.5671H21.5928H21.6186H21.6443H21.67H21.6957H21.7214H21.747H21.7726H21.7981H21.8236H21.8492H21.8746H21.9001H21.9255H21.9509H21.9763H22.0016H22.027H22.0523H22.0775H22.1028H22.128H22.1532H22.1784H22.2036H22.2287H22.2538H22.2789H22.304H22.329H22.354H22.379H22.404H22.429H22.4539H22.4789H22.5038H22.5286H22.5535H22.5783H22.6032H22.628H22.6528H22.6775H22.7023H22.727H22.7518H22.7765H22.8012H22.8258H22.8505H22.8751H22.8998H22.9244H22.949H22.9736H22.9981H23.0227H23.0472H23.0718H23.0963H23.1208H23.1453H23.1698H23.1942H23.2187H23.2431H23.2676H23.292H23.3164H23.3408H23.3652H23.3896H23.414H23.4383H23.4627H23.487H23.5114H23.5357H23.56H23.5844H23.6087H23.633H23.6573H23.6816H23.7059H23.7302H23.7544H23.7787H23.803H23.8272H23.8515H23.8758H23.9H23.9243H23.9485H23.9728H23.997H24.0212H24.0455H24.0697H24.094H24.1182H24.1424H24.1667H24.1909H24.2151H24.2394H24.2636H24.2878H24.3121H24.3363H24.3606H24.3848H24.4091H24.4333H24.4576H24.4818H24.5061H24.5304H24.5546H24.5789H24.6032H24.6275H24.6518H24.676H24.7003H24.7247H24.749H24.7733H24.7976H24.822H24.8463H24.8706H24.895H24.9194H24.9438H24.9681H24.9925H25.0169H25.0414H25.0658H25.0902H25.1147H25.1391H25.1636H25.1881H25.2126H25.2371H25.2616H25.2861H25.3106H25.3352H25.3598H25.3844H25.409H25.4336H25.4582H25.4828H25.5075H25.5322H25.5569H25.5816H25.6063H25.631H25.6558H25.6806H25.7053H25.7302H25.755H25.7798H25.8047H25.8296H25.8545H25.8794H25.9043H25.9293H25.9543H25.9793H26.0043H26.0294H26.0544H26.0795H26.1046H26.1298H26.1549H26.1801H26.2053H26.2305H26.2558H26.2811H26.3064H26.3317H26.357H26.3824H26.4078H26.4332H26.4587H26.4842H26.5097H26.5352H26.5608H26.5864H26.612H26.6376H26.6633H26.689H26.7147H26.7405H26.7663H26.7921H26.8179H26.8438H26.8697H26.8957H26.9217H26.9477H26.9737H26.9998H27.0259H27.052H27.0782H27.1044H27.1306H27.1569H27.1832H27.2095H27.2359H27.2623H27.2887H27.3152H27.3417H27.3683H27.3948H27.4215H27.4481H27.4748H27.5015H27.5283H27.5551H27.582H27.6089H27.6358H27.6628H27.6898H27.7168H27.7439H27.771H27.7982H27.8254H27.8526H27.8799H27.9073H27.9346H27.962H27.9895H28.017H28.0445H28.0721H28.0998H28.1274H28.1552H28.1829H28.2107H28.2386H28.2665H28.2944H28.3224H28.3505H28.3786H28.4067H28.4349H28.4631H28.4914H28.5197H28.5481H28.5765H28.605H28.6335H28.662H28.6907H28.7193H28.748H28.7768H28.8056H28.8345H28.8634H28.8924H28.9214H28.9505H28.9796H29.0088H29.0381H29.0674H29.0967H29.1261H29.1556H29.1851H29.2146H29.2442H29.2739H29.3036H29.3334H29.3633H29.3932H29.4231H29.4531H29.4832H29.5133H29.5435H29.5738H29.6041H29.6344H29.6649H29.6953H29.7259H29.7565H29.7871H29.8179H29.8486H29.8795H29.9104H29.9414H29.9724H30.0035H30.0346H30.0658H30.0971H30.1285H30.1599H30.1914H30.2229H30.2545H30.2862H30.3179H30.3497H30.3815H30.4135H30.4455H30.4775H30.5096H30.5418H30.5741H30.6064H30.6388H30.6713H30.7038H30.7364H30.7691H30.8018H30.8347H30.8675H30.9005H30.9335H30.9666H30.9998H31.033H31.0663H31.0997H31.1331H31.1667C31.5809 27.9167 31.9167 27.5809 31.9167 27.1667C31.9167 26.7525 31.5809 26.4167 31.1667 26.4167H31.1331H31.0997H31.0663H31.033H30.9998H30.9666H30.9335H30.9005H30.8675H30.8347H30.8018H30.7691H30.7364H30.7038H30.6713H30.6388H30.6064H30.5741H30.5418H30.5096H30.4775H30.4455H30.4135H30.3815H30.3497H30.3179H30.2862H30.2545H30.2229H30.1914H30.1599H30.1285H30.0971H30.0658H30.0346H30.0035H29.9724H29.9414H29.9104H29.8795H29.8486H29.8179H29.7871H29.7565H29.7259H29.6953H29.6649H29.6344H29.6041H29.5738H29.5435H29.5133H29.4832H29.4531H29.4231H29.3932H29.3633H29.3334H29.3036H29.2739H29.2442H29.2146H29.1851H29.1556H29.1261H29.0967H29.0674H29.0381H29.0088H28.9796H28.9505H28.9214H28.8924H28.8634H28.8345H28.8056H28.7768H28.748H28.7193H28.6907H28.662H28.6335H28.605H28.5765H28.5481H28.5197H28.4914H28.4631H28.4349H28.4067H28.3786H28.3505H28.3224H28.2944H28.2665H28.2386H28.2107H28.1829H28.1552H28.1274H28.0998H28.0721H28.0445H28.017H27.9895H27.962H27.9346H27.9073H27.8799H27.8526H27.8254H27.7982H27.771H27.7439H27.7168H27.6898H27.6628H27.6358H27.6089H27.582H27.5551H27.5283H27.5015H27.4748H27.4481H27.4215H27.3948H27.3683H27.3417H27.3152H27.2887H27.2623H27.2359H27.2095H27.1832H27.1569H27.1306H27.1044H27.0782H27.052H27.0259H26.9998H26.9737H26.9477H26.9217H26.8957H26.8697H26.8438H26.8179H26.7921H26.7663H26.7405H26.7147H26.689H26.6633H26.6376H26.612H26.5864H26.5608H26.5352H26.5097H26.4842H26.4587H26.4332H26.4078H26.3824H26.357H26.3317H26.3064H26.2811H26.2558H26.2305H26.2053H26.1801H26.1549H26.1298H26.1046H26.0795H26.0544H26.0294H26.0043H25.9793H25.9543H25.9293H25.9043H25.8794H25.8545H25.8296H25.8047H25.7798H25.755H25.7302H25.7053H25.6806H25.6558H25.631H25.6063H25.5816H25.5569H25.5322H25.5075H25.4828H25.4582H25.4336H25.409H25.3844H25.3598H25.3352H25.3106H25.2861H25.2616H25.2371H25.2126H25.1881H25.1636H25.1391H25.1147H25.0902H25.0658H25.0414H25.0169H24.9925H24.9681H24.9438H24.9194H24.895H24.8706H24.8463H24.822H24.7976H24.7733H24.749H24.7247H24.7003H24.676H24.6518H24.6275H24.6032H24.5789H24.5546H24.5304H24.5061H24.4818H24.4576H24.4333H24.4091H24.3848H24.3606H24.3363H24.3121H24.2878H24.2636H24.2394H24.2151H24.1909H24.1667H24.1424H24.1182H24.094H24.0697H24.0455H24.0212H23.997H23.9728H23.9485H23.9243H23.9H23.8758H23.8515H23.8272H23.803H23.7787H23.7544H23.7302H23.7059H23.6816H23.6573H23.633H23.6087H23.5844H23.56H23.5357H23.5114H23.487H23.4627H23.4383H23.414H23.3896H23.3652H23.3408H23.3164H23.292H23.2676H23.2431H23.2187H23.1942H23.1698H23.1453H23.1208H23.0963H23.0718H23.0472H23.0227H22.9981H22.9736H22.949H22.9244H22.8998H22.8751H22.8505H22.8258H22.8012H22.7765H22.7518H22.727H22.7023H22.6775H22.6528H22.628H22.6032H22.5783H22.5535H22.5286H22.5038H22.4789H22.4539H22.429H22.404H22.379H22.354H22.329H22.304H22.2789H22.2538H22.2287H22.2036H22.1784H22.1532H22.128H22.1028H22.0775H22.0523H22.027H22.0016H21.9763H21.9509H21.9255H21.9001H21.8746H21.8492H21.8236H21.7981H21.7726H21.747H21.7214H21.6957H21.67H21.6443H21.6186H21.5928H21.5671H21.5412H21.5154H21.4895H21.4636H21.4377H21.4117H21.3857H21.3596H21.3336H21.3075H21.2813H21.2552H21.229H21.2027H21.1765H21.1502H21.1238H21.0975H21.0711H21.0446H21.0181H20.9916H20.9651H20.9385H20.9119H20.8852H20.8585H20.8335Z" fill="#3182F6"/>
</svg>
