<svg width="20" height="20" viewBox="0 0 20 20" fill="none" xmlns="http://www.w3.org/2000/svg">
<g id="&#236;&#149;&#132;&#236;&#157;&#180;&#236;&#189;&#152;/20x20/&#237;&#156;&#180;&#236;&#167;&#128;&#237;&#134;&#181;">
<path id="Combined Shape" fill-rule="evenodd" clip-rule="evenodd" d="M7.94068 2.3999C7.75068 2.3999 7.59668 2.5559 7.59668 2.7479V3.4769H12.4017V2.7479C12.4017 2.5559 12.2487 2.3999 12.0597 2.3999H7.94068ZM13.802 3.477H17.3C17.687 3.477 17.999 3.79 17.999 4.177C17.999 4.563 17.687 4.877 17.3 4.877H2.70102C2.31402 4.877 1.99902 4.563 1.99902 4.177C1.99902 3.79 2.31402 3.477 2.70102 3.477H6.19702V2.748C6.19702 1.784 6.98002 1 7.94102 1H12.06C13.021 1 13.802 1.784 13.802 2.748V3.477ZM8.44395 10.2793V14.0903C8.44395 14.4773 8.13095 14.7903 7.74395 14.7903C7.35695 14.7903 7.04395 14.4773 7.04395 14.0903V10.2793C7.04395 9.89235 7.35695 9.57935 7.74395 9.57935C8.13095 9.57935 8.44395 9.89235 8.44395 10.2793ZM12.9557 14.0903V10.2793C12.9557 9.89235 12.6427 9.57935 12.2557 9.57935C11.8687 9.57935 11.5557 9.89235 11.5557 10.2793V14.0903C11.5557 14.4773 11.8687 14.7903 12.2557 14.7903C12.6427 14.7903 12.9557 14.4773 12.9557 14.0903ZM15.2168 7.22978C15.2168 6.84279 15.5298 6.52979 15.9168 6.52979C16.3038 6.52979 16.6168 6.84279 16.6168 7.22978V16.3398C16.6168 17.8278 15.4058 19.0398 13.9168 19.0398H6.08184C4.59284 19.0398 3.38184 17.8278 3.38184 16.3398V7.22978C3.38184 6.84279 3.69484 6.52979 4.08184 6.52979C4.46884 6.52979 4.78184 6.84279 4.78184 7.22978V16.3398C4.78184 17.0558 5.36484 17.6388 6.08184 17.6388H13.9168C14.6338 17.6388 15.2168 17.0558 15.2168 16.3398V7.22978Z" fill="#111111"/>
</g>
</svg>
