<svg width="48" height="48" viewBox="0 0 48 48" fill="none" xmlns="http://www.w3.org/2000/svg">
<g clip-path="url(#clip0_3354_4092)">
<path d="M36.5541 0H11.4459C5.12448 0 0 5.12448 0 11.4459V36.5541C0 42.8755 5.12448 48 11.4459 48H36.5541C42.8755 48 48 42.8755 48 36.5541V11.4459C48 5.12448 42.8755 0 36.5541 0Z" fill="url(#paint0_linear_3354_4092)"/>
<path d="M18.1774 28.8847C17.7616 28.8847 17.4317 28.5503 17.4317 28.1345C17.4498 25.3192 17.4543 17.3162 17.4543 17.3162C17.4543 14.0897 19.7951 11.401 22.8725 10.8722V10.8542H18.1457C17.7345 10.8542 17.4001 10.5152 17.4001 10.104V9.14601C17.4001 8.73479 17.7345 8.40039 18.1457 8.40039H29.8588C30.27 8.40039 30.6044 8.73479 30.6044 9.14601V10.104C30.6044 10.5152 30.27 10.8496 29.8588 10.8496H25.1184V10.8722C28.2049 11.401 30.5411 14.0897 30.5411 17.3162V28.0622C30.5411 28.4734 30.2113 28.8033 29.8 28.8078H28.9143C28.4986 28.8169 28.1642 28.4825 28.1642 28.0667V17.3162C28.1642 15.4544 26.935 13.8683 25.2359 13.3396V29.7433C25.2359 30.1816 25.611 30.5205 26.0448 30.4889C30.0983 30.1771 33.1214 28.9525 33.1214 27.4883C33.1214 26.8963 32.6153 26.336 31.7387 25.866C31.4992 25.7395 31.3545 25.4864 31.3545 25.2153V24.2799C31.3545 23.7331 31.9194 23.3806 32.4165 23.602C34.6308 24.5962 36 25.9654 36 27.4838C36 30.2901 31.3274 32.6037 25.3308 32.9065H25.3941C26.4425 33.4262 27.1745 34.5107 27.1745 35.7625C27.1745 37.6333 25.5477 39.1336 23.6227 38.9167C22.1992 38.7585 21.0333 37.6017 20.8526 36.1827C20.6673 34.7412 21.44 33.4623 22.624 32.902C16.6409 32.5947 12 30.281 12 27.4793C12 25.9248 13.437 24.5194 15.7326 23.5297C16.2162 23.3219 16.7539 23.6834 16.7629 24.2121L16.772 25.134C16.772 25.4141 16.6229 25.6762 16.3743 25.8028C15.4253 26.2863 14.874 26.8692 14.874 27.4838C14.874 28.9479 17.9108 30.1771 21.9687 30.4844C22.4026 30.516 22.7776 30.1771 22.7776 29.7387L22.7641 13.3396C21.065 13.8683 19.8313 15.4454 19.8313 17.3162V28.1345C19.8313 28.5457 19.4969 28.8801 19.0857 28.8801H18.1774V28.8847Z" fill="white"/>
</g>
<defs>
<linearGradient id="paint0_linear_3354_4092" x1="2.62362" y1="2.62362" x2="44.8713" y2="44.8713" gradientUnits="userSpaceOnUse">
<stop stop-color="#23CAF9"/>
<stop offset="0.99" stop-color="#0361FA"/>
</linearGradient>
<clipPath id="clip0_3354_4092">
<rect width="48" height="48" rx="10" fill="white"/>
</clipPath>
</defs>
</svg>
