<svg width="20" height="20" viewBox="0 0 20 20" fill="none" xmlns="http://www.w3.org/2000/svg">
<path d="M14.0833 1.66669C14.0833 1.25247 13.7475 0.916687 13.3333 0.916687C12.9191 0.916687 12.5833 1.25247 12.5833 1.66669H14.0833ZM12.5833 5.00002C12.5833 5.41423 12.9191 5.75002 13.3333 5.75002C13.7475 5.75002 14.0833 5.41423 14.0833 5.00002H12.5833ZM7.41667 1.66669C7.41667 1.25247 7.08088 0.916687 6.66667 0.916687C6.25245 0.916687 5.91667 1.25247 5.91667 1.66669H7.41667ZM5.91667 5.00002C5.91667 5.41423 6.25245 5.75002 6.66667 5.75002C7.08088 5.75002 7.41667 5.41423 7.41667 5.00002H5.91667ZM2.5 7.58335C2.08579 7.58335 1.75 7.91914 1.75 8.33335C1.75 8.74757 2.08579 9.08335 2.5 9.08335V7.58335ZM17.5 9.08335C17.9142 9.08335 18.25 8.74757 18.25 8.33335C18.25 7.91914 17.9142 7.58335 17.5 7.58335V9.08335ZM4.16667 4.08335H15.8333V2.58335H4.16667V4.08335ZM15.8333 4.08335C16.3396 4.08335 16.75 4.49376 16.75 5.00002H18.25C18.25 3.66533 17.168 2.58335 15.8333 2.58335V4.08335ZM16.75 5.00002V16.6667H18.25V5.00002H16.75ZM16.75 16.6667C16.75 17.1729 16.3396 17.5834 15.8333 17.5834V19.0834C17.168 19.0834 18.25 18.0014 18.25 16.6667H16.75ZM15.8333 17.5834H4.16667V19.0834H15.8333V17.5834ZM4.16667 17.5834C3.66041 17.5834 3.25 17.1729 3.25 16.6667H1.75C1.75 18.0014 2.83198 19.0834 4.16667 19.0834V17.5834ZM3.25 16.6667V5.00002H1.75V16.6667H3.25ZM3.25 5.00002C3.25 4.49376 3.66041 4.08335 4.16667 4.08335V2.58335C2.83198 2.58335 1.75 3.66533 1.75 5.00002H3.25ZM12.5833 1.66669V5.00002H14.0833V1.66669H12.5833ZM5.91667 1.66669V5.00002H7.41667V1.66669H5.91667ZM2.5 9.08335H17.5V7.58335H2.5V9.08335Z" fill="#666666"/>
</svg>
