<svg width="20" height="20" viewBox="0 0 20 20" fill="none" xmlns="http://www.w3.org/2000/svg">
<g id="&#236;&#149;&#132;&#236;&#157;&#180;&#236;&#189;&#152;/20x20/&#234;&#184;&#176;&#234;&#176;&#132;">
<path id="Combined Shape" fill-rule="evenodd" clip-rule="evenodd" d="M3.40039 9.99994C3.40039 6.36881 6.36139 3.41479 10.0004 3.41479C13.6404 3.41479 16.6014 6.36881 16.6014 9.99994C16.6014 13.6301 13.6404 16.5841 10.0004 16.5841C6.36139 16.5841 3.40039 13.6301 3.40039 9.99994ZM2 10C2 14.4103 5.589 18 10 18C14.412 18 18.001 14.4103 18.001 10C18.001 5.58868 14.412 2 10 2C5.589 2 2 5.58868 2 10ZM9.98516 11.4105H13.2652C13.6522 11.4105 13.9652 11.0941 13.9652 10.703C13.9652 10.3119 13.6522 9.9956 13.2652 9.9956H10.6852V5.79752C10.6852 5.40641 10.3712 5.09009 9.98516 5.09009C9.59816 5.09009 9.28516 5.40641 9.28516 5.79752V10.703C9.28516 11.0941 9.59816 11.4105 9.98516 11.4105Z" fill="#111111"/>
</g>
</svg>
