<svg width="20" height="20" viewBox="0 0 20 20" fill="none" xmlns="http://www.w3.org/2000/svg">
<g id="&#236;&#149;&#132;&#236;&#157;&#180;&#236;&#189;&#152;/20x20/&#236;&#157;&#184;&#237;&#143;&#172;">
<path id="Combined Shape" fill-rule="evenodd" clip-rule="evenodd" d="M9.99961 3.4001C13.6396 3.4001 16.5996 6.3601 16.5996 10.0001C16.5996 13.6391 13.6396 16.6001 9.99961 16.6001C6.35961 16.6001 3.39961 13.6391 3.39961 10.0001C3.39961 6.3601 6.35961 3.4001 9.99961 3.4001ZM10 18C14.418 18 18 14.418 18 10C18 5.582 14.418 2 10 2C5.582 2 2 5.582 2 10C2 14.418 5.582 18 10 18ZM10.0002 11.2964C10.3872 11.2964 10.7002 10.9834 10.7002 10.5964L10.7002 6.55839C10.7002 6.17139 10.3872 5.85839 10.0002 5.85839C9.61319 5.85839 9.30019 6.17139 9.30019 6.55839L9.3002 10.5964C9.3002 10.9834 9.61319 11.2964 10.0002 11.2964ZM11 13.1412C11 13.6932 10.552 14.1412 10 14.1412C9.447 14.1412 9 13.6932 9 13.1412C9 12.5892 9.447 12.1412 10 12.1412C10.552 12.1412 11 12.5892 11 13.1412Z" fill="#111111"/>
</g>
</svg>
