<svg width="20" height="20" viewBox="0 0 20 20" fill="none" xmlns="http://www.w3.org/2000/svg">
<path fill-rule="evenodd" clip-rule="evenodd" d="M16.8893 16.096C16.9893 16.096 17.0443 16.039 17.0713 15.991C17.0943 15.95 17.1263 15.868 17.0713 15.773L10.1833 3.906C10.0763 3.722 9.92725 3.722 9.82025 3.906L2.93225 15.774C2.87825 15.868 2.90925 15.95 2.93225 15.991C2.96025 16.039 3.01425 16.096 3.11425 16.096H16.8893ZM11.3943 3.202L18.2823 15.071C18.5763 15.577 18.5773 16.182 18.2853 16.69C17.9943 17.195 17.4713 17.497 16.8893 17.497H3.11425C2.53225 17.497 2.00925 17.195 1.71825 16.69C1.42625 16.182 1.42725 15.577 1.72125 15.071L8.60925 3.202C8.90125 2.7 9.42225 2.4 10.0023 2.4C10.5823 2.4 11.1023 2.7 11.3943 3.202ZM10.0018 12.2952C10.3888 12.2952 10.7018 11.9822 10.7018 11.5952V7.3832C10.7018 6.9962 10.3888 6.6832 10.0018 6.6832C9.61476 6.6832 9.30176 6.9962 9.30176 7.3832V11.5952C9.30176 11.9822 9.61476 12.2952 10.0018 12.2952ZM10.002 13.1243C9.44895 13.1243 9.00195 13.5723 9.00195 14.1243C9.00195 14.6763 9.44895 15.1243 10.002 15.1243C10.555 15.1243 11.002 14.6763 11.002 14.1243C11.002 13.5723 10.555 13.1243 10.002 13.1243Z" fill="white"/>
</svg>
