<svg width="20" height="20" viewBox="0 0 20 20" fill="none" xmlns="http://www.w3.org/2000/svg">
<g id="&#236;&#149;&#132;&#236;&#157;&#180;&#236;&#189;&#152;/20x20/&#235;&#141;&#148;&#235;&#179;&#180;&#234;&#184;&#176;">
<path id="Combined Shape" fill-rule="evenodd" clip-rule="evenodd" d="M11.8 3.4C11.8 4.173 11.173 4.8 10.4 4.8C9.627 4.8 9 4.173 9 3.4C9 2.627 9.627 2 10.4 2C11.173 2 11.8 2.627 11.8 3.4ZM10.4 8.5998C9.627 8.5998 9 9.2268 9 9.9998C9 10.7728 9.627 11.3998 10.4 11.3998C11.173 11.3998 11.8 10.7728 11.8 9.9998C11.8 9.2268 11.173 8.5998 10.4 8.5998ZM10.4 15.1999C9.627 15.1999 9 15.8269 9 16.5999C9 17.3729 9.627 17.9999 10.4 17.9999C11.173 17.9999 11.8 17.3729 11.8 16.5999C11.8 15.8269 11.173 15.1999 10.4 15.1999Z" fill="#111111"/>
</g>
</svg>
