<svg width="20" height="20" viewBox="0 0 20 20" fill="none" xmlns="http://www.w3.org/2000/svg">
<path d="M13.8138 14.5202C14.009 14.7155 14.3256 14.7155 14.5209 14.5202C14.7161 14.3249 14.7161 14.0084 14.5209 13.8131L13.8138 14.5202ZM5.83398 5.83331V5.33331C5.55784 5.33331 5.33398 5.55717 5.33398 5.83331H5.83398ZM5.33398 14.1666C5.33398 14.4428 5.55784 14.6666 5.83398 14.6666C6.11013 14.6666 6.33398 14.4428 6.33398 14.1666H5.33398ZM14.1673 6.33331C14.4435 6.33331 14.6673 6.10946 14.6673 5.83331C14.6673 5.55717 14.4435 5.33331 14.1673 5.33331V6.33331ZM14.5209 13.8131L6.18754 5.47976L5.48043 6.18687L13.8138 14.5202L14.5209 13.8131ZM6.33398 14.1666V5.83331H5.33398V14.1666H6.33398ZM5.83398 6.33331H14.1673V5.33331H5.83398V6.33331Z" fill="#999999"/>
</svg>
