<svg width="24" height="24" viewBox="0 0 24 24" fill="none" xmlns="http://www.w3.org/2000/svg">
<g clip-path="url(#clip0_4021_3485)">
<path d="M2.25361 10.7167H1.15494C1.10146 10.7167 1.05811 10.7601 1.05811 10.8136V15.0109C1.05811 15.0643 1.10146 15.1077 1.15494 15.1077H2.25361C2.30709 15.1077 2.35044 15.0643 2.35044 15.0109V10.8136C2.35044 10.7601 2.30709 10.7167 2.25361 10.7167Z" fill="white"/>
<path d="M12.9014 2.96641C12.9014 2.78668 12.8482 2.61099 12.7483 2.46155C12.6484 2.31211 12.5065 2.19563 12.3405 2.12685C12.1744 2.05807 11.9917 2.04008 11.8154 2.07514C11.6392 2.1102 11.4772 2.19675 11.3501 2.32384C11.2231 2.45093 11.1365 2.61285 11.1014 2.78913C11.0664 2.9654 11.0844 3.14812 11.1532 3.31417C11.2219 3.48022 11.3384 3.62214 11.4879 3.72199C11.6373 3.82185 11.813 3.87514 11.9927 3.87514C12.2337 3.87514 12.4649 3.7794 12.6353 3.60898C12.8057 3.43856 12.9014 3.20742 12.9014 2.96641Z" fill="white"/>
<path d="M18.9684 6.91791H4.90916C4.51406 6.91791 4.13514 7.07486 3.85576 7.35424C3.57639 7.63362 3.41943 8.01253 3.41943 8.40763V17.8786C3.41943 18.2737 3.57639 18.6526 3.85576 18.932C4.13514 19.2113 4.51406 19.3683 4.90916 19.3683H15.3819L15.5309 19.4986C15.6204 19.5739 15.6971 19.6632 15.7581 19.7631L17.6538 22.817V20.4036C17.6538 20.132 17.7617 19.8715 17.9537 19.6794C18.1458 19.4874 18.4063 19.3795 18.6779 19.3795H18.9684C19.3635 19.3795 19.7425 19.2225 20.0218 18.9431C20.3012 18.6638 20.4582 18.2848 20.4582 17.8897V8.41881C20.4596 8.22223 20.4222 8.02731 20.348 7.84528C20.2738 7.66325 20.1643 7.4977 20.0258 7.35818C19.8873 7.21866 19.7226 7.10793 19.5411 7.03237C19.3597 6.9568 19.165 6.9179 18.9684 6.91791ZM8.194 12.2474C8.05248 12.9141 7.03202 12.6198 7.17727 11.9681C7.27401 11.5603 7.5055 11.197 7.83431 10.9371C8.16312 10.6771 8.57 10.5357 8.98914 10.5357C9.40829 10.5357 9.81517 10.6771 10.144 10.9371C10.4728 11.197 10.7043 11.5603 10.801 11.9681C10.9425 12.631 9.92208 12.9141 9.78056 12.2474C9.75423 12.0557 9.65938 11.88 9.51355 11.7529C9.36772 11.6257 9.18077 11.5556 8.98728 11.5556C8.79379 11.5556 8.60684 11.6257 8.46101 11.7529C8.31518 11.88 8.22033 12.0557 8.194 12.2474ZM14.5626 16.9251C12.9093 17.5657 11.0763 17.5657 9.42303 16.9251C8.79362 16.6831 9.06922 15.6589 9.70607 15.9047C11.1745 16.4893 12.8111 16.4893 14.2795 15.9047C14.9164 15.6589 15.192 16.6831 14.5626 16.9251ZM15.7804 12.2474C15.7541 12.0557 15.6592 11.88 15.5134 11.7529C15.3676 11.6257 15.1806 11.5556 14.9871 11.5556C14.7937 11.5556 14.6067 11.6257 14.4609 11.7529C14.3151 11.88 14.2202 12.0557 14.1939 12.2474C14.0523 12.9141 13.0319 12.6198 13.1734 11.9681C13.2701 11.5603 13.5016 11.197 13.8305 10.9371C14.1593 10.6771 14.5661 10.5357 14.9853 10.5357C15.4044 10.5357 15.8113 10.6771 16.1401 10.9371C16.4689 11.197 16.7004 11.5603 16.7972 11.9681C16.9424 12.631 15.922 12.9178 15.7804 12.2474Z" fill="#FCFCFC"/>
<path d="M22.7219 10.7167H21.6232C21.5697 10.7167 21.5264 10.7601 21.5264 10.8136V15.0109C21.5264 15.0643 21.5697 15.1077 21.6232 15.1077H22.7219C22.7754 15.1077 22.8187 15.0643 22.8187 15.0109V10.8136C22.8187 10.7601 22.7754 10.7167 22.7219 10.7167Z" fill="white"/>
<path d="M14.2791 15.8972C12.8107 16.4818 11.1741 16.4818 9.70569 15.8972C9.06883 15.6514 8.79324 16.6756 9.42264 16.9177C11.076 17.5582 12.9089 17.5582 14.5622 16.9177C15.1916 16.6831 14.916 15.6589 14.2791 15.8972Z" fill="#000111"/>
<path d="M9.79173 12.2474C9.93325 12.914 10.9537 12.6198 10.8122 11.9681C10.7154 11.5602 10.4839 11.197 10.1551 10.937C9.82634 10.6771 9.41945 10.5357 9.00031 10.5357C8.58117 10.5357 8.17428 10.6771 7.84547 10.937C7.51667 11.197 7.28517 11.5602 7.18843 11.9681C7.04318 12.631 8.06364 12.914 8.20517 12.2474C8.2315 12.0557 8.32635 11.88 8.47218 11.7529C8.61801 11.6257 8.80496 11.5556 8.99845 11.5556C9.19194 11.5556 9.37888 11.6257 9.52471 11.7529C9.67054 11.88 9.76539 12.0557 9.79173 12.2474Z" fill="#000111"/>
<path d="M22.7183 9.65887H21.6271H21.5265V8.41867C21.5255 7.74039 21.2557 7.09017 20.776 6.61055C20.2964 6.13094 19.6462 5.86105 18.9679 5.86007H12.5211V4.85823C12.9789 4.7304 13.3749 4.44109 13.6359 4.04383C13.8968 3.64657 14.005 3.16824 13.9405 2.69734C13.876 2.22644 13.6431 1.79485 13.285 1.4824C12.9268 1.16995 12.4676 0.997803 11.9923 0.997803C11.517 0.997803 11.0578 1.16995 10.6996 1.4824C10.3414 1.79485 10.1086 2.22644 10.0441 2.69734C9.97954 3.16824 10.0878 3.64657 10.3487 4.04383C10.6097 4.44109 11.0057 4.7304 11.4634 4.85823V5.86007H4.90865C4.23071 5.86007 3.58048 6.12912 3.10076 6.60815C2.62104 7.08717 2.35103 7.73701 2.35005 8.41495V9.66632H2.25322H1.15454C0.848985 9.66631 0.555887 9.78744 0.339476 10.0032C0.123065 10.2189 0.000991679 10.5116 6.0075e-06 10.8171V15.0107C-0.000484089 15.1626 0.0290172 15.3132 0.0868187 15.4537C0.14462 15.5942 0.229585 15.7219 0.336843 15.8295C0.4441 15.9371 0.571541 16.0225 0.711859 16.0807C0.852177 16.139 1.00261 16.169 1.15454 16.169H2.35005V17.8822C2.35103 18.5604 2.62092 19.2106 3.10053 19.6903C3.58015 20.1699 4.23037 20.4398 4.90865 20.4408H14.9271L16.7631 23.4202C16.8523 23.5831 16.9838 23.7189 17.1437 23.8133C17.3037 23.9077 17.4862 23.9572 17.6719 23.9565H17.8283C18.0427 23.9265 18.2423 23.8298 18.3987 23.68C18.5551 23.5303 18.6604 23.3352 18.6998 23.1223V20.4668H18.9568C19.635 20.4658 20.2853 20.196 20.7649 19.7163C21.2445 19.2367 21.5144 18.5865 21.5154 17.9082V16.195H22.7183C23.0255 16.195 23.3201 16.073 23.5373 15.8558C23.7545 15.6386 23.8766 15.344 23.8766 15.0368V10.8171C23.8766 10.5099 23.7545 10.2153 23.5373 9.99811C23.3201 9.7809 23.0255 9.65887 22.7183 9.65887ZM2.35005 15.0107C2.35007 15.0367 2.33998 15.0618 2.32192 15.0805C2.30386 15.0993 2.27923 15.1103 2.25322 15.1113H1.15454C1.12852 15.1103 1.10389 15.0993 1.08583 15.0805C1.06777 15.0618 1.05769 15.0367 1.05771 15.0107V10.8171C1.05769 10.7911 1.06777 10.7661 1.08583 10.7473C1.10389 10.7286 1.12852 10.7175 1.15454 10.7166H2.25322C2.27923 10.7175 2.30386 10.7286 2.32192 10.7473C2.33998 10.7661 2.35007 10.7911 2.35005 10.8171V15.0107ZM11.0836 2.96628C11.0836 2.78655 11.1369 2.61085 11.2367 2.46141C11.3366 2.31197 11.4785 2.1955 11.6445 2.12672C11.8106 2.05794 11.9933 2.03994 12.1696 2.07501C12.3459 2.11007 12.5078 2.19662 12.6349 2.32371C12.762 2.45079 12.8485 2.61272 12.8836 2.78899C12.9186 2.96527 12.9006 3.14798 12.8319 3.31403C12.7631 3.48008 12.6466 3.62201 12.4972 3.72186C12.3477 3.82171 12.172 3.87501 11.9923 3.87501C11.7513 3.87501 11.5201 3.77927 11.3497 3.60885C11.1793 3.43843 11.0836 3.20729 11.0836 2.96628ZM20.4837 10.8171V17.8933C20.4837 18.2884 20.3268 18.6673 20.0474 18.9467C19.768 19.2261 19.3891 19.383 18.994 19.383H18.7035C18.5671 19.3796 18.4315 19.4034 18.3044 19.4531C18.1774 19.5027 18.0615 19.5773 17.9637 19.6723C17.8659 19.7674 17.788 19.881 17.7347 20.0066C17.6814 20.1322 17.6537 20.2671 17.6532 20.4035V22.828L15.7576 19.7741C15.6966 19.6743 15.6199 19.585 15.5304 19.5097L15.3814 19.3793H4.90865C4.51355 19.3793 4.13463 19.2224 3.85526 18.943C3.57588 18.6636 3.41893 18.2847 3.41893 17.8896V8.41495C3.41893 8.01985 3.57588 7.64093 3.85526 7.36155C4.13463 7.08217 4.51355 6.92522 4.90865 6.92522H18.9679C19.363 6.92522 19.7419 7.08217 20.0213 7.36155C20.3007 7.64093 20.4577 8.01985 20.4577 8.41495L20.4837 10.8171ZM22.8338 15.0107C22.8343 15.0237 22.8321 15.0367 22.8275 15.0489C22.8229 15.0611 22.8158 15.0722 22.8068 15.0816C22.7977 15.091 22.7869 15.0985 22.7749 15.1036C22.7629 15.1086 22.75 15.1113 22.7369 15.1113H21.6271C21.6004 15.1113 21.5748 15.1007 21.556 15.0818C21.5371 15.063 21.5265 15.0374 21.5265 15.0107V10.8171C21.5265 10.7905 21.5371 10.7649 21.556 10.746C21.5748 10.7272 21.6004 10.7166 21.6271 10.7166H22.7183C22.7313 10.7166 22.7443 10.7192 22.7563 10.7243C22.7682 10.7294 22.7791 10.7368 22.7881 10.7462C22.7972 10.7556 22.8042 10.7667 22.8089 10.7789C22.8135 10.7911 22.8156 10.8041 22.8151 10.8171L22.8338 15.0107Z" fill="#000111"/>
<path d="M13.1731 11.9681C13.0316 12.631 14.052 12.914 14.1936 12.2474C14.2199 12.0557 14.3147 11.88 14.4606 11.7529C14.6064 11.6257 14.7933 11.5556 14.9868 11.5556C15.1803 11.5556 15.3673 11.6257 15.5131 11.7529C15.6589 11.88 15.7538 12.0557 15.7801 12.2474C15.9216 12.914 16.9421 12.6198 16.7969 11.9681C16.7001 11.5602 16.4686 11.197 16.1398 10.937C15.811 10.6771 15.4041 10.5357 14.985 10.5357C14.5658 10.5357 14.159 10.6771 13.8301 10.937C13.5013 11.197 13.2698 11.5602 13.1731 11.9681Z" fill="#000111"/>
</g>
<defs>
<clipPath id="clip0_4021_3485">
<rect width="23.8803" height="22.938" fill="white" transform="translate(0 1)"/>
</clipPath>
</defs>
</svg>
