<svg width="24" height="24" viewBox="0 0 24 24" fill="none" xmlns="http://www.w3.org/2000/svg">
<path fill-rule="evenodd" clip-rule="evenodd" d="M7.30925 13.4416H10.595C10.9674 13.4416 11.2694 13.1393 11.2694 12.7666C11.2694 12.3938 10.9674 12.0908 10.595 12.0908H7.30925C6.93684 12.0908 6.63487 12.3938 6.63487 12.7666C6.63487 13.1393 6.93684 13.4416 7.30925 13.4416ZM7.30915 16.509H16.6875C17.0599 16.509 17.3619 16.2067 17.3619 15.834C17.3619 15.4612 17.0599 15.1582 16.6875 15.1582H7.30915C6.93674 15.1582 6.63477 15.4612 6.63477 15.834C6.63477 16.2067 6.93674 16.509 7.30915 16.509Z" fill="#3182F6"/>
<path fill-rule="evenodd" clip-rule="evenodd" d="M20.0266 20.4051C20.0266 21.2301 19.3589 21.8998 18.5392 21.8998H5.46223C4.64249 21.8998 3.97485 21.2301 3.97485 20.4051V3.59534C3.97485 2.77034 4.64249 2.10059 5.46223 2.10059H13.8373V7.82159C13.8373 8.19434 14.14 8.49659 14.5124 8.49659H18.3384C18.7108 8.49659 19.0128 8.19434 19.0128 7.82159C19.0128 7.44884 18.7108 7.14584 18.3384 7.14584H15.1868V2.34884C15.2685 2.40359 15.3456 2.46659 15.4168 2.53784L19.5905 6.72659C19.8677 7.00484 20.0266 7.38959 20.0266 7.78409V20.4051ZM20.5448 5.77275L16.3719 1.58475C15.9043 1.11525 15.2996 0.843 14.6499 0.77775C14.6042 0.76725 14.5608 0.75 14.5121 0.75C14.4948 0.75 14.4806 0.759 14.4634 0.75975C14.4304 0.759 14.3982 0.75 14.3644 0.75H5.46189C3.89808 0.75 2.625 2.0265 2.625 3.5955V20.4053C2.625 21.9743 3.89808 23.2507 5.46189 23.2507H18.5389C20.1034 23.2507 21.3757 21.9743 21.3757 20.4053V7.78425C21.3757 7.03575 21.0723 6.30225 20.5448 5.77275Z" fill="#111111"/>
</svg>
