<svg width="24" height="24" viewBox="0 0 24 24" fill="none" xmlns="http://www.w3.org/2000/svg">
<path fill-rule="evenodd" clip-rule="evenodd" d="M12.145 24H4.25729C2.73711 24 1.5 22.7642 1.5 21.2439V2.75533C1.5 1.23582 2.73711 0 4.25729 0H14.2073C15.7275 0 16.9646 1.23582 16.9646 2.75533V6.41113C16.9646 6.78315 16.6621 7.0848 16.2899 7.0848C15.9177 7.0848 15.6159 6.78315 15.6159 6.41113V2.75533C15.6159 1.9791 14.9839 1.34735 14.2073 1.34735H4.25729C3.48072 1.34735 2.84869 1.9791 2.84869 2.75533V21.2439C2.84869 22.0201 3.48072 22.6519 4.25729 22.6519H12.145C12.5172 22.6519 12.8189 22.9543 12.8189 23.3263C12.8189 23.6983 12.5172 24 12.145 24ZM10.1759 19.8549C10.1759 20.3737 9.75433 20.7951 9.23238 20.7951C8.71192 20.7958 8.28957 20.3744 8.28882 19.8557C8.28882 19.3369 8.71117 18.9155 9.23238 18.9155C9.75358 18.9148 10.1759 19.3362 10.1759 19.8549ZM7.76455 3.99653H10.7001C11.0722 3.99653 11.374 3.69488 11.374 3.32286C11.374 2.95084 11.0722 2.64844 10.7001 2.64844H7.76455C7.39236 2.64844 7.09058 2.95084 7.09058 3.32286C7.09058 3.69488 7.39236 3.99653 7.76455 3.99653Z" fill="#111111"/>
<path fill-rule="evenodd" clip-rule="evenodd" d="M11.6646 11.0421C11.6646 10.1746 12.37 9.47021 13.2371 9.47021H19.5792C20.4464 9.47021 21.1511 10.1746 21.1511 11.0421V14.9786C21.1511 15.8462 20.4464 16.5505 19.5792 16.5505H18.3309C18.2088 16.5505 18.089 16.5842 17.9841 16.6471L15.8349 17.936V17.2242C15.8349 16.8522 15.5324 16.5505 15.1602 16.5505H13.2371C12.37 16.5505 11.6646 15.8462 11.6646 14.9786V11.0421ZM14.8287 19.7127C14.9321 19.7711 15.0459 19.8003 15.1605 19.8003C15.2811 19.8003 15.4009 19.7681 15.5072 19.7038L18.5176 17.8991H19.5795C21.1895 17.8991 22.5 16.5891 22.5 14.9791V11.0426C22.5 9.43248 21.1895 8.12256 19.5795 8.12256H13.2374C11.6274 8.12256 10.3169 9.43248 10.3169 11.0426V14.9791C10.3169 16.5891 11.6274 17.8991 13.2374 17.8991H14.4865V19.1259C14.4865 19.3692 14.6176 19.5922 14.8287 19.7127ZM13.8341 13.6656C14.2056 13.6656 14.5074 13.3677 14.5074 13.0001C14.5074 12.6334 14.2056 12.3354 13.8341 12.3354C13.462 12.3354 13.1594 12.6334 13.1594 13.0001C13.1594 13.3677 13.462 13.6656 13.8341 13.6656ZM16.4086 13.6656C16.7808 13.6656 17.0826 13.3677 17.0826 13.0001C17.0826 12.6334 16.7808 12.3354 16.4086 12.3354C16.0364 12.3354 15.7346 12.6334 15.7346 13.0001C15.7346 13.3677 16.0364 13.6656 16.4086 13.6656ZM19.6578 13.0001C19.6578 13.3677 19.356 13.6656 18.9838 13.6656C18.6116 13.6656 18.3091 13.3677 18.3091 13.0001C18.3091 12.6334 18.6116 12.3354 18.9838 12.3354C19.356 12.3354 19.6578 12.6334 19.6578 13.0001Z" fill="#3182F6"/>
</svg>
