<svg width="14" height="14" viewBox="0 0 14 14" fill="none" xmlns="http://www.w3.org/2000/svg">
<path d="M7 1.375C7.56954 1.375 8.03125 1.83671 8.03125 2.40625V6.83292C8.03125 7.38139 8.33416 7.82884 8.67375 8.12208C9.21881 8.59274 9.5625 9.2872 9.5625 10.0625C9.5625 11.4777 8.41523 12.625 7 12.625C5.58477 12.625 4.4375 11.4777 4.4375 10.0625C4.4375 9.2872 4.78119 8.59274 5.32625 8.12208C5.66584 7.82884 5.96875 7.38139 5.96875 6.83292V2.40625C5.96875 1.83671 6.43046 1.375 7 1.375Z" stroke="#666666"/>
<rect x="-0.5" y="0.5" width="2.0625" height="2.0625" rx="1.03125" transform="matrix(-1 0 0 1 12.125 0.875)" stroke="#666666"/>
<rect x="-0.382812" y="0.382812" width="0.765625" height="0.765625" rx="0.382812" transform="matrix(-1 0 0 1 7 9.29688)" fill="#666666" stroke="#666666" stroke-width="0.765625"/>
</svg>
