<svg width="20" height="20" viewBox="0 0 20 20" fill="none" xmlns="http://www.w3.org/2000/svg">
<g id="&#236;&#149;&#132;&#236;&#157;&#180;&#236;&#189;&#152;/20x20/&#237;&#134;&#160;&#234;&#184;&#128;">
<g id="Group 5">
<path id="Fill 1" fill-rule="evenodd" clip-rule="evenodd" d="M19 10C19 14.971 14.971 19 10 19C5.029 19 1 14.971 1 10C1 5.03 5.029 1 10 1C14.971 1 19 5.03 19 10Z" fill="white"/>
<path id="Fill 4" fill-rule="evenodd" clip-rule="evenodd" d="M10.0074 12.5005C9.83441 12.5005 9.66141 12.4365 9.52741 12.3095L5.71941 8.70851C5.43841 8.44351 5.42541 8.00051 5.69141 7.71951C5.95741 7.43851 6.40141 7.42651 6.68041 7.69151L10.0064 10.8355L13.3174 7.69251C13.5994 7.42651 14.0414 7.43851 14.3074 7.71851C14.5724 7.99851 14.5624 8.44151 14.2814 8.70851L10.4894 12.3085C10.3544 12.4365 10.1814 12.5005 10.0074 12.5005Z" fill="#111111"/>
</g>
</g>
</svg>
