<svg width="24" height="24" viewBox="0 0 24 24" fill="none" xmlns="http://www.w3.org/2000/svg">
<path d="M4.82787 6.54444H3.82787V8.54444H4.82787V6.54444ZM22.5 7.54444L23.4772 7.75684L23.7407 6.54444H22.5V7.54444ZM20.3361 17.5V18.5H21.1421L21.3132 17.7124L20.3361 17.5ZM5.54918 17.5L4.5582 17.634L4.67532 18.5H5.54918V17.5ZM3.38525 1.5L4.37622 1.36597L4.2591 0.5H3.38525V1.5ZM1.5 0.5H0.5V2.5H1.5V0.5ZM4.82787 8.54444H22.5V6.54444H4.82787V8.54444ZM21.5228 7.33204L19.3589 17.2876L21.3132 17.7124L23.4772 7.75684L21.5228 7.33204ZM20.3361 16.5H13.123V18.5H20.3361V16.5ZM13.123 16.5H5.54918V18.5H13.123V16.5ZM6.54016 17.366L4.37622 1.36597L2.39427 1.63403L4.5582 17.634L6.54016 17.366ZM3.38525 0.5H1.5V2.5H3.38525V0.5Z" fill="#111111"/>
<rect x="7.0957" y="21" width="2" height="2" rx="1" fill="white" stroke="#111111" stroke-width="2"/>
<rect x="16.5391" y="21" width="2" height="2" rx="1" fill="white" stroke="#111111" stroke-width="2"/>
</svg>
