<svg width="20" height="20" viewBox="0 0 20 20" fill="none" xmlns="http://www.w3.org/2000/svg">
<g id="&#236;&#149;&#132;&#236;&#157;&#180;&#236;&#189;&#152;/20x20/&#235;&#172;&#188;&#236;&#157;&#140;&#237;&#145;&#156;">
<path id="Combined Shape" fill-rule="evenodd" clip-rule="evenodd" d="M10.0004 16.5999C6.36041 16.5999 3.39941 13.6399 3.39941 9.9999C3.39941 6.3609 6.36041 3.3999 10.0004 3.3999C13.6394 3.3999 16.6004 6.3609 16.6004 9.9999C16.6004 13.6399 13.6394 16.5999 10.0004 16.5999ZM10 2C5.581 2 2 5.582 2 10C2 14.418 5.581 18 10 18C14.418 18 18 14.418 18 10C18 5.582 14.418 2 10 2ZM10 12.416C9.447 12.416 9 12.864 9 13.416C9 13.968 9.447 14.416 10 14.416C10.552 14.416 11 13.968 11 13.416C11 12.864 10.552 12.416 10 12.416ZM8.3274 6.5231L8.4004 6.4491C9.3014 5.5451 10.7694 5.5451 11.6724 6.4471C12.5744 7.3491 12.5744 8.8161 11.6724 9.7181L10.5764 10.8151V11.0651C10.5764 11.4511 10.2624 11.7651 9.8764 11.7651C9.4894 11.7651 9.1754 11.4511 9.1754 11.0651V10.5251C9.1754 10.3391 9.2504 10.1611 9.3804 10.0301L10.6824 8.7281C10.8554 8.5551 10.9504 8.3261 10.9504 8.0831C10.9504 7.8391 10.8554 7.6101 10.6824 7.4371C10.3274 7.0811 9.7474 7.0811 9.3914 7.4371L9.3174 7.5111C9.1434 7.6851 9.0484 7.9141 9.0484 8.1581C9.0484 8.5451 8.7354 8.8581 8.3484 8.8581C7.9624 8.8581 7.6484 8.5451 7.6484 8.1581C7.6484 7.5401 7.8894 6.9591 8.3274 6.5231Z" fill="#111111"/>
</g>
</svg>
