<svg width="26" height="27" viewBox="0 0 26 27" fill="none" xmlns="http://www.w3.org/2000/svg">
<rect y="0.684082" width="26" height="26" rx="13" fill="url(#paint0_radial_2156_1482)"/>
<path d="M16.7484 5.05249H9.88071C6.83531 5.05249 4.36719 7.52061 4.36719 10.5669V17.4346C4.36719 20.4791 6.83531 22.9472 9.88071 22.9472H16.7484C19.7938 22.9472 22.2619 20.4791 22.2619 17.4346V10.5669C22.2619 7.52147 19.7938 5.05249 16.7484 5.05249ZM20.5439 16.7752C20.5439 19.2364 18.5485 21.2301 16.089 21.2301H10.5392C8.07801 21.2301 6.08346 19.2364 6.08346 16.7752V11.2254C6.08346 8.76591 8.07801 6.7705 10.5392 6.7705H16.089C18.5485 6.7705 20.5439 8.76591 20.5439 11.2254V16.7752Z" fill="white"/>
<path d="M13.3152 9.34717C10.7451 9.34717 8.66211 11.4295 8.66211 13.9998C8.66211 16.5701 10.7451 18.6524 13.3152 18.6524C15.8852 18.6524 17.9674 16.5684 17.9674 13.9998C17.9674 11.4312 15.8844 9.34717 13.3152 9.34717ZM13.3152 16.7996C11.7678 16.7996 10.5157 15.5456 10.5157 13.9998C10.5157 12.454 11.7678 11.2 13.3152 11.2C14.8625 11.2 16.1138 12.4523 16.1138 13.9998C16.1138 15.5473 14.8608 16.7996 13.3152 16.7996Z" fill="white"/>
<path d="M18.6825 8.9896C18.6825 9.58235 18.201 10.0629 17.6081 10.0629C17.0151 10.0629 16.5352 9.58235 16.5352 8.9896C16.5352 8.39685 17.0159 7.91553 17.6081 7.91553C18.2003 7.91553 18.6825 8.39685 18.6825 8.9896Z" fill="white"/>
<defs>
<radialGradient id="paint0_radial_2156_1482" cx="0" cy="0" r="1" gradientUnits="userSpaceOnUse" gradientTransform="translate(7.6162 28.6972) scale(34.4533 34.452)">
<stop offset="0.1" stop-color="#FFD87A"/>
<stop offset="0.15" stop-color="#FCCB76"/>
<stop offset="0.26" stop-color="#F4AA6C"/>
<stop offset="0.4" stop-color="#E7745D"/>
<stop offset="0.45" stop-color="#E36058"/>
<stop offset="0.68" stop-color="#CD3694"/>
<stop offset="1" stop-color="#6668B0"/>
</radialGradient>
</defs>
</svg>
