<svg width="20" height="20" viewBox="0 0 20 20" fill="none" xmlns="http://www.w3.org/2000/svg">
<g id="&#236;&#149;&#132;&#236;&#157;&#180;&#236;&#189;&#152;/20x20/&#236;&#131;&#136;&#235;&#161;&#156;&#234;&#179;&#160;&#236;&#185;&#168;">
<path id="Fill 1" fill-rule="evenodd" clip-rule="evenodd" d="M17.3 9.245C16.913 9.245 16.6 9.555 16.6 9.936C16.6 13.62 13.639 16.617 10 16.617C6.362 16.617 3.401 13.62 3.401 9.936C3.401 6.252 6.362 3.255 10 3.255C11.368 3.255 12.686 3.689 13.792 4.478H11.824C11.438 4.478 11.124 4.788 11.124 5.17C11.124 5.552 11.438 5.862 11.824 5.862H15.333C15.72 5.862 16.033 5.552 16.033 5.17V1.692C16.033 1.31 15.72 1 15.333 1C14.946 1 14.633 1.31 14.633 1.692V3.374C13.284 2.404 11.675 1.872 10 1.872C5.589 1.872 2 5.49 2 9.936C2 14.383 5.589 18 10 18C14.411 18 18 14.383 18 9.936C18 9.555 17.687 9.245 17.3 9.245Z" fill="#111111"/>
</g>
</svg>
