<svg width="20" height="20" viewBox="0 0 20 20" fill="none" xmlns="http://www.w3.org/2000/svg">
<path fill-rule="evenodd" clip-rule="evenodd" d="M10.0706 1.90113C9.34257 1.90013 8.70057 2.14713 8.24057 2.61513C7.78457 3.08013 7.54357 3.69413 7.56257 4.34413L7.59257 5.31113C7.63257 6.59513 8.67557 7.61413 9.96657 7.62813C9.97557 7.62913 9.98457 7.62913 9.99357 7.62913C11.2676 7.62913 12.3146 6.64313 12.3816 5.37313L12.4326 4.40713C12.4676 3.75613 12.2396 3.13513 11.7926 2.65713C11.3426 2.17813 10.7306 1.90913 10.0706 1.90113ZM9.99484 9.02903H9.95084C7.90584 9.00503 6.25684 7.39103 6.19384 5.35403L6.16484 4.38603C6.13384 3.35203 6.51484 2.37403 7.24184 1.63503C7.96984 0.89103 8.92384 0.49603 9.98884 0.50003C11.1318 0.51303 12.0998 0.93903 12.8138 1.69903C13.5238 2.45703 13.8858 3.44503 13.8318 4.48103L13.7798 5.44803C13.6738 7.46303 12.0148 9.02903 9.99484 9.02903ZM1.5 18.8007C1.5 14.0707 5.313 10.2217 10 10.2217C14.687 10.2217 18.5 14.0707 18.5 18.8007C18.5 19.1877 18.187 19.5007 17.8 19.5007C17.413 19.5007 17.1 19.1877 17.1 18.8007C17.1 14.8427 13.915 11.6217 10 11.6217C6.085 11.6217 2.9 14.8427 2.9 18.8007C2.9 19.1877 2.587 19.5007 2.2 19.5007C1.813 19.5007 1.5 19.1877 1.5 18.8007Z" fill="#C7C7C7"/>
</svg>
