<svg width="32" height="32" viewBox="0 0 32 32" fill="none" xmlns="http://www.w3.org/2000/svg">
<path d="M29 20C29 19.4477 28.5523 19 28 19C27.4477 19 27 19.4477 27 20H29ZM4 25.3333H3H4ZM5 20C5 19.4477 4.55228 19 4 19C3.44772 19 3 19.4477 3 20H5ZM10.0404 12.6262C9.64992 12.2357 9.01675 12.2357 8.62623 12.6262C8.2357 13.0168 8.2357 13.6499 8.62623 14.0404L10.0404 12.6262ZM16 20L15.2929 20.7071C15.6834 21.0976 16.3166 21.0976 16.7071 20.7071L16 20ZM23.3738 14.0404C23.7643 13.6499 23.7643 13.0168 23.3738 12.6262C22.9832 12.2357 22.3501 12.2357 21.9596 12.6262L23.3738 14.0404ZM17 4C17 3.44772 16.5523 3 16 3C15.4477 3 15 3.44772 15 4H17ZM27 20V25.3333H29V20H27ZM27 25.3333C27 25.7754 26.8244 26.1993 26.5118 26.5118L27.9261 27.9261C28.6137 27.2384 29 26.3058 29 25.3333H27ZM26.5118 26.5118C26.1993 26.8244 25.7754 27 25.3333 27V29C26.3058 29 27.2384 28.6137 27.9261 27.9261L26.5118 26.5118ZM25.3333 27H6.66667V29H25.3333V27ZM6.66667 27C6.22464 27 5.80072 26.8244 5.48816 26.5118L4.07394 27.9261C4.76157 28.6137 5.69421 29 6.66667 29V27ZM5.48816 26.5118C5.17559 26.1993 5 25.7754 5 25.3333H3C3 26.3058 3.38631 27.2384 4.07394 27.9261L5.48816 26.5118ZM5 25.3333V20H3V25.3333H5ZM8.62623 14.0404L15.2929 20.7071L16.7071 19.2929L10.0404 12.6262L8.62623 14.0404ZM16.7071 20.7071L23.3738 14.0404L21.9596 12.6262L15.2929 19.2929L16.7071 20.7071ZM17 20V4H15V20H17Z" fill="#3182F6"/>
</svg>
