<svg width="26" height="26" viewBox="0 0 26 26" fill="none" xmlns="http://www.w3.org/2000/svg">
<rect width="26" height="26" rx="13" fill="#32B24A"/>
<path d="M19.157 6H6.84299C5.27288 6 4 7.26511 4 8.82633V15.5312C4 17.0924 5.27288 18.3575 6.84299 18.3575H11.0848L12.5323 20.6922C12.5323 20.6922 12.5483 20.7197 12.5793 20.7588C12.6641 20.9027 12.8203 21 13 21C13.1797 21 13.3342 20.9035 13.419 20.7613C13.4551 20.7189 13.4677 20.6914 13.4677 20.6914L14.9152 18.3567H19.157C20.7271 18.3567 22 17.0915 22 15.5303V8.82633C22 7.26511 20.7271 6 19.157 6Z" fill="white"/>
<path d="M8.27115 11.3952C8.27115 11.3952 7.72417 11.3952 7.22768 11.8564V10H6V14.8778H7.23983V14.496C7.23983 14.496 7.53249 15 8.27022 15C8.27022 15 10 14.9393 10 13.1793C10 13.1793 9.93642 11.3952 8.27022 11.3952H8.27115ZM8.00094 13.9697C7.56522 13.9697 7.21178 13.6325 7.21178 13.2168C7.21178 12.8011 7.56522 12.4648 8.00094 12.4648C8.43665 12.4648 8.78915 12.802 8.78915 13.2168C8.78915 13.6316 8.43572 13.9697 8.00094 13.9697Z" fill="#F47628"/>
<path d="M10 10V11.1315C10 11.1315 10.6427 11.1073 10.6427 12.1047V15H11.9998V11.8372C11.9998 11.8372 12.0578 10 10 10Z" fill="#F47628"/>
<path d="M13.9772 11C13.9772 11 12.0002 11 12.0002 12.5101C12.0002 12.5101 11.9364 14 13.9772 14C13.9772 14 15.9998 13.9978 15.9998 12.5101C15.9998 12.5101 16.0654 11 13.9772 11ZM13.9772 13.1394C13.5525 13.1394 13.2079 12.8576 13.2079 12.5101C13.2079 12.1626 13.5525 11.8814 13.9772 11.8814C14.402 11.8814 14.7456 12.1633 14.7456 12.5101C14.7456 12.8568 14.401 13.1394 13.9772 13.1394Z" fill="#F47628"/>
<path d="M18.7945 11.1133V11.425C18.7945 11.425 18.4384 11.0003 17.7544 11.0003C17.7544 11.0003 16 10.9341 16 12.7085C16 12.7085 15.9802 14.3623 17.7062 14.3623C17.7062 14.3623 18.41 14.3878 18.7945 13.9376V14.1975C18.7945 14.1975 18.8814 15.0121 18.0047 15.0121H17.7062V16H18.188C18.188 16 20 16.0178 20 14.2587V11.1133H18.7955H18.7945ZM18.0539 13.4373C17.6136 13.4373 17.2574 13.1162 17.2574 12.7204C17.2574 12.3246 17.6136 12.0043 18.0539 12.0043C18.4941 12.0043 18.8503 12.3254 18.8503 12.7204C18.8503 13.1154 18.4932 13.4373 18.0539 13.4373Z" fill="#F47628"/>
</svg>
