<svg width="52" height="52" viewBox="0 0 52 52" fill="none" xmlns="http://www.w3.org/2000/svg">
<mask id="mask0_3929_3605" style="mask-type:alpha" maskUnits="userSpaceOnUse" x="8" y="8" width="36" height="36">
<rect x="8" y="8" width="36" height="36" fill="white"/>
</mask>
<g mask="url(#mask0_3929_3605)">
<path d="M18.9032 15.1156C18.9032 12.5423 20.9893 10.4563 23.5626 10.4563V10.4563C26.1359 10.4563 28.2219 12.5423 28.2219 15.1156V18.4438H18.9032V15.1156Z" stroke="#80AEFF" stroke-width="1.99687" stroke-linecap="round" stroke-linejoin="round"/>
<path fill-rule="evenodd" clip-rule="evenodd" d="M20.5954 39.7437H11.8092C10.9908 39.7437 10.3661 39.0121 10.4944 38.2038L13.8754 16.9038C13.978 16.2572 14.5355 15.7813 15.1902 15.7813H31.9348C32.5895 15.7813 33.147 16.2572 33.2496 16.9038L36.6306 38.2038C36.7589 39.0122 36.1342 39.7437 35.3158 39.7437H20.5954Z" fill="#B6D4FF"/>
<path fill-rule="evenodd" clip-rule="evenodd" d="M26.4469 39.7438C25.6305 39.7438 25.0065 39.0157 25.1313 38.2089L27.1916 24.8964C27.292 24.2475 27.8506 23.7687 28.5072 23.7687H38.5867C39.2433 23.7687 39.8018 24.2475 39.9022 24.8964L41.9625 38.2089C42.0874 39.0157 41.4633 39.7438 40.6469 39.7438H26.4469Z" fill="#3182F6"/>
<path d="M36.2094 27.0969V28.4281C36.2094 29.8986 35.0173 31.0906 33.5469 31.0906V31.0906C32.0764 31.0906 30.8844 29.8986 30.8844 28.4281V27.0969" stroke="#FEBA02" stroke-width="1.33125" stroke-linecap="round" stroke-linejoin="round"/>
</g>
</svg>
