<svg width="26" height="26" viewBox="0 0 26 26" fill="none" xmlns="http://www.w3.org/2000/svg">
<circle cx="13" cy="13" r="13" fill="#ED3023"/>
<path d="M20.3511 9.68195C20.2636 9.35587 20.092 9.05854 19.8532 8.81982C19.6145 8.58111 19.3172 8.40942 18.9911 8.322C17.7909 8 12.9818 8 12.9818 8C12.9818 8 8.16842 8 6.96906 8.322C6.64283 8.40929 6.34532 8.58092 6.10645 8.81965C5.86758 9.05837 5.69577 9.35577 5.60828 9.68195C5.28711 10.8813 5.28711 13.3854 5.28711 13.3854C5.28711 13.3854 5.28711 15.8887 5.60828 17.0881C5.69602 17.4142 5.86791 17.7116 6.10673 17.9504C6.34555 18.1892 6.64292 18.3611 6.96906 18.4488C8.16842 18.77 12.9818 18.77 12.9818 18.77C12.9818 18.77 17.7926 18.77 18.9928 18.4488C19.319 18.3613 19.6164 18.1895 19.8551 17.9507C20.0938 17.7118 20.2654 17.4143 20.3527 17.0881C20.6764 15.8887 20.6764 13.3854 20.6764 13.3854C20.6764 13.3854 20.6764 10.8813 20.3544 9.68195" fill="white"/>
<path d="M11.4414 15.6931L15.4393 13.3855L11.4414 11.0771V15.6931Z" fill="#EC2526"/>
</svg>
