<svg width="36" height="36" viewBox="0 0 36 36" fill="none" xmlns="http://www.w3.org/2000/svg">
<circle cx="18" cy="18" r="12.25" stroke="black" stroke-width="1.5"/>
<path fill-rule="evenodd" clip-rule="evenodd" d="M19.6435 17.6621L17.331 17.6656V15.3334H19.6458C20.2777 15.3334 20.791 15.856 20.791 16.4983C20.791 17.1406 20.2777 17.6621 19.6435 17.6621M19.4263 13H15.9907C15.4448 13 15 13.4437 15 13.9919V22.3346C15 22.9792 15.5215 23.5019 16.1661 23.5019C16.8095 23.5019 17.331 22.9792 17.331 22.3346V22.3335V20.0001L19.6458 19.9966C21.6261 19.9966 23.2266 18.3183 23.1162 16.302C23.0164 14.4774 21.2533 13 19.4263 13" fill="black"/>
</svg>
