<svg width="24" height="24" viewBox="0 0 24 24" fill="none" xmlns="http://www.w3.org/2000/svg">
<path d="M20.8401 4.60987L20.3097 5.14008L20.3099 5.14033L20.8401 4.60987ZM16.9501 2.99805V3.74805V2.99805ZM13.0601 4.60987L13.5904 5.1402L13.5906 5.14008L13.0601 4.60987ZM12.0001 5.66987L11.4698 6.2002C11.7627 6.4931 12.2376 6.4931 12.5304 6.2002L12.0001 5.66987ZM10.9401 4.60987L10.4098 5.1402L10.9401 4.60987ZM3.16012 12.3899L2.62979 12.9202L3.16012 12.3899ZM12.0001 21.2299L11.4698 21.7602C11.7627 22.0531 12.2376 22.0531 12.5304 21.7602L12.0001 21.2299ZM20.8401 12.3899L20.3099 11.8594L20.3098 11.8595L20.8401 12.3899ZM21.3706 4.07967C20.7902 3.49899 20.101 3.03836 19.3426 2.72408L18.7684 4.10983C19.3448 4.34868 19.8686 4.69876 20.3097 5.14008L21.3706 4.07967ZM19.3426 2.72408C18.5841 2.40981 17.7711 2.24805 16.9501 2.24805V3.74805C17.5741 3.74805 18.1919 3.87098 18.7684 4.10983L19.3426 2.72408ZM16.9501 2.24805C16.1291 2.24805 15.3161 2.4098 14.5577 2.72408L15.1319 4.10983C15.7083 3.87098 16.3262 3.74805 16.9501 3.74805V2.24805ZM14.5577 2.72408C13.7992 3.03836 13.1101 3.49899 12.5297 4.07967L13.5906 5.14008C14.0317 4.69876 14.5554 4.34868 15.1319 4.10983L14.5577 2.72408ZM12.5298 4.07954L11.4698 5.13954L12.5304 6.2002L13.5904 5.1402L12.5298 4.07954ZM12.5304 5.13954L11.4704 4.07954L10.4098 5.1402L11.4698 6.2002L12.5304 5.13954ZM11.4704 4.07954C10.2981 2.9072 8.70806 2.24858 7.05012 2.24858V3.74858C8.31024 3.74858 9.51875 4.24916 10.4098 5.1402L11.4704 4.07954ZM7.05012 2.24858C5.39217 2.24858 3.80213 2.9072 2.62979 4.07954L3.69045 5.1402C4.58149 4.24916 5.79 3.74858 7.05012 3.74858V2.24858ZM2.62979 4.07954C1.45744 5.25189 0.798828 6.84193 0.798828 8.49987H2.29883C2.29883 7.23975 2.79941 6.03124 3.69045 5.1402L2.62979 4.07954ZM0.798828 8.49987C0.798828 10.1578 1.45744 11.7479 2.62979 12.9202L3.69045 11.8595C2.79941 10.9685 2.29883 9.75999 2.29883 8.49987H0.798828ZM21.3703 12.9203C21.951 12.3399 22.4116 11.6508 22.7259 10.8923L21.3402 10.3181C21.1013 10.8946 20.7512 11.4183 20.3099 11.8594L21.3703 12.9203ZM22.7259 10.8923C23.0402 10.1338 23.2019 9.32088 23.2019 8.49987H21.7019C21.7019 9.12384 21.579 9.74169 21.3402 10.3181L22.7259 10.8923ZM23.2019 8.49987C23.2019 7.67886 23.0402 6.8659 22.7259 6.10742L21.3402 6.68161C21.579 7.25805 21.7019 7.87591 21.7019 8.49987H23.2019ZM22.7259 6.10742C22.4116 5.34895 21.951 4.65982 21.3703 4.07942L20.3099 5.14033C20.7512 5.58143 21.1013 6.10517 21.3402 6.68161L22.7259 6.10742ZM2.62979 12.9202L11.4698 21.7602L12.5304 20.6995L3.69045 11.8595L2.62979 12.9202ZM12.5304 21.7602L21.3704 12.9202L20.3098 11.8595L11.4698 20.6995L12.5304 21.7602Z" fill="black"/>
</svg>
