<svg width="18" height="18" viewBox="0 0 18 18" fill="none" xmlns="http://www.w3.org/2000/svg">
<path d="M9.25 13.0227C9.25 13.1608 9.13807 13.2727 9 13.2727C8.86193 13.2727 8.75 13.1608 8.75 13.0227C8.75 12.8846 8.86193 12.7727 9 12.7727C9.13807 12.7727 9.25 12.8846 9.25 13.0227Z" fill="#F4F6FB" stroke="#F4F6FB"/>
<path d="M9 1C10.5822 1 12.129 1.4692 13.4446 2.34825C14.7602 3.2273 15.7855 4.47673 16.391 5.93853C16.9965 7.40034 17.155 9.00887 16.8463 10.5607C16.5376 12.1126 15.7757 13.538 14.6569 14.6568C13.538 15.7757 12.1126 16.5376 10.5607 16.8463C9.00887 17.155 7.40034 16.9965 5.93853 16.391C4.47673 15.7855 3.22729 14.7602 2.34824 13.4446C1.46919 12.129 1 10.5822 1 9C1 6.87827 1.84285 4.84345 3.34314 3.34316C4.84343 1.84287 6.87827 1 9 1V1Z" stroke="#F4F6FB" stroke-width="1.5" stroke-linecap="round" stroke-linejoin="round"/>
<path d="M6.93652 6.81817C6.93844 6.27184 7.1565 5.74845 7.54304 5.36236C7.92959 4.97626 8.45322 4.75885 8.99956 4.75757V4.75757C9.54589 4.75885 10.0695 4.97626 10.4561 5.36236C10.8426 5.74845 11.0607 6.27184 11.0626 6.81817V6.81817C11.0626 7.59878 10.5462 8.16362 9.9838 8.62908C8.99955 9.44362 8.99956 9.69334 8.99956 10.2558V10.7576" stroke="#F4F6FB" stroke-width="1.5" stroke-linecap="round" stroke-linejoin="round"/>
</svg>
