<svg width="24" height="24" viewBox="0 0 24 24" fill="none" xmlns="http://www.w3.org/2000/svg">
<path fill-rule="evenodd" clip-rule="evenodd" d="M19.7723 10.764C19.7853 11.141 20.0963 11.438 20.4713 11.438H20.4713C20.4803 11.438 20.4893 11.438 20.4973 11.437C20.8843 11.422 21.1853 11.098 21.1703 10.711C20.9863 5.827 17.0063 2 12.1113 2C7.38025 2 3.40925 5.689 3.06925 10.398C3.04125 10.784 3.33125 11.119 3.71625 11.147C4.08825 11.16 4.43725 10.885 4.46525 10.5C4.75225 6.518 8.11125 3.4 12.1113 3.4C16.2503 3.4 19.6163 6.634 19.7723 10.764ZM11.6875 21.9248C11.6875 22.3118 12.0005 22.6248 12.3875 22.6248C15.6025 22.6248 18.2565 21.5448 19.8615 19.5848C20.1055 19.2858 20.0615 18.8448 19.7625 18.5998C19.4645 18.3558 19.0235 18.3978 18.7775 18.6978C17.4635 20.3038 15.1345 21.2248 12.3875 21.2248C12.0005 21.2248 11.6875 21.5378 11.6875 21.9248Z" fill="#111111"/>
<path fill-rule="evenodd" clip-rule="evenodd" d="M18.5663 11.7691C18.9103 11.5091 19.3203 11.3731 19.7433 11.3731C19.8423 11.3731 19.9443 11.3811 20.0443 11.3971C21.1753 11.5691 21.9713 12.6631 21.8203 13.8381L21.4763 16.4891C21.4023 17.0641 21.1143 17.5671 20.6643 17.9051C20.2393 18.2261 19.7133 18.3601 19.1863 18.2781C18.0553 18.1051 17.2593 17.0101 17.4113 15.8361L17.7543 13.1851C17.8283 12.6101 18.1173 12.1071 18.5663 11.7691ZM18.9753 19.6621C19.1473 19.6891 19.3203 19.7011 19.4913 19.7011C20.2143 19.7011 20.9163 19.4681 21.5063 19.0231C22.2593 18.4571 22.7413 17.6201 22.8653 16.6681L23.2083 14.0181C23.4563 12.0951 22.1323 10.2981 20.2553 10.0121C19.3553 9.87408 18.4533 10.1011 17.7243 10.6501C16.9723 11.2161 16.4903 12.0521 16.3663 13.0051L16.0233 15.6571C15.7743 17.5781 17.0983 19.3751 18.9753 19.6621ZM4.19302 11.396C4.29502 11.381 4.39502 11.373 4.49602 11.373C4.91902 11.373 5.32802 11.509 5.67302 11.769C6.12102 12.106 6.40902 12.609 6.48302 13.185L6.82702 15.836C6.97802 17.01 6.18302 18.104 5.05302 18.277C4.52502 18.359 4.00002 18.226 3.57302 17.904C3.12402 17.566 2.83602 17.063 2.76202 16.488L2.41902 13.838C2.26702 12.664 3.06202 11.568 4.19302 11.396ZM2.73109 19.0216C3.32209 19.4676 4.02309 19.7006 4.74809 19.7006C4.91909 19.7006 5.09209 19.6866 5.26409 19.6616C7.14009 19.3746 8.46409 17.5776 8.21609 15.6556L7.87209 13.0046C7.74909 12.0526 7.26709 11.2166 6.51509 10.6496C5.78609 10.1016 4.89009 9.87462 3.98209 10.0116C2.10509 10.2976 0.781088 12.0946 1.03009 14.0176L1.37309 16.6676C1.49709 17.6196 1.97809 18.4556 2.73109 19.0216Z" fill="#3182F6"/>
</svg>
