<svg width="52" height="52" viewBox="0 0 52 52" fill="none" xmlns="http://www.w3.org/2000/svg">
<path fill-rule="evenodd" clip-rule="evenodd" d="M20.9289 12.0347C21.6187 11.3483 22.7335 11.3483 23.4234 12.0347L25.9304 14.5292C26.6251 15.2204 26.6251 16.3449 25.9304 17.0362V17.0362C25.2405 17.7226 24.1257 17.7226 23.4359 17.0362L20.9289 14.5416C20.2341 13.8504 20.2341 12.7259 20.9289 12.0347V12.0347Z" fill="#FEBA02"/>
<path fill-rule="evenodd" clip-rule="evenodd" d="M30.6578 12.0347C29.9679 11.3483 28.8531 11.3483 28.1633 12.0347L25.6563 14.5292C24.9616 15.2204 24.9616 16.3449 25.6563 17.0362V17.0362C26.3461 17.7226 27.4609 17.7226 28.1508 17.0362L30.6578 14.5416C31.3525 13.8504 31.3525 12.7259 30.6578 12.0347V12.0347Z" fill="#FEBA02"/>
<rect x="14.1819" y="19.4232" width="23.6364" height="18.8148" rx="1.19838" fill="#277DF9"/>
<rect x="23.6365" y="22.951" width="4.72727" height="15.2871" fill="#B6D4FF"/>
<rect x="13" y="14.7195" width="26" height="8.23149" rx="1.19838" fill="#80AEFF"/>
<rect x="23.1637" y="14.7195" width="5.67273" height="8.23149" fill="#B6D4FF"/>
</svg>
