<svg width="20" height="20" viewBox="0 0 20 20" fill="none" xmlns="http://www.w3.org/2000/svg">
<path d="M0.833008 7.73337C0.501637 7.73337 0.233008 8.002 0.233008 8.33337C0.233008 8.66474 0.501637 8.93337 0.833008 8.93337V7.73337ZM19.1663 8.93337C19.4977 8.93337 19.7663 8.66474 19.7663 8.33337C19.7663 8.002 19.4977 7.73337 19.1663 7.73337V8.93337ZM2.49967 3.93337H17.4997V2.73337H2.49967V3.93337ZM17.4997 3.93337C18.0888 3.93337 18.5663 4.41094 18.5663 5.00004H19.7663C19.7663 3.7482 18.7515 2.73337 17.4997 2.73337V3.93337ZM18.5663 5.00004V15H19.7663V5.00004H18.5663ZM18.5663 15C18.5663 15.5891 18.0888 16.0667 17.4997 16.0667V17.2667C18.7515 17.2667 19.7663 16.2519 19.7663 15H18.5663ZM17.4997 16.0667H2.49967V17.2667H17.4997V16.0667ZM2.49967 16.0667C1.91057 16.0667 1.43301 15.5891 1.43301 15H0.233008C0.233008 16.2519 1.24783 17.2667 2.49967 17.2667V16.0667ZM1.43301 15V5.00004H0.233008V15H1.43301ZM1.43301 5.00004C1.43301 4.41094 1.91057 3.93337 2.49967 3.93337V2.73337C1.24783 2.73337 0.233008 3.7482 0.233008 5.00004H1.43301ZM0.833008 8.93337H19.1663V7.73337H0.833008V8.93337Z" fill="black"/>
</svg>
