<svg width="24" height="24" viewBox="0 0 24 24" fill="none" xmlns="http://www.w3.org/2000/svg">
<path d="M19 12.75C19.4142 12.75 19.75 12.4142 19.75 12C19.75 11.5858 19.4142 11.25 19 11.25V12.75ZM5 12L4.46967 11.4697C4.17678 11.7626 4.17678 12.2374 4.46967 12.5303L5 12ZM11.4697 19.5303C11.7626 19.8232 12.2374 19.8232 12.5303 19.5303C12.8232 19.2374 12.8232 18.7626 12.5303 18.4697L11.4697 19.5303ZM12.5303 5.53033C12.8232 5.23744 12.8232 4.76256 12.5303 4.46967C12.2374 4.17678 11.7626 4.17678 11.4697 4.46967L12.5303 5.53033ZM19 11.25H5V12.75H19V11.25ZM12.5303 18.4697L5.53033 11.4697L4.46967 12.5303L11.4697 19.5303L12.5303 18.4697ZM5.53033 12.5303L12.5303 5.53033L11.4697 4.46967L4.46967 11.4697L5.53033 12.5303Z" fill="black"/>
</svg>
