<svg width="20" height="20" viewBox="0 0 20 20" fill="none" xmlns="http://www.w3.org/2000/svg">
<path fill-rule="evenodd" clip-rule="evenodd" d="M6.66673 4.76665C3.77644 4.76665 1.4334 7.10969 1.4334 9.99998C1.4334 12.8903 3.77644 15.2333 6.66673 15.2333H13.3334C16.2237 15.2333 18.5667 12.8903 18.5667 9.99998C18.5667 7.10969 16.2237 4.76665 13.3334 4.76665H6.66673ZM0.233398 9.99998C0.233398 6.44695 3.1137 3.56665 6.66673 3.56665H13.3334C16.8864 3.56665 19.7667 6.44695 19.7667 9.99998C19.7667 13.553 16.8864 16.4333 13.3334 16.4333H6.66673C3.1137 16.4333 0.233398 13.553 0.233398 9.99998ZM6.66673 8.09998C5.61739 8.09998 4.76673 8.95064 4.76673 9.99998C4.76673 11.0493 5.61739 11.9 6.66673 11.9C7.71607 11.9 8.56673 11.0493 8.56673 9.99998C8.56673 8.95064 7.71607 8.09998 6.66673 8.09998ZM3.56673 9.99998C3.56673 8.2879 4.95465 6.89998 6.66673 6.89998C8.37881 6.89998 9.76673 8.2879 9.76673 9.99998C9.76673 11.7121 8.37881 13.1 6.66673 13.1C4.95465 13.1 3.56673 11.7121 3.56673 9.99998Z" fill="black"/>
</svg>
