<svg width="20" height="20" viewBox="0 0 20 20" fill="none" xmlns="http://www.w3.org/2000/svg">
<path d="M17.417 10C17.417 9.58579 17.0812 9.25001 16.667 9.25001C16.2528 9.25001 15.917 9.58579 15.917 10H17.417ZM16.667 18.3333V19.0833C17.0812 19.0833 17.417 18.7476 17.417 18.3333H16.667ZM3.33366 18.3333H2.58366C2.58366 18.7476 2.91945 19.0833 3.33366 19.0833V18.3333ZM4.08366 10C4.08366 9.58579 3.74787 9.25001 3.33366 9.25001C2.91945 9.25001 2.58366 9.58579 2.58366 10H4.08366ZM1.66699 5.83334V5.08334C1.25278 5.08334 0.916992 5.41913 0.916992 5.83334H1.66699ZM18.3337 5.83334H19.0837C19.0837 5.41913 18.7479 5.08334 18.3337 5.08334V5.83334ZM18.3337 10V10.75C18.7479 10.75 19.0837 10.4142 19.0837 10H18.3337ZM1.66699 10H0.916992C0.916992 10.4142 1.25278 10.75 1.66699 10.75L1.66699 10ZM9.25033 18.3333C9.25033 18.7476 9.58611 19.0833 10.0003 19.0833C10.4145 19.0833 10.7503 18.7476 10.7503 18.3333H9.25033ZM6.25033 5.83334L6.25033 5.08334L6.25033 5.83334ZM4.16699 3.75001L3.41699 3.75001L4.16699 3.75001ZM6.25033 1.66667L6.25033 0.916672L6.25033 1.66667ZM13.7503 5.83334V5.08334V5.83334ZM13.7503 1.66667V2.41667V1.66667ZM15.917 10V18.3333H17.417V10H15.917ZM16.667 17.5833H3.33366V19.0833H16.667V17.5833ZM4.08366 18.3333V10H2.58366V18.3333H4.08366ZM1.66699 6.58334H18.3337V5.08334H1.66699V6.58334ZM17.5837 5.83334V10H19.0837V5.83334H17.5837ZM18.3337 9.25001H1.66699V10.75H18.3337V9.25001ZM2.41699 10V5.83334H0.916992V10H2.41699ZM10.7503 18.3333V5.83334H9.25033V18.3333H10.7503ZM10.0003 5.08334H6.25033V6.58334H10.0003V5.08334ZM6.25033 5.08334C5.8967 5.08334 5.55757 4.94286 5.30752 4.69281L4.24686 5.75347C4.77821 6.28483 5.49888 6.58334 6.25033 6.58334L6.25033 5.08334ZM5.30752 4.69281C5.05747 4.44277 4.91699 4.10363 4.91699 3.75001L3.41699 3.75001C3.41699 4.50145 3.7155 5.22212 4.24686 5.75347L5.30752 4.69281ZM4.91699 3.75001C4.91699 3.39638 5.05747 3.05724 5.30752 2.8072L4.24686 1.74654C3.7155 2.27789 3.41699 2.99856 3.41699 3.75001L4.91699 3.75001ZM5.30752 2.8072C5.55757 2.55715 5.8967 2.41667 6.25033 2.41667L6.25033 0.916672C5.49888 0.916672 4.77821 1.21518 4.24686 1.74654L5.30752 2.8072ZM6.25033 2.41667C7.29158 2.41667 8.0329 3.1496 8.56191 4.11144C8.81774 4.57658 8.99553 5.04868 9.10954 5.40872C9.16612 5.58738 9.20594 5.73512 9.23122 5.8362C9.24383 5.88667 9.25276 5.92527 9.25829 5.95002C9.26105 5.96239 9.26296 5.97127 9.26405 5.97643C9.26459 5.97901 9.26493 5.98065 9.26507 5.98133C9.26514 5.98167 9.26516 5.98176 9.26513 5.98161C9.26511 5.98154 9.26509 5.9814 9.26505 5.98121C9.26503 5.98111 9.26499 5.98091 9.26498 5.98086C9.26494 5.98065 9.26489 5.98043 10.0003 5.83334C10.7358 5.68625 10.7357 5.68599 10.7357 5.68572C10.7356 5.68561 10.7356 5.68532 10.7355 5.68509C10.7354 5.68464 10.7353 5.68412 10.7352 5.68355C10.735 5.68239 10.7347 5.68097 10.7344 5.67931C10.7337 5.67598 10.7328 5.67165 10.7316 5.66634C10.7294 5.65573 10.7263 5.64122 10.7222 5.62307C10.7141 5.58679 10.7023 5.53587 10.6864 5.4724C10.6547 5.34562 10.6067 5.16784 10.5396 4.95588C10.4062 4.53466 10.1933 3.9651 9.87624 3.38857C9.25942 2.26708 8.12573 0.916672 6.25033 0.916672V2.41667ZM10.0003 6.58334H13.7503V5.08334H10.0003V6.58334ZM13.7503 6.58334C14.5018 6.58334 15.2224 6.28483 15.7538 5.75347L14.6931 4.69281C14.4431 4.94286 14.1039 5.08334 13.7503 5.08334L13.7503 6.58334ZM15.7538 5.75347C16.2851 5.22212 16.5837 4.50145 16.5837 3.75001H15.0837C15.0837 4.10363 14.9432 4.44277 14.6931 4.69281L15.7538 5.75347ZM16.5837 3.75001C16.5837 2.99856 16.2851 2.27789 15.7538 1.74654L14.6931 2.8072C14.9432 3.05724 15.0837 3.39638 15.0837 3.75001H16.5837ZM15.7538 1.74654C15.2224 1.21518 14.5018 0.916672 13.7503 0.916672V2.41667C14.1039 2.41667 14.4431 2.55715 14.6931 2.8072L15.7538 1.74654ZM13.7503 0.916672C11.8749 0.916672 10.7412 2.26708 10.1244 3.38857C9.80732 3.9651 9.59449 4.53466 9.4611 4.95588C9.39398 5.16784 9.34592 5.34562 9.31422 5.4724C9.29836 5.53587 9.28653 5.58679 9.27843 5.62307C9.27438 5.64122 9.27125 5.65573 9.26901 5.66634C9.26789 5.67165 9.26699 5.67598 9.2663 5.67931C9.26596 5.68097 9.26567 5.68239 9.26544 5.68355C9.26532 5.68412 9.26521 5.68464 9.26512 5.68509C9.26508 5.68532 9.26502 5.68561 9.265 5.68572C9.26494 5.68599 9.26489 5.68625 10.0003 5.83334C10.7358 5.98043 10.7357 5.98065 10.7357 5.98086C10.7357 5.98091 10.7356 5.98111 10.7356 5.98121C10.7356 5.9814 10.7355 5.98154 10.7355 5.98161C10.7355 5.98176 10.7355 5.98167 10.7356 5.98133C10.7357 5.98065 10.7361 5.97901 10.7366 5.97643C10.7377 5.97127 10.7396 5.96239 10.7424 5.95002C10.7479 5.92527 10.7568 5.88667 10.7694 5.8362C10.7947 5.73512 10.8345 5.58738 10.8911 5.40872C11.0051 5.04868 11.1829 4.57658 11.4387 4.11144C11.9678 3.1496 12.7091 2.41667 13.7503 2.41667V0.916672Z" fill="black"/>
</svg>
