<svg width="16" height="16" viewBox="0 0 16 16" fill="none" xmlns="http://www.w3.org/2000/svg">
<g clip-path="url(#clip0_511_6149)">
<path d="M0.666626 12.6667H-0.083374H0.666626ZM1.99996 4V3.25V4ZM4.66663 4V4.75C4.91739 4.75 5.15156 4.62467 5.29066 4.41603L4.66663 4ZM5.99996 2V1.25C5.74919 1.25 5.51502 1.37533 5.37592 1.58397L5.99996 2ZM9.99996 2L10.624 1.58397C10.4849 1.37533 10.2507 1.25 9.99996 1.25V2ZM11.3333 4L10.7093 4.41603C10.8484 4.62467 11.0825 4.75 11.3333 4.75V4ZM14 4V3.25V4ZM14.5833 12.6667C14.5833 12.8214 14.5218 12.9697 14.4124 13.0791L15.4731 14.1398C15.8638 13.7491 16.0833 13.2192 16.0833 12.6667H14.5833ZM14.4124 13.0791C14.303 13.1885 14.1547 13.25 14 13.25V14.75C14.5525 14.75 15.0824 14.5305 15.4731 14.1398L14.4124 13.0791ZM14 13.25H1.99996V14.75H14V13.25ZM1.99996 13.25C1.84525 13.25 1.69688 13.1885 1.58748 13.0791L0.52682 14.1398C0.917521 14.5305 1.44742 14.75 1.99996 14.75V13.25ZM1.58748 13.0791C1.47808 12.9697 1.41663 12.8214 1.41663 12.6667H-0.083374C-0.083374 13.2192 0.13612 13.7491 0.52682 14.1398L1.58748 13.0791ZM1.41663 12.6667V5.33333H-0.083374V12.6667H1.41663ZM1.41663 5.33333C1.41663 5.17862 1.47808 5.03025 1.58748 4.92085L0.52682 3.86019C0.136119 4.2509 -0.083374 4.7808 -0.083374 5.33333H1.41663ZM1.58748 4.92085C1.69688 4.81146 1.84525 4.75 1.99996 4.75V3.25C1.44742 3.25 0.917521 3.46949 0.52682 3.86019L1.58748 4.92085ZM1.99996 4.75H4.66663V3.25H1.99996V4.75ZM5.29066 4.41603L6.624 2.41603L5.37592 1.58397L4.04259 3.58397L5.29066 4.41603ZM5.99996 2.75H9.99996V1.25H5.99996V2.75ZM9.37592 2.41603L10.7093 4.41603L11.9573 3.58397L10.624 1.58397L9.37592 2.41603ZM11.3333 4.75H14V3.25H11.3333V4.75ZM14 4.75C14.1547 4.75 14.303 4.81146 14.4124 4.92085L15.4731 3.86019C15.0824 3.46949 14.5525 3.25 14 3.25L14 4.75ZM14.4124 4.92085C14.5218 5.03025 14.5833 5.17862 14.5833 5.33333H16.0833C16.0833 4.7808 15.8638 4.25089 15.4731 3.86019L14.4124 4.92085ZM14.5833 5.33333V12.6667H16.0833V5.33333H14.5833ZM9.91663 8.66667C9.91663 9.72521 9.0585 10.5833 7.99996 10.5833V12.0833C9.88693 12.0833 11.4166 10.5536 11.4166 8.66667H9.91663ZM7.99996 10.5833C6.94141 10.5833 6.08329 9.72521 6.08329 8.66667H4.58329C4.58329 10.5536 6.11299 12.0833 7.99996 12.0833V10.5833ZM6.08329 8.66667C6.08329 7.60812 6.94141 6.75 7.99996 6.75V5.25C6.11299 5.25 4.58329 6.77969 4.58329 8.66667H6.08329ZM7.99996 6.75C9.0585 6.75 9.91663 7.60812 9.91663 8.66667H11.4166C11.4166 6.77969 9.88693 5.25 7.99996 5.25V6.75Z" fill="#333333"/>
</g>
<defs>
<clipPath id="clip0_511_6149">
<rect width="16" height="16" fill="white"/>
</clipPath>
</defs>
</svg>
