<svg width="52" height="52" viewBox="0 0 52 52" fill="none" xmlns="http://www.w3.org/2000/svg">
<path fill-rule="evenodd" clip-rule="evenodd" d="M27.8641 10.6134C28.8154 9.66219 30.3576 9.66219 31.3089 10.6134L33.5804 12.885L33.5781 12.8873C32.1513 14.3141 32.1513 16.6275 33.5781 18.0544C35.005 19.4812 37.3184 19.4812 38.7452 18.0544L38.7475 18.0521L41.643 20.9476C42.5943 21.8989 42.5943 23.4411 41.643 24.3923L23.3924 42.643C22.4412 43.5942 20.8989 43.5942 19.9477 42.643L17.0402 39.7355C18.2462 38.3 18.174 36.1553 16.8235 34.8048C15.4729 33.4543 13.3282 33.382 11.8927 34.588L9.6135 32.3088C8.66227 31.3575 8.66226 29.8153 9.6135 28.864L27.8641 10.6134Z" fill="#277DF9"/>
<path d="M20.9196 19.2787L23.9268 22.2859" stroke="#B6D4FF" stroke-width="1.82684" stroke-linecap="round" stroke-linejoin="round"/>
<path d="M17.4747 22.729L20.4818 25.7361" stroke="#FEBA02" stroke-width="1.82684" stroke-linecap="round" stroke-linejoin="round"/>
<path d="M14.0299 26.1708L17.037 29.1779" stroke="#B6D4FF" stroke-width="1.82684" stroke-linecap="round" stroke-linejoin="round"/>
</svg>
