<svg width="103" height="21" viewBox="0 0 103 21" fill="none" xmlns="http://www.w3.org/2000/svg">
<path d="M9.1 12.92C5.52 12.92 3.42 14.32 3.42 16.58C3.42 18.84 5.52 20.24 9.1 20.24C12.68 20.24 14.78 18.84 14.78 16.58C14.78 14.32 12.68 12.92 9.1 12.92ZM3.18 3.24H8.08V3.54C8.08 3.9 8.04 4.38 7.66 4.64C6.56 5.4 4.24 6.42 2.16 7.2L3.06 8.84C5.28 7.96 7.5 6.9 9.12 5.94C10.68 6.86 12.94 7.94 15.16 8.8L16.02 7.2C13.98 6.42 11.76 5.42 10.58 4.64C10.18 4.38 10.16 3.9 10.16 3.54V3.24H15.04V1.56H3.18V3.24ZM0.52 10.12V11.8H17.62V10.12H10.12V7.68H8.08V10.12H0.52ZM9.1 18.56C6.7 18.56 5.46 17.74 5.46 16.58C5.46 15.42 6.7 14.6 9.1 14.6C11.5 14.6 12.74 15.42 12.74 16.58C12.74 17.74 11.5 18.56 9.1 18.56ZM20.3831 1.66V3.34H29.8431V4.28C29.8431 4.56 29.8431 4.88 29.8231 5.16C29.7631 6.24 29.6431 8.02 29.4431 9.36H17.5231V11.04H34.6231V9.36H31.4231C31.6431 8.02 31.8031 6.34 31.8631 5.22C31.8831 4.86 31.8831 4.56 31.8831 4.28V1.66H20.3831ZM32.4631 17.8H22.7631C22.5231 17.8 22.3431 17.64 22.3431 17.38V13.2H20.2631V18C20.2631 18.2 20.3431 18.38 20.4431 18.52C20.6231 18.74 21.0631 19.16 21.2631 19.32C21.4031 19.42 21.5831 19.48 21.7431 19.48H32.4631V17.8ZM49.0062 6.68H52.2062V5H49.0062V0.899999H46.9662V11.8H49.0062V6.68ZM47.1062 16.18C47.1062 17.62 45.9662 18.64 43.8462 18.64C41.7262 18.64 40.5862 17.62 40.5862 16.18C40.5862 14.74 41.7262 13.7 43.8462 13.7C45.9662 13.7 47.1062 14.74 47.1062 16.18ZM49.1062 16.18C49.1062 13.92 47.3462 12.04 43.8462 12.04C40.3462 12.04 38.5862 13.92 38.5862 16.18C38.5862 18.44 40.3462 20.3 43.8462 20.3C47.3462 20.3 49.1062 18.44 49.1062 16.18ZM41.4262 10.3C42.7062 10.3 44.6862 10.14 45.7662 9.94L45.5662 8.32C44.4462 8.5 42.7862 8.62 41.4662 8.62H38.2062C37.9662 8.62 37.7862 8.46 37.7862 8.2V3.6H43.8662V1.92H35.7462V8.82C35.7462 9.02 35.8262 9.2 35.9262 9.34C36.1062 9.56 36.5462 9.98 36.7462 10.14C36.8862 10.24 37.0662 10.3 37.2262 10.3H41.4262ZM53.9294 12.22C55.7494 11.3 58.1094 9.96 59.9894 8.54C60.5694 8.1 60.9894 7.6 61.2494 6.98H64.9694V13.78H67.0094V0.899999H64.9694V5.3H61.5694L61.5894 1.94H53.0494V3.62H59.5294V5.26C59.5294 6.32 59.0694 6.78 58.3694 7.34C57.0094 8.44 54.7294 9.7 52.9294 10.58L53.9294 12.22ZM67.6094 17.8H58.1294C57.8894 17.8 57.7094 17.64 57.7094 17.38V12.98H55.6294V18C55.6294 18.2 55.7094 18.38 55.8094 18.52C55.9894 18.74 56.4294 19.16 56.6294 19.32C56.7694 19.42 56.9494 19.48 57.1094 19.48H67.6094V17.8ZM83.1125 6.72H86.2125V5.04H83.1125V0.899999H81.0725V11.64H83.1125V6.72ZM81.1525 16.1C81.1525 17.64 79.9725 18.62 77.8525 18.62C75.7325 18.62 74.5525 17.64 74.5525 16.1C74.5525 14.56 75.7325 13.56 77.8525 13.56C79.9725 13.56 81.1525 14.56 81.1525 16.1ZM83.1925 16.1C83.1925 13.72 81.3125 11.88 77.8525 11.88C74.3925 11.88 72.5125 13.72 72.5125 16.1C72.5125 18.48 74.3925 20.3 77.8525 20.3C81.3125 20.3 83.1925 18.48 83.1925 16.1ZM70.6125 12.06C72.5925 11.06 74.7725 9.78 76.5925 8.38C77.6125 7.6 78.1525 6.6 78.1725 5.14L78.1925 1.92H69.7525V3.6H76.1325V5.06C76.1325 6.12 75.6725 6.66 74.9725 7.22C73.7725 8.18 71.6325 9.46 69.6325 10.42L70.6125 12.06ZM99.8556 7.56V1.46H88.3956V6.08C88.3956 6.28 88.4756 6.46 88.5756 6.6C88.7556 6.82 89.1956 7.24 89.3956 7.4C89.5356 7.5 89.7156 7.56 89.8756 7.56H93.0956V9.22H85.5356V10.88H102.636V9.22H95.1356V7.56H99.8556ZM100.316 19.7V18.06H90.7756C90.5356 18.06 90.3756 17.92 90.3756 17.66V16.6H99.9156V12.08H88.3556V13.72H97.8756V15.02H88.3356V18.26C88.3356 18.46 88.4156 18.64 88.5156 18.78C88.6956 19 89.0956 19.38 89.2956 19.54C89.4356 19.64 89.6156 19.7 89.7756 19.7H100.316ZM97.8156 5.88H90.8556C90.6156 5.88 90.4356 5.72 90.4356 5.46V3.14H97.8156V5.88Z" fill="white"/>
<path d="M3.18 3.24H3.08V3.34H3.18V3.24ZM8.08 3.24H8.18V3.14H8.08V3.24ZM7.66 4.64L7.60353 4.55747L7.60316 4.55773L7.66 4.64ZM2.16 7.2L2.12489 7.10637L2.01679 7.1469L2.07233 7.24811L2.16 7.2ZM3.06 8.84L2.97233 8.88811L3.0148 8.96549L3.09685 8.93296L3.06 8.84ZM9.12 5.94L9.1708 5.85386L9.11988 5.82383L9.06902 5.85397L9.12 5.94ZM15.16 8.8L15.1239 8.89325L15.2063 8.92516L15.2481 8.84734L15.16 8.8ZM16.02 7.2L16.1081 7.24734L16.1619 7.1472L16.0557 7.10659L16.02 7.2ZM10.58 4.64L10.6351 4.55657L10.6345 4.55615L10.58 4.64ZM10.16 3.24V3.14H10.06V3.24H10.16ZM15.04 3.24V3.34H15.14V3.24H15.04ZM15.04 1.56H15.14V1.46H15.04V1.56ZM3.18 1.56V1.46H3.08V1.56H3.18ZM0.52 10.12V10.02H0.42V10.12H0.52ZM0.52 11.8H0.42V11.9H0.52V11.8ZM17.62 11.8V11.9H17.72V11.8H17.62ZM17.62 10.12H17.72V10.02H17.62V10.12ZM10.12 10.12H10.02V10.22H10.12V10.12ZM10.12 7.68H10.22V7.58H10.12V7.68ZM8.08 7.68V7.58H7.98V7.68H8.08ZM8.08 10.12V10.22H8.18V10.12H8.08ZM9.1 12.82C7.29897 12.82 5.8575 13.1718 4.86298 13.8187C3.86413 14.4683 3.32 15.4138 3.32 16.58H3.52C3.52 15.4862 4.02587 14.6017 4.97202 13.9863C5.9225 13.3682 7.32103 13.02 9.1 13.02V12.82ZM3.32 16.58C3.32 17.7462 3.86413 18.6917 4.86298 19.3413C5.8575 19.9882 7.29897 20.34 9.1 20.34V20.14C7.32103 20.14 5.9225 19.7918 4.97202 19.1737C4.02587 18.5583 3.52 17.6738 3.52 16.58H3.32ZM9.1 20.34C10.901 20.34 12.3425 19.9882 13.337 19.3413C14.3359 18.6917 14.88 17.7462 14.88 16.58H14.68C14.68 17.6738 14.1741 18.5583 13.228 19.1737C12.2775 19.7918 10.879 20.14 9.1 20.14V20.34ZM14.88 16.58C14.88 15.4138 14.3359 14.4683 13.337 13.8187C12.3425 13.1718 10.901 12.82 9.1 12.82V13.02C10.879 13.02 12.2775 13.3682 13.228 13.9863C14.1741 14.6017 14.68 15.4862 14.68 16.58H14.88ZM3.18 3.34H8.08V3.14H3.18V3.34ZM7.98 3.24V3.54H8.18V3.24H7.98ZM7.98 3.54C7.98 3.90306 7.93612 4.32991 7.60353 4.55747L7.71647 4.72253C8.14388 4.43009 8.18 3.89694 8.18 3.54H7.98ZM7.60316 4.55773C6.51447 5.30991 4.20519 6.32625 2.12489 7.10637L2.19511 7.29363C4.27482 6.51374 6.60553 5.49009 7.71684 4.72227L7.60316 4.55773ZM2.07233 7.24811L2.97233 8.88811L3.14767 8.79189L2.24767 7.15189L2.07233 7.24811ZM3.09685 8.93296C5.3204 8.05155 7.54538 6.98935 9.17098 6.02603L9.06902 5.85397C7.45463 6.81065 5.2396 7.86845 3.02315 8.74704L3.09685 8.93296ZM9.0692 6.02614C10.6348 6.94942 12.8998 8.03169 15.1239 8.89325L15.1961 8.70675C12.9802 7.84831 10.7252 6.77058 9.1708 5.85386L9.0692 6.02614ZM15.2481 8.84734L16.1081 7.24734L15.9319 7.15266L15.0719 8.75266L15.2481 8.84734ZM16.0557 7.10659C14.0167 6.32696 11.8054 5.33015 10.6351 4.55658L10.5249 4.72342C11.7146 5.50985 13.9433 6.51303 15.9843 7.2934L16.0557 7.10659ZM10.6345 4.55615C10.2854 4.32924 10.26 3.90717 10.26 3.54H10.06C10.06 3.89283 10.0746 4.43076 10.5255 4.72384L10.6345 4.55615ZM10.26 3.54V3.24H10.06V3.54H10.26ZM10.16 3.34H15.04V3.14H10.16V3.34ZM15.14 3.24V1.56H14.94V3.24H15.14ZM15.04 1.46H3.18V1.66H15.04V1.46ZM3.08 1.56V3.24H3.28V1.56H3.08ZM0.42 10.12V11.8H0.62V10.12H0.42ZM0.52 11.9H17.62V11.7H0.52V11.9ZM17.72 11.8V10.12H17.52V11.8H17.72ZM17.62 10.02H10.12V10.22H17.62V10.02ZM10.22 10.12V7.68H10.02V10.12H10.22ZM10.12 7.58H8.08V7.78H10.12V7.58ZM7.98 7.68V10.12H8.18V7.68H7.98ZM8.08 10.02H0.52V10.22H8.08V10.02ZM9.1 18.46C7.90925 18.46 7.01881 18.2562 6.42977 17.9183C5.84462 17.5825 5.56 17.1175 5.56 16.58H5.36C5.36 17.2025 5.69538 17.7275 6.33023 18.0917C6.96119 18.4538 7.89075 18.66 9.1 18.66V18.46ZM5.56 16.58C5.56 16.0425 5.84462 15.5775 6.42977 15.2417C7.01881 14.9038 7.90925 14.7 9.1 14.7V14.5C7.89075 14.5 6.96119 14.7062 6.33023 15.0683C5.69538 15.4325 5.36 15.9575 5.36 16.58H5.56ZM9.1 14.7C10.2908 14.7 11.1812 14.9038 11.7702 15.2417C12.3554 15.5775 12.64 16.0425 12.64 16.58H12.84C12.84 15.9575 12.5046 15.4325 11.8698 15.0683C11.2388 14.7062 10.3092 14.5 9.1 14.5V14.7ZM12.64 16.58C12.64 17.1175 12.3554 17.5825 11.7702 17.9183C11.1812 18.2562 10.2908 18.46 9.1 18.46V18.66C10.3092 18.66 11.2388 18.4538 11.8698 18.0917C12.5046 17.7275 12.84 17.2025 12.84 16.58H12.64ZM20.3831 1.66V1.56H20.2831V1.66H20.3831ZM20.3831 3.34H20.2831V3.44H20.3831V3.34ZM29.8431 3.34H29.9431V3.24H29.8431V3.34ZM29.8231 5.16L29.7234 5.15287L29.7233 5.15445L29.8231 5.16ZM29.4431 9.36V9.46H29.5293L29.542 9.37476L29.4431 9.36ZM17.5231 9.36V9.26H17.4231V9.36H17.5231ZM17.5231 11.04H17.4231V11.14H17.5231V11.04ZM34.6231 11.04V11.14H34.7231V11.04H34.6231ZM34.6231 9.36H34.7231V9.26H34.6231V9.36ZM31.4231 9.36L31.3244 9.3438L31.3054 9.46H31.4231V9.36ZM31.8631 5.22L31.7633 5.21445L31.7633 5.21465L31.8631 5.22ZM31.8831 1.66H31.9831V1.56H31.8831V1.66ZM32.4631 17.8H32.5631V17.7H32.4631V17.8ZM22.3431 13.2H22.4431V13.1H22.3431V13.2ZM20.2631 13.2V13.1H20.1631V13.2H20.2631ZM20.4431 18.52L20.3616 18.5782L20.3657 18.5833L20.4431 18.52ZM21.2631 19.32L21.2006 19.3982L21.205 19.4014L21.2631 19.32ZM32.4631 19.48V19.58H32.5631V19.48H32.4631ZM20.2831 1.66V3.34H20.4831V1.66H20.2831ZM20.3831 3.44H29.8431V3.24H20.3831V3.44ZM29.7431 3.34V4.28H29.9431V3.34H29.7431ZM29.7431 4.28C29.7431 4.56083 29.7431 4.8771 29.7234 5.15288L29.9229 5.16712C29.9432 4.8829 29.9431 4.55917 29.9431 4.28H29.7431ZM29.7233 5.15445C29.6633 6.23431 29.5435 8.01024 29.3442 9.34524L29.542 9.37476C29.7428 8.02976 29.863 6.24569 29.923 5.16555L29.7233 5.15445ZM29.4431 9.26H17.5231V9.46H29.4431V9.26ZM17.4231 9.36V11.04H17.6231V9.36H17.4231ZM17.5231 11.14H34.6231V10.94H17.5231V11.14ZM34.7231 11.04V9.36H34.5231V11.04H34.7231ZM34.6231 9.26H31.4231V9.46H34.6231V9.26ZM31.5218 9.3762C31.7425 8.03193 31.9028 6.34823 31.963 5.22535L31.7633 5.21465C31.7034 6.33177 31.5437 8.00807 31.3244 9.3438L31.5218 9.3762ZM31.963 5.22555C31.9831 4.86247 31.9831 4.55997 31.9831 4.28H31.7831C31.7831 4.56002 31.7831 4.85752 31.7633 5.21445L31.963 5.22555ZM31.9831 4.28V1.66H31.7831V4.28H31.9831ZM31.8831 1.56H20.3831V1.76H31.8831V1.56ZM32.4631 17.7H22.7631V17.9H32.4631V17.7ZM22.7631 17.7C22.6655 17.7 22.5866 17.6677 22.5326 17.6156C22.4792 17.564 22.4431 17.486 22.4431 17.38H22.2431C22.2431 17.534 22.297 17.666 22.3936 17.7594C22.4897 17.8523 22.6208 17.9 22.7631 17.9V17.7ZM22.4431 17.38V13.2H22.2431V17.38H22.4431ZM22.3431 13.1H20.2631V13.3H22.3431V13.1ZM20.1631 13.2V18H20.3631V13.2H20.1631ZM20.1631 18C20.1631 18.2268 20.2536 18.4267 20.3618 18.5781L20.5245 18.4619C20.4326 18.3333 20.3631 18.1732 20.3631 18H20.1631ZM20.3657 18.5833C20.551 18.8098 20.9963 19.2346 21.2007 19.3981L21.3256 19.2419C21.1299 19.0854 20.6952 18.6702 20.5205 18.4567L20.3657 18.5833ZM21.205 19.4014C21.3606 19.5125 21.5607 19.58 21.7431 19.58V19.38C21.6056 19.38 21.4456 19.3275 21.3212 19.2386L21.205 19.4014ZM21.7431 19.58H32.4631V19.38H21.7431V19.58ZM32.5631 19.48V17.8H32.3631V19.48H32.5631ZM49.0062 6.68V6.58H48.9062V6.68H49.0062ZM52.2062 6.68V6.78H52.3062V6.68H52.2062ZM52.2062 5H52.3062V4.9H52.2062V5ZM49.0062 5H48.9062V5.1H49.0062V5ZM49.0062 0.899999H49.1062V0.799999H49.0062V0.899999ZM46.9662 0.899999V0.799999H46.8662V0.899999H46.9662ZM46.9662 11.8H46.8662V11.9H46.9662V11.8ZM49.0062 11.8V11.9H49.1062V11.8H49.0062ZM45.7662 9.94L45.7845 10.0383L45.877 10.0212L45.8655 9.92775L45.7662 9.94ZM45.5662 8.32L45.6655 8.30775L45.6528 8.20481L45.5504 8.22127L45.5662 8.32ZM37.7862 3.6V3.5H37.6862V3.6H37.7862ZM43.8662 3.6V3.7H43.9662V3.6H43.8662ZM43.8662 1.92H43.9662V1.82H43.8662V1.92ZM35.7462 1.92V1.82H35.6462V1.92H35.7462ZM35.9262 9.34L35.8447 9.39825L35.8489 9.40332L35.9262 9.34ZM36.7462 10.14L36.6837 10.2182L36.6881 10.2214L36.7462 10.14ZM49.0062 6.78H52.2062V6.58H49.0062V6.78ZM52.3062 6.68V5H52.1062V6.68H52.3062ZM52.2062 4.9H49.0062V5.1H52.2062V4.9ZM49.1062 5V0.899999H48.9062V5H49.1062ZM49.0062 0.799999H46.9662V0.999999H49.0062V0.799999ZM46.8662 0.899999V11.8H47.0662V0.899999H46.8662ZM46.9662 11.9H49.0062V11.7H46.9662V11.9ZM49.1062 11.8V6.68H48.9062V11.8H49.1062ZM47.0062 16.18C47.0062 16.8712 46.7339 17.4566 46.2092 17.8716C45.6821 18.2885 44.8914 18.54 43.8462 18.54V18.74C44.9211 18.74 45.7604 18.4815 46.3333 18.0284C46.9086 17.5734 47.2062 16.9288 47.2062 16.18H47.0062ZM43.8462 18.54C42.8011 18.54 42.0104 18.2885 41.4833 17.8716C40.9586 17.4566 40.6862 16.8712 40.6862 16.18H40.4862C40.4862 16.9288 40.7839 17.5734 41.3592 18.0284C41.9321 18.4815 42.7714 18.74 43.8462 18.74V18.54ZM40.6862 16.18C40.6862 15.4887 40.9587 14.8981 41.4837 14.4781C42.0109 14.0563 42.8015 13.8 43.8462 13.8V13.6C42.771 13.6 41.9316 13.8637 41.3588 14.3219C40.7838 14.7819 40.4862 15.4313 40.4862 16.18H40.6862ZM43.8462 13.8C44.891 13.8 45.6816 14.0563 46.2088 14.4781C46.7338 14.8981 47.0062 15.4887 47.0062 16.18H47.2062C47.2062 15.4313 46.9087 14.7819 46.3337 14.3219C45.7609 13.8637 44.9215 13.6 43.8462 13.6V13.8ZM49.2062 16.18C49.2062 15.0227 48.7549 13.9593 47.8538 13.1866C46.9539 12.4148 45.6137 11.94 43.8462 11.94V12.14C45.5788 12.14 46.8686 12.6052 47.7237 13.3384C48.5776 14.0707 49.0062 15.0773 49.0062 16.18H49.2062ZM43.8462 11.94C42.0788 11.94 40.7386 12.4148 39.8387 13.1866C38.9376 13.9593 38.4862 15.0227 38.4862 16.18H38.6862C38.6862 15.0773 39.1149 14.0707 39.9688 13.3384C40.8239 12.6052 42.1137 12.14 43.8462 12.14V11.94ZM38.4862 16.18C38.4862 17.3374 38.9377 18.3959 39.8389 19.1636C40.739 19.9303 42.0791 20.4 43.8462 20.4V20.2C42.1134 20.2 40.8235 19.7397 39.9686 19.0114C39.1148 18.2841 38.6862 17.2826 38.6862 16.18H38.4862ZM43.8462 20.4C45.6134 20.4 46.9535 19.9303 47.8536 19.1636C48.7548 18.3959 49.2062 17.3374 49.2062 16.18H49.0062C49.0062 17.2826 48.5777 18.2841 47.7239 19.0114C46.869 19.7397 45.5791 20.2 43.8462 20.2V20.4ZM41.4262 10.4C42.711 10.4 44.6973 10.2397 45.7845 10.0383L45.748 9.84167C44.6752 10.0403 42.7015 10.2 41.4262 10.2V10.4ZM45.8655 9.92775L45.6655 8.30775L45.467 8.33225L45.667 9.95225L45.8655 9.92775ZM45.5504 8.22127C44.4365 8.40028 42.7819 8.52 41.4662 8.52V8.72C42.7906 8.72 44.456 8.59972 45.5821 8.41873L45.5504 8.22127ZM41.4662 8.52H38.2062V8.72H41.4662V8.52ZM38.2062 8.52C38.1086 8.52 38.0297 8.48774 37.9758 8.4356C37.9223 8.38397 37.8862 8.30596 37.8862 8.2H37.6862C37.6862 8.35404 37.7402 8.48603 37.8367 8.5794C37.9328 8.67226 38.0639 8.72 38.2062 8.72V8.52ZM37.8862 8.2V3.6H37.6862V8.2H37.8862ZM37.7862 3.7H43.8662V3.5H37.7862V3.7ZM43.9662 3.6V1.92H43.7662V3.6H43.9662ZM43.8662 1.82H35.7462V2.02H43.8662V1.82ZM35.6462 1.92V8.82H35.8462V1.92H35.6462ZM35.6462 8.82C35.6462 9.04676 35.7367 9.24671 35.8449 9.39812L36.0076 9.28188C35.9158 9.15328 35.8462 8.99324 35.8462 8.82H35.6462ZM35.8489 9.40332C36.0342 9.6298 36.4795 10.0546 36.6838 10.2181L36.8087 10.0619C36.613 9.90536 36.1783 9.4902 36.0036 9.27668L35.8489 9.40332ZM36.6881 10.2214C36.8437 10.3325 37.0438 10.4 37.2262 10.4V10.2C37.0887 10.2 36.9288 10.1475 36.8044 10.0586L36.6881 10.2214ZM37.2262 10.4H41.4262V10.2H37.2262V10.4ZM53.9294 12.22L53.844 12.2721L53.8921 12.3509L53.9745 12.3092L53.9294 12.22ZM59.9894 8.54L60.0496 8.6198L60.0498 8.61967L59.9894 8.54ZM61.2494 6.98V6.88H61.1829L61.1572 6.94133L61.2494 6.98ZM64.9694 6.98H65.0694V6.88H64.9694V6.98ZM64.9694 13.78H64.8694V13.88H64.9694V13.78ZM67.0094 13.78V13.88H67.1094V13.78H67.0094ZM67.0094 0.899999H67.1094V0.799999H67.0094V0.899999ZM64.9694 0.899999V0.799999H64.8694V0.899999H64.9694ZM64.9694 5.3V5.4H65.0694V5.3H64.9694ZM61.5694 5.3L61.4694 5.2994L61.4688 5.4H61.5694V5.3ZM61.5894 1.94L61.6894 1.94059L61.69 1.84H61.5894V1.94ZM53.0494 1.94V1.84H52.9494V1.94H53.0494ZM53.0494 3.62H52.9494V3.72H53.0494V3.62ZM59.5294 3.62H59.6294V3.52H59.5294V3.62ZM58.3694 7.34L58.3069 7.26191L58.3065 7.26225L58.3694 7.34ZM52.9294 10.58L52.8855 10.4902L52.7869 10.5384L52.844 10.6321L52.9294 10.58ZM67.6094 17.8H67.7094V17.7H67.6094V17.8ZM57.7094 12.98H57.8094V12.88H57.7094V12.98ZM55.6294 12.98V12.88H55.5294V12.98H55.6294ZM55.8094 18.52L55.7278 18.5782L55.732 18.5833L55.8094 18.52ZM56.6294 19.32L56.5668 19.3982L56.5713 19.4014L56.6294 19.32ZM67.6094 19.48V19.58H67.7094V19.48H67.6094ZM53.9745 12.3092C55.7972 11.3879 58.163 10.0448 60.0496 8.6198L59.9291 8.4602C58.0558 9.87518 55.7016 11.2121 53.8843 12.1308L53.9745 12.3092ZM60.0498 8.61967C60.641 8.17119 61.0735 7.65789 61.3416 7.01867L61.1572 6.94133C60.9052 7.5421 60.4978 8.02881 59.9289 8.46033L60.0498 8.61967ZM61.2494 7.08H64.9694V6.88H61.2494V7.08ZM64.8694 6.98V13.78H65.0694V6.98H64.8694ZM64.9694 13.88H67.0094V13.68H64.9694V13.88ZM67.1094 13.78V0.899999H66.9094V13.78H67.1094ZM67.0094 0.799999H64.9694V0.999999H67.0094V0.799999ZM64.8694 0.899999V5.3H65.0694V0.899999H64.8694ZM64.9694 5.2H61.5694V5.4H64.9694V5.2ZM61.6694 5.30059L61.6894 1.94059L61.4894 1.9394L61.4694 5.2994L61.6694 5.30059ZM61.5894 1.84H53.0494V2.04H61.5894V1.84ZM52.9494 1.94V3.62H53.1494V1.94H52.9494ZM53.0494 3.72H59.5294V3.52H53.0494V3.72ZM59.4294 3.62V5.26H59.6294V3.62H59.4294ZM59.4294 5.26C59.4294 5.77397 59.3183 6.13467 59.1276 6.43373C58.9347 6.73605 58.6565 6.98224 58.3069 7.26191L58.4318 7.41809C58.7823 7.13775 59.084 6.87395 59.2962 6.54127C59.5104 6.20533 59.6294 5.80602 59.6294 5.26H59.4294ZM58.3065 7.26225C56.9557 8.35476 54.6843 9.61072 52.8855 10.4902L52.9733 10.6698C54.7744 9.78928 57.063 8.52524 58.4323 7.41775L58.3065 7.26225ZM52.844 10.6321L53.844 12.2721L54.0148 12.1679L53.0148 10.5279L52.844 10.6321ZM67.6094 17.7H58.1294V17.9H67.6094V17.7ZM58.1294 17.7C58.0317 17.7 57.9528 17.6677 57.8989 17.6156C57.8455 17.564 57.8094 17.486 57.8094 17.38H57.6094C57.6094 17.534 57.6633 17.666 57.7599 17.7594C57.8559 17.8523 57.987 17.9 58.1294 17.9V17.7ZM57.8094 17.38V12.98H57.6094V17.38H57.8094ZM57.7094 12.88H55.6294V13.08H57.7094V12.88ZM55.5294 12.98V18H55.7294V12.98H55.5294ZM55.5294 18C55.5294 18.2268 55.6199 18.4267 55.728 18.5781L55.8908 18.4619C55.7989 18.3333 55.7294 18.1732 55.7294 18H55.5294ZM55.732 18.5833C55.9173 18.8098 56.3626 19.2346 56.5669 19.3981L56.6918 19.2419C56.4962 19.0854 56.0615 18.6702 55.8868 18.4567L55.732 18.5833ZM56.5713 19.4014C56.7269 19.5125 56.9269 19.58 57.1094 19.58V19.38C56.9718 19.38 56.8119 19.3275 56.6875 19.2386L56.5713 19.4014ZM57.1094 19.58H67.6094V19.38H57.1094V19.58ZM67.7094 19.48V17.8H67.5094V19.48H67.7094ZM83.1125 6.72V6.62H83.0125V6.72H83.1125ZM86.2125 6.72V6.82H86.3125V6.72H86.2125ZM86.2125 5.04H86.3125V4.94H86.2125V5.04ZM83.1125 5.04H83.0125V5.14H83.1125V5.04ZM83.1125 0.899999H83.2125V0.799999H83.1125V0.899999ZM81.0725 0.899999V0.799999H80.9725V0.899999H81.0725ZM81.0725 11.64H80.9725V11.74H81.0725V11.64ZM83.1125 11.64V11.74H83.2125V11.64H83.1125ZM70.6125 12.06L70.5267 12.1113L70.5744 12.1913L70.6576 12.1493L70.6125 12.06ZM76.5925 8.38L76.5318 8.30056L76.5315 8.30074L76.5925 8.38ZM78.1725 5.14L78.2725 5.14137L78.2725 5.14062L78.1725 5.14ZM78.1925 1.92L78.2925 1.92062L78.2931 1.82H78.1925V1.92ZM69.7525 1.92V1.82H69.6525V1.92H69.7525ZM69.7525 3.6H69.6525V3.7H69.7525V3.6ZM76.1325 3.6H76.2325V3.5H76.1325V3.6ZM74.9725 7.22L74.91 7.14191L74.91 7.14191L74.9725 7.22ZM69.6325 10.42L69.5892 10.3298L69.4905 10.3773L69.5467 10.4713L69.6325 10.42ZM83.1125 6.82H86.2125V6.62H83.1125V6.82ZM86.3125 6.72V5.04H86.1125V6.72H86.3125ZM86.2125 4.94H83.1125V5.14H86.2125V4.94ZM83.2125 5.04V0.899999H83.0125V5.04H83.2125ZM83.1125 0.799999H81.0725V0.999999H83.1125V0.799999ZM80.9725 0.899999V11.64H81.1725V0.899999H80.9725ZM81.0725 11.74H83.1125V11.54H81.0725V11.74ZM83.2125 11.64V6.72H83.0125V11.64H83.2125ZM81.0525 16.1C81.0525 16.8419 80.7696 17.4417 80.2359 17.8587C79.6992 18.2781 78.8986 18.52 77.8525 18.52V18.72C78.9264 18.72 79.7758 18.4719 80.3591 18.0163C80.9453 17.5583 81.2525 16.8981 81.2525 16.1H81.0525ZM77.8525 18.52C76.8064 18.52 76.0058 18.2781 75.4691 17.8587C74.9353 17.4417 74.6525 16.8419 74.6525 16.1H74.4525C74.4525 16.8981 74.7596 17.5583 75.3459 18.0163C75.9292 18.4719 76.7786 18.72 77.8525 18.72V18.52ZM74.6525 16.1C74.6525 15.358 74.9355 14.7529 75.4695 14.331C76.0064 13.9067 76.8068 13.66 77.8525 13.66V13.46C76.7782 13.46 75.9286 13.7133 75.3455 14.174C74.7595 14.6371 74.4525 15.302 74.4525 16.1H74.6525ZM77.8525 13.66C78.8982 13.66 79.6986 13.9067 80.2355 14.331C80.7695 14.7529 81.0525 15.358 81.0525 16.1H81.2525C81.2525 15.302 80.9455 14.6371 80.3595 14.174C79.7764 13.7133 78.9268 13.46 77.8525 13.46V13.66ZM83.2925 16.1C83.2925 14.8819 82.8105 13.7983 81.8843 13.0209C80.9594 12.2446 79.5996 11.78 77.8525 11.78V11.98C79.5654 11.98 80.8756 12.4354 81.7557 13.1741C82.6345 13.9117 83.0925 14.9381 83.0925 16.1H83.2925ZM77.8525 11.78C76.1054 11.78 74.7456 12.2446 73.8207 13.0209C72.8945 13.7983 72.4125 14.8819 72.4125 16.1H72.6125C72.6125 14.9381 73.0705 13.9117 73.9493 13.1741C74.8294 12.4354 76.1396 11.98 77.8525 11.98V11.78ZM72.4125 16.1C72.4125 17.3181 72.8945 18.3969 73.821 19.1693C74.7459 19.9405 76.1057 20.4 77.8525 20.4V20.2C76.1393 20.2 74.8291 19.7495 73.949 19.0157C73.0705 18.2831 72.6125 17.2619 72.6125 16.1H72.4125ZM77.8525 20.4C79.5993 20.4 80.9591 19.9405 81.884 19.1693C82.8105 18.3969 83.2925 17.3181 83.2925 16.1H83.0925C83.0925 17.2619 82.6345 18.2831 81.756 19.0157C80.8759 19.7495 79.5657 20.2 77.8525 20.2V20.4ZM70.6576 12.1493C72.6412 11.1474 74.827 9.86425 76.6535 8.45926L76.5315 8.30074C74.718 9.69575 72.5438 10.9726 70.5674 11.9707L70.6576 12.1493ZM76.6532 8.45944C77.6979 7.66061 78.2521 6.63171 78.2725 5.14137L78.0725 5.13863C78.0529 6.56829 77.5271 7.53939 76.5318 8.30056L76.6532 8.45944ZM78.2725 5.14062L78.2925 1.92062L78.0925 1.91938L78.0725 5.13938L78.2725 5.14062ZM78.1925 1.82H69.7525V2.02H78.1925V1.82ZM69.6525 1.92V3.6H69.8525V1.92H69.6525ZM69.7525 3.7H76.1325V3.5H69.7525V3.7ZM76.0325 3.6V5.06H76.2325V3.6H76.0325ZM76.0325 5.06C76.0325 5.57422 75.9213 5.95598 75.7292 6.27605C75.536 6.5982 75.257 6.86431 74.91 7.14191L75.035 7.29809C75.388 7.01569 75.689 6.7318 75.9007 6.37895C76.1137 6.02402 76.2325 5.60578 76.2325 5.06H76.0325ZM74.91 7.14191C73.718 8.09554 71.5852 9.37176 69.5892 10.3298L69.6758 10.5102C71.6798 9.54824 73.827 8.26446 75.035 7.29809L74.91 7.14191ZM69.5467 10.4713L70.5267 12.1113L70.6983 12.0087L69.7183 10.3687L69.5467 10.4713ZM99.8556 7.56V7.66H99.9556V7.56H99.8556ZM99.8556 1.46H99.9556V1.36H99.8556V1.46ZM88.3956 1.46V1.36H88.2956V1.46H88.3956ZM88.5756 6.6L88.4941 6.65825L88.4982 6.66332L88.5756 6.6ZM89.3956 7.4L89.3331 7.4782L89.3375 7.48137L89.3956 7.4ZM93.0956 7.56H93.1956V7.46H93.0956V7.56ZM93.0956 9.22V9.32H93.1956V9.22H93.0956ZM85.5356 9.22V9.12H85.4356V9.22H85.5356ZM85.5356 10.88H85.4356V10.98H85.5356V10.88ZM102.636 10.88V10.98H102.736V10.88H102.636ZM102.636 9.22H102.736V9.12H102.636V9.22ZM95.1356 9.22H95.0356V9.32H95.1356V9.22ZM95.1356 7.56V7.46H95.0356V7.56H95.1356ZM100.316 19.7V19.8H100.416V19.7H100.316ZM100.316 18.06H100.416V17.96H100.316V18.06ZM90.3756 16.6V16.5H90.2756V16.6H90.3756ZM99.9156 16.6V16.7H100.016V16.6H99.9156ZM99.9156 12.08H100.016V11.98H99.9156V12.08ZM88.3556 12.08V11.98H88.2556V12.08H88.3556ZM88.3556 13.72H88.2556V13.82H88.3556V13.72ZM97.8756 13.72H97.9756V13.62H97.8756V13.72ZM97.8756 15.02V15.12H97.9756V15.02H97.8756ZM88.3356 15.02V14.92H88.2356V15.02H88.3356ZM88.5156 18.78L88.4341 18.8382L88.4382 18.8433L88.5156 18.78ZM89.2956 19.54L89.2331 19.6182L89.2375 19.6214L89.2956 19.54ZM97.8156 5.88V5.98H97.9156V5.88H97.8156ZM90.4356 3.14V3.04H90.3356V3.14H90.4356ZM97.8156 3.14H97.9156V3.04H97.8156V3.14ZM99.9556 7.56V1.46H99.7556V7.56H99.9556ZM99.8556 1.36H88.3956V1.56H99.8556V1.36ZM88.2956 1.46V6.08H88.4956V1.46H88.2956ZM88.2956 6.08C88.2956 6.30676 88.3861 6.50672 88.4943 6.65812L88.657 6.54188C88.5651 6.41328 88.4956 6.25324 88.4956 6.08H88.2956ZM88.4982 6.66332C88.6835 6.8898 89.1288 7.31464 89.3332 7.47809L89.4581 7.32191C89.2624 7.16536 88.8277 6.7502 88.653 6.53668L88.4982 6.66332ZM89.3375 7.48137C89.4931 7.59252 89.6932 7.66 89.8756 7.66V7.46C89.7381 7.46 89.5781 7.40748 89.4537 7.31863L89.3375 7.48137ZM89.8756 7.66H93.0956V7.46H89.8756V7.66ZM92.9956 7.56V9.22H93.1956V7.56H92.9956ZM93.0956 9.12H85.5356V9.32H93.0956V9.12ZM85.4356 9.22V10.88H85.6356V9.22H85.4356ZM85.5356 10.98H102.636V10.78H85.5356V10.98ZM102.736 10.88V9.22H102.536V10.88H102.736ZM102.636 9.12H95.1356V9.32H102.636V9.12ZM95.2356 9.22V7.56H95.0356V9.22H95.2356ZM95.1356 7.66H99.8556V7.46H95.1356V7.66ZM100.416 19.7V18.06H100.216V19.7H100.416ZM100.316 17.96H90.7756V18.16H100.316V17.96ZM90.7756 17.96C90.6747 17.96 90.602 17.9308 90.555 17.8855C90.5086 17.8408 90.4756 17.7691 90.4756 17.66H90.2756C90.2756 17.8109 90.3226 17.9392 90.4162 18.0295C90.5092 18.1192 90.6365 18.16 90.7756 18.16V17.96ZM90.4756 17.66V16.6H90.2756V17.66H90.4756ZM90.3756 16.7H99.9156V16.5H90.3756V16.7ZM100.016 16.6V12.08H99.8156V16.6H100.016ZM99.9156 11.98H88.3556V12.18H99.9156V11.98ZM88.2556 12.08V13.72H88.4556V12.08H88.2556ZM88.3556 13.82H97.8756V13.62H88.3556V13.82ZM97.7756 13.72V15.02H97.9756V13.72H97.7756ZM97.8756 14.92H88.3356V15.12H97.8756V14.92ZM88.2356 15.02V18.26H88.4356V15.02H88.2356ZM88.2356 18.26C88.2356 18.4868 88.3261 18.6867 88.4343 18.8381L88.597 18.7219C88.5051 18.5933 88.4356 18.4332 88.4356 18.26H88.2356ZM88.4382 18.8433C88.6236 19.0699 89.029 19.4547 89.2332 19.6181L89.3581 19.4619C89.1623 19.3053 88.7676 18.9301 88.593 18.7167L88.4382 18.8433ZM89.2375 19.6214C89.3931 19.7325 89.5932 19.8 89.7756 19.8V19.6C89.6381 19.6 89.4781 19.5475 89.3537 19.4586L89.2375 19.6214ZM89.7756 19.8H100.316V19.6H89.7756V19.8ZM97.8156 5.78H90.8556V5.98H97.8156V5.78ZM90.8556 5.78C90.758 5.78 90.6791 5.74774 90.6251 5.6956C90.5717 5.64397 90.5356 5.56596 90.5356 5.46H90.3356C90.3356 5.61404 90.3895 5.74603 90.4861 5.8394C90.5822 5.93226 90.7133 5.98 90.8556 5.98V5.78ZM90.5356 5.46V3.14H90.3356V5.46H90.5356ZM90.4356 3.24H97.8156V3.04H90.4356V3.24ZM97.7156 3.14V5.88H97.9156V3.14H97.7156Z" fill="white"/>
</svg>
