<svg width="44" height="22" viewBox="0 0 44 22" fill="none" xmlns="http://www.w3.org/2000/svg">
<path d="M43.9424 18.0875H43.7076V20.229H43.9424V18.0875Z" fill="#009C95"/>
<path d="M31.2214 20.2973V19.5111H32.0945V19.3145H31.2214V18.3317H32.3035V18.1351H30.9865V20.3222C30.9865 20.6956 31.1376 20.8725 31.5534 20.8725H32.3397V20.676H31.6083C31.3414 20.676 31.2214 20.5829 31.2214 20.2963V20.2973Z" fill="#009C95"/>
<path d="M33.7444 18.1195H33.5095V20.9635H33.7444V18.1195Z" fill="#009C95"/>
<path d="M32.8006 19.273H32.3206V19.4696H32.8006V20.9635H33.0354V18.1195H32.8006V19.273Z" fill="#009C95"/>
<path d="M37.0704 18.1195H36.8356V20.9635H37.0704V18.1195Z" fill="#009C95"/>
<path d="M35.4762 18.075C35.0313 18.075 34.5771 18.3201 34.5771 18.9481V20.0561C34.5771 20.6841 35.0313 20.9293 35.472 20.9293C35.9127 20.9293 36.371 20.6841 36.371 20.0561V18.9481C36.371 18.3201 35.9169 18.075 35.4751 18.075H35.4762ZM36.1362 20.0592C36.1362 20.533 35.8145 20.7358 35.4731 20.7358C35.1317 20.7358 34.813 20.533 34.813 20.0592V18.945C34.813 18.4712 35.1348 18.2684 35.4762 18.2684C35.8176 18.2684 36.1362 18.4712 36.1362 18.945V20.0592Z" fill="#009C95"/>
<path d="M40.783 20.6387H37.8904V20.8352H40.783V20.6387Z" fill="#009C95"/>
<path d="M38.758 18.6637C38.8511 18.4092 38.967 18.2737 39.3343 18.2737C39.7015 18.2737 39.8205 18.4092 39.9136 18.6637L40.4029 19.9776H40.6543L40.1588 18.6379C40.0233 18.2706 39.8298 18.0709 39.3343 18.0709C38.8387 18.0709 38.6483 18.2706 38.5128 18.6379L38.0173 19.9776H38.2687L38.758 18.6637Z" fill="#009C95"/>
<path d="M43.2464 19.7655V19.5689H41.8839C41.6781 19.5689 41.6357 19.5141 41.6357 19.3341V19.0051H43.204V18.8085H41.6357V18.3161H43.204V18.1195H41.4008V19.3599C41.4008 19.6465 41.497 19.7655 41.855 19.7655H43.2464Z" fill="#009C95"/>
<path d="M42.2059 20.7545C41.9742 20.7545 41.8966 20.6831 41.8966 20.4741V20.0231H41.6617V20.5445C41.6617 20.8631 41.8707 20.95 42.1738 20.95H43.9874V20.7535H42.2059V20.7545Z" fill="#009C95"/>
<path d="M35.1222 3.12183C34.8967 3.32667 34.5936 3.17046 34.3308 2.88182L32.8949 1.4976C32.6321 1.20896 32.601 0.804453 32.8255 0.599613C33.0511 0.394773 33.4504 0.463053 33.7132 0.751691L34.9567 2.31075C35.2195 2.59939 35.3467 2.91596 35.1222 3.1208V3.12183Z" fill="#E24A51"/>
<path d="M34.9278 4.04158C35.0529 4.31884 34.8109 4.55886 34.455 4.72024L32.6952 5.65858C32.3393 5.81997 31.9452 5.72375 31.82 5.4465C31.6948 5.16924 31.8831 4.81025 32.239 4.6499L34.1063 3.94847C34.4622 3.78709 34.8026 3.76433 34.9278 4.04158Z" fill="#B062A3"/>
<path d="M35.7424 4.51004C36.0455 4.47693 36.1986 4.78109 36.241 5.16904L36.5897 7.13261C36.6331 7.52056 36.42 7.8661 36.1179 7.89921C35.8148 7.93231 35.5324 7.64264 35.4899 7.25365L35.3999 5.26112C35.3565 4.87316 35.4403 4.54211 35.7424 4.50797V4.51004Z" fill="#839966"/>
<path d="M36.4415 3.88012C36.5035 3.58217 36.8398 3.53044 37.2225 3.60907L39.1975 3.88426C39.5803 3.96288 39.843 4.27221 39.781 4.57016C39.7189 4.86811 39.3558 5.04709 38.973 4.96846L37.0508 4.43774C36.668 4.35912 36.3794 4.17704 36.4404 3.87909L36.4415 3.88012Z" fill="#63A6DB"/>
<path d="M36.057 3.02139C35.7921 2.87034 35.847 2.53412 36.0404 2.19479L36.9125 0.400884C37.106 0.0615534 37.4805 -0.0925938 37.7453 0.0574153C38.0102 0.208459 38.0681 0.608828 37.8747 0.949193L36.776 2.61378C36.5825 2.95311 36.3208 3.17243 36.0559 3.02139H36.057Z" fill="#F39800"/>
<path d="M26.7484 14.3476C26.7484 13.9317 26.4153 13.5944 26.0015 13.5872V13.5851H25.7801C24.8904 13.5851 24.1703 12.864 24.1703 11.9753V8.83136H24.5169V8.82929C26.3253 8.81274 26.2239 7.30127 26.2239 7.30127H24.9638L24.1713 7.30023V5.93463C24.1755 5.90256 24.1786 5.86946 24.1786 5.83635C24.1786 5.41115 23.8341 5.06665 23.4089 5.06665C22.9837 5.06665 22.6619 5.39046 22.6413 5.79704V5.81152C22.6413 5.8198 22.6402 5.82704 22.6402 5.83532C22.6402 5.84359 22.6402 5.85084 22.6413 5.85911V7.34679C20.9808 7.40472 21.075 8.81584 21.075 8.81584H22.6413V11.9743C22.6413 13.7092 24.0472 15.1152 25.7821 15.1152H26.0035V15.1079C26.4173 15.0997 26.7505 14.7624 26.7505 14.3476H26.7484Z" fill="#009C95"/>
<path d="M4.93055 13.5872V13.5851H4.70916C3.81945 13.5851 3.09941 12.864 3.09941 11.9753V8.83136H3.44598V8.82929C5.25437 8.81274 5.15298 7.30127 5.15298 7.30127H3.8929L3.10044 7.30023V5.93463C3.10458 5.90256 3.10768 5.86946 3.10768 5.83635C3.10768 5.41115 2.76318 5.06665 2.33798 5.06665C1.91278 5.06665 1.59104 5.39046 1.57035 5.79704V5.81152C1.57035 5.8198 1.56932 5.82704 1.56932 5.83532C1.56932 5.84359 1.56932 5.85084 1.57035 5.85911V7.34679C-0.0921643 7.40472 0.000944686 8.81688 0.000944686 8.81688H1.56828V11.9753C1.56828 13.7103 2.97423 15.1162 4.70916 15.1162H4.93055V15.109C5.34437 15.1007 5.67749 14.7634 5.67749 14.3486C5.67749 13.9337 5.34437 13.5954 4.93055 13.5882V13.5872Z" fill="#009C95"/>
<path d="M13.5157 14.388C13.5157 14.388 13.5157 14.3839 13.5157 14.3818V10.9699C13.5157 8.80457 11.7601 7.04895 9.59482 7.04895C7.42951 7.04895 5.67389 8.80457 5.67389 10.9699C5.67389 13.1352 7.42951 14.8908 9.59482 14.8908C10.4918 14.8908 11.3949 14.4708 11.9794 13.76V14.3777C11.9794 14.3777 11.9794 14.3849 11.9794 14.389C11.9794 14.8132 12.3229 15.1567 12.7471 15.1567C13.1712 15.1567 13.5147 14.8132 13.5147 14.389L13.5157 14.388ZM9.59482 13.3545C8.27784 13.3545 7.21019 12.2869 7.21019 10.9699C7.21019 9.6529 8.27784 8.58525 9.59482 8.58525C10.9118 8.58525 11.9794 9.6529 11.9794 10.9699C11.9794 12.2869 10.9118 13.3545 9.59482 13.3545Z" fill="#009C95"/>
<path d="M18.5324 10.4856C18.0286 10.3822 15.7816 10.2446 15.7816 9.55348C15.7816 9.05897 16.3392 8.41238 17.4772 8.41238C18.2966 8.41238 18.8976 8.9193 19.0983 9.30622H19.1004C19.2214 9.56589 19.4873 9.74797 19.7956 9.74797C20.2187 9.74797 20.5622 9.40761 20.5622 8.98758C20.5622 8.86758 20.5332 8.75481 20.4836 8.65343H20.4846C19.9798 7.59716 18.6483 6.88953 17.4762 6.88953C15.9088 6.88953 14.2577 7.85786 14.2577 9.55451C14.2577 10.8901 15.3171 11.4281 16.4116 11.6681C16.8565 11.7653 19.1718 11.9433 19.1718 12.5226C19.1718 12.9975 18.6545 13.6637 17.4762 13.6637C16.6951 13.6637 16.1664 13.2778 15.9274 12.9178C15.8033 12.6613 15.5405 12.4833 15.2353 12.4833C14.8101 12.4833 14.4656 12.8278 14.4656 13.253C14.4656 13.431 14.5267 13.5934 14.627 13.7237C14.627 13.7237 14.625 13.7248 14.6239 13.7258C15.1898 14.6062 16.334 15.1866 17.4772 15.1866C19.1366 15.1866 20.6957 14.1572 20.6957 12.5216C20.6957 11.2015 19.6011 10.706 18.5335 10.4856H18.5324Z" fill="#009C95"/>
<path d="M43.956 10.9728C43.956 8.80028 42.1942 7.03845 40.0217 7.03845C37.8491 7.03845 36.0873 8.80028 36.0873 10.9728V14.333H36.0893C36.0893 14.3382 36.0873 14.3434 36.0873 14.3485C36.0873 14.7748 36.4328 15.1193 36.858 15.1193C37.2832 15.1193 37.6288 14.7737 37.6288 14.3485C37.6288 14.3434 37.6277 14.3382 37.6267 14.333V10.9728C37.6267 9.65171 38.6985 8.57992 40.0196 8.57992C41.3407 8.57992 42.4125 9.65171 42.4125 10.9728V14.333C42.4125 14.3382 42.4104 14.3434 42.4104 14.3485C42.4104 14.7748 42.756 15.1193 43.1812 15.1193C43.6064 15.1193 43.9519 14.7737 43.9519 14.3485C43.9519 14.3434 43.9509 14.3382 43.9498 14.333H43.9519V10.9728H43.956Z" fill="#009C95"/>
<path d="M34.4642 13.2458V11.2998V7.76582C34.4611 7.35614 34.128 7.02612 33.7183 7.02612C33.3086 7.02612 32.9714 7.36028 32.9714 7.77306C32.9714 7.77927 32.9714 7.78548 32.9714 7.79169V11.2812C32.9238 14.0021 28.7939 13.9276 28.8415 11.2026V7.84238C28.8415 7.83203 28.8435 7.82169 28.8435 7.81134C28.8435 7.801 28.8425 7.79065 28.8425 7.78031V7.76582C28.8394 7.35614 28.5063 7.02612 28.0966 7.02612C27.6869 7.02612 27.3496 7.36028 27.3496 7.77306C27.3496 7.77513 27.3496 7.77824 27.3496 7.78031V11.1964C27.3227 13.1558 28.8849 14.7687 30.8454 14.8028C31.5561 14.8152 32.2224 14.6176 32.7841 14.2669C32.6527 15.1949 31.8603 15.6884 30.654 15.6697H29.2667V15.6718H29.2625C28.8477 15.6718 28.5135 16.006 28.5135 16.4188C28.5135 16.8315 28.8477 17.1657 29.2605 17.1657C29.2708 17.1657 29.2801 17.1647 29.2894 17.1647H30.654C31.2799 17.174 31.8582 17.0395 32.3651 16.7943C34.2676 15.9646 34.4839 14.1469 34.4652 13.2489L34.4642 13.2458Z" fill="#009C95"/>
<path d="M3.57284 18.3874C3.58939 18.405 3.59767 18.4267 3.59767 18.4547C3.59767 18.4826 3.58939 18.5043 3.57284 18.5219C3.55629 18.5395 3.53559 18.5478 3.5087 18.5478H2.68416V20.9407C2.68416 20.9707 2.67485 20.9955 2.65623 21.0141C2.63761 21.0338 2.61381 21.0431 2.58588 21.0431C2.55795 21.0431 2.53415 21.0338 2.51553 21.0141C2.49691 20.9945 2.4876 20.9697 2.4876 20.9407V18.5478H1.66307C1.6372 18.5478 1.61548 18.5395 1.59893 18.5219C1.58237 18.5043 1.5741 18.4826 1.5741 18.4547C1.5741 18.4267 1.58237 18.405 1.59893 18.3874C1.61548 18.3698 1.63617 18.3616 1.66307 18.3616H3.5087C3.53456 18.3616 3.55629 18.3698 3.57284 18.3874Z" fill="#009C95"/>
<path d="M4.99039 19.27C5.12902 19.3538 5.23868 19.4686 5.31834 19.6145C5.398 19.7614 5.43731 19.9248 5.43731 20.1059V20.9397C5.43731 20.9697 5.42903 20.9945 5.41145 21.0132C5.39386 21.0328 5.37006 21.0421 5.34006 21.0421C5.31213 21.0421 5.28834 21.0328 5.26971 21.0132C5.25109 20.9935 5.24178 20.9687 5.24178 20.9397V20.6718C5.1704 20.7928 5.07212 20.889 4.94694 20.9583C4.82176 21.0276 4.68209 21.0628 4.52794 21.0628C4.35621 21.0628 4.20103 21.0214 4.06136 20.9376C3.9217 20.8538 3.81307 20.739 3.73341 20.5931C3.65375 20.4462 3.61444 20.2838 3.61444 20.1059C3.61444 19.9279 3.65375 19.7614 3.73341 19.6145C3.81307 19.4676 3.9217 19.3527 4.06136 19.27C4.20103 19.1872 4.35621 19.1448 4.52794 19.1448C4.69968 19.1448 4.85176 19.1862 4.99142 19.27H4.99039ZM4.8921 20.7721C5.00073 20.7059 5.0866 20.6138 5.14764 20.498C5.20971 20.3811 5.24075 20.2507 5.24075 20.1069C5.24075 19.9631 5.20971 19.8327 5.14764 19.7158C5.08556 19.5989 5.00073 19.5069 4.8921 19.4396C4.78348 19.3724 4.6614 19.3382 4.52691 19.3382C4.39242 19.3382 4.27034 19.3724 4.16172 19.4396C4.05309 19.5069 3.96722 19.5989 3.90411 19.7158C3.84101 19.8327 3.80894 19.9631 3.80894 20.1069C3.80894 20.2507 3.83997 20.3811 3.90411 20.498C3.96722 20.6149 4.05309 20.7059 4.16172 20.7721C4.27034 20.8383 4.39242 20.8714 4.52691 20.8714C4.6614 20.8714 4.78348 20.8383 4.8921 20.7721Z" fill="#009C95"/>
<path d="M6.39139 20.9935C6.27138 20.947 6.1731 20.8756 6.09448 20.7794C6.07896 20.7607 6.07172 20.74 6.07172 20.7173C6.07172 20.6852 6.0862 20.6593 6.11413 20.6387C6.12758 20.6273 6.14517 20.6211 6.17 20.6211C6.2 20.6211 6.22586 20.6335 6.24552 20.6593C6.35415 20.799 6.52899 20.8683 6.77107 20.8683C6.9428 20.8683 7.06902 20.8363 7.15075 20.7721C7.23248 20.708 7.27282 20.6252 7.27282 20.5249C7.27282 20.3438 7.10626 20.229 6.77417 20.1783C6.56313 20.1462 6.40381 20.0852 6.29621 19.9962C6.18862 19.9072 6.13482 19.7996 6.13482 19.6734C6.13482 19.5069 6.19276 19.3765 6.30966 19.2834C6.42553 19.1903 6.57761 19.1448 6.76486 19.1448C7.03902 19.1448 7.24593 19.2482 7.38766 19.4541C7.40111 19.4707 7.40731 19.4893 7.40731 19.512C7.40731 19.5441 7.38973 19.57 7.35559 19.5907C7.33386 19.6 7.31731 19.6041 7.30696 19.6041C7.27489 19.6041 7.24696 19.5896 7.22523 19.5596C7.11454 19.4107 6.95936 19.3362 6.75865 19.3362C6.62623 19.3362 6.52071 19.3662 6.44208 19.4272C6.36346 19.4882 6.32518 19.5627 6.32518 19.6517C6.32518 19.7407 6.36242 19.8162 6.43795 19.871C6.51347 19.9259 6.63865 19.9672 6.81452 19.9941C7.04522 20.0283 7.21075 20.0935 7.31214 20.1886C7.41352 20.2838 7.46421 20.3986 7.46421 20.5331C7.46421 20.6387 7.43214 20.7307 7.368 20.8114C7.30386 20.8911 7.21799 20.9532 7.11247 20.9966C7.00591 21.0401 6.89004 21.0618 6.76383 21.0618C6.63761 21.0618 6.5145 21.038 6.39553 20.9914L6.39139 20.9935Z" fill="#009C95"/>
<path d="M9.00912 20.8633C9.02775 20.8829 9.03706 20.9088 9.03706 20.9409C9.03706 20.9709 9.02775 20.9957 9.00912 21.0143C8.9905 21.034 8.96567 21.0433 8.93567 21.0433H8.86118C8.74118 21.0433 8.63462 21.0143 8.54151 20.9574C8.4484 20.9005 8.37495 20.8219 8.32322 20.7226C8.27149 20.6233 8.2446 20.5105 8.2446 20.3843V19.4201H7.9901C7.96423 19.4201 7.94251 19.4118 7.92699 19.3942C7.91044 19.3766 7.90216 19.3549 7.90216 19.327C7.90216 19.2991 7.91044 19.2773 7.92699 19.2597C7.94354 19.2422 7.96423 19.2339 7.9901 19.2339H8.2446V18.6742C8.2446 18.6421 8.25391 18.6163 8.27253 18.5966C8.29115 18.5769 8.31391 18.5676 8.34288 18.5676C8.37288 18.5676 8.39771 18.5769 8.41633 18.5966C8.43495 18.6163 8.44426 18.6421 8.44426 18.6742V19.2339H8.87463C8.9005 19.2339 8.92222 19.2422 8.93774 19.2597C8.95326 19.2773 8.96257 19.2991 8.96257 19.327C8.96257 19.3549 8.95429 19.3766 8.93774 19.3942C8.92119 19.4118 8.9005 19.4201 8.87463 19.4201H8.44426V20.3843C8.44426 20.5167 8.48358 20.6253 8.56117 20.7091C8.63979 20.7929 8.74014 20.8343 8.86429 20.8343H8.93567C8.96567 20.8343 8.9905 20.8436 9.00912 20.8633Z" fill="#009C95"/>
<path d="M11.1534 19.2472C11.1534 19.2565 11.1493 19.272 11.1399 19.2948L10.0444 21.7942C10.0247 21.8356 9.99987 21.8563 9.96883 21.8563C9.95539 21.8563 9.9409 21.8532 9.92332 21.846C9.88193 21.8273 9.86124 21.8015 9.86124 21.7673C9.86124 21.758 9.86538 21.7425 9.87469 21.7197L10.2006 20.978C10.2006 20.978 10.1944 20.9676 10.1871 20.9542L9.47329 19.3061C9.46501 19.2875 9.45984 19.2699 9.45984 19.2513C9.45984 19.2172 9.47846 19.1903 9.5157 19.1727C9.53329 19.1634 9.55088 19.1592 9.56743 19.1592C9.60054 19.1592 9.62537 19.1789 9.64295 19.2172L10.3051 20.7411L10.9703 19.2203C10.9899 19.1789 11.0148 19.1582 11.0448 19.1582C11.0603 19.1582 11.0748 19.1613 11.0903 19.1685C11.1317 19.1872 11.1524 19.213 11.1524 19.2472H11.1534Z" fill="#009C95"/>
<path d="M12.9516 21.0142C12.933 20.9945 12.9237 20.9697 12.9237 20.9407V18.4661C12.9237 18.4361 12.933 18.4112 12.9516 18.3926C12.9703 18.373 12.993 18.3636 13.022 18.3636C13.052 18.3636 13.0779 18.375 13.0975 18.3978L14.7538 20.6665V18.4661C14.7538 18.4361 14.7631 18.4112 14.7817 18.3926C14.8004 18.373 14.8231 18.3636 14.8521 18.3636C14.878 18.3636 14.9007 18.373 14.9204 18.3926C14.94 18.4123 14.9493 18.4371 14.9493 18.4661V20.9407C14.9493 20.9707 14.94 20.9955 14.9204 21.0142C14.9007 21.0338 14.878 21.0431 14.8521 21.0431C14.8221 21.0431 14.7973 21.0328 14.7807 21.0121L13.1213 18.7392V20.9397C13.1213 20.9697 13.112 20.9945 13.0934 21.0131C13.0747 21.0328 13.052 21.0421 13.023 21.0421C12.9941 21.0421 12.9713 21.0328 12.9527 21.0131L12.9516 21.0142Z" fill="#009C95"/>
<path d="M17.3791 19.1924C17.3967 19.211 17.405 19.2358 17.405 19.2679V20.9397C17.405 20.9697 17.3967 20.9945 17.3791 21.0132C17.3615 21.0328 17.3377 21.0421 17.3077 21.0421C17.2798 21.0421 17.256 21.0328 17.2374 21.0132C17.2187 20.9935 17.2094 20.9687 17.2094 20.9397V20.7607C17.136 20.8569 17.0449 20.9314 16.9384 20.9852C16.8318 21.039 16.7159 21.0659 16.5897 21.0659C16.4314 21.0659 16.2887 21.0318 16.1645 20.9625C16.0394 20.8942 15.9421 20.7938 15.8707 20.6624C15.8004 20.5311 15.7652 20.3738 15.7652 20.1907V19.2668C15.7652 19.2368 15.7745 19.212 15.7931 19.1934C15.8118 19.1737 15.8345 19.1644 15.8635 19.1644C15.8924 19.1644 15.9152 19.1737 15.9338 19.1934C15.9524 19.2131 15.9618 19.2379 15.9618 19.2668V20.1907C15.9618 20.408 16.0197 20.5745 16.1366 20.6883C16.2525 20.8031 16.4045 20.86 16.5918 20.86C16.7066 20.86 16.8122 20.8363 16.9063 20.7897C17.0004 20.7431 17.0749 20.678 17.1298 20.5942C17.1836 20.5104 17.2115 20.4183 17.2115 20.3179V19.2679C17.2115 19.2358 17.2208 19.211 17.2394 19.1924C17.258 19.1737 17.2808 19.1644 17.3098 19.1644C17.3398 19.1644 17.3646 19.1737 17.3812 19.1924H17.3791Z" fill="#009C95"/>
<path d="M19.0986 20.8633C19.1172 20.8829 19.1265 20.9088 19.1265 20.9409C19.1265 20.9709 19.1172 20.9957 19.0986 21.0143C19.08 21.034 19.0551 21.0433 19.0251 21.0433H18.9507C18.8307 21.0433 18.7241 21.0143 18.631 20.9574C18.5379 20.9005 18.4644 20.8219 18.4127 20.7226C18.361 20.6233 18.3341 20.5105 18.3341 20.3843V19.4201H18.0796C18.0537 19.4201 18.032 19.4118 18.0165 19.3942C17.9999 19.3766 17.9916 19.3549 17.9916 19.327C17.9916 19.2991 17.9999 19.2773 18.0165 19.2597C18.033 19.2422 18.0537 19.2339 18.0796 19.2339H18.3341V18.6742C18.3341 18.6421 18.3434 18.6163 18.362 18.5966C18.3806 18.5769 18.4034 18.5676 18.4324 18.5676C18.4624 18.5676 18.4872 18.5769 18.5058 18.5966C18.5244 18.6163 18.5337 18.6421 18.5337 18.6742V19.2339H18.9641C18.99 19.2339 19.0117 19.2422 19.0272 19.2597C19.0427 19.2773 19.052 19.2991 19.052 19.327C19.052 19.3549 19.0438 19.3766 19.0272 19.3942C19.0107 19.4118 18.99 19.4201 18.9641 19.4201H18.5337V20.3843C18.5337 20.5167 18.5731 20.6253 18.6506 20.7091C18.7293 20.7929 18.8296 20.8343 18.9538 20.8343H19.0251C19.0551 20.8343 19.08 20.8436 19.0986 20.8633Z" fill="#009C95"/>
<path d="M20.7672 19.2575C20.7672 19.2689 20.7661 19.2782 20.7641 19.2844C20.7579 19.3093 20.7475 19.3279 20.733 19.3372C20.7186 19.3465 20.6999 19.3527 20.6761 19.3527C20.6565 19.3527 20.6306 19.3506 20.5996 19.3455C20.5675 19.3413 20.5416 19.3382 20.5199 19.3382C20.4113 19.3382 20.314 19.362 20.2292 19.4106C20.1444 19.4582 20.0782 19.5255 20.0306 19.6093C19.983 19.6941 19.9592 19.7893 19.9592 19.8938V20.9376C19.9592 20.9676 19.9509 20.9925 19.9333 21.0111C19.9157 21.0307 19.892 21.0401 19.862 21.0401C19.834 21.0401 19.8102 21.0307 19.7916 21.0111C19.773 20.9914 19.7637 20.9666 19.7637 20.9376V19.2658C19.7637 19.2337 19.773 19.2089 19.7916 19.1903C19.8102 19.1717 19.834 19.1624 19.862 19.1624C19.892 19.1624 19.9168 19.1717 19.9333 19.1903C19.9509 19.2089 19.9592 19.2337 19.9592 19.2658V19.4789C20.0223 19.3734 20.103 19.2917 20.2003 19.2317C20.2985 19.1717 20.4051 19.1427 20.5199 19.1427C20.6855 19.1427 20.7682 19.181 20.7682 19.2565L20.7672 19.2575Z" fill="#009C95"/>
<path d="M21.4714 18.7237C21.4435 18.6926 21.429 18.6544 21.429 18.6088C21.429 18.5582 21.4445 18.5199 21.4745 18.4919C21.5045 18.464 21.5407 18.4506 21.5821 18.4506C21.6235 18.4506 21.6587 18.464 21.6877 18.4919C21.7166 18.5188 21.7321 18.5582 21.7321 18.6088C21.7321 18.6544 21.7177 18.6926 21.6877 18.7237C21.6587 18.7547 21.6214 18.7702 21.578 18.7702C21.5345 18.7702 21.4983 18.7547 21.4704 18.7237H21.4714ZM21.5118 21.0131C21.4932 20.9935 21.4838 20.9686 21.4838 20.9397V19.2679C21.4838 19.2358 21.4932 19.211 21.5118 19.1923C21.5304 19.1737 21.5532 19.1644 21.5821 19.1644C21.6121 19.1644 21.637 19.1737 21.6535 19.1923C21.6711 19.211 21.6794 19.2358 21.6794 19.2679V20.9397C21.6794 20.9697 21.6711 20.9945 21.6535 21.0131C21.6359 21.0328 21.6121 21.0421 21.5821 21.0421C21.5542 21.0421 21.5304 21.0328 21.5118 21.0131Z" fill="#009C95"/>
<path d="M23.4394 20.8633C23.458 20.8829 23.4673 20.9088 23.4673 20.9409C23.4673 20.9709 23.458 20.9957 23.4394 21.0143C23.4207 21.034 23.3959 21.0433 23.3659 21.0433H23.2914C23.1714 21.0433 23.0649 21.0143 22.9717 20.9574C22.8786 20.9005 22.8052 20.8219 22.7535 20.7226C22.7017 20.6233 22.6748 20.5105 22.6748 20.3843V19.4201H22.4203C22.3945 19.4201 22.3727 19.4118 22.3572 19.3942C22.3407 19.3766 22.3324 19.3549 22.3324 19.327C22.3324 19.2991 22.3407 19.2773 22.3572 19.2597C22.3738 19.2422 22.3945 19.2339 22.4203 19.2339H22.6748V18.6742C22.6748 18.6421 22.6841 18.6163 22.7028 18.5966C22.7214 18.5769 22.7441 18.5676 22.7731 18.5676C22.8031 18.5676 22.8279 18.5769 22.8466 18.5966C22.8652 18.6163 22.8745 18.6421 22.8745 18.6742V19.2339H23.3049C23.3307 19.2339 23.3525 19.2422 23.368 19.2597C23.3835 19.2773 23.3928 19.2991 23.3928 19.327C23.3928 19.3549 23.3845 19.3766 23.368 19.3942C23.3514 19.4118 23.3307 19.4201 23.3049 19.4201H22.8745V20.3843C22.8745 20.5167 22.9138 20.6253 22.9914 20.7091C23.07 20.7929 23.1704 20.8343 23.2945 20.8343H23.3659C23.3959 20.8343 23.4207 20.8436 23.4394 20.8633Z" fill="#009C95"/>
<path d="M24.1551 18.7237C24.1272 18.6926 24.1127 18.6544 24.1127 18.6088C24.1127 18.5582 24.1282 18.5199 24.1582 18.4919C24.1882 18.464 24.2244 18.4506 24.2658 18.4506C24.3072 18.4506 24.3423 18.464 24.3713 18.4919C24.4003 18.5188 24.4158 18.5582 24.4158 18.6088C24.4158 18.6544 24.4013 18.6926 24.3713 18.7237C24.3423 18.7547 24.3051 18.7702 24.2616 18.7702C24.2182 18.7702 24.182 18.7547 24.1541 18.7237H24.1551ZM24.1954 21.0131C24.1768 20.9935 24.1675 20.9686 24.1675 20.9397V19.2679C24.1675 19.2358 24.1768 19.211 24.1954 19.1923C24.2141 19.1737 24.2368 19.1644 24.2658 19.1644C24.2958 19.1644 24.3206 19.1737 24.3372 19.1923C24.3548 19.211 24.363 19.2358 24.363 19.2679V20.9397C24.363 20.9697 24.3548 20.9945 24.3372 21.0131C24.3196 21.0328 24.2958 21.0421 24.2658 21.0421C24.2379 21.0421 24.2141 21.0328 24.1954 21.0131Z" fill="#009C95"/>
<path d="M25.5925 20.9386C25.4539 20.8548 25.3442 20.74 25.2645 20.5941C25.1849 20.4472 25.1456 20.2848 25.1456 20.1068C25.1456 19.9289 25.1849 19.7623 25.2645 19.6154C25.3442 19.4685 25.4528 19.3537 25.5925 19.2709C25.7322 19.1882 25.8873 19.1458 26.0591 19.1458C26.2308 19.1458 26.3829 19.1871 26.5225 19.2709C26.6622 19.3547 26.7708 19.4696 26.8505 19.6154C26.9302 19.7623 26.9695 19.9258 26.9695 20.1068C26.9695 20.2879 26.9302 20.4482 26.8505 20.5941C26.7708 20.741 26.6622 20.8559 26.5225 20.9386C26.3829 21.0214 26.2287 21.0638 26.0591 21.0638C25.8894 21.0638 25.7322 21.0224 25.5925 20.9386ZM26.4243 20.7721C26.5329 20.7058 26.6188 20.6138 26.6798 20.4979C26.7419 20.381 26.7729 20.2506 26.7729 20.1068C26.7729 19.963 26.7419 19.8327 26.6798 19.7158C26.6177 19.5989 26.5329 19.5068 26.4243 19.4396C26.3156 19.3723 26.1936 19.3382 26.0591 19.3382C25.9246 19.3382 25.8025 19.3723 25.6939 19.4396C25.5853 19.5068 25.4994 19.5989 25.4363 19.7158C25.3732 19.8327 25.3411 19.963 25.3411 20.1068C25.3411 20.2506 25.3721 20.381 25.4363 20.4979C25.4994 20.6148 25.5853 20.7058 25.6939 20.7721C25.8025 20.8383 25.9246 20.8714 26.0591 20.8714C26.1936 20.8714 26.3156 20.8383 26.4243 20.7721Z" fill="#009C95"/>
<path d="M28.9276 19.244C29.0528 19.3123 29.15 19.4126 29.2214 19.544C29.2928 19.6754 29.3269 19.8327 29.3269 20.0158V20.9396C29.3269 20.9696 29.3176 20.9945 29.299 21.0131C29.2804 21.0327 29.2566 21.0421 29.2287 21.0421C29.2007 21.0421 29.1769 21.0327 29.1583 21.0131C29.1397 20.9934 29.1304 20.9686 29.1304 20.9396V20.0158C29.1304 19.7985 29.0724 19.632 28.9555 19.5182C28.8397 19.4033 28.6876 19.3464 28.5003 19.3464C28.3855 19.3464 28.28 19.3702 28.1858 19.4168C28.0917 19.4633 28.0172 19.5285 27.9624 19.6123C27.9075 19.6961 27.8806 19.7882 27.8806 19.8885V20.9386C27.8806 20.9686 27.8724 20.9934 27.8548 21.0121C27.8372 21.0317 27.8134 21.041 27.7834 21.041C27.7555 21.041 27.7317 21.0317 27.7131 21.0121C27.6944 20.9924 27.6851 20.9676 27.6851 20.9386V19.2668C27.6851 19.2347 27.6944 19.2099 27.7131 19.1913C27.7317 19.1726 27.7555 19.1633 27.7834 19.1633C27.8134 19.1633 27.8382 19.1726 27.8548 19.1913C27.8724 19.2099 27.8806 19.2347 27.8806 19.2668V19.4447C27.9541 19.3485 28.0451 19.274 28.1517 19.2202C28.2583 19.1664 28.3741 19.1395 28.5003 19.1395C28.6586 19.1395 28.8004 19.1737 28.9255 19.243L28.9276 19.244Z" fill="#009C95"/>
</svg>
