<svg width="50" height="11" viewBox="0 0 50 11" fill="none" xmlns="http://www.w3.org/2000/svg">
<path d="M23.6892 10.9782C23.1419 10.9811 22.5999 10.8713 22.0968 10.6559C21.1149 10.235 20.3343 9.44988 19.9193 8.46548C19.7076 7.95816 19.5986 7.41391 19.5986 6.8642C19.5986 6.31449 19.7076 5.77023 19.9193 5.26291C20.3331 4.27715 21.1148 3.49145 22.0984 3.07252C22.6023 2.86086 23.1434 2.75183 23.69 2.75183C24.2366 2.75183 24.7777 2.86086 25.2816 3.07252C25.7673 3.28172 26.2088 3.58148 26.5823 3.95577C26.9542 4.33234 27.2498 4.7773 27.4527 5.26613C27.6678 5.77216 27.7775 6.31675 27.775 6.86661V10.6301H26.5388V9.81292C26.1734 10.1701 25.745 10.4564 25.2752 10.6575C24.774 10.8716 24.2342 10.9807 23.6892 10.9782ZM23.6892 3.99606C23.3093 3.99481 22.933 4.07104 22.5836 4.2201C21.8935 4.51196 21.3454 5.06289 21.0572 5.7545C20.9111 6.10679 20.8359 6.48443 20.8359 6.86581C20.8359 7.24719 20.9111 7.62483 21.0572 7.97712C21.2009 8.31916 21.4088 8.63049 21.6697 8.89421C21.9306 9.15713 22.2405 9.36631 22.5819 9.50991C22.9325 9.65725 23.3089 9.73315 23.6892 9.73315C24.0695 9.73315 24.4459 9.65725 24.7965 9.50991C25.487 9.21974 26.0357 8.66981 26.3245 7.97873C26.4724 7.62669 26.548 7.24848 26.5469 6.86661C26.5488 6.48467 26.4732 6.10631 26.3245 5.7545C26.1808 5.41245 25.9729 5.10113 25.712 4.8374C25.4507 4.575 25.1408 4.36589 24.7997 4.22171C24.449 4.0711 24.0709 3.99429 23.6892 3.99606Z" fill="#231815"/>
<path d="M18.9525 8.70399V8.31556C18.5645 8.71764 18.141 9.08391 17.6873 9.40995C17.4358 9.58694 17.1387 9.68767 16.8314 9.70006C16.6956 9.70053 16.5622 9.66384 16.4457 9.59395C16.3292 9.52406 16.2341 9.42365 16.1706 9.30357C16.0012 8.99064 15.9215 8.63705 15.9401 8.28171C15.9401 8.09152 15.9595 7.74177 15.9981 7.24051V7.22439L16.011 7.2115C16.9636 6.17191 17.6744 5.18068 18.1224 4.26681C18.5618 3.38383 18.7918 2.4115 18.7945 1.42527C18.8048 1.15079 18.761 0.876968 18.6656 0.619389C18.5882 0.427589 18.4851 0.334106 18.3674 0.334106C18.3288 0.336406 18.2908 0.344558 18.2546 0.358283L16.4414 1.02878C15.7981 2.27932 15.269 3.58529 14.8602 4.93085C14.4267 6.34759 14.2059 7.56931 14.2059 8.57344C14.2059 8.58795 14.2059 8.60084 14.2059 8.61535C13.916 8.90539 13.6028 9.17115 13.2694 9.40995C13.0187 9.58698 12.7219 9.68723 12.4152 9.69845C12.2807 9.69834 12.1487 9.66188 12.0333 9.59294C11.9178 9.524 11.8231 9.42513 11.7592 9.30679C11.5837 8.99453 11.4983 8.63965 11.5126 8.28171C11.5126 8.09152 11.5336 7.74177 11.5706 7.24051V7.22278L11.5819 7.20989C12.5361 6.17191 13.2469 5.18068 13.6933 4.2652C14.1351 3.3824 14.3663 2.40922 14.3686 1.42205C14.3796 1.14752 14.3358 0.873559 14.2397 0.616165C14.1591 0.424365 14.0608 0.334106 13.9415 0.334106C13.9034 0.336341 13.8659 0.344498 13.8303 0.358283L12.0155 1.02878C11.3726 2.2795 10.8435 3.58544 10.4343 4.93085C10.1438 5.84047 9.94082 6.77579 9.82831 7.72404C9.54947 7.94324 9.27386 8.15277 9.04015 8.31717V6.86658C9.04187 6.31732 8.93221 5.7734 8.7178 5.26771C8.30216 4.28279 7.52115 3.49716 6.5387 3.07572C6.0355 2.86056 5.49354 2.75085 4.94628 2.75336C4.39896 2.75025 3.85687 2.85999 3.35385 3.07572C2.37347 3.49553 1.59448 4.27973 1.1812 5.26288C0.970037 5.77033 0.861328 6.31453 0.861328 6.86417C0.861328 7.4138 0.970037 7.958 1.1812 8.46545C1.59684 9.44889 2.37642 10.2337 3.35708 10.6558C3.85972 10.871 4.40115 10.9807 4.94789 10.9782C5.49568 10.9808 6.0382 10.8711 6.54192 10.6558C7.01076 10.454 7.43853 10.1677 7.80393 9.81127V10.6284H9.04015V8.9796C9.24001 8.81843 9.50273 8.61373 9.7864 8.39292C9.7864 8.45256 9.7864 8.51542 9.7864 8.57344C9.7864 9.23588 9.94758 9.76937 10.2474 10.1594C10.3873 10.3457 10.5697 10.4958 10.7794 10.5973C10.9891 10.6988 11.2201 10.7487 11.453 10.7429C11.944 10.7262 12.4218 10.5793 12.8375 10.3174C13.3488 10.0037 13.8291 9.6421 14.2719 9.23749C14.3296 9.57261 14.4673 9.88888 14.6733 10.1594C14.8129 10.3456 14.9951 10.4957 15.2045 10.5971C15.4139 10.6986 15.6446 10.7486 15.8773 10.7429C16.3685 10.7258 16.8466 10.5796 17.2634 10.319C17.8044 9.98542 18.3114 9.59942 18.7768 9.16657C18.8314 9.1172 18.8755 9.05738 18.9065 8.99066C18.9375 8.92394 18.9548 8.85167 18.9573 8.77813L18.9525 8.70399ZM16.1932 6.18642C16.4304 4.91457 16.765 3.66284 17.1941 2.44229C17.6599 1.21574 17.8855 1.07552 18.0145 1.07552C18.0699 1.07766 18.1234 1.09628 18.1682 1.12902C18.213 1.16175 18.247 1.20709 18.2659 1.25926C18.3266 1.40228 18.3552 1.55688 18.3497 1.71216C18.3497 2.32625 18.1563 3.06766 17.7759 3.91706C17.3995 4.75817 16.8956 5.53615 16.2818 6.22349L16.1609 6.35888L16.1932 6.18642ZM11.7673 6.18642C12.0043 4.914 12.3389 3.66172 12.7682 2.44068C13.234 1.21574 13.4596 1.07552 13.5902 1.07552C13.6452 1.0794 13.6979 1.09955 13.7415 1.13341C13.7852 1.16727 13.8177 1.21331 13.8352 1.26571C13.8941 1.40689 13.921 1.55934 13.9141 1.71216C13.9141 2.32625 13.7207 3.06766 13.3403 3.91706C12.9651 4.75843 12.4616 5.53649 11.8478 6.22349L11.7254 6.35888L11.7673 6.18642ZM7.5799 7.97548C7.43756 8.31831 7.23011 8.6303 6.96904 8.89418C6.70763 9.15682 6.39711 9.36548 6.05517 9.50826C5.70501 9.6561 5.32878 9.73226 4.94869 9.73226C4.56861 9.73226 4.19237 9.6561 3.84222 9.50826C3.15267 9.21755 2.60544 8.66685 2.3191 7.97548C2.17127 7.62362 2.09512 7.24581 2.09512 6.86417C2.09512 6.48252 2.17127 6.10471 2.3191 5.75285C2.60612 5.06156 3.15306 4.51057 3.84222 4.21846C4.19237 4.07062 4.56861 3.99445 4.94869 3.99445C5.32878 3.99445 5.70501 4.07062 6.05517 4.21846C6.74525 4.51032 7.29329 5.06125 7.58151 5.75285C7.72881 6.10484 7.80467 6.4826 7.80467 6.86417C7.80467 7.24573 7.72881 7.62349 7.58151 7.97548H7.5799Z" fill="#231815"/>
<path d="M30.6048 2.755V0.675826C30.605 0.618331 30.5939 0.56136 30.572 0.50818C30.5502 0.455 30.518 0.406659 30.4775 0.365928C30.4369 0.325198 30.3887 0.29288 30.3356 0.270829C30.2825 0.248777 30.2255 0.237426 30.168 0.237427H29.3622V2.755H28.1211V3.99767H29.3622V10.6301H30.5984V3.99767H31.8491V2.755H30.6048Z" fill="#231815"/>
<path d="M41.3687 0.2229H40.5821L37.3844 4.58272L34.2221 0.2229H33.0391V10.6301H34.2753V2.41006L37.3892 6.67962L40.5338 2.39556V10.6317H41.77V0.658077C41.7703 0.548292 41.7291 0.442439 41.6547 0.361735C41.5803 0.28103 41.4781 0.231439 41.3687 0.2229V0.2229Z" fill="#231815"/>
<path d="M49.6034 0.2229H43.0322V10.6317H49.9999V9.389H44.2684V6.0462H49.1666V4.80192H44.2668V1.46718H49.995V0.6613C49.996 0.552591 49.9564 0.447422 49.884 0.36635C49.8116 0.285277 49.7115 0.234128 49.6034 0.2229V0.2229Z" fill="#231815"/>
</svg>
