<svg width="45" height="18" viewBox="0 0 45 18" fill="none" xmlns="http://www.w3.org/2000/svg">
<path d="M36.5443 0.804321C34.8717 0.804064 33.2365 1.29981 31.8456 2.22887C30.4547 3.15793 29.3705 4.47857 28.7302 6.0238C28.0899 7.56902 27.9221 9.26943 28.2482 10.91C28.5743 12.5505 29.3795 14.0576 30.562 15.2405C31.7446 16.4234 33.2514 17.2291 34.8918 17.5557C36.5323 17.8822 38.2327 17.715 39.7782 17.0752C41.3236 16.4353 42.6446 15.3516 43.5741 13.9609C44.5035 12.5703 44.9998 10.9353 45.0001 9.26268C45.0002 8.15208 44.7816 7.05233 44.3568 6.02621C43.9319 5.00008 43.3091 4.06769 42.524 3.28226C41.7388 2.49683 40.8066 1.87374 39.7806 1.44857C38.7546 1.02341 37.6549 0.804493 36.5443 0.804321V0.804321Z" fill="#E30413"/>
<path d="M34.9673 6.21603C34.9673 6.37328 34.9048 6.52409 34.7936 6.63528C34.6824 6.74647 34.5316 6.80894 34.3743 6.80894H32.3076V9.04374H33.8844C34.0367 9.05088 34.1803 9.1164 34.2856 9.22669C34.3908 9.33697 34.4495 9.48355 34.4495 9.63599C34.4495 9.78843 34.3908 9.93501 34.2856 10.0453C34.1803 10.1556 34.0367 10.2211 33.8844 10.2282H32.3076V12.7927C32.3076 13.0212 32.2169 13.2403 32.0554 13.4018C31.8938 13.5633 31.6747 13.6541 31.4463 13.6541C31.2179 13.6541 30.9988 13.5633 30.8372 13.4018C30.6757 13.2403 30.585 13.0212 30.585 12.7927V12.7927V5.62573H34.3757C34.5322 5.62608 34.6823 5.68834 34.7931 5.79893C34.904 5.90952 34.9666 6.05946 34.9673 6.21603V6.21603ZM35.6266 12.7927C35.6266 13.0219 35.7176 13.2416 35.8797 13.4036C36.0417 13.5657 36.2614 13.6567 36.4906 13.6567C36.7197 13.6567 36.9394 13.5657 37.1015 13.4036C37.2635 13.2416 37.3545 13.0219 37.3545 12.7927V5.62573H35.6266V12.7927ZM38.1729 5.62573V6.81154H39.7157V12.7927C39.7157 13.0212 39.8065 13.2403 39.968 13.4018C40.1295 13.5633 40.3486 13.6541 40.5771 13.6541C40.8055 13.6541 41.0246 13.5633 41.1861 13.4018C41.3476 13.2403 41.4384 13.0212 41.4384 12.7927V6.81154H42.9813V5.62573H38.1729Z" fill="white"/>
<path d="M24.3771 5.45252C22.842 5.45252 22.0315 6.19528 22.0315 7.60392V11.4897C22.0315 12.252 22.2804 12.8163 22.7964 13.2124C23.1874 13.5056 23.7216 13.6529 24.3771 13.6529C25.0325 13.6529 25.572 13.5095 25.9721 13.2111C26.4842 12.8202 26.7226 12.2716 26.7226 11.4897V7.60392C26.7226 6.19528 25.9108 5.45252 24.3771 5.45252ZM25.1589 11.5458C25.1589 12.2221 24.9478 12.4723 24.3771 12.4723C23.8063 12.4723 23.5952 12.2221 23.5952 11.5458V7.54528C23.5952 6.86767 23.8011 6.63311 24.3771 6.63311C24.9531 6.63311 25.1589 6.87158 25.1589 7.54528V11.5458ZM5.07441 12.944C5.07407 13.1079 5.0087 13.265 4.89266 13.3808C4.77662 13.4966 4.61938 13.5616 4.45545 13.5616H1.19772C0.86804 13.5616 0.607422 13.3532 0.607422 13.0873V5.63234H2.17113V12.3263H4.45545C4.61938 12.3263 4.77662 12.3913 4.89266 12.5071C5.0087 12.6229 5.07407 12.78 5.07441 12.944V12.944ZM16.7736 5.62583H21.5429V6.80903H19.9218V12.8736C19.9218 13.0789 19.8403 13.2758 19.6951 13.4209C19.55 13.5661 19.3531 13.6476 19.1478 13.6476C18.9425 13.6476 18.7456 13.5661 18.6005 13.4209C18.4553 13.2758 18.3738 13.0789 18.3738 12.8736V6.80903H16.7736V5.62583ZM16.4217 7.60392V8.00527H14.858V7.54528C14.858 6.89373 14.643 6.63311 14.0905 6.63311C13.538 6.63311 13.3086 6.8807 13.3086 7.54528V11.5575C13.3086 12.226 13.521 12.4697 14.0905 12.4697C14.6599 12.4697 14.858 12.209 14.858 11.5575V11.0988H16.4217V11.4989C16.4217 12.2807 16.1611 12.8567 15.6542 13.2241C15.2476 13.5082 14.7212 13.6503 14.0905 13.6503C13.4598 13.6503 12.9177 13.5082 12.5138 13.2241C12.0016 12.8541 11.7319 12.2586 11.7319 11.4989V7.60392C11.7319 6.84422 12.0003 6.25001 12.5138 5.88123C12.9216 5.59455 13.452 5.45252 14.0918 5.45252C14.7316 5.45252 15.2489 5.59455 15.6555 5.87863C16.1637 6.2474 16.4217 6.82728 16.4217 7.60392ZM8.3152 5.45252C8.12555 5.45234 7.94095 5.51355 7.78898 5.627C7.63701 5.74045 7.52584 5.90004 7.4721 6.08191L5.26467 13.5616H6.75801L7.10984 12.2716H9.51404L9.85936 13.5616H11.3618L9.1583 6.08321C9.10479 5.9011 8.99372 5.74122 8.84173 5.62752C8.68974 5.51382 8.50501 5.45242 8.3152 5.45252V5.45252ZM7.4304 11.0988L8.27741 7.99745L8.30999 7.81893H8.31911L8.35169 7.99875L9.19479 11.0988H7.4304Z" fill="#1C1C1B"/>
</svg>
