<svg width="56" height="12" viewBox="0 0 56 12" fill="none" xmlns="http://www.w3.org/2000/svg">
<path d="M8.61211 1.51074H7.33203V11.5023H8.61211V5.69126H9.96748V4.39332H8.61211V1.51074Z" fill="#000B8C"/>
<path d="M19.839 1.51074H18.501V11.5023H19.839V1.51074Z" fill="#000B8C"/>
<path d="M39.8432 7.24742C39.2949 7.42698 37.9743 7.55586 37.2546 7.55586H34.5255C34.4743 7.55586 34.4252 7.53552 34.389 7.49931C34.3528 7.4631 34.3324 7.41399 34.3324 7.36279V5.83847H37.7146C37.8004 5.83822 37.8826 5.80401 37.9433 5.74333C38.004 5.68265 38.0382 5.60041 38.0385 5.51459V2.15368H33.0186V3.22185H36.7391V4.79636H33.0219V7.57517C33.0219 8.17369 33.5119 8.61969 34.1109 8.61969H37.1354C38.0703 8.59797 39.1385 8.47489 39.8432 8.1317V11.5023H41.1411V1.51074H39.8432V7.24742Z" fill="#000B8C"/>
<path d="M50.0735 1.51074V4.61198H48.7167C48.4382 3.22378 47.1987 2.17926 45.711 2.17926C44.0183 2.17926 42.6455 3.53077 42.6455 5.20326C42.6455 6.87576 44.0183 8.22968 45.711 8.22968C47.1987 8.22968 48.4382 7.18275 48.7167 5.79503H50.0735V11.5023H51.3714V1.51074H50.0735ZM45.711 7.11517C44.7061 7.11517 43.8908 6.25937 43.8908 5.20326C43.8908 4.14715 44.7061 3.29184 45.711 3.29184C46.716 3.29184 47.5307 4.14812 47.5307 5.20326C47.5307 6.25841 46.716 7.11517 45.711 7.11517Z" fill="#000B8C"/>
<path d="M30.1854 4.11869V1.56433H22.7314V2.61754H28.8875V3.48251H22.9838V4.44788H28.8846C28.8854 4.77643 28.853 5.10422 28.7881 5.42627H21.376V6.39309H31.6441V5.42386H29.9513C30.1444 5.08984 30.1661 4.66315 30.1854 4.12062" fill="#000B8C"/>
<path d="M24.029 10.2772V9.68451H29.9573C30.0476 9.68425 30.1342 9.64827 30.198 9.58441C30.2619 9.52056 30.2978 9.43403 30.2981 9.34373V7.02686H22.6162V8.01973H29.0021V8.73314H22.7311V10.4597C22.7311 10.7367 22.8411 11.0024 23.037 11.1983C23.2329 11.3942 23.4986 11.5042 23.7756 11.5042H30.4144V10.4689H24.2206C24.1694 10.4689 24.1203 10.4485 24.0841 10.4123C24.0479 10.3761 24.0276 10.327 24.0276 10.2758" fill="#000B8C"/>
<path d="M14.1373 2.1792C12.4445 2.1792 11.0723 3.53409 11.0723 5.20562C11.0723 6.87715 12.4445 8.23156 14.1373 8.23156C15.8301 8.23156 17.2023 6.87667 17.2023 5.20562C17.2023 3.53457 15.8301 2.1792 14.1373 2.1792ZM14.1373 7.06298C13.141 7.06298 12.3335 6.23132 12.3335 5.20562C12.3335 4.17992 13.141 3.34777 14.1373 3.34777C15.1336 3.34777 15.9411 4.17944 15.9411 5.20562C15.9411 6.2318 15.1336 7.06298 14.1373 7.06298Z" fill="#000B8C"/>
<path d="M3.13155 4.03419C2.89295 4.03495 2.65993 4.10643 2.46195 4.2396C2.26396 4.37276 2.1099 4.56163 2.01923 4.78233C1.92856 5.00304 1.90536 5.24567 1.95255 5.47956C1.99974 5.71344 2.11521 5.92809 2.28437 6.09637C2.45352 6.26465 2.66877 6.379 2.9029 6.42498C3.13703 6.47095 3.37953 6.44649 3.59976 6.35467C3.81999 6.26286 4.00806 6.10782 4.14019 5.90914C4.27233 5.71047 4.3426 5.47708 4.34212 5.23848C4.34181 5.07989 4.31023 4.92292 4.24921 4.77654C4.18818 4.63016 4.0989 4.49725 3.98647 4.3854C3.87404 4.27355 3.74066 4.18496 3.59397 4.1247C3.44728 4.06444 3.29014 4.03368 3.13155 4.03419Z" fill="#000B8C"/>
<path d="M3.132 2.1792C1.41944 2.1792 0.03125 3.5476 0.03125 5.23844C0.03125 6.92928 1.41944 8.29961 3.132 8.29961C4.84456 8.29961 6.23227 6.92928 6.23227 5.23844C6.23227 3.5476 4.84408 2.1792 3.132 2.1792ZM3.132 7.06153C1.70133 7.06153 0.541445 6.24628 0.541445 5.24037C0.541445 4.23446 1.69988 3.41969 3.132 3.41969C4.56412 3.41969 5.72208 4.23301 5.72208 5.23844C5.72208 6.24387 4.56364 7.0596 3.132 7.0596" fill="#000B8C"/>
<path d="M54.7513 2.56146C54.9477 2.49871 55.0892 2.35439 55.0892 2.07878C55.0892 1.67671 54.7894 1.55652 54.4699 1.55652H53.8506V3.16578H54.1957V2.60201H54.3844L54.7706 3.16578H55.1678L54.7513 2.56146ZM54.4911 2.32785H54.1967V1.82923H54.4911C54.6084 1.82923 54.745 1.8775 54.745 2.07782C54.745 2.28585 54.6084 2.32785 54.4911 2.32785Z" fill="#000B8C"/>
<path d="M54.4256 3.92699C54.1142 3.92699 53.8099 3.83465 53.551 3.66165C53.2921 3.48865 53.0904 3.24276 52.9713 2.95509C52.8522 2.66742 52.8211 2.35088 52.8819 2.04553C52.9427 1.74017 53.0927 1.45971 53.3129 1.23961C53.5332 1.01952 53.8137 0.869683 54.1191 0.809058C54.4245 0.748433 54.741 0.779742 55.0286 0.899024C55.3162 1.01831 55.562 1.2202 55.7348 1.47918C55.9077 1.73815 55.9998 2.04257 55.9996 2.35392C55.9994 2.77122 55.8334 3.17133 55.5383 3.46631C55.2431 3.76129 54.8429 3.92699 54.4256 3.92699ZM54.4256 1.09074C54.1759 1.09074 53.9318 1.16479 53.7241 1.30351C53.5165 1.44224 53.3546 1.63942 53.2591 1.87012C53.1635 2.10082 53.1384 2.35468 53.1871 2.5996C53.2358 2.84453 53.356 3.06952 53.5326 3.24613C53.7091 3.42274 53.934 3.54304 54.179 3.59182C54.4239 3.64059 54.6777 3.61566 54.9085 3.52016C55.1392 3.42466 55.3364 3.2629 55.4752 3.05531C55.6141 2.84772 55.6882 2.60364 55.6883 2.35392C55.6879 2.01911 55.5548 1.69811 55.3181 1.46131C55.0814 1.22452 54.7604 1.09126 54.4256 1.09074Z" fill="#000B8C"/>
</svg>
