<svg width="46" height="30" viewBox="0 0 46 30" fill="none" xmlns="http://www.w3.org/2000/svg">
<path d="M12.4284 15.559H5.59086C5.31887 15.559 5.19088 15.445 5.19088 15.197V14.4411H11.8704C12.1367 14.4429 12.3934 14.3418 12.5868 14.1588C12.7803 13.9758 12.8955 13.7251 12.9084 13.4591L12.9504 11.7112C12.9641 11.62 12.958 11.5268 12.9324 11.4381C12.9069 11.3494 12.8625 11.2673 12.8024 11.1973C12.7259 11.1296 12.6365 11.0782 12.5395 11.0463C12.4426 11.0143 12.3401 11.0024 12.2384 11.0113H3.53699C3.48395 11.0113 3.43309 11.0324 3.39558 11.0699C3.35808 11.1074 3.33701 11.1582 3.33701 11.2113V12.0952C3.33701 12.1483 3.35808 12.1991 3.39558 12.2366C3.43309 12.2741 3.48395 12.2952 3.53699 12.2952H10.6485C10.6975 12.2872 10.7476 12.2904 10.7951 12.3046C10.8426 12.3188 10.8863 12.3435 10.9229 12.377C10.9595 12.4105 10.988 12.4519 11.0063 12.498C11.0246 12.5441 11.0322 12.5937 11.0285 12.6432V13.2431H3.33301V15.697C3.33301 16.1129 3.421 16.4089 3.59699 16.5769C3.77298 16.7449 4.08896 16.8289 4.56293 16.8289H12.0484C12.5904 16.8169 12.9344 16.4429 12.9344 16.101C12.9344 15.759 12.9864 15.559 12.4284 15.559Z" fill="#C00C0C"/>
<path d="M24.0555 11.7372C23.9735 11.6312 24.0555 11.7372 23.9475 11.6012C23.5083 11.0395 23.1346 10.4296 22.8335 9.78332C22.7535 9.60534 22.6735 9.42335 22.5976 9.22736C22.2436 8.30542 22.2436 7.78346 22.2436 5.48361V3.75773C22.2436 3.70469 22.2225 3.65382 22.185 3.61631C22.1475 3.57881 22.0966 3.55774 22.0436 3.55774H20.6737C20.6206 3.55774 20.5698 3.57881 20.5323 3.61631C20.4948 3.65382 20.4737 3.70469 20.4737 3.75773V5.46361C20.4737 7.43748 20.2497 8.6874 19.6897 9.78332C19.5978 9.96131 19.4898 10.1373 19.3878 10.3093C19.3198 10.4153 19.2498 10.5233 19.1738 10.6293C19.0978 10.5233 19.0278 10.4153 18.9598 10.3093C18.8498 10.1373 18.7598 9.96131 18.6578 9.78332C18.0979 8.6874 17.8739 7.43748 17.8739 5.46361V3.75773C17.8739 3.70469 17.8528 3.65382 17.8153 3.61631C17.7778 3.57881 17.7269 3.55774 17.6739 3.55774H16.298C16.2449 3.55774 16.1941 3.57881 16.1566 3.61631C16.1191 3.65382 16.098 3.70469 16.098 3.75773V5.48361C16.098 7.78346 16.098 8.30542 15.746 9.22736C15.67 9.42735 15.59 9.60534 15.51 9.78332C15.209 10.4296 14.8352 11.0395 14.3961 11.6012C14.2901 11.7412 14.3681 11.6312 14.2881 11.7372C14.1501 11.9172 14.0621 12.1552 14.3961 12.4471C14.4401 12.4871 14.6861 12.6751 14.9581 12.8751C14.9964 12.9072 15.0454 12.9238 15.0954 12.9216C15.1454 12.9194 15.1927 12.8985 15.228 12.8631C15.306 12.7851 15.926 12.0292 16.228 11.6012C16.5469 11.1953 16.8 10.7418 16.9779 10.2573C16.9779 10.2733 16.9939 10.2933 17.0019 10.3093C17.1915 10.7365 17.445 11.1324 17.7539 11.4832C17.7859 11.5232 17.8199 11.5632 17.8539 11.6012C18.1799 11.9812 18.4678 12.2732 18.4678 12.2732C18.5596 12.3653 18.6687 12.4384 18.7888 12.4883C18.9089 12.5382 19.0377 12.5639 19.1678 12.5639C19.2978 12.5639 19.4266 12.5382 19.5468 12.4883C19.6669 12.4384 19.7759 12.3653 19.8677 12.2732C19.8677 12.2732 20.1557 11.9812 20.4817 11.6012C20.5157 11.5632 20.5477 11.5232 20.5817 11.4832C20.8905 11.1324 21.1441 10.7365 21.3336 10.3093C21.3336 10.2933 21.3516 10.2733 21.3556 10.2573C21.5354 10.7414 21.789 11.1948 22.1076 11.6012C22.4156 12.0292 23.0355 12.7851 23.1075 12.8631C23.143 12.8991 23.1907 12.9203 23.2412 12.9225C23.2916 12.9248 23.341 12.9078 23.3795 12.8751C23.6515 12.6751 23.8955 12.4871 23.9415 12.4471C24.2814 12.1552 24.1934 11.9172 24.0555 11.7372Z" fill="#C00C0C"/>
<path d="M9.83287 3.28774H8.52496C8.47192 3.28774 8.42105 3.30881 8.38355 3.34631C8.34604 3.38382 8.32497 3.43468 8.32497 3.48772V6.28754C8.32497 6.34058 8.3039 6.39144 8.2664 6.42895C8.22889 6.46645 8.17803 6.48752 8.12499 6.48752H6.65909C6.65909 6.46752 6.64509 6.44753 6.63709 6.42553L6.62109 6.37953C6.59109 6.29953 6.56309 6.22754 6.53309 6.16154C6.5031 6.09555 6.4851 6.05955 6.4571 6.00756C6.4031 5.90956 6.35111 5.82757 6.29911 5.74957H7.06506C7.1181 5.74957 7.16897 5.7285 7.20647 5.691C7.24398 5.6535 7.26504 5.60262 7.26504 5.54959V4.69364C7.26504 4.6406 7.24398 4.58974 7.20647 4.55223C7.16897 4.51473 7.1181 4.49366 7.06506 4.49366H4.77921C4.72617 4.49366 4.6753 4.47259 4.6378 4.43508C4.6003 4.39758 4.57923 4.34671 4.57923 4.29367V3.29374C4.57923 3.2407 4.55816 3.18983 4.52065 3.15233C4.48315 3.11482 4.43228 3.09375 4.37924 3.09375H2.98933C2.93629 3.09375 2.88542 3.11482 2.84792 3.15233C2.81042 3.18983 2.78935 3.2407 2.78935 3.29374V4.29367C2.78935 4.34671 2.76828 4.39758 2.73077 4.43508C2.69327 4.47259 2.6424 4.49366 2.58936 4.49366H0.219518C0.166478 4.49366 0.115611 4.51473 0.078106 4.55223C0.0406012 4.58974 0.0195313 4.6406 0.0195312 4.69364L0.0195313 5.54959C0.0195313 5.60262 0.0406012 5.6535 0.078106 5.691C0.115611 5.7285 0.166478 5.74957 0.219518 5.74957H1.05346C0.704257 6.25684 0.525002 6.86183 0.541496 7.47746C0.541496 8.3654 0.827477 9.07735 1.39144 9.59731C1.9554 10.1173 2.71935 10.3773 3.66729 10.3773C4.3586 10.4006 5.04109 10.2167 5.62715 9.8493L5.69715 9.7993C5.78737 9.73827 5.87354 9.67147 5.95513 9.59931C6.37422 9.21733 6.65543 8.70764 6.75508 8.14941V8.13741C6.77843 8.00037 6.79446 7.86219 6.80308 7.72344H8.11899C8.17203 7.72344 8.22289 7.74451 8.2604 7.78202C8.2979 7.81952 8.31897 7.87039 8.31897 7.92343V9.7353C8.31897 10.2753 8.60295 10.2253 9.07492 10.2253C9.32873 10.2118 9.56818 10.1033 9.74567 9.9214C9.92316 9.73947 10.0257 9.4974 10.0329 9.24334V3.48572C10.0323 3.43303 10.011 3.38267 9.97358 3.3456C9.93613 3.30853 9.88557 3.28773 9.83287 3.28774ZM4.64322 8.54138C4.52094 8.67809 4.3702 8.78636 4.20159 8.85857C4.03299 8.93078 3.85061 8.96518 3.66729 8.95935C3.48551 8.96438 3.30479 8.93018 3.13741 8.85909C2.97004 8.788 2.81995 8.68169 2.69735 8.54738C2.43388 8.24872 2.2969 7.85929 2.31538 7.46146C2.29565 7.05861 2.43253 6.66374 2.69735 6.35953C2.82038 6.2259 2.97059 6.12017 3.1379 6.04945C3.3052 5.97874 3.48572 5.94468 3.66729 5.94956C3.84993 5.94328 4.03176 5.97667 4.20024 6.04745C4.36873 6.11823 4.51986 6.2247 4.64322 6.35953C4.88698 6.67093 5.01942 7.055 5.01942 7.45046C5.01942 7.84592 4.88698 8.22998 4.64322 8.54138Z" fill="#C00C0C"/>
<path d="M12.6864 3.28775H11.3025C11.2495 3.28775 11.1986 3.30882 11.1611 3.34633C11.1236 3.38383 11.1025 3.4347 11.1025 3.48774V9.9473C11.1025 10.4873 11.4045 10.4373 11.9025 10.4373C12.1622 10.4295 12.4093 10.3241 12.5947 10.1421C12.7801 9.96006 12.8899 9.71482 12.9024 9.45534V3.48574C12.9022 3.45824 12.8964 3.43108 12.8852 3.40595C12.8741 3.38082 12.8578 3.35826 12.8376 3.33968C12.8173 3.3211 12.7934 3.3069 12.7674 3.29796C12.7414 3.28903 12.7138 3.28555 12.6864 3.28775Z" fill="#C00C0C"/>
<path d="M26.7593 3.28781H25.3894C25.3364 3.28781 25.2855 3.30888 25.248 3.34639C25.2105 3.38389 25.1895 3.43476 25.1895 3.4878V16.1749C25.1895 16.7149 25.4874 16.6649 25.9754 16.6649C26.2336 16.6556 26.4789 16.5494 26.6623 16.3675C26.8458 16.1855 26.9539 15.9411 26.9653 15.683V3.4838C26.9648 3.45736 26.9591 3.43129 26.9484 3.40709C26.9377 3.38289 26.9224 3.36105 26.9032 3.34282C26.8841 3.3246 26.8615 3.31035 26.8368 3.30091C26.8121 3.29147 26.7858 3.28701 26.7593 3.28781Z" fill="#C00C0C"/>
<path d="M44.7865 4.12372H42.9866C42.9335 4.12372 42.8827 4.10266 42.8452 4.06515C42.8077 4.02765 42.7866 3.97678 42.7866 3.92374V0.199987C42.7866 0.146947 42.7655 0.0960824 42.728 0.0585776C42.6905 0.0210729 42.6397 0 42.5866 0H39.8748C39.8218 0 39.7709 0.0210729 39.7334 0.0585776C39.6959 0.0960824 39.6748 0.146947 39.6748 0.199987V11.0413C39.6748 11.8212 40.1088 11.7492 40.8887 11.7492H41.0607C41.8427 11.7492 42.7866 11.0113 42.7866 10.2313V6.30958C42.7866 6.25654 42.8077 6.20567 42.8452 6.16817C42.8827 6.13066 42.9335 6.10959 42.9866 6.10959H44.6845C45.1304 6.10959 45.5964 5.74362 45.5964 5.29965V4.63169C45.5964 4.18772 45.2324 4.12372 44.7865 4.12372Z" fill="#C00C0C"/>
<path d="M37.8164 0.559977C37.6165 0.35999 37.2425 0.25 36.7245 0.25H29.473C29.3669 0.25 29.2652 0.29214 29.1902 0.367149C29.1152 0.442159 29.073 0.543894 29.073 0.649973V1.80389C29.073 1.90997 29.1152 2.01171 29.1902 2.08672C29.2652 2.16173 29.3669 2.20387 29.473 2.20387H34.5607C34.6266 2.19764 34.6932 2.2047 34.7564 2.22462C34.8196 2.24454 34.8782 2.27693 34.9286 2.31986C34.9653 2.36482 34.9927 2.4166 35.0091 2.47222C35.0256 2.52784 35.0309 2.58617 35.0246 2.64384C35.0126 3.12981 34.7607 3.57978 34.4467 4.00575H29.273C29.1669 4.00575 29.0652 4.04789 28.9902 4.1229C28.9152 4.19791 28.873 4.29964 28.873 4.40572V5.43366C28.873 5.53973 28.9152 5.64147 28.9902 5.71648C29.0652 5.79149 29.1669 5.83363 29.273 5.83363C29.273 5.83363 33.5607 5.82163 33.5627 5.83363C32.7088 6.95355 31.2769 7.91549 29.301 8.69544C29.123 8.76543 28.7791 9.04541 29.063 9.58138C29.249 9.93335 29.447 10.2893 29.559 10.4913C29.573 10.5251 29.5942 10.5554 29.621 10.5803C29.6478 10.6051 29.6797 10.6239 29.7145 10.6353C29.7492 10.6467 29.786 10.6504 29.8223 10.6463C29.8587 10.6422 29.8937 10.6302 29.925 10.6113C35.0826 8.96342 38.0384 5.92962 38.1344 1.58991C38.1344 1.11994 38.0284 0.765963 37.8164 0.559977Z" fill="#C00C0C"/>
<path d="M42.67 14.6691H34.9346C34.6446 14.6691 34.5086 14.5411 34.5086 14.2691V11.1993C34.5086 11.0932 34.4664 10.9915 34.3914 10.9165C34.3164 10.8415 34.2147 10.7993 34.1086 10.7993H31.9088C31.8027 10.7993 31.7009 10.8415 31.6259 10.9165C31.5509 10.9915 31.5088 11.0932 31.5088 11.1993V15.291C31.5088 15.795 31.6128 16.153 31.8188 16.3589C32.0248 16.5649 32.3887 16.6689 32.8967 16.6689H42.578C42.8063 16.6499 43.0205 16.5507 43.1827 16.389C43.3448 16.2272 43.4445 16.0132 43.464 15.785V15.049C43.454 14.6191 43.102 14.6691 42.67 14.6691Z" fill="#C00C0C"/>
<path d="M25.5861 27.5521V29.236C25.5831 29.2964 25.5962 29.3564 25.6241 29.41C25.6565 29.455 25.7029 29.4881 25.7561 29.504V29.624H24.6182V29.504C24.6717 29.4878 24.7183 29.454 24.7502 29.408C24.779 29.3555 24.7922 29.2958 24.7882 29.236V24.9383C24.7924 24.8779 24.7792 24.8175 24.7502 24.7643C24.7179 24.7183 24.6716 24.6839 24.6182 24.6663V24.5483H26.882C27.1032 24.5423 27.3244 24.5644 27.54 24.6143C27.6978 24.6563 27.8428 24.7367 27.9619 24.8483C28.1105 24.9926 28.2187 25.1733 28.2759 25.3723C28.3419 25.5949 28.3749 25.826 28.3739 26.0582C28.3739 26.8862 28.0459 27.3708 27.39 27.5122L28.0919 28.9121C28.169 29.0781 28.26 29.2373 28.3639 29.388C28.3891 29.4212 28.421 29.4487 28.4575 29.4686C28.4941 29.4886 28.5344 29.5007 28.5759 29.504V29.624H27.268V29.504C27.358 29.484 27.402 29.44 27.402 29.37C27.3771 29.2571 27.3353 29.1485 27.278 29.048L26.544 27.5521H25.5861ZM25.5861 26.7162H26.806C26.9337 26.7193 27.0615 26.712 27.188 26.6942C27.2608 26.6782 27.3292 26.6461 27.388 26.6002C27.5183 26.4466 27.5899 26.2517 27.5899 26.0503C27.5899 25.8488 27.5183 25.6539 27.388 25.5003C27.3297 25.4532 27.2612 25.4203 27.188 25.4043C27.0608 25.3873 26.9323 25.3806 26.804 25.3843H25.5841L25.5861 26.7162Z" fill="#9D5532"/>
<path d="M30.667 24.4584C30.9566 24.4483 31.2444 24.5083 31.5059 24.6333C31.7674 24.7583 31.9948 24.9446 32.1689 25.1763C32.5793 25.7374 32.786 26.4217 32.7548 27.1162C32.7593 27.5849 32.6638 28.0492 32.4749 28.4781C32.1069 29.302 31.5069 29.714 30.675 29.714C30.3863 29.7239 30.0995 29.6636 29.8393 29.5382C29.5791 29.4128 29.3532 29.2261 29.1811 28.9941C28.9725 28.7202 28.819 28.4084 28.7291 28.0761C28.637 27.7509 28.5913 27.4142 28.5931 27.0762C28.5863 26.595 28.6817 26.1179 28.8731 25.6763C29.2251 24.8777 29.823 24.4717 30.667 24.4584ZM30.667 25.3203C30.4994 25.3192 30.334 25.3578 30.1842 25.4328C30.0343 25.5079 29.9044 25.6174 29.805 25.7523C29.539 26.1463 29.3969 26.6108 29.3969 27.0862C29.3969 27.5616 29.539 28.0261 29.805 28.4201C29.9067 28.5536 30.0379 28.6618 30.1883 28.7362C30.3386 28.8107 30.5042 28.8495 30.672 28.8495C30.8398 28.8495 31.0053 28.8107 31.1557 28.7362C31.3061 28.6618 31.4372 28.5536 31.5389 28.4201C31.6824 28.2329 31.7884 28.0196 31.8509 27.7921C31.9151 27.5698 31.9474 27.3396 31.9469 27.1082C31.9775 26.6232 31.8359 26.143 31.5469 25.7523C31.4433 25.618 31.3103 25.5092 31.1581 25.4343C31.0059 25.3595 30.8386 25.3204 30.669 25.3203H30.667Z" fill="#9D5532"/>
<path d="M34.8031 27.4981V29.232C34.7994 29.2928 34.8118 29.3535 34.8391 29.408C34.8719 29.4531 34.9181 29.4867 34.9711 29.504V29.624H33.8372V29.504C33.891 29.4872 33.938 29.4536 33.9712 29.408C34.0019 29.3547 34.0158 29.2933 34.0112 29.232V27.4981L32.8432 25.1863C32.7765 25.0458 32.6969 24.9119 32.6053 24.7863C32.5546 24.7235 32.4841 24.6798 32.4053 24.6623V24.5443H33.8352V24.6623C33.7818 24.6707 33.7336 24.6992 33.7005 24.742C33.6674 24.7847 33.6519 24.8385 33.6572 24.8923C33.6767 24.9956 33.7132 25.0949 33.7652 25.1863L34.4191 26.5442L35.0891 25.1863C35.1431 25.0944 35.1797 24.9934 35.1971 24.8883C35.199 24.8358 35.1828 24.7842 35.1511 24.7423C35.1189 24.7007 35.0727 24.6723 35.0211 24.6623V24.5443H36.421V24.6623C36.3422 24.6798 36.2717 24.7235 36.221 24.7863C36.1294 24.9119 36.0498 25.0458 35.983 25.1863L34.8031 27.4981Z" fill="#9D5532"/>
<path d="M38.5907 28.3301H36.9448L36.7008 29.044C36.6719 29.1189 36.655 29.1979 36.6508 29.278C36.6508 29.3302 36.6683 29.3809 36.7006 29.4219C36.7329 29.4629 36.7781 29.4919 36.8288 29.504V29.624H35.6289V29.504C35.6929 29.4882 35.7499 29.4516 35.7909 29.4C35.8467 29.3097 35.8898 29.2121 35.9189 29.11L37.2488 25.2103C37.2852 25.1148 37.3068 25.0143 37.3128 24.9123C37.315 24.8605 37.3015 24.8093 37.274 24.7654C37.2465 24.7215 37.2064 24.6869 37.1588 24.6663V24.5483H38.4427V24.6663C38.3964 24.6811 38.3561 24.7105 38.3279 24.7502C38.2998 24.7899 38.2853 24.8377 38.2867 24.8863C38.2888 24.9706 38.3057 25.0539 38.3367 25.1323L39.7146 29.044C39.7519 29.1632 39.8036 29.2774 39.8686 29.384C39.9126 29.4431 39.9754 29.4854 40.0466 29.504V29.624H38.7167V29.504C38.7436 29.5011 38.7697 29.4927 38.7933 29.4794C38.8169 29.4662 38.8375 29.4482 38.854 29.4267C38.8704 29.4052 38.8823 29.3806 38.889 29.3543C38.8956 29.3281 38.8969 29.3008 38.8927 29.274C38.8867 29.195 38.8685 29.1174 38.8387 29.044L38.5907 28.3301ZM38.3627 27.6341L37.7768 25.8343L37.1768 27.6341H38.3627Z" fill="#9D5532"/>
<path d="M41.0449 28.7861H43.2707C43.2941 28.7878 43.3174 28.784 43.339 28.775C43.3605 28.7659 43.3796 28.7519 43.3947 28.7341C43.4318 28.6781 43.4558 28.6146 43.4647 28.5481H43.5487V29.862H43.4647C43.4558 29.7955 43.4318 29.7319 43.3947 29.676C43.3794 29.6584 43.3603 29.6446 43.3388 29.6355C43.3173 29.6265 43.294 29.6226 43.2707 29.624H40.085V29.504C40.1385 29.4878 40.185 29.454 40.217 29.408C40.2457 29.3547 40.2589 29.2944 40.255 29.234V24.9383C40.2592 24.8779 40.246 24.8175 40.217 24.7643C40.1847 24.7182 40.1384 24.6839 40.085 24.6663V24.5483H41.2169V24.6663C41.1626 24.6811 41.1157 24.7153 41.0849 24.7623C41.0561 24.8163 41.0429 24.8773 41.0469 24.9383L41.0449 28.7861Z" fill="#9D5532"/>
<path d="M2.27734 29.062V27.9281C2.27812 27.9055 2.28334 27.8833 2.2927 27.8627C2.30207 27.8421 2.3154 27.8236 2.33193 27.8082C2.34846 27.7928 2.36787 27.7807 2.38904 27.7728C2.41022 27.7649 2.43274 27.7613 2.45533 27.7621H12.9346C13.2126 27.7621 13.4406 27.8561 13.4406 28.122V28.496C13.4406 28.648 12.8726 29.23 12.5547 29.23H2.45533C2.40952 29.2311 2.36513 29.214 2.33181 29.1826C2.29848 29.1511 2.27891 29.1078 2.27734 29.062Z" fill="#9D5532"/>
<path d="M21.542 23.4364V23.7964C21.542 24.0624 21.658 24.2784 21.972 24.2784H22.4179C22.8959 24.2784 23.2879 23.4364 23.2879 23.4364V18.7867C23.2833 18.7381 23.2598 18.6932 23.2223 18.6617C23.1849 18.6303 23.1366 18.6149 23.0879 18.6188H21.746C21.6974 18.6154 21.6494 18.631 21.612 18.6624C21.5747 18.6937 21.5511 18.7383 21.546 18.7867V23.4344L21.542 23.4364Z" fill="#9D5532"/>
<path d="M23.2773 20.8466C23.2804 20.8135 23.2964 20.783 23.3218 20.7616C23.3473 20.7403 23.3802 20.7298 23.4133 20.7326H24.5532C24.8512 20.7326 25.1652 20.2747 25.1652 20.2747V19.8967C25.1652 19.6467 24.9212 19.6107 24.6212 19.6107H23.4213C23.3882 19.6135 23.3553 19.6031 23.3298 19.5817C23.3044 19.5604 23.2884 19.5298 23.2853 19.4967L23.1033 19.5487L23.0693 20.7046L23.2773 20.8466Z" fill="#9D5532"/>
<path d="M23.2782 22.7065C23.2789 22.6892 23.2832 22.6723 23.2907 22.6567C23.2983 22.6411 23.309 22.6273 23.3221 22.616C23.3352 22.6048 23.3505 22.5964 23.3671 22.5913C23.3836 22.5862 23.401 22.5846 23.4182 22.5865H24.5581C24.8561 22.5865 25.1701 22.1305 25.1701 22.1305V21.7526C25.1701 21.5006 24.9261 21.4666 24.6261 21.4666H23.4262C23.4096 21.4679 23.393 21.466 23.3772 21.4609C23.3614 21.4558 23.3467 21.4477 23.3341 21.4369C23.3214 21.4261 23.311 21.4129 23.3035 21.3981C23.296 21.3833 23.2915 21.3672 23.2902 21.3506L23.1082 21.4046L23.0742 22.5605L23.2782 22.7065Z" fill="#9D5532"/>
<path d="M8.75702 27.7601C8.71228 27.7591 8.66977 27.7404 8.63869 27.7082C8.60762 27.676 8.59049 27.6329 8.59103 27.5881V25.2343C8.59103 24.8563 8.29505 24.4603 7.93507 24.4603H7.39111C7.03113 24.4603 6.99114 24.7703 6.99114 25.1463V27.5861C6.99169 27.6305 6.97484 27.6734 6.94419 27.7055C6.91354 27.7377 6.87153 27.7565 6.82715 27.7581L6.90314 27.9861L8.56303 28.0301L8.75702 27.7601Z" fill="#9D5532"/>
<path d="M11.5948 24.4284H5.99514C5.69516 24.4284 5.55517 24.3024 5.55517 24.0284V22.9605H10.9728C11.5928 22.9605 12.1267 22.0225 12.1267 21.8885C12.1267 21.7545 12.1747 19.7387 12.1747 19.7387C12.1887 19.6409 12.182 19.5412 12.1551 19.4462C12.1283 19.3511 12.0818 19.2627 12.0187 19.1867C11.9322 19.1134 11.8319 19.0579 11.7238 19.0236C11.6157 18.9893 11.5018 18.9767 11.3888 18.9867H3.71329C3.65735 18.9854 3.60299 19.0053 3.56109 19.0424C3.51919 19.0795 3.49283 19.131 3.4873 19.1867V20.1506C3.48808 20.1795 3.49454 20.208 3.50632 20.2344C3.5181 20.2608 3.53497 20.2846 3.55596 20.3045C3.57694 20.3243 3.60164 20.3399 3.62864 20.3502C3.65563 20.3605 3.6844 20.3654 3.71329 20.3646H9.61889C9.6831 20.3574 9.74811 20.3657 9.80836 20.3891C9.86861 20.4124 9.92231 20.45 9.96487 20.4986C10.0188 20.5698 10.0463 20.6574 10.0429 20.7466V21.6425H3.4873V24.5643C3.4873 25.0203 4.32925 25.8003 4.85321 25.8003H11.1728C11.5728 25.8003 12.1547 25.3363 12.1547 25.1043C12.1547 24.7523 12.2187 24.4284 11.5948 24.4284Z" fill="#9D5532"/>
<path d="M22.8673 28.8421H17.3836C17.1077 28.8421 16.9837 28.7341 16.9837 28.5061V28.0402H22.3033C22.8693 28.0402 23.3432 27.6402 23.3552 27.1282L23.4012 25.7443C23.4152 25.5443 22.8133 25.0944 22.4213 25.0944H15.5918C15.4798 25.0944 15.0918 25.3463 15.0918 25.4943V26.0943C15.0963 26.1442 15.1193 26.1905 15.1564 26.2242C15.1934 26.2579 15.2417 26.2765 15.2918 26.2763H21.0574C21.115 26.27 21.1732 26.2769 21.2277 26.2967C21.2821 26.3165 21.3313 26.3485 21.3714 26.3903C21.4182 26.4464 21.4437 26.5172 21.4434 26.5903V26.9082H15.0918V28.9501C15.0918 29.3361 15.8617 30 16.3397 30H22.4833C23.0333 29.988 23.3812 29.3841 23.3812 29.3241C23.3812 29.2641 23.4332 28.8421 22.8673 28.8421Z" fill="#9D5532"/>
<path d="M20.7536 21.2185L19.4017 19.2027C19.3142 19.0905 19.2035 18.9987 19.0771 18.9334C18.9508 18.8682 18.8118 18.8311 18.6697 18.8247H15.9019C15.7598 18.8309 15.6207 18.868 15.4944 18.9332C15.368 18.9985 15.2573 19.0904 15.1699 19.2027L13.818 21.2185C13.7492 21.3326 13.7129 21.4633 13.7129 21.5965C13.7129 21.7297 13.7492 21.8604 13.818 21.9745L15.1699 23.9864C15.2573 24.0986 15.368 24.1906 15.4944 24.2558C15.6207 24.3211 15.7598 24.3581 15.9019 24.3643H18.6697C18.8118 24.358 18.9508 24.3209 19.0771 24.2556C19.2035 24.1904 19.3142 24.0985 19.4017 23.9864L20.7536 21.9705C20.8224 21.8572 20.8589 21.7271 20.8589 21.5945C20.8589 21.4619 20.8224 21.3319 20.7536 21.2185ZM19.0557 22.0065C19.046 22.1566 18.9925 22.3005 18.9017 22.4205L18.5017 22.8924C18.396 23.0014 18.2533 23.067 18.1017 23.0764H16.4679C16.3163 23.067 16.1737 23.0014 16.0679 22.8924L15.6799 22.4225C15.5877 22.3026 15.534 22.1575 15.5259 22.0065V21.1865C15.534 21.0355 15.5877 20.8905 15.6799 20.7706L16.0679 20.3006C16.1731 20.1908 16.316 20.125 16.4679 20.1166H18.1017C18.2536 20.125 18.3965 20.1908 18.5017 20.3006L18.9017 20.7726C18.9913 20.893 19.0441 21.0368 19.0537 21.1865L19.0557 22.0065Z" fill="#9D5532"/>
</svg>
