<svg width="53" height="20" viewBox="0 0 53 20" fill="none" xmlns="http://www.w3.org/2000/svg">
<path d="M50.6824 7.72673C50.2974 7.17707 49.723 6.88935 49.1436 6.95483C48.9184 6.97985 48.7028 7.05955 48.5155 7.18699C48.6594 6.35656 48.714 5.64419 48.6247 5.19475C48.3528 3.87518 47.2188 3.06657 46.2435 2.75008C45.3089 2.44449 44.4745 2.54073 43.9526 3.01399C43.9043 3.05797 43.8589 3.10503 43.8167 3.15488C43.3206 2.63896 42.6013 2.28873 41.6677 2.11311C40.4404 1.88095 39.8511 2.47723 39.6546 2.74412C39.4876 2.97121 39.3847 3.23899 39.3566 3.51947C39.3285 3.79994 39.3762 4.08281 39.4949 4.33852C39.4961 4.41757 39.4905 4.49658 39.478 4.57465C38.9403 3.39696 37.9461 2.60622 36.6881 2.46235C35.3139 2.3046 33.9646 2.80663 32.8822 3.8732C32.9731 3.6641 33.082 3.46326 33.2076 3.27294C33.406 2.9753 33.7453 2.48418 33.6144 1.81348C33.5568 1.51584 33.3772 1.08227 32.8534 0.733027C31.3651 -0.259128 29.7261 0.284572 29.0276 0.518721C28.5514 0.678458 27.4402 1.05151 26.9441 0.778666C26.7356 0.658309 26.5019 0.588322 26.2615 0.574282C25.9787 0.560392 25.436 0.623889 24.9955 1.19934C24.7801 1.48053 24.6064 1.79129 24.4796 2.12204C24.1125 3.08543 24.2008 4.09147 24.7217 4.88222C24.9786 5.28409 25.3541 5.59614 25.7962 5.77516C26.4421 6.02816 27.081 5.89521 27.2914 5.85155C27.4094 5.82675 27.5225 5.79798 27.6337 5.76524C27.6128 6.02518 27.596 6.28612 27.5791 6.54606C27.5642 6.77723 27.5493 7.01138 27.5305 7.24057C26.7209 6.75342 25.6305 6.6304 24.6215 6.97963C23.5961 7.3478 22.7565 8.10433 22.284 9.08598C21.767 10.1456 21.7452 11.3203 22.2234 12.3085C22.7195 13.3284 23.6998 14.0676 24.9211 14.3375C25.3409 14.4317 25.7697 14.4803 26.2 14.4823C27.9531 14.4823 29.4572 13.6211 30.5169 11.9811C30.7241 11.6596 30.9081 11.3237 31.0675 10.976C31.5705 12.1388 32.5895 12.8859 33.917 13C34.0529 13.0109 34.1888 13.0169 34.3238 13.0169C34.9901 13.0117 35.6488 12.8735 36.2611 12.6105C36.8734 12.3474 37.427 11.9648 37.8896 11.485C38.0027 11.3699 38.1108 11.2479 38.216 11.1249C38.2439 11.265 38.283 11.4027 38.3331 11.5366C38.5218 12.0572 38.8528 12.5144 39.2885 12.8562C38.3866 13.7541 37.7546 14.8623 37.6653 16.0936C37.5661 17.3992 38.1803 18.4747 39.2954 18.9708C39.807 19.2013 40.3615 19.3213 40.9226 19.323C43.0458 19.323 44.9735 17.5808 45.9826 15.4536C46.3098 14.7303 46.6002 13.9908 46.8527 13.2381C48.2953 12.6895 49.8182 11.7658 50.8838 9.62869C51.1735 9.04729 51.0971 8.31805 50.6824 7.72673Z" fill="#007942"/>
<path d="M4.27509 11.4771C4.31081 11.6427 4.16695 11.8114 3.95066 11.8571L1.65779 12.3442C1.44249 12.3898 1.24208 12.2936 1.20735 12.1279L0.148722 7.14134C0.113996 6.97565 0.257859 6.80401 0.473156 6.76035L0.785685 6.69388C0.990069 6.65122 1.19048 6.74646 1.22521 6.91215L2.17272 11.3768L3.77703 11.0365C3.99233 10.9899 4.19274 11.0871 4.22747 11.2518L4.27509 11.4771Z" fill="#007942"/>
<path d="M7.00016 9.69216L5.89788 9.88662L5.74806 11.2548C5.72476 11.3309 5.68079 11.399 5.62105 11.4515C5.56132 11.5041 5.48816 11.539 5.40974 11.5524L5.09522 11.608C4.83528 11.6536 4.63189 11.5177 4.65173 11.3104L4.86107 9.45106L5.27381 6.01622C5.29701 5.94009 5.34095 5.87192 5.4007 5.81935C5.46046 5.76678 5.53367 5.73189 5.61213 5.71858L5.85025 5.67691C6.01297 5.64813 6.21636 5.72354 6.27093 5.8426L8.6521 10.6C8.73941 10.7825 8.59654 10.9879 8.33659 11.0345L8.02208 11.0891C7.9434 11.1032 7.86234 11.0951 7.78802 11.0656C7.7137 11.0362 7.64907 10.9866 7.6014 10.9224L7.00016 9.69216ZM5.99709 9.01749L6.60429 8.91034C6.41578 8.53134 6.39395 8.30215 6.06654 7.62947L5.99709 9.01749Z" fill="#007942"/>
<path d="M8.37894 6.83864C8.27973 6.20267 8.45931 5.74727 8.76985 5.44367C9.0804 5.14007 9.51595 4.99819 9.92968 4.93569C10.3434 4.87318 10.778 4.88509 11.1758 5.08253C11.5737 5.27997 11.8515 5.66591 11.9507 6.30784L11.9686 6.42491C11.9934 6.59259 11.8396 6.75232 11.6322 6.78308L11.3167 6.8307C11.0994 6.86344 10.905 6.7553 10.8802 6.58763L10.8593 6.46559C10.775 5.90502 10.4992 5.69766 10.0537 5.76513C9.60822 5.8326 9.3959 6.10941 9.48023 6.67394L9.83642 9.04321C9.91976 9.60477 10.1866 9.82106 10.6549 9.75062C10.8344 9.72887 11.0021 9.6499 11.1332 9.5254C11.2433 9.37161 11.2631 9.13746 11.2185 8.83089L11.2006 8.71381C11.1758 8.54614 11.3296 8.3864 11.5469 8.35366L11.8624 8.30604C12.0698 8.27528 12.2593 8.38243 12.289 8.55011L12.3069 8.66718C12.4061 9.32895 12.2354 9.74863 11.9368 10.0562C11.6183 10.3786 11.1709 10.5146 10.78 10.5731C10.3652 10.6356 9.90884 10.6356 9.51 10.4213C9.13298 10.212 8.83632 9.86273 8.73711 9.20195L8.37894 6.83864Z" fill="#007942"/>
<path d="M12.2215 5.09351C12.2076 4.92484 12.3713 4.77503 12.5916 4.75618L15.4688 4.51211C15.6891 4.49326 15.8746 4.61132 15.8895 4.78197L15.9094 5.01811C15.9233 5.18677 15.7605 5.33659 15.5413 5.35544L14.6414 5.43183L15.0263 9.97094C15.0412 10.1396 14.8765 10.2904 14.6573 10.3083L14.3596 10.3341C14.1394 10.3529 13.9528 10.2349 13.9389 10.0632L13.552 5.5241L12.6591 5.59951C12.4398 5.61836 12.2523 5.50029 12.2384 5.32964L12.2215 5.09351Z" fill="#007942"/>
<path d="M16.242 6.18486C16.2172 5.1173 16.8124 4.52201 18.009 4.49324C19.2055 4.46447 19.8276 5.02702 19.8524 6.10251L19.907 8.49857C19.9228 9.16629 19.7006 9.56117 19.3653 9.83103C19.0071 10.1108 18.5477 10.1902 18.1399 10.1991C17.7322 10.2081 17.2807 10.1505 16.9107 9.88758C16.5634 9.63359 16.3154 9.24963 16.2975 8.58092L16.242 6.18486ZM17.3978 8.55611C17.4107 9.1147 17.6478 9.37166 18.1211 9.36075C18.5944 9.34984 18.8156 9.09882 18.8057 8.52337L18.7511 6.12732C18.7382 5.55981 18.5011 5.3197 18.0288 5.33359C17.5566 5.34748 17.3343 5.61239 17.3423 6.16304L17.3978 8.55611Z" fill="#007942"/>
<path d="M22.5791 7.41015C22.5763 7.4508 22.5655 7.49049 22.5473 7.52695C22.5291 7.56341 22.5039 7.5959 22.4731 7.62256C22.4423 7.64921 22.4065 7.66951 22.3678 7.68226C22.3291 7.69502 22.2883 7.69999 22.2477 7.69688L21.2813 7.64231C21.2406 7.64091 21.2006 7.63146 21.1636 7.61452C21.1265 7.59757 21.0932 7.57346 21.0655 7.54357C21.0379 7.51369 21.0164 7.47863 21.0023 7.4404C20.9883 7.40217 20.9819 7.36155 20.9837 7.32086L20.9966 7.09266C20.999 7.0518 21.0095 7.01182 21.0275 6.97507C21.0455 6.93832 21.0707 6.90554 21.1016 6.87865C21.1324 6.85176 21.1684 6.8313 21.2072 6.81847C21.2461 6.80564 21.2871 6.8007 21.328 6.80394L22.2953 6.85851C22.3361 6.85991 22.3762 6.86939 22.4133 6.8864C22.4504 6.90341 22.4838 6.92761 22.5114 6.9576C22.5391 6.98759 22.5606 7.02277 22.5746 7.06111C22.5886 7.09945 22.5948 7.14019 22.593 7.18096L22.5791 7.41015Z" fill="#007942"/>
<path d="M37.0391 3.45645C34.0448 3.11316 32.0912 6.9786 32.3809 9.52645C32.5179 10.717 33.2034 11.5921 34.4645 11.7003C35.6173 11.7995 36.7038 11.3471 37.5084 10.5285C38.5402 9.4828 39.2476 7.92115 39.2169 6.43986C39.1881 5.08656 38.5333 3.62908 37.0391 3.45645ZM37.5054 7.84971C37.3353 8.29646 37.1014 8.7162 36.8109 9.09586C36.5291 9.45601 35.8436 9.96499 35.3772 9.66734C34.9804 9.41037 34.9744 8.76349 35.0181 8.34876C35.1064 7.50444 35.5142 6.73552 36.0946 6.12336C36.4914 5.69971 37.2058 5.50922 37.5461 6.10153C37.8239 6.58868 37.7336 7.2445 37.5054 7.84971Z" fill="#F0DF00"/>
<path d="M49.8212 8.27035C49.2557 9.68119 48.7279 10.3757 46.939 11.0613C47.6772 8.62355 48.2863 6.02311 48.1296 5.2413C47.7853 3.57051 45.04 3.03574 45.2424 3.9515C45.4696 4.97441 45.2077 6.55193 44.8029 8.18403C44.3971 9.50062 43.022 10.6585 42.4435 10.1921C41.8651 9.72584 42.9684 8.13144 43.5885 6.42196C44.2086 4.71248 43.9973 3.4068 41.8611 3.00399C40.994 2.83929 40.8253 3.31056 40.9821 3.60523C41.5923 4.75216 39.0881 9.35973 39.7816 11.1684C40.4096 12.8075 42.3612 12.6348 43.9814 11.101C43.8822 11.4214 43.7939 11.729 43.7075 12.0227C39.4274 13.2133 38.0126 17.287 40.1209 18.2187C42.257 19.1642 44.415 17.3644 45.4617 15.1599C45.8621 14.2622 46.2125 13.343 46.5114 12.4066C48.2834 11.8252 49.6168 11.0087 50.5891 9.05712C50.8431 8.54418 50.0613 7.67704 49.8212 8.27035ZM40.7231 16.789C40.2211 16.7146 40.6646 14.2342 43.3583 13.2817C42.7184 15.6182 41.243 16.8674 40.7231 16.789Z" fill="#F0DF00"/>
<path d="M26.0299 2.05751C26.1153 1.83521 26.2323 1.62637 26.3772 1.43741C26.3996 1.39884 26.431 1.3662 26.4686 1.34221C26.5062 1.31822 26.549 1.30358 26.5935 1.2995C26.6448 1.30693 26.6939 1.32556 26.7373 1.35407C27.6749 1.87098 28.9558 1.49099 29.8854 1.17846C30.8151 0.865931 31.7963 0.66254 32.6734 1.24791C33.0633 1.50786 32.9016 1.74399 32.6863 2.0585C31.0611 4.44662 31.7646 8.12454 29.9211 10.977C28.7107 12.8502 27.0697 13.1597 25.5606 12.8264C23.7747 12.4295 22.99 10.8232 23.743 9.27742C24.0764 8.57972 24.6703 8.0407 25.3969 7.77629C26.2502 7.47864 27.3286 7.67112 27.7682 8.39043C28.047 8.84682 28.0261 9.47585 27.792 9.97788C27.5578 10.4799 26.9496 11.0544 26.2909 10.97C26.899 11.2677 27.6551 10.9294 28.0867 10.4501C28.5524 9.9325 28.8671 9.29691 28.9965 8.61268C29.5104 6.2821 28.9717 3.59039 30.4291 2.57641C29.6255 2.56351 29.2445 3.08637 28.7177 3.52292C28.3551 3.84121 27.9162 4.05999 27.4437 4.1579C27.1808 4.21247 26.8951 4.23926 26.6431 4.14103C26.4376 4.054 26.2642 3.90527 26.147 3.7154C25.8216 3.21734 25.8216 2.60518 26.0299 2.05751Z" fill="#F0DF00"/>
<g style="mix-blend-mode:multiply">
<g style="mix-blend-mode:multiply">
<path d="M49.6885 4.46244C49.6885 3.43754 50.4376 2.72815 51.3444 2.72815C52.2512 2.72815 52.9993 3.43754 52.9993 4.46244C52.9993 5.48733 52.2502 6.19573 51.3444 6.19573C50.4385 6.19573 49.6885 5.49428 49.6885 4.46244ZM52.652 4.46244C52.652 3.63498 52.0845 3.04365 51.3444 3.04365C50.6042 3.04365 50.0357 3.63895 50.0357 4.46244C50.0357 5.28592 50.6032 5.88023 51.3444 5.88023C52.0855 5.88023 52.652 5.29783 52.652 4.46244ZM50.7054 3.54767H51.3751C51.7383 3.54767 52.0607 3.69748 52.0607 4.11518C52.0614 4.21987 52.0308 4.32238 51.9729 4.40955C51.9149 4.49671 51.8321 4.56454 51.7353 4.60431L52.1451 5.33652H51.7353L51.4198 4.71444H51.0656V5.33652H50.7025L50.7054 3.54767ZM51.3007 4.44061C51.5369 4.44061 51.6787 4.34139 51.6787 4.14296C51.6787 3.96934 51.5845 3.85127 51.3166 3.85127H51.0725V4.44656L51.3007 4.44061Z" fill="#6D6E71"/>
</g>
</g>
</svg>
