<svg width="56" height="15" viewBox="0 0 56 15" fill="none" xmlns="http://www.w3.org/2000/svg">
<path d="M3.32765 1.07971H0.5V14.3038H3.32765V1.07971Z" fill="#172A56"/>
<path d="M29.8239 1.07886L27.1406 11.3411C27.1311 11.3777 27.1097 11.4102 27.0798 11.4333C27.0498 11.4565 27.0131 11.4691 26.9752 11.4691C26.9374 11.4691 26.9006 11.4565 26.8707 11.4333C26.8407 11.4102 26.8193 11.3777 26.8098 11.3411L24.1265 1.07886H21.1865L24.6445 14.3045H29.306L32.7639 1.07886H29.8239Z" fill="#172A56"/>
<path d="M20.5675 8.43391C20.5552 7.74881 20.3111 7.08808 19.8751 6.55954C19.439 6.031 18.8367 5.66585 18.1664 5.52366C17.4961 5.38147 16.7974 5.47064 16.1843 5.77663C15.5712 6.08261 15.0799 6.58734 14.7905 7.20846C14.7816 7.22714 14.7677 7.24292 14.7502 7.25397C14.7327 7.26502 14.7125 7.27088 14.6918 7.27088C14.6712 7.27088 14.6509 7.26502 14.6334 7.25397C14.616 7.24292 14.602 7.22714 14.5932 7.20846C14.3715 6.73216 14.0298 6.32168 13.6016 6.01732C13.1734 5.71295 12.6734 5.52515 12.1508 5.47237C11.6281 5.41958 11.1006 5.50361 10.6202 5.71622C10.1398 5.92882 9.72296 6.26269 9.41055 6.68505C9.39709 6.70394 9.37796 6.71805 9.35594 6.72534C9.33392 6.73263 9.31015 6.73272 9.28807 6.72559C9.266 6.71846 9.24677 6.70449 9.23317 6.68571C9.21956 6.66692 9.2123 6.64429 9.21242 6.62109V5.45727H6.38477V14.3037H9.21242V8.48929H12.0487V14.3053H14.8763V8.48929H17.7391V14.3053H20.5667V8.43391H20.5675Z" fill="#172A56"/>
<path d="M36.5718 5.48376H33.7441V14.3037H36.5718V5.48376Z" fill="#172A56"/>
<path d="M35.3072 4.08985C36.1359 4.00787 36.7412 3.26961 36.6592 2.44091C36.5772 1.61221 35.839 1.00687 35.0103 1.08886C34.1816 1.17084 33.5762 1.9091 33.6582 2.7378C33.7402 3.5665 34.4785 4.17184 35.3072 4.08985Z" fill="#172A56"/>
<path d="M46.0968 8.28492V5.45727H41.5367C41.5077 5.45727 41.48 5.44577 41.4595 5.42529C41.439 5.40481 41.4275 5.37703 41.4275 5.34807V2.77393C41.4276 2.75344 41.4219 2.73335 41.4111 2.71595C41.4003 2.69854 41.3848 2.68452 41.3664 2.67549C41.3481 2.66646 41.3275 2.66278 41.3071 2.66488C41.2867 2.66697 41.2674 2.67476 41.2512 2.68734L38.0468 5.41749C38.031 5.42964 38.0183 5.44524 38.0095 5.46309C38.0007 5.48094 37.9961 5.50056 37.9961 5.52045V8.28492H39.3409C39.3642 8.28473 39.387 8.29202 39.4059 8.30572C39.4248 8.31943 39.4388 8.33882 39.4459 8.36107C39.4529 8.38331 39.4527 8.40723 39.4452 8.42933C39.4376 8.45142 39.4232 8.47053 39.4041 8.48384C38.9743 8.76995 38.6213 9.15706 38.3758 9.61126C38.1303 10.0655 38 10.5729 37.9961 11.0892C37.9961 12.831 39.4602 14.2483 41.2887 14.3022H41.3394H41.3971H46.0968V11.4761H41.3971V8.28492H46.0968Z" fill="#172A56"/>
<path d="M6.77786 1.13433C6.50195 1.05719 6.2096 1.06166 5.93618 1.14722C5.66276 1.23278 5.42 1.39574 5.23728 1.6164C5.0946 1.78595 4.99123 1.98499 4.9346 2.19922C4.87797 2.41346 4.86949 2.63758 4.90976 2.85549C4.95003 3.0734 5.03805 3.27968 5.16751 3.45953C5.29697 3.63938 5.46465 3.78833 5.6585 3.89568L5.15772 4.80053C5.14711 4.81434 5.14189 4.83154 5.14302 4.84892C5.14416 4.8663 5.15158 4.88267 5.16389 4.89498C5.1762 4.9073 5.19258 4.91471 5.20995 4.91585C5.22733 4.91698 5.24453 4.91176 5.25834 4.90116L6.72638 4.10083C6.7802 4.07509 7.13512 3.88398 7.18505 3.852C7.4315 3.69655 7.62736 3.47271 7.74874 3.20781C7.87013 2.94292 7.91177 2.64841 7.86859 2.36025C7.82542 2.07208 7.69929 1.80272 7.50561 1.58502C7.31192 1.36733 7.05905 1.21073 6.77786 1.13433Z" fill="#EA5504"/>
<path d="M53.4532 11.4832C53.4396 11.4831 53.4264 11.4783 53.4159 11.4696C53.4054 11.4609 53.3982 11.4488 53.3956 11.4354C53.3929 11.4221 53.3949 11.4082 53.4013 11.3961C53.4077 11.3841 53.4181 11.3746 53.4306 11.3693C54.6116 10.9091 55.4455 9.8014 55.4455 8.56113C55.4455 6.84504 54.0039 5.45422 52.2262 5.45422H47.5366V8.29592H52.2254V10.8459C52.2252 10.8595 52.2204 10.8727 52.2118 10.8833C52.2031 10.8938 52.1912 10.9012 52.1779 10.9042C52.1645 10.9072 52.1506 10.9056 52.1383 10.8997C52.126 10.8937 52.116 10.8839 52.11 10.8716C51.8822 10.3599 51.4853 9.94211 50.986 9.68834C50.4867 9.43457 49.9152 9.36027 49.3676 9.47791C48.82 9.59554 48.3295 9.89795 47.9784 10.3344C47.6273 10.7708 47.437 11.3148 47.4395 11.8749C47.4419 12.435 47.6369 12.9772 47.9918 13.4106C48.3467 13.844 48.8398 14.1421 49.3885 14.2549C49.9371 14.3678 50.5079 14.2885 51.005 14.0304C51.5021 13.7723 51.8953 13.351 52.1186 12.8373C52.1241 12.8258 52.1333 12.8165 52.1448 12.811C52.1562 12.8054 52.1692 12.8039 52.1817 12.8067C52.1941 12.8095 52.2052 12.8165 52.2132 12.8264C52.2211 12.8364 52.2255 12.8488 52.2254 12.8615C52.2254 13.2444 52.3776 13.6117 52.6483 13.8825C52.9191 14.1532 53.2864 14.3054 53.6693 14.3054H56.0001V11.4832H53.4532Z" fill="#172A56"/>
</svg>
