<svg width="49" height="19" viewBox="0 0 49 19" fill="none" xmlns="http://www.w3.org/2000/svg">
<path d="M4.06795 0.771371H5.26465L5.20358 1.36895H2.11133L2.17395 0.771371H3.34127L3.39539 0.276611H4.12129L4.06795 0.771371ZM2.26594 2.47907L2.28295 2.31827C2.32779 1.89231 2.77307 1.53593 3.62962 1.53593C4.48618 1.53593 4.85957 1.89231 4.81705 2.31827L4.80004 2.47907C4.75288 2.90502 4.30141 3.26141 3.45027 3.26141C2.59913 3.26141 2.22342 2.90502 2.26594 2.47907ZM6.31602 3.52347L6.16836 4.92349H3.51753L3.48738 5.21725H6.29901L6.23948 5.78082H2.72978L2.87589 4.38312H5.52363L5.55532 4.08394H2.87589L2.93464 3.52347H6.31602ZM2.9617 2.35847L2.95319 2.43578C2.94005 2.56256 3.11476 2.70635 3.51134 2.70635C3.90793 2.70635 4.11279 2.56256 4.12979 2.43578L4.13753 2.35847C4.15144 2.23169 3.97673 2.0879 3.58015 2.0879C3.18357 2.0879 2.97175 2.23169 2.9617 2.35847ZM6.33998 3.29156H5.62103L5.65041 3.01557H4.99485L5.05747 2.41181H5.7138L5.74472 2.10568H5.08994L5.15333 1.50192H5.80889L5.92716 0.374017H6.64611L6.33998 3.29156Z" fill="#E72147"/>
<path d="M8.24587 0.955366L8.30616 0.380208H9.00811L8.94781 0.955366H9.79276L9.72937 1.55913H7.22852L7.29113 0.955366H8.24587ZM7.27258 2.77825L7.29577 2.56024C7.3437 2.10568 7.80445 1.71451 8.51721 1.71451C9.22997 1.71451 9.61032 2.10568 9.56162 2.56024L9.53843 2.77825C9.4905 3.23281 9.02975 3.62398 8.31699 3.62398C7.60422 3.62398 7.22542 3.23281 7.27258 2.77825ZM7.92736 2.62364L7.91809 2.71563C7.89876 2.89962 8.05878 3.07278 8.37497 3.07278C8.69115 3.07278 8.88751 2.89962 8.90683 2.71563L8.91611 2.62364C8.93544 2.43965 8.77541 2.26725 8.45923 2.26725C8.14305 2.26725 7.94669 2.44119 7.92736 2.62286V2.62364ZM8.04719 4.93587L8.07115 4.70395C8.13609 4.0855 8.89601 3.74921 9.88476 3.74921C10.8735 3.74921 11.5631 4.08859 11.4981 4.70395L11.4742 4.93587C11.41 5.55432 10.6493 5.8906 9.66057 5.8906C8.67182 5.8906 7.98689 5.55045 8.04719 4.93509V4.93587ZM8.77851 4.76038L8.76614 4.87479C8.73831 5.13995 9.20446 5.30075 9.72242 5.30075C10.2404 5.30075 10.7398 5.13995 10.7676 4.87479L10.7792 4.76038C10.807 4.49522 10.3409 4.33442 9.82369 4.33442C9.30651 4.33442 8.80634 4.49754 8.77851 4.76038ZM10.6748 1.7006H11.1062L11.2453 0.371704H11.9357L11.5847 3.71906H10.8944L11.0405 2.32755H10.6091L10.4862 3.49488H9.80204L10.1229 0.44128H10.807L10.6748 1.7006Z" fill="#E72147"/>
<path d="M12.334 3.19802C14.0239 2.49685 14.3061 2.27035 14.3718 1.64571L14.4058 1.32334H12.7607L12.8257 0.704894H15.1951L15.0807 1.79723H16.1212L16.2704 0.376343H16.9948L16.5959 4.18368H15.8723L16.0586 2.41259H14.8781C14.5936 2.87643 13.9713 3.21735 12.5713 3.79328L12.334 3.19802ZM13.8314 5.04409H16.5912L16.5263 5.66254H13.0359L13.2207 3.89687H13.9512L13.8314 5.04409Z" fill="#E72147"/>
<path d="M17.4951 3.05968C19.1959 2.36934 19.4401 2.16216 19.5051 1.55298L19.5314 1.3056H17.9079L17.9721 0.687154H20.3183L20.2209 1.61869C20.1235 2.53709 19.6404 2.87647 17.727 3.65262L17.4951 3.05968ZM18.245 4.84237L18.2705 4.6004C18.3347 3.98581 19.0436 3.55985 20.0184 3.55985C20.9932 3.55985 21.6117 3.98736 21.5467 4.60117L21.522 4.84314C21.4571 5.46159 20.7489 5.88368 19.7741 5.88368C18.7993 5.88368 18.1801 5.45618 18.2442 4.84314L18.245 4.84237ZM18.9786 4.64678L18.9632 4.79598C18.9392 5.02017 19.2562 5.29074 19.8367 5.29074C20.4173 5.29074 20.7907 5.02017 20.8146 4.79598L20.8301 4.64678C20.8533 4.42259 20.5371 4.15202 19.9558 4.15202C19.3744 4.15202 19.001 4.42337 18.9779 4.64755L18.9786 4.64678ZM21.8482 1.56999H22.5502L22.4837 2.20236H21.7825L21.6426 3.53666H20.9175L21.2499 0.373291H21.9742L21.8482 1.56999Z" fill="#E72147"/>
<path d="M27.0038 13.3104L26.4712 16.2975H25.4577L25.9903 13.3104H25.0658C24.3955 13.3104 24.0399 13.8515 23.9386 14.4197L23.5467 16.6168C23.5192 16.7503 23.5274 16.8887 23.5707 17.018C23.6204 17.1471 23.6974 17.2639 23.7964 17.3605C23.9073 17.4669 24.0389 17.5495 24.1829 17.6032C24.3438 17.6583 24.5131 17.6844 24.6831 17.6805H28.0768L28.8553 13.3112L27.0038 13.3104ZM15.6097 12.3704H23.4377C22.7558 12.2536 22.3384 11.7248 22.5177 10.7191L22.895 8.59858H14.1656L13.919 9.98081H20.5325L20.3532 10.9858H13.7396L13.2526 13.7278C13.1505 14.2999 13.551 14.7908 14.3859 14.7908H21.7926C21.9086 14.1407 22.5193 13.5856 23.2019 13.4093H15.8478C15.4999 13.4093 15.4481 13.281 15.4921 13.0367L15.6097 12.3704ZM18.4468 15.4757H16.3301L16.0549 17.042H12.1324L11.8858 18.4242H21.7609L22.0067 17.042H18.1708L18.4468 15.4757ZM2.11585 9.98081H3.65733L3.37285 11.578C3.1935 12.5829 3.28626 13.1728 3.84287 13.4101H1.67829L1.43169 14.7924H10.8151L11.0617 13.4101H5.81109C5.3086 13.4101 5.25835 12.8543 5.37894 12.1771L5.77011 9.98081H8.10554L7.67726 12.3704H9.79313L10.2191 9.98081H11.5835L11.8302 8.59858H2.36245L2.11585 9.98081ZM25.2157 12.4647H26.138L26.581 9.98081H27.5929L27.1507 12.4647H31.5742L32.3008 8.38599H30.3906L29.9098 11.0824H29.2457L29.6879 8.59858H24.9722L24.4805 11.3553C24.3824 11.9227 24.5455 12.4647 25.2157 12.4647ZM0.255859 18.4242H10.6984L10.9442 17.042H0.502466L0.255859 18.4242ZM31.1011 18.6368H33.026L33.9753 13.3104H32.0504L31.1011 18.6368ZM41.6356 18.6368H43.7522L44.7015 13.3104H42.5857L41.6356 18.6368ZM42.0523 8.59858H36.2381L35.9914 9.98081H39.6906L39.5089 10.9958C39.4117 11.5063 39.2436 12.0007 39.0095 12.4647H41.0017C41.3861 11.649 41.6617 10.7864 41.8211 9.89887L42.0523 8.59858ZM29.514 13.3104L28.5646 18.6368H30.4749L31.4242 13.3104H29.514ZM45.1012 11.0824L45.579 8.38599H43.4623L42.7356 12.4647H46.8329L47.0826 11.0824H45.1012ZM32.2004 12.4647H34.126L34.8527 8.38599H32.9278L32.2004 12.4647ZM34.8952 16.6006L35.3676 17.7246C37.1812 17.0659 39.1904 15.3227 40.4822 13.3104H38.4722C37.6041 14.5713 36.2698 16.0223 34.8952 16.6006V16.6006Z" fill="#2F2725"/>
<path d="M48.0708 8.80654C47.9452 8.80607 47.821 8.77976 47.706 8.72924C47.5953 8.68139 47.4946 8.61321 47.4091 8.52824C47.3239 8.44304 47.256 8.34226 47.2089 8.23139C47.16 8.11649 47.1348 7.99291 47.1348 7.86805C47.1348 7.74318 47.16 7.6196 47.2089 7.50471C47.2576 7.39536 47.3269 7.29641 47.413 7.21326C47.4988 7.12901 47.5994 7.06139 47.7098 7.01381C47.8247 6.96491 47.9483 6.9397 48.0732 6.9397C48.198 6.9397 48.3216 6.96491 48.4365 7.01381C48.5448 7.06186 48.6434 7.12948 48.7272 7.21326C48.9017 7.38832 48.9998 7.62546 48.9998 7.87268C48.9998 8.11991 48.9017 8.35705 48.7272 8.53211C48.6418 8.61725 48.5411 8.68545 48.4303 8.7331C48.3167 8.78176 48.1944 8.80675 48.0708 8.80654V8.80654ZM48.0708 8.68363C48.1787 8.6847 48.2855 8.66337 48.3847 8.62101C48.478 8.58089 48.5622 8.52224 48.6321 8.44862C48.7018 8.37354 48.7571 8.28628 48.7952 8.19119C48.8347 8.08913 48.8546 7.98056 48.854 7.87114C48.8546 7.76247 48.8347 7.65465 48.7952 7.55341C48.7575 7.45836 48.7021 7.37129 48.6321 7.29675C48.5619 7.22383 48.4778 7.16574 48.3847 7.12591C48.2886 7.08209 48.1846 7.05843 48.079 7.05639C47.9734 7.05434 47.8685 7.07395 47.7708 7.11401C47.6731 7.15407 47.5846 7.21373 47.5108 7.2893C47.437 7.36487 47.3795 7.45475 47.3418 7.55341C47.3017 7.6545 47.2815 7.76238 47.2823 7.87114C47.2815 7.98065 47.3017 8.08929 47.3418 8.19119C47.3794 8.28658 47.4347 8.37394 47.505 8.44862C47.5762 8.5221 47.6614 8.58069 47.7554 8.62101C47.8551 8.66337 47.9625 8.68469 48.0708 8.68363ZM48.5347 8.39296H48.3801L48.0824 7.91288H47.8505V8.39373H47.7222V7.35087H48.1775C48.2798 7.34143 48.3821 7.36884 48.4659 7.42817C48.4932 7.45394 48.5146 7.48532 48.5286 7.52015C48.5426 7.55499 48.5489 7.59244 48.547 7.62994C48.5481 7.67475 48.5397 7.71927 48.5223 7.76059C48.5072 7.79509 48.4835 7.82516 48.4535 7.84795C48.4219 7.87093 48.3862 7.88772 48.3484 7.89742C48.3062 7.90857 48.2629 7.91479 48.2193 7.91598L48.5347 8.39296ZM48.0446 7.81161H48.1628C48.203 7.81202 48.243 7.80708 48.2819 7.79692C48.3169 7.78815 48.3486 7.76934 48.3731 7.74281C48.3994 7.70923 48.4121 7.66702 48.4087 7.62453C48.4104 7.59051 48.4024 7.5567 48.3855 7.52713C48.3707 7.5039 48.3499 7.48518 48.3252 7.47301C48.2988 7.46041 48.2706 7.45206 48.2417 7.44827C48.2107 7.44432 48.1794 7.44226 48.1482 7.44209H47.8497V7.81161H48.0446Z" fill="#2F2725"/>
</svg>
