<svg width="57" height="12" viewBox="0 0 57 12" fill="none" xmlns="http://www.w3.org/2000/svg">
<path d="M40.7917 3.14509C40.4869 3.00576 40.156 2.93262 39.8209 2.93049H39.7949H39.777H38.681H38.655C37.8866 2.91319 37.2613 2.38708 37.2613 1.75714C37.2613 1.10874 37.9039 0.581484 38.6931 0.581484H39.7793C40.5685 0.581484 41.2111 1.10874 41.2111 1.75714V2.22383H41.7788C41.8281 2.22368 41.8753 2.20398 41.9101 2.16905C41.945 2.13412 41.9645 2.08682 41.9645 2.0375V1.8281C41.9646 1.78001 41.9459 1.73378 41.9126 1.69914C41.8792 1.6645 41.8337 1.64414 41.7857 1.64235C41.7142 0.718202 40.8414 0 39.7793 0H38.6948C37.5844 0 36.681 0.78858 36.681 1.75714C36.681 2.37266 37.0611 2.95126 37.6726 3.26854C37.9753 3.42326 38.3093 3.50691 38.6493 3.51313C38.6579 3.51375 38.6666 3.51375 38.6752 3.51313H39.8134C40.6833 3.52005 41.3905 4.11942 41.3905 4.84974C41.3905 5.58005 40.6764 6.1875 39.7984 6.1875H38.6729C37.7949 6.1875 37.0813 5.58755 37.0813 4.84974V4.23595H36.4641C36.4148 4.2361 36.3675 4.2558 36.3327 4.29073C36.2979 4.32565 36.2783 4.37296 36.2783 4.42228V4.63226C36.2783 4.68152 36.2979 4.72877 36.3327 4.7636C36.3676 4.79844 36.4148 4.81801 36.4641 4.81801H36.4993V4.84858C36.4993 5.90714 37.4742 6.76783 38.6729 6.76783H39.7961C40.9948 6.76783 41.9697 5.90714 41.9697 4.84858C41.9714 4.13096 41.518 3.47852 40.7917 3.14509Z" fill="#221E1F"/>
<path d="M15.9599 0.0986328H15.3369V6.7332H20.4312V6.14826H15.9599V0.0986328Z" fill="#221E1F"/>
<path d="M23.0601 0.0986328H22.4365V6.7332H27.5303V6.14826H23.0601V0.0986328Z" fill="#221E1F"/>
<path d="M8.23828 6.73614H13.332V6.15004H8.85265V3.56336H13.332V2.98764H8.85265V0.670361H13.332V0.0848389H8.23828V6.73614Z" fill="#221E1F"/>
<path d="M31.8375 0.0848389L28.7178 6.73614H29.4244L30.3763 4.68883H33.7706L34.7028 6.73614H35.3887L32.3757 0.0848389H31.8375ZM30.6503 4.09581L32.1098 1.02514L33.5064 4.09581H30.6503Z" fill="#221E1F"/>
<path d="M46.4293 0.0322266H46.3791C45.5821 0.0331426 44.8181 0.350146 44.2545 0.913694C43.691 1.47724 43.374 2.24131 43.373 3.03829V3.73053C43.374 4.52756 43.6909 5.2917 44.2545 5.85534C44.818 6.41897 45.5821 6.73611 46.3791 6.73718H46.4293C47.2266 6.73626 47.991 6.41904 48.5547 5.85513C49.1184 5.29122 49.4353 4.52671 49.4359 3.72938V3.03714C49.4346 2.24031 49.1173 1.47653 48.5537 0.913251C47.9901 0.349968 47.2261 0.0331416 46.4293 0.0322266ZM48.8204 3.72938C48.8197 4.36326 48.5675 4.97095 48.1192 5.41911C47.6709 5.86728 47.0632 6.11931 46.4293 6.11993H46.3791C45.7456 6.1187 45.1385 5.8664 44.6907 5.4183C44.2429 4.9702 43.9911 4.36286 43.9903 3.72938V3.03714C43.9911 2.40336 44.2432 1.79576 44.6913 1.34761C45.1395 0.899461 45.7471 0.647355 46.3808 0.646592H46.431C47.0649 0.647203 47.6727 0.899241 48.1209 1.34741C48.5692 1.79557 48.8214 2.40326 48.8222 3.03714L48.8204 3.72938Z" fill="#221E1F"/>
<path d="M53.9032 0.0322266H53.8547C53.0577 0.0331426 52.2936 0.350146 51.7301 0.913694C51.1666 1.47724 50.8495 2.24131 50.8486 3.03829V3.73053C50.8497 4.52741 51.1668 5.29133 51.7303 5.85476C52.2938 6.41818 53.0578 6.7351 53.8547 6.73602H53.9055C54.7026 6.7351 55.4668 6.41804 56.0305 5.85438C56.5941 5.29073 56.9112 4.52651 56.9121 3.72938V3.03714C56.9109 2.23986 56.5933 1.47565 56.0292 0.912268C55.4651 0.348886 54.7004 0.0323784 53.9032 0.0322266ZM56.2937 3.72938C56.2929 4.36316 56.0408 4.97076 55.5927 5.41891C55.1445 5.86706 54.5369 6.11916 53.9032 6.11992H53.8547C53.2209 6.11916 52.6132 5.86707 52.165 5.41894C51.7167 4.97081 51.4645 4.36321 51.4636 3.72938V3.03714C51.4648 2.40351 51.7172 1.7962 52.1654 1.34832C52.6136 0.900436 53.2211 0.648508 53.8547 0.647746H53.9055C54.5392 0.648509 55.1468 0.900614 55.595 1.34876C56.0431 1.79691 56.2952 2.40451 56.296 3.03829L56.2937 3.72938Z" fill="#221E1F"/>
<path d="M5.46313 3.23051C5.68648 3.07066 5.86857 2.85995 5.99436 2.6158C6.12014 2.37164 6.18602 2.10106 6.18653 1.82641C6.18548 1.37519 6.00969 0.941912 5.69605 0.617517C5.38241 0.293122 4.9553 0.102827 4.50438 0.0865695L0.956055 0.0848389V6.73614H4.55629H4.63706C5.11732 6.71075 5.56958 6.50221 5.90074 6.15345C6.2319 5.80469 6.41676 5.34225 6.41727 4.86131C6.41848 4.52902 6.33061 4.20248 6.1628 3.91567C5.995 3.62886 5.75339 3.39227 5.46313 3.23051ZM1.57042 0.670938H4.40112L4.49168 0.667477C4.79839 0.675508 5.08942 0.80471 5.30109 1.02681C5.51276 1.2489 5.62783 1.54581 5.62112 1.85255C5.61441 2.15928 5.48646 2.45087 5.26527 2.66349C5.04409 2.87612 4.74768 2.99246 4.44092 2.98707H1.57042V0.670938ZM4.63302 6.15119H1.57042V3.56797H4.55629C4.89078 3.57033 5.21131 3.70229 5.4505 3.93611C5.68969 4.16994 5.82889 4.4874 5.83882 4.82174C5.84876 5.15608 5.72866 5.48125 5.50378 5.72887C5.2789 5.97648 4.96677 6.12725 4.63302 6.14946V6.15119Z" fill="#221E1F"/>
<path d="M6.5957 10.5631H7.05028V11.9868H7.21122V10.5631H7.66753V10.4154H6.5957V10.5631Z" fill="#221E1F"/>
<path d="M9.04915 11.1209H8.29806V10.4154H8.1377V11.9868H8.29806V11.2686H9.04915V11.9868H9.20952V10.4154H9.04915V11.1209Z" fill="#221E1F"/>
<path d="M9.85156 11.9868H10.823V11.8391H10.0125V11.2686H10.7024V11.1209H10.0125V10.5631H10.823V10.4154H9.85156V11.9868Z" fill="#221E1F"/>
<path d="M13.1745 10.8452C13.1745 10.5827 12.9945 10.4131 12.713 10.4131H12.1113V11.9845H12.2723V11.2836H12.6565L13.0211 11.9868H13.2062L12.8341 11.2749C12.9336 11.2573 13.0232 11.2038 13.0859 11.1247C13.1486 11.0455 13.1801 10.946 13.1745 10.8452ZM12.2723 11.1336V10.5608H12.6997C12.8999 10.5608 13.0141 10.6652 13.0141 10.8492C13.0141 11.0332 12.8988 11.1376 12.6997 11.1376L12.2723 11.1336Z" fill="#221E1F"/>
<path d="M13.7354 11.9868H14.7062V11.8391H13.8957V11.2686H14.5862V11.1209H13.8957V10.5631H14.7062V10.4154H13.7354V11.9868Z" fill="#221E1F"/>
<path d="M15.7312 10.4154H15.5974L15.0205 11.9868H15.1936L15.3262 11.6159H16.007L16.1396 11.9868H16.3127L15.7404 10.4292L15.7312 10.4154ZM15.3776 11.4682L15.666 10.6606L15.9545 11.4682H15.3776Z" fill="#221E1F"/>
<path d="M16.8987 10.4154H16.7383V11.9868H17.7092V11.8391H16.8987V10.4154Z" fill="#221E1F"/>
<path d="M19.9382 11.6868L19.0914 10.4154H18.9414V11.9868H19.1018V10.7113L19.9423 11.977L19.9492 11.9868H20.0992V10.4154H19.9382V11.6868Z" fill="#221E1F"/>
<path d="M21.238 10.4154H21.1042L20.5273 11.9868H20.7004L20.8331 11.6159H21.5138L21.6465 11.9868H21.8195L21.2467 10.4292L21.238 10.4154ZM20.8833 11.4682L21.1717 10.6606L21.4601 11.4682H20.8833Z" fill="#221E1F"/>
<path d="M21.9434 10.5631H22.3979V11.9868H22.5583V10.5631H23.0152V10.4154H21.9434V10.5631Z" fill="#221E1F"/>
<path d="M24.3949 11.4543C24.3949 11.6961 24.2438 11.8518 24.0096 11.8518C23.7754 11.8518 23.6248 11.6961 23.6248 11.4543V10.416H23.4639V11.4699C23.4639 11.782 23.6883 12.0001 24.0096 12.0001C24.3309 12.0001 24.5553 11.782 24.5553 11.4699V10.4154H24.3949V11.4543Z" fill="#221E1F"/>
<path d="M26.239 10.8452C26.239 10.5827 26.0584 10.4131 25.7775 10.4131H25.1758V11.9845H25.3362V11.2836H25.7209L26.0849 11.9868H26.2707L25.8986 11.2749C25.9981 11.2573 26.0876 11.2038 26.1504 11.1247C26.2131 11.0455 26.2446 10.946 26.239 10.8452ZM25.3362 11.1336V10.5608H25.7642C25.9638 10.5608 26.0786 10.6652 26.0786 10.8492C26.0786 11.0332 25.9632 11.1376 25.7642 11.1376L25.3362 11.1336Z" fill="#221E1F"/>
<path d="M27.2986 10.4154H27.1648L26.5879 11.9868H26.761L26.8936 11.6159H27.5743L27.707 11.9868H27.8801L27.3072 10.4292L27.2986 10.4154ZM26.9438 11.4682L27.2323 10.6606L27.5207 11.4682H26.9438Z" fill="#221E1F"/>
<path d="M28.466 10.4154H28.3057V11.9868H29.2765V11.8391H28.466V10.4154Z" fill="#221E1F"/>
<path d="M31.0435 10.4154H30.5088V11.9868H31.0435C31.1162 11.9902 31.1887 11.979 31.257 11.9539C31.3252 11.9288 31.3878 11.8904 31.441 11.8409C31.5962 11.6863 31.5962 11.4076 31.5956 11.2063V11.1573C31.5956 10.9513 31.5956 10.7177 31.441 10.5631C31.3879 10.5132 31.3254 10.4745 31.2572 10.4491C31.1889 10.4238 31.1163 10.4123 31.0435 10.4154ZM31.4352 11.2103C31.4352 11.3724 31.4352 11.6142 31.3279 11.7295C31.2864 11.7685 31.2372 11.7985 31.1835 11.8176C31.1298 11.8366 31.0727 11.8444 31.0159 11.8403H30.6697V10.5631H31.0159C31.0726 10.5588 31.1296 10.5663 31.1833 10.585C31.237 10.6038 31.2862 10.6334 31.3279 10.6721C31.4364 10.7823 31.4358 10.9842 31.4352 11.1469V11.2103Z" fill="#221E1F"/>
<path d="M32.1787 11.9868H33.1496V11.8391H32.3391V11.2686H33.0296V11.1209H32.3391V10.5631H33.1496V10.4154H32.1787V11.9868Z" fill="#221E1F"/>
<path d="M34.739 10.8452C34.739 10.5827 34.5584 10.4131 34.2775 10.4131H33.6758V11.9845H33.8379V11.2836H34.2221L34.5878 11.9868H34.773L34.4009 11.2749C34.5 11.2568 34.589 11.2031 34.6512 11.124C34.7135 11.0448 34.7447 10.9457 34.739 10.8452ZM33.8379 11.1336V10.5608H34.2653C34.4655 10.5608 34.5797 10.6652 34.5797 10.8492C34.5797 11.0332 34.4644 11.1376 34.2653 11.1376L33.8379 11.1336Z" fill="#221E1F"/>
<path d="M35.9676 11.5599L35.4507 10.4154H35.2979V11.9868H35.4582V10.8094L35.8932 11.7722H36.038L36.4643 10.8111V11.9868H36.6247V10.4154H36.4718L35.9676 11.5599Z" fill="#221E1F"/>
<path d="M37.6317 10.4154L37.0647 11.9568L37.0537 11.9868H37.2268L37.36 11.6159H38.0402L38.1734 11.9868H38.3465L37.7696 10.4154H37.6317ZM37.4108 11.4682L37.6992 10.6606L37.9877 11.4682H37.4108Z" fill="#221E1F"/>
<path d="M40.0203 10.5504C40.2142 10.5504 40.3555 10.6716 40.3993 10.8758L40.4034 10.8931H40.566L40.5614 10.8665C40.5101 10.5781 40.303 10.405 40.0203 10.405C39.9466 10.4046 39.8736 10.4188 39.8053 10.4467C39.7371 10.4746 39.6751 10.5157 39.6229 10.5677C39.4746 10.716 39.4746 10.8688 39.4746 11.2023C39.4746 11.5357 39.4746 11.6897 39.6229 11.8368C39.6751 11.8888 39.7371 11.9299 39.8053 11.9579C39.8736 11.9858 39.9466 11.9999 40.0203 11.9995C40.303 11.9995 40.5101 11.8218 40.5614 11.538L40.566 11.5115H40.4074L40.4039 11.5288C40.3921 11.599 40.3612 11.6646 40.3148 11.7185C40.2683 11.7724 40.2079 11.8126 40.1402 11.8347C40.0725 11.8567 40.0001 11.8598 39.9307 11.8436C39.8614 11.8274 39.7978 11.7926 39.7469 11.7428C39.6442 11.6401 39.6356 11.527 39.6356 11.2034C39.6356 10.8798 39.6442 10.7667 39.7469 10.6641C39.7826 10.6279 39.8252 10.5992 39.8721 10.5797C39.9191 10.5601 39.9695 10.5502 40.0203 10.5504Z" fill="#221E1F"/>
<path d="M41.6135 10.4027C41.5398 10.4023 41.4668 10.4165 41.3985 10.4444C41.3303 10.4723 41.2683 10.5134 41.216 10.5654C41.0684 10.7137 41.0684 10.8665 41.0684 11.2C41.0684 11.5334 41.0684 11.6874 41.2166 11.8345C41.3225 11.9388 41.4652 11.9973 41.6138 11.9973C41.7624 11.9973 41.9051 11.9388 42.011 11.8345C42.1592 11.6863 42.1592 11.534 42.1592 11.2C42.1592 10.8659 42.1592 10.7125 42.011 10.5654C41.9587 10.5134 41.8967 10.4722 41.8285 10.4443C41.7603 10.4164 41.6872 10.4022 41.6135 10.4027ZM41.8875 11.7405C41.8143 11.8118 41.716 11.8518 41.6138 11.8518C41.5115 11.8518 41.4133 11.8118 41.3401 11.7405C41.2374 11.6378 41.2287 11.5247 41.2287 11.2011C41.2287 10.8775 41.2374 10.7644 41.3401 10.6617C41.4133 10.5904 41.5115 10.5504 41.6138 10.5504C41.716 10.5504 41.8143 10.5904 41.8875 10.6617C41.9902 10.7644 41.9988 10.8775 41.9988 11.2011C41.9988 11.5247 41.9902 11.6378 41.8875 11.7405Z" fill="#221E1F"/>
<path d="M43.2583 11.1336L43.0933 11.1082C43.0147 11.0972 42.9403 11.0664 42.877 11.0188C42.8519 10.9959 42.8324 10.9675 42.82 10.9359C42.8076 10.9043 42.8026 10.8703 42.8054 10.8365C42.8054 10.653 42.9294 10.5434 43.1371 10.5434C43.2026 10.5402 43.2681 10.5506 43.3294 10.5741C43.3907 10.5975 43.4464 10.6334 43.493 10.6796L43.5086 10.6934L43.6153 10.5867L43.5975 10.5705C43.5369 10.5135 43.4655 10.469 43.3876 10.4398C43.3096 10.4106 43.2266 10.3972 43.1435 10.4004C42.8418 10.4004 42.6474 10.5734 42.6474 10.8411C42.6447 10.8971 42.6548 10.953 42.6768 11.0046C42.6989 11.0562 42.7324 11.102 42.7748 11.1387C42.8565 11.2031 42.9547 11.2431 43.0581 11.2541L43.2363 11.2818C43.3569 11.3003 43.3938 11.3141 43.4457 11.358C43.4719 11.3835 43.4922 11.4145 43.5054 11.4486C43.5185 11.4827 43.5241 11.5193 43.5219 11.5558C43.5219 11.7393 43.3834 11.8483 43.1521 11.8483C43.0739 11.8532 42.9956 11.8402 42.9232 11.8102C42.8508 11.7802 42.7863 11.734 42.7345 11.6752L42.7189 11.6597L42.6035 11.775L42.6191 11.7912C42.6861 11.8617 42.7677 11.9168 42.8582 11.9526C42.9486 11.9885 43.0457 12.0043 43.1429 11.9989C43.4694 11.9989 43.68 11.8258 43.68 11.5541C43.6815 11.4947 43.6697 11.4358 43.6453 11.3817C43.6209 11.3275 43.5847 11.2796 43.5392 11.2414C43.4711 11.1837 43.4031 11.1578 43.2583 11.1336Z" fill="#221E1F"/>
<path d="M44.8856 11.5599L44.3681 10.4154H44.2158V11.9868H44.3762V10.8094L44.8111 11.7722H44.9559L45.3822 10.8111V11.9868H45.5426V10.4154H45.3903L44.8856 11.5599Z" fill="#221E1F"/>
<path d="M46.1846 11.9868H47.1554V11.8391H46.3449V11.2686H47.0355V11.1209H46.3449V10.5631H47.1554V10.4154H46.1846V11.9868Z" fill="#221E1F"/>
<path d="M47.5107 10.5631H47.9653V11.9868H48.1257V10.5631H48.5826V10.4154H47.5107V10.5631Z" fill="#221E1F"/>
<path d="M49.2131 10.4154H49.0527V11.9868H49.2131V10.4154Z" fill="#221E1F"/>
<path d="M50.7247 11.5265C50.7128 11.5967 50.682 11.6623 50.6355 11.7162C50.589 11.7701 50.5286 11.8103 50.4609 11.8324C50.3932 11.8544 50.3208 11.8575 50.2514 11.8413C50.1821 11.8251 50.1185 11.7902 50.0676 11.7405C49.9649 11.6378 49.9563 11.5247 49.9563 11.2011C49.9563 10.8775 49.9649 10.7644 50.0676 10.6617C50.1036 10.626 50.1464 10.5977 50.1934 10.5786C50.2405 10.5595 50.2908 10.5499 50.3416 10.5504C50.5349 10.5504 50.6768 10.6716 50.7206 10.8758L50.7241 10.8931H50.8868L50.8821 10.8665C50.8314 10.5781 50.6237 10.405 50.3416 10.405C50.2678 10.4046 50.1947 10.4187 50.1264 10.4467C50.0581 10.4746 49.9959 10.5157 49.9436 10.5677C49.7959 10.716 49.7959 10.8688 49.7959 11.2023C49.7959 11.5357 49.7959 11.6897 49.9442 11.8368C49.9964 11.8889 50.0584 11.93 50.1266 11.9579C50.1948 11.9859 50.2679 12 50.3416 11.9995C50.6237 11.9995 50.8314 11.8218 50.8821 11.538L50.8868 11.5115H50.7287L50.7247 11.5265Z" fill="#221E1F"/>
</svg>
