<svg width="52" height="20" viewBox="0 0 52 20" fill="none" xmlns="http://www.w3.org/2000/svg">
<path d="M11.3185 10.4591L11.3378 10.4399L9.9629 9.04703L9.94108 9.06629C8.9449 10.0008 8.0373 10.5798 6.57127 10.5798C6.04875 10.5833 5.53134 10.4767 5.05272 10.267C4.5741 10.0574 4.14497 9.74928 3.79326 9.36283C3.0735 8.55338 2.68325 7.50356 2.69952 6.42051V6.38713C2.68442 5.30596 3.07776 4.2589 3.80097 3.45508C4.15275 3.07106 4.5812 2.76513 5.05861 2.55705C5.53602 2.34897 6.05178 2.24337 6.57255 2.24708C7.49528 2.24632 8.39292 2.54748 9.12847 3.10462C9.39816 3.31874 9.73033 3.43908 10.0746 3.44737C10.2211 3.45286 10.3669 3.4243 10.5006 3.36394C10.6342 3.30358 10.7521 3.21305 10.8448 3.09948C10.933 2.98116 10.9921 2.84373 11.0173 2.69831C11.0425 2.5529 11.0331 2.40359 10.9899 2.26248C10.8924 1.93107 10.689 1.64071 10.4109 1.43576C9.32103 0.647544 8.10919 0.280396 6.58668 0.280396C3.09619 0.280396 0.463251 2.91976 0.463251 6.42051V6.45645C0.445768 8.07019 1.06471 9.62585 2.18603 10.7865C2.74994 11.3569 3.42291 11.8079 4.16484 12.1127C4.90677 12.4175 5.70247 12.5699 6.50452 12.5606C8.48917 12.5606 9.88459 11.9521 11.3185 10.4591Z" fill="#000101"/>
<path d="M13.596 5.49744C12.3508 5.49744 11.3379 5.91208 11.3379 6.42044C11.3379 6.9288 12.3508 7.34088 13.596 7.34088C14.8412 7.34088 15.8541 6.92752 15.8541 6.41788C15.8541 5.90823 14.8412 5.49744 13.596 5.49744Z" fill="#000101"/>
<path d="M29.6643 7.34089C30.9096 7.34089 31.9224 6.92752 31.9224 6.41788C31.9224 5.90824 30.9096 5.49487 29.6643 5.49487C28.4191 5.49487 27.4062 5.90952 27.4062 6.41788C27.4062 6.92624 28.4191 7.34089 29.6643 7.34089Z" fill="#000101"/>
<path d="M38.627 0.483217H35.7925C35.0454 0.493487 34.4395 0.969754 34.4395 1.55V12.3591H38.627C40.4114 12.3591 42.0276 11.7493 43.1804 10.6427C43.7447 10.0952 44.1915 9.43846 44.4934 8.71251C44.7954 7.98656 44.9462 7.20668 44.9366 6.4205V6.38712C44.9366 2.96596 42.2831 0.481934 38.627 0.481934V0.483217ZM42.6977 6.45516C42.6977 7.57715 42.3036 8.58488 41.586 9.29479C40.8466 10.0252 39.8222 10.4116 38.6244 10.4116H36.5705V2.43193H38.6244C41.0289 2.43193 42.6977 4.07255 42.6977 6.4205V6.45516Z" fill="#000101"/>
<path d="M20.4889 11.1703V6.46922L26.819 12.6042L28.1528 11.3089L22.8703 6.1945L26.9782 2.19823C27.1956 1.99327 27.3399 1.72272 27.389 1.42798C27.4125 1.30163 27.4062 1.17154 27.3705 1.04807C27.3348 0.924604 27.2709 0.811166 27.1836 0.716794C26.828 0.354781 26.1566 0.433089 25.6919 0.890099L20.4889 5.95187V0.483154H18.3477V11.1741C18.3477 11.9341 18.8265 12.5528 19.4157 12.5528C20.005 12.5528 20.4889 11.9341 20.4889 11.1703Z" fill="#000101"/>
<path d="M6.31529 18.0498H7.20749V18.6635C6.96845 18.8314 6.68319 18.9211 6.39103 18.9202C5.7068 18.9202 5.23567 18.4183 5.23567 17.6994V17.6891C5.23567 17.0228 5.73119 16.4824 6.34096 16.4824C6.51767 16.4769 6.6937 16.5066 6.85879 16.5699C7.02387 16.6331 7.17471 16.7286 7.30248 16.8508L7.32174 16.8675L7.74409 16.3643L7.72483 16.3476C7.35183 16.0169 6.8646 15.8447 6.36664 15.8675C6.12575 15.8652 5.88684 15.9111 5.66393 16.0025C5.44101 16.0938 5.2386 16.2288 5.06855 16.3994C4.89851 16.5701 4.76427 16.773 4.6737 16.9962C4.58314 17.2194 4.53808 17.4585 4.54116 17.6994V17.7084C4.54116 18.7803 5.296 19.5287 6.37691 19.5287C6.91831 19.5291 7.44165 19.334 7.85064 18.9793L7.85834 18.9716V17.4696H6.31786L6.31529 18.0498Z" fill="#000101"/>
<path d="M10.927 17.9587C10.927 18.5697 10.624 18.9061 10.0746 18.9061C9.52514 18.9061 9.21704 18.5518 9.21704 17.9343V15.924H8.55078V17.9587C8.55078 18.9523 9.10279 19.521 10.063 19.521C11.0233 19.521 11.5907 18.9407 11.5907 17.9291V15.924H10.927V17.9587Z" fill="#000101"/>
<path d="M14.114 15.8983H13.5119L11.9521 19.4658H12.6377L12.9958 18.6237H14.6146L14.9676 19.4658H15.6724L14.1204 15.9137L14.114 15.8983ZM13.2423 18.028L13.8033 16.7212L14.3681 18.028H13.2423Z" fill="#000101"/>
<path d="M19.118 17.0614V17.0524C19.1217 16.9108 19.0974 16.7699 19.0465 16.6377C18.9956 16.5055 18.9191 16.3847 18.8214 16.2822C18.584 16.0485 18.2284 15.9253 17.7945 15.9253H16.2129V19.4671H16.8779V18.2527H17.6083L18.4658 19.4697H19.2515L18.3067 18.1333C18.833 17.9703 19.1231 17.5903 19.1231 17.0614H19.118ZM17.7559 17.6545H16.883V16.5338H17.7508C18.195 16.5338 18.4492 16.7353 18.4492 17.0858V17.0973C18.4492 17.4363 18.177 17.6558 17.7559 17.6558" fill="#000101"/>
<path d="M21.6742 15.8983H21.0734L19.5137 19.4658H20.1992L20.5574 18.6237H22.1749L22.5292 19.4658H23.2339L21.6819 15.9137L21.6742 15.8983ZM20.8038 18.028L21.3635 16.7212L21.9297 18.028H20.8038Z" fill="#000101"/>
<path d="M26.2135 18.2885L24.3816 15.9226H23.7744V19.4657H24.4304V17.0305L26.3162 19.4657H26.8682V15.9226H26.2135V18.2885Z" fill="#000101"/>
<path d="M27.4746 16.5427H28.5825V19.4658H29.2513V16.5427H30.3579V15.924H27.4746V16.5427Z" fill="#000101"/>
<path d="M31.6259 17.9792H33.3782V17.3796H31.6259V16.5234H33.6016V15.9226H30.9609V19.4657H33.6273V18.8662H31.6259V17.9792Z" fill="#000101"/>
<path d="M34.9736 17.9792H36.7246V17.3796H34.9736V16.5234H36.9492V15.9226H34.3086V19.4657H36.9749V18.8662H34.9736V17.9792Z" fill="#000101"/>
<path d="M38.9846 15.9226H37.6572V19.4657H38.9846C40.0745 19.4657 40.8666 18.7212 40.8666 17.6954V17.6852C40.8666 16.6582 40.0745 15.9226 38.9846 15.9226ZM40.1721 17.7044C40.1721 18.3938 39.6945 18.8598 38.9846 18.8598H38.3222V16.5362H38.9846C39.6842 16.5362 40.1721 17.0138 40.1721 17.6916V17.7044Z" fill="#000101"/>
<path d="M49.3918 0.280396C48.8758 0.280396 48.3715 0.433384 47.9425 0.720016C47.5135 1.00665 47.1792 1.41405 46.9818 1.8907C46.7843 2.36735 46.7327 2.89184 46.8333 3.39785C46.934 3.90386 47.1824 4.36866 47.5472 4.73347C47.912 5.09829 48.3768 5.34673 48.8829 5.44738C49.3889 5.54803 49.9134 5.49637 50.39 5.29894C50.8667 5.1015 51.2741 4.76716 51.5607 4.33818C51.8473 3.90921 52.0003 3.40487 52.0003 2.88895C51.9993 2.19743 51.7241 1.53453 51.2352 1.04555C50.7462 0.55657 50.0833 0.281414 49.3918 0.280396V0.280396ZM49.3918 5.13934C48.9467 5.13908 48.5118 5.00689 48.1419 4.75946C47.772 4.51203 47.4837 4.16047 47.3136 3.74925C47.1435 3.33802 47.0991 2.88558 47.186 2.44913C47.273 2.01268 47.4875 1.61182 47.8022 1.29723C48.117 0.982634 48.518 0.768433 48.9545 0.681705C49.391 0.594977 49.8434 0.639618 50.2545 0.809982C50.6657 0.980346 51.017 1.26879 51.2643 1.63883C51.5115 2.00888 51.6434 2.44392 51.6434 2.88895C51.6428 3.4858 51.4053 4.058 50.9831 4.47992C50.5609 4.90184 49.9886 5.139 49.3918 5.13934Z" fill="#000101"/>
<path d="M49.4443 3.18928H50.2724C50.2342 3.38102 50.1303 3.55346 49.9787 3.67693C49.8272 3.8004 49.6373 3.86719 49.4418 3.86581C49.2808 3.86521 49.1225 3.82484 48.9809 3.74829C48.8393 3.67175 48.7188 3.5614 48.6301 3.42706C48.5414 3.29272 48.4873 3.13855 48.4726 2.97825C48.4579 2.81796 48.483 2.65652 48.5457 2.50827C48.6084 2.36002 48.7068 2.22957 48.8321 2.12851C48.9574 2.02745 49.1057 1.95891 49.2639 1.92899C49.422 1.89908 49.5851 1.9087 49.7387 1.95702C49.8922 2.00534 50.0315 2.09084 50.144 2.20594C50.1791 2.23667 50.2245 2.25319 50.2711 2.25226C50.3178 2.25132 50.3624 2.23301 50.3963 2.2009C50.4302 2.16878 50.4509 2.12519 50.4543 2.07863C50.4577 2.03208 50.4437 1.98592 50.4149 1.94919C50.26 1.78819 50.0676 1.66808 49.855 1.59961C49.6423 1.53113 49.416 1.51643 49.1963 1.55682C48.9766 1.5972 48.7703 1.69142 48.5959 1.83103C48.4215 1.97065 48.2844 2.15131 48.1969 2.35686C48.1094 2.56242 48.0742 2.78645 48.0944 3.00894C48.1147 3.23142 48.1898 3.44541 48.313 3.63178C48.4362 3.81814 48.6037 3.97106 48.8004 4.07687C48.9972 4.18268 49.2171 4.23807 49.4405 4.2381C49.6217 4.24793 49.8021 4.20715 49.9615 4.12032C50.1209 4.03349 50.253 3.90403 50.343 3.74642V4.13155H50.6986V2.83369H49.4443V3.18928Z" fill="#000101"/>
</svg>
