<svg width="48" height="39" viewBox="0 0 48 39" fill="none" xmlns="http://www.w3.org/2000/svg">
<path d="M47.156 19.2684C47.156 11.3669 38.4136 4.85566 27.1295 3.93194L33.0556 0.475972V0C33.0556 0 17.7342 3.29606 11.0744 6.71628C5.3232 9.52131 1.57563 14.0967 1.57563 19.2684C1.59314 21.3827 2.20533 23.4494 3.34218 25.2321H1.89545L0.881422 28.0165C0.847079 28.1096 0.835983 28.2096 0.849097 28.308C0.862211 28.4064 0.899139 28.5 0.956674 28.5809C1.0125 28.6613 1.08705 28.727 1.1739 28.7722C1.26075 28.8175 1.3573 28.8409 1.45522 28.8405H6.47832C10.113 31.9597 15.4823 34.1082 21.6022 34.6105L15.6761 38.0589V38.5349C15.6761 38.5349 30.9974 35.2388 37.6573 31.8186C43.4103 29.0136 47.156 24.4382 47.156 19.2684Z" fill="#223A80"/>
<path d="M8.8451 26.1295L10.337 22.032H8.00791L6.51603 26.1295H2.05921L1.53809 27.5612H8.19228C12.9614 27.5612 15.1945 26.7635 15.1945 26.7635L15.7081 25.3356C14.0089 25.8425 12.2474 26.1103 10.4743 26.1314L8.8451 26.1295Z" fill="white"/>
<path d="M41.67 15.8351L39.5197 21.7424C37.835 22.241 36.0897 22.505 34.3329 22.5269H33.2982C32.8467 22.5269 32.6134 22.16 32.777 21.7085L33.1157 20.781H37.3261L37.8472 19.3513H33.6349L34.3479 17.389H38.9628L39.482 15.9593H32.3331L30.194 21.8402C29.7688 23.0085 30.3709 23.9567 31.5391 23.9567H32.0452C36.4701 23.9567 38.7107 23.2719 39.0061 23.1741L38.3344 25.0178H40.878L44.2192 15.8351H41.67Z" fill="white"/>
<path d="M14.1913 18.2055L13.7755 19.3494H5.2908L4.64551 21.1234C7.53649 21.134 10.4258 20.9813 13.2995 20.6663L11.8509 24.6603H13.055C14.5055 23.2982 15.9785 20.275 16.5598 18.6213L16.859 17.8217C17.1148 16.7738 16.5203 15.9611 15.4405 15.9592H6.52306L5.99817 17.4041L13.6702 17.3871C14.1236 17.3871 14.3568 17.754 14.1913 18.2055Z" fill="white"/>
<path d="M32.9805 26.7014C32.5346 26.7014 32.3032 26.3458 32.4537 25.9037L32.9466 24.5492H30.4031L29.8538 26.0542C29.4587 27.2037 30.0588 28.1237 31.2121 28.1237H34.0924C38.8615 28.1237 41.0946 27.3279 41.0946 27.3279L41.6157 25.8981C39.9165 26.405 38.155 26.6728 36.3819 26.6939L32.9805 26.7014Z" fill="white"/>
<path d="M26.9749 19.3493H25.5507C26.3503 16.9751 25.1444 15.6544 23.0693 15.6544C20.9509 15.6544 18.7423 17.024 17.8411 19.4866L16.7424 22.4967C15.8451 24.9594 17.0642 26.329 19.1882 26.329C21.3122 26.329 23.5152 24.9594 24.4144 22.4967L25.0428 20.7735H26.4632L23.7786 28.1313H26.3221L30.7977 15.835H28.2542L26.9749 19.3493ZM21.8728 23.3151C21.553 24.1956 20.5803 24.9086 19.6999 24.9086C18.8194 24.9086 18.3679 24.1956 18.6877 23.3151L20.3809 18.6758C20.7026 17.7954 21.6752 17.0823 22.5538 17.0823C23.4324 17.0823 23.8877 17.7954 23.5678 18.6758L21.8728 23.3151Z" fill="white"/>
<path d="M10.2113 11.3462H12.8225C12.8395 11.2671 12.8583 11.1825 12.879 11.0941C12.8997 11.0056 12.9072 10.9172 12.9222 10.825C12.9373 10.7329 12.9429 10.6463 12.9505 10.5579C12.958 10.4695 12.9617 10.3905 12.9617 10.3096C12.9691 10.2442 12.9552 10.1783 12.9222 10.1214C12.8729 10.0903 12.8147 10.0764 12.7567 10.0819H10.4502V9.59466H13.116C13.1832 9.58781 13.2511 9.59443 13.3157 9.61414C13.3803 9.63384 13.4403 9.66623 13.4923 9.70942C13.5681 9.81962 13.6046 9.95219 13.5957 10.0857C13.5957 10.144 13.5957 10.2193 13.5826 10.3152C13.5694 10.4111 13.5638 10.5203 13.5468 10.635C13.5299 10.7498 13.5111 10.8702 13.4923 10.9944C13.4735 11.1185 13.4415 11.2333 13.4133 11.3386H13.8159V11.5964C13.8243 11.6628 13.8075 11.7299 13.7688 11.7845C13.7428 11.8057 13.7126 11.8214 13.6802 11.8304C13.6479 11.8395 13.614 11.8418 13.5807 11.8372H10.1943L10.2113 11.3462ZM13.5976 13.0977V13.3573C13.6018 13.4229 13.5867 13.4882 13.5544 13.5454C13.5286 13.5672 13.4985 13.5831 13.466 13.5922C13.4336 13.6013 13.3995 13.6033 13.3662 13.5981H10.9092C10.842 13.6062 10.7738 13.6001 10.709 13.5804C10.6442 13.5606 10.5843 13.5276 10.533 13.4833C10.4535 13.3747 10.4155 13.2413 10.4257 13.1071V12.1984H11.0597V12.9189C11.0536 12.9698 11.0642 13.0213 11.0898 13.0657C11.13 13.0915 11.1778 13.1028 11.2253 13.0977H13.5976Z" fill="white"/>
<path d="M14.0889 11.5286H17.6935V11.7864C17.7027 11.8528 17.6858 11.9202 17.6464 11.9745C17.6204 11.9959 17.5903 12.0117 17.558 12.0211C17.5256 12.0305 17.4917 12.0332 17.4583 12.0291H16.9729V12.2906H17.4752V13.3573C17.4803 13.4229 17.4652 13.4886 17.432 13.5454C17.4077 13.5659 17.3794 13.5811 17.349 13.5901C17.3186 13.5992 17.2866 13.6019 17.2551 13.5981H16.8375V12.7816H14.3071V12.2868H14.8056V12.0253H14.0889V11.5286ZM17.4752 10.4262C17.4804 10.5654 17.4553 10.704 17.4019 10.8326C17.3571 10.9322 17.2879 11.019 17.2006 11.0847C17.1108 11.1492 17.0081 11.1935 16.8995 11.2145C16.7759 11.241 16.6498 11.2542 16.5233 11.254H15.2647C15.1382 11.2549 15.012 11.2417 14.8884 11.2145C14.777 11.1955 14.6714 11.1511 14.5799 11.0847C14.4946 11.0201 14.4293 10.9327 14.3918 10.8326C14.3357 10.7047 14.31 10.5656 14.3165 10.4262C14.3108 10.285 14.3365 10.1443 14.3918 10.0142C14.4299 9.91383 14.495 9.82594 14.5799 9.76021C14.671 9.69523 14.7749 9.65034 14.8847 9.62852C15.0086 9.60453 15.1346 9.59256 15.2609 9.59278H16.5176C16.6439 9.59319 16.7698 9.60515 16.8939 9.62852C17.0021 9.65177 17.1044 9.69655 17.1949 9.76021C17.2839 9.82638 17.355 9.91366 17.4019 10.0142C17.4546 10.145 17.4796 10.2853 17.4752 10.4262ZM16.8469 10.4262C16.8456 10.3874 16.8399 10.3489 16.8299 10.3114C16.8146 10.2742 16.795 10.2389 16.7716 10.2061C16.7406 10.176 16.7059 10.15 16.6681 10.1289C16.6203 10.1096 16.5693 10.0994 16.5176 10.0988H15.2647C15.213 10.0984 15.1617 10.1087 15.1142 10.1289C15.0753 10.1481 15.0402 10.1742 15.0107 10.2061C14.9842 10.2362 14.9655 10.2724 14.9562 10.3114C14.9414 10.3479 14.9344 10.3869 14.9355 10.4262C14.9344 10.4636 14.9415 10.5009 14.9562 10.5353C14.9634 10.5756 14.9824 10.6129 15.0107 10.6425C15.0364 10.6788 15.0725 10.7064 15.1142 10.7216C15.1606 10.7454 15.2126 10.7565 15.2647 10.7535H16.5176C16.5697 10.7552 16.6213 10.7442 16.6681 10.7216C16.7087 10.7043 16.7443 10.6771 16.7716 10.6425C16.7996 10.6109 16.8219 10.5746 16.8375 10.5353C16.8456 10.4976 16.8487 10.4591 16.8469 10.4206V10.4262ZM15.3983 12.2925H16.3803V12.0253H15.3983V12.2925Z" fill="white"/>
<path d="M20.7638 12.4862V10.9342H20.0357C20.0188 11.0771 19.9999 11.2182 19.9755 11.3518C19.951 11.4854 19.9172 11.6171 19.8852 11.7281C19.8607 11.7996 19.8325 11.8428 19.793 11.8579C19.7475 11.8749 19.6974 11.8749 19.6519 11.8579L19.2644 11.7375C19.2869 11.6585 19.3076 11.5644 19.3302 11.4534C19.3528 11.3424 19.3697 11.2333 19.3904 11.1035C19.4111 10.9737 19.4224 10.8514 19.4337 10.714C19.445 10.5767 19.4487 10.4431 19.4487 10.3058C19.4559 10.2405 19.4421 10.1746 19.4092 10.1177C19.3586 10.0903 19.301 10.0785 19.2437 10.0838H17.9775V9.59466H19.6105C19.6777 9.58781 19.7456 9.59443 19.8102 9.61414C19.8748 9.63384 19.9348 9.66623 19.9868 9.70942C20.0626 9.81962 20.0991 9.95219 20.0903 10.0857V10.255C20.0903 10.3152 20.0903 10.3735 20.0903 10.4318H20.7713V9.59466H21.4034V12.2473C21.4109 12.3131 21.3956 12.3795 21.3601 12.4354C21.3354 12.459 21.3055 12.4765 21.2729 12.4866C21.2403 12.4967 21.2057 12.4992 21.172 12.4938L20.7638 12.4862ZM21.4749 13.0977V13.3573C21.48 13.4229 21.4649 13.4886 21.4316 13.5454C21.4059 13.5673 21.3758 13.5833 21.3433 13.5924C21.3109 13.6015 21.2768 13.6034 21.2435 13.5981H18.5306C18.4634 13.6064 18.3951 13.6005 18.3303 13.5807C18.2655 13.5609 18.2056 13.5278 18.1544 13.4833C18.0749 13.3747 18.0369 13.2413 18.0471 13.1071V12.1081H18.6793V12.9189C18.6736 12.97 18.6848 13.0216 18.7113 13.0657C18.7514 13.0915 18.7992 13.1028 18.8467 13.0977H21.4749Z" fill="white"/>
<path d="M23.1469 11.7412C23.1713 11.6622 23.1902 11.5682 23.2146 11.4572C23.2391 11.3462 23.2541 11.237 23.2748 11.1072C23.2955 10.9774 23.3049 10.8551 23.3181 10.7178C23.3312 10.5805 23.3331 10.4469 23.3331 10.3096C23.3403 10.2442 23.3265 10.1783 23.2936 10.1214C23.2429 10.0944 23.1854 10.0826 23.1281 10.0876H21.8525V9.59466H23.4874C23.5546 9.58781 23.6225 9.59443 23.6871 9.61414C23.7517 9.63384 23.8117 9.66623 23.8637 9.70942C23.9395 9.81962 23.976 9.95219 23.9671 10.0857C23.9671 10.2098 23.9671 10.3378 23.954 10.4751C23.9408 10.6124 23.9351 10.763 23.9182 10.9059C23.9013 11.0489 23.8825 11.1975 23.8599 11.3349C23.8373 11.4722 23.7997 11.6095 23.7677 11.7243C23.7451 11.7958 23.7169 11.8391 23.6774 11.8541C23.6313 11.8711 23.5806 11.8711 23.5344 11.8541L23.1469 11.7412ZM25.1335 12.8305C25.1365 12.9596 25.1121 13.0878 25.0621 13.2068C25.0177 13.2972 24.9534 13.3763 24.8739 13.4382C24.7846 13.4927 24.6866 13.5315 24.5842 13.5529C24.4723 13.5718 24.3591 13.5818 24.2456 13.583H22.8195C22.706 13.582 22.5928 13.5719 22.4809 13.5529C22.379 13.5336 22.2819 13.4946 22.1949 13.4382C22.1092 13.3806 22.0408 13.3005 21.9974 13.2068C21.9443 13.0886 21.9186 12.96 21.9221 12.8305C21.9189 12.7011 21.9446 12.5725 21.9974 12.4543C22.0423 12.3609 22.1103 12.2806 22.1949 12.221C22.2814 12.1632 22.3787 12.1235 22.4809 12.1043C22.5928 12.0853 22.706 12.0753 22.8195 12.0742H24.2456C24.3591 12.0754 24.4723 12.0855 24.5842 12.1043C24.687 12.1256 24.7851 12.1651 24.8739 12.221C24.9522 12.2848 25.0162 12.3643 25.0621 12.4543C25.1118 12.5733 25.1361 12.7015 25.1335 12.8305ZM22.5731 12.8305C22.5677 12.8701 22.5725 12.9103 22.587 12.9475C22.6014 12.9847 22.6252 13.0176 22.6559 13.0431C22.7287 13.0795 22.8097 13.0963 22.891 13.092H24.1571C24.2378 13.0957 24.318 13.0788 24.3904 13.0431C24.4211 13.0176 24.4448 12.9847 24.4593 12.9475C24.4738 12.9103 24.4786 12.8701 24.4732 12.8305C24.4782 12.7904 24.4733 12.7497 24.4588 12.712C24.4444 12.6743 24.4209 12.6407 24.3904 12.6142C24.318 12.5784 24.2378 12.5616 24.1571 12.5652H22.891C22.8097 12.5609 22.7287 12.5778 22.6559 12.6142C22.6254 12.6407 22.6019 12.6743 22.5875 12.712C22.573 12.7497 22.5681 12.7904 22.5731 12.8305ZM25.0338 10.9492V11.6077C25.041 11.6735 25.0258 11.7398 24.9906 11.7958C24.9672 11.8178 24.9392 11.8344 24.9086 11.8441C24.878 11.8539 24.8455 11.8567 24.8137 11.8522H24.4017V9.59466H25.0338V10.4582H25.5324V10.7234C25.54 10.7893 25.5248 10.8557 25.4891 10.9116C25.4658 10.9339 25.4379 10.9506 25.4073 10.9607C25.3767 10.9708 25.3442 10.974 25.3123 10.9699L25.0338 10.9492Z" fill="white"/>
<path d="M29.3064 12.4807V11.4083C28.9734 11.5392 28.6288 11.6387 28.2773 11.7056C27.9206 11.7767 27.5574 11.8108 27.1937 11.8071C27.1347 11.8122 27.0753 11.8045 27.0195 11.7847C26.9637 11.7649 26.9127 11.7335 26.8701 11.6924C26.7864 11.5894 26.7466 11.4576 26.7591 11.3255V9.59473H28.8775V9.85058C28.8855 9.91695 28.8688 9.98396 28.8304 10.0387C28.7802 10.0795 28.7161 10.0991 28.6517 10.0933H27.3912V11.0621C27.3849 11.1155 27.399 11.1693 27.4307 11.2127C27.4471 11.2282 27.4667 11.24 27.4882 11.2472C27.5097 11.2543 27.5324 11.2567 27.5549 11.254C27.6978 11.2537 27.8406 11.243 27.982 11.2221C28.1376 11.2023 28.2921 11.174 28.4448 11.1374C28.5953 11.1073 28.7495 11.0678 28.9 11.0226C29.0505 10.9775 29.1803 10.938 29.3064 10.8909V9.59473H29.9404V10.6802H30.4389V10.9361C30.4454 11.0019 30.4302 11.0679 30.3957 11.1242C30.372 11.1464 30.3437 11.1632 30.3128 11.1732C30.2819 11.1833 30.2492 11.1865 30.2169 11.1826H29.9404V12.2493C29.9465 12.315 29.9313 12.3809 29.8971 12.4374C29.8733 12.4593 29.8449 12.4756 29.814 12.4854C29.7831 12.4951 29.7505 12.498 29.7184 12.4938L29.3064 12.4807ZM30.0194 13.0977V13.3573C30.0235 13.4229 30.0085 13.4883 29.9761 13.5455C29.9504 13.5672 29.9203 13.5832 29.8878 13.5923C29.8553 13.6014 29.8213 13.6034 29.788 13.5982H27.316C27.2487 13.6066 27.1804 13.6007 27.1156 13.5809C27.0507 13.5612 26.9908 13.5279 26.9397 13.4834C26.8602 13.3748 26.8222 13.2413 26.8325 13.1071V12.1082H27.4646V12.919C27.4589 12.9701 27.4702 13.0216 27.4966 13.0657C27.5367 13.0916 27.5845 13.1029 27.632 13.0977H30.0194Z" fill="white"/>
<path d="M32.345 9.59473V11.6642C32.3508 11.714 32.338 11.7642 32.3093 11.8053C32.2694 11.8352 32.2198 11.8493 32.1701 11.8448H31.7505V11.6642C31.6303 11.723 31.5042 11.7691 31.3743 11.8015C31.2412 11.8377 31.1039 11.8554 30.966 11.8542C30.92 11.8596 30.8734 11.8544 30.8298 11.8391C30.7861 11.8237 30.7465 11.7987 30.7139 11.7658C30.6815 11.7268 30.6574 11.6818 30.6428 11.6333C30.6283 11.5848 30.6237 11.5339 30.6293 11.4836V9.59473H31.2238V10.2287H31.7449V9.59473H32.345ZM30.7986 12.0668H34.0777V13.3573C34.0828 13.423 34.0677 13.4886 34.0344 13.5455C34.0099 13.5661 33.9813 13.5814 33.9506 13.5904C33.9198 13.5995 33.8875 13.6021 33.8557 13.5982H33.4456V12.5616H30.7986V12.0668ZM31.3837 11.2879C31.5135 11.2913 31.6424 11.2642 31.7599 11.2089V10.7235H31.2294V11.1186C31.2294 11.1901 31.2407 11.2333 31.2727 11.2522C31.3035 11.2783 31.3434 11.2912 31.3837 11.2879ZM33.4719 11.8523V10.9342H33.2274V11.6077C33.2334 11.6735 33.2183 11.7394 33.1841 11.7959C33.1602 11.8177 33.1318 11.8341 33.101 11.8439C33.0701 11.8536 33.0375 11.8565 33.0054 11.8523H32.6291V9.59473H33.2349V10.4413H33.4794V9.59473H34.0852V11.6077C34.0924 11.6735 34.0772 11.7398 34.042 11.7959C34.0182 11.818 33.9899 11.8345 33.959 11.8442C33.9281 11.854 33.8953 11.8568 33.8632 11.8523H33.4719Z" fill="white"/>
<path d="M34.4404 9.59473H36.728V9.85058C36.7367 9.91726 36.7192 9.98471 36.6791 10.0387C36.6548 10.0591 36.6266 10.0744 36.5962 10.0838C36.5658 10.0932 36.5339 10.0964 36.5023 10.0933H35.9115C35.9256 10.3365 36.0099 10.5705 36.1542 10.7668C36.2959 10.9445 36.4958 11.0665 36.7186 11.1111V11.6755C36.4805 11.6524 36.2507 11.5752 36.047 11.4497C35.8555 11.3277 35.6956 11.162 35.5804 10.9662C35.4615 11.158 35.3023 11.3217 35.1139 11.4459C34.9077 11.5663 34.6779 11.6407 34.4404 11.6642V11.0998C34.6618 11.0516 34.8606 10.9303 35.0048 10.7555C35.1443 10.5571 35.2263 10.324 35.2418 10.082H34.4385L34.4404 9.59473ZM35.0687 13.5944C35.0015 13.6027 34.9332 13.5968 34.8684 13.577C34.8036 13.5572 34.7436 13.5241 34.6925 13.4796C34.613 13.371 34.575 13.2376 34.5852 13.1034V12.4995H37.2924V12.3113H34.5909V11.8617H37.9302V12.9604H35.2249V13.1316H37.9302V13.4119C37.9357 13.4577 37.9279 13.5041 37.9076 13.5455C37.8899 13.5608 37.8692 13.5722 37.8469 13.579C37.8245 13.5858 37.801 13.5878 37.7778 13.585L35.0687 13.5944ZM37.2981 11.6642V9.59473H37.9302V11.4328C37.9374 11.4986 37.9221 11.5649 37.8869 11.6209C37.8632 11.643 37.8348 11.6595 37.8039 11.6693C37.773 11.679 37.7403 11.6818 37.7082 11.6773L37.2981 11.6642Z" fill="white"/>
</svg>
