<svg width="58" height="18" viewBox="0 0 58 18" fill="none" xmlns="http://www.w3.org/2000/svg">
<path d="M19.7185 3.42505H15.7817C15.3721 3.42505 15.3721 3.85195 15.3721 3.99219C15.3721 4.13244 15.3721 4.55811 15.7817 4.55811H17.0206V10.5285C17.0206 11.0415 17.541 11.0415 17.7588 11.0415C17.9765 11.0415 18.4969 11.0415 18.4969 10.5285V4.55811H19.7136C19.8748 4.55811 20.1467 4.48429 20.1467 3.99219C20.1467 3.50009 19.8859 3.42505 19.7185 3.42505Z" fill="#231815"/>
<path d="M4.06754 9.90965H1.81126V4.00445C1.81126 3.63537 1.54061 3.43115 1.07311 3.43115C0.605616 3.43115 0.334961 3.64029 0.334961 4.00445V10.4866C0.335287 10.6339 0.394017 10.775 0.498265 10.879C0.602514 10.9831 0.743767 11.0415 0.891034 11.0415H4.07738C4.44646 11.0415 4.44646 10.6872 4.44646 10.4756C4.44646 10.264 4.43539 9.90965 4.06754 9.90965Z" fill="#231815"/>
<path d="M22.7373 3.31311H22.5736C21.2856 3.31311 20.3506 4.2481 20.3506 5.53617V8.93043C20.3506 10.2185 21.2856 11.1535 22.5736 11.1535H22.7373C24.2739 11.1535 24.9616 9.92325 24.9616 8.71514V5.75147C24.9616 4.53844 24.2739 3.31311 22.7373 3.31311ZM23.4754 8.97226C23.4754 9.5431 23.1531 9.91217 22.6536 9.91217C22.1541 9.91217 21.833 9.5431 21.833 8.97226V5.4968C21.833 4.92597 22.1554 4.55812 22.6536 4.55812C23.1519 4.55812 23.4754 4.9272 23.4754 5.4968V8.97226Z" fill="#231815"/>
<path d="M12.8848 4.55813C13.3769 4.55813 13.6771 4.88169 13.7042 5.42915L13.7115 5.6223C13.7115 5.67397 13.7115 5.72441 13.7201 5.7564C13.7497 6.21651 14.0892 6.27925 14.4583 6.27925C14.7622 6.27925 15.0931 6.24481 15.1694 5.82775C15.1782 5.76868 15.1832 5.70909 15.1841 5.64937C15.1841 5.57186 15.1841 5.47467 15.1768 5.42915C15.071 4.40558 14.4386 3.31189 12.9697 3.31189H12.8061C11.5168 3.31189 10.583 4.24688 10.583 5.53495V8.93167C10.583 10.2197 11.5168 11.1547 12.8061 11.1547H12.9697C14.4349 11.1547 15.071 10.061 15.1768 9.03871C15.1768 8.99196 15.1854 8.89477 15.1841 8.81972C15.1842 8.75873 15.1792 8.69784 15.1694 8.63764C15.1116 8.34607 14.8557 8.22305 14.4448 8.22305C13.9834 8.22305 13.7472 8.37191 13.7238 8.75698C13.7238 8.7742 13.7238 8.79019 13.7238 8.80742C13.7253 8.83364 13.7253 8.85993 13.7238 8.88616L13.7115 9.04363C13.6869 9.57756 13.3732 9.9048 12.8934 9.9048C12.3939 9.9048 12.0716 9.53573 12.0716 8.96612V5.49681C12.063 4.92721 12.3816 4.55813 12.8848 4.55813Z" fill="#231815"/>
<path d="M10.1977 10.6208C10.1497 10.4461 10.055 10.1176 10.0033 9.9417L8.49749 3.98114C8.40769 3.62683 8.11612 3.42261 7.69537 3.42261C7.27463 3.42261 6.97937 3.61822 6.88956 3.97253L5.42064 9.79161L5.19181 10.6134C5.1745 10.6607 5.16893 10.7115 5.17557 10.7614C5.18221 10.8114 5.20087 10.8589 5.22995 10.9001C5.27478 10.947 5.32889 10.984 5.38884 11.0088C5.44879 11.0336 5.51326 11.0456 5.57811 11.044H6.30273C6.38466 11.038 6.46183 11.0032 6.52059 10.9458C6.57935 10.8884 6.61591 10.8121 6.62382 10.7303L6.90801 9.41639H8.48273L8.76569 10.7291C8.78018 10.8153 8.82417 10.8939 8.89013 10.9513C8.9561 11.0088 9.03995 11.0415 9.12738 11.044H9.81632C9.87995 11.046 9.94332 11.0348 10.0024 11.0111C10.0615 10.9874 10.115 10.9517 10.1596 10.9062C10.1886 10.8653 10.2073 10.818 10.2139 10.7682C10.2206 10.7185 10.215 10.6679 10.1977 10.6208ZM7.15529 8.28333L7.69537 5.81175L8.23545 8.28333H7.15529Z" fill="#231815"/>
<path d="M33.5534 4.65771H33.2471V9.81H33.5534C34.3149 9.81 34.7517 9.36465 34.7517 8.58959V5.88304C34.7517 5.10184 34.3149 4.65771 33.5534 4.65771Z" fill="#E60012"/>
<path d="M43.3965 4.6344H42.9229V6.70614H43.3965C43.9796 6.70614 44.3807 6.27678 44.3807 5.66043C44.3807 5.04407 43.9796 4.6344 43.3965 4.6344Z" fill="#E60012"/>
<path d="M49.1134 1.24988H34.7194C33.1474 1.27242 31.6474 1.91272 30.5437 3.03236C29.44 4.152 28.8213 5.66102 28.8213 7.2332C28.8213 8.80538 29.44 10.3144 30.5437 11.434C31.6474 12.5537 33.1474 13.194 34.7194 13.2165H49.1134C50.6854 13.194 52.1854 12.5537 53.2891 11.434C54.3928 10.3144 55.0115 8.80538 55.0115 7.2332C55.0115 5.66102 54.3928 4.152 53.2891 3.03236C52.1854 1.91272 50.6854 1.27242 49.1134 1.24988ZM36.1957 8.3964C36.1957 9.98835 35.1918 10.9381 33.5089 10.9381H32.3364C32.2653 10.9381 32.195 10.9241 32.1293 10.8969C32.0636 10.8697 32.0039 10.8298 31.9537 10.7796C31.9034 10.7293 31.8635 10.6696 31.8363 10.6039C31.8091 10.5383 31.7951 10.4679 31.7951 10.3968V4.06961C31.7951 3.99853 31.8091 3.92814 31.8363 3.86246C31.8635 3.79679 31.9034 3.73711 31.9537 3.68685C32.0039 3.63658 32.0636 3.59671 32.1293 3.56951C32.195 3.5423 32.2653 3.5283 32.3364 3.5283H33.5089C35.1918 3.5283 36.1957 4.47929 36.1957 6.07V8.3964ZM40.2666 6.70604C40.5373 6.70604 40.6751 6.89304 40.6751 7.25965C40.6751 7.62627 40.5373 7.81203 40.2666 7.81203H38.5209V9.83333H40.3208C40.4782 9.83333 40.7415 9.90469 40.7415 10.3857C40.7415 10.8667 40.4782 10.9381 40.3208 10.9381H37.6142C37.4712 10.9381 37.334 10.8814 37.2327 10.7803C37.1315 10.6793 37.0745 10.5423 37.0741 10.3992V4.06715C37.0745 3.92413 37.1315 3.78707 37.2327 3.68605C37.334 3.58503 37.4712 3.5283 37.6142 3.5283H40.3208C40.4782 3.5283 40.7415 3.60089 40.7415 4.08068C40.7415 4.56048 40.4782 4.6343 40.3208 4.6343H38.5209V6.70604H40.2666ZM45.7535 10.6822C45.6768 10.7629 45.5844 10.8272 45.4821 10.8712C45.3797 10.9152 45.2695 10.938 45.1581 10.9381C44.901 10.9381 44.6119 10.9381 44.5245 10.5936L43.8233 7.8108H42.9178V10.4251C42.9178 10.9381 42.3728 10.9381 42.1932 10.9381C42.0136 10.9381 41.4698 10.9381 41.4698 10.4251V4.06961C41.4698 3.92605 41.5268 3.78836 41.6284 3.68685C41.7299 3.58533 41.8676 3.5283 42.0111 3.5283H43.6781C44.944 3.5283 45.8298 4.38948 45.8298 5.62957C45.8298 6.34065 45.569 6.94471 45.0917 7.33347L45.8716 10.2405C45.9307 10.4337 45.8926 10.5247 45.7572 10.6822H45.7535ZM52.0278 10.4054C52.0278 10.7585 51.7818 10.9381 51.3032 10.9381C50.8246 10.9381 50.5786 10.7585 50.5786 10.4054V6.61746L50.1 7.93137C50.0459 8.07939 49.9476 8.20721 49.8184 8.29752C49.6893 8.38782 49.5355 8.43625 49.3779 8.43625C49.2203 8.43625 49.0665 8.38782 48.9373 8.29752C48.8081 8.20721 48.7098 8.07939 48.6557 7.93137L48.1821 6.61746V10.4054C48.1821 10.7585 47.936 10.9381 47.4574 10.9381C46.9789 10.9381 46.7341 10.7585 46.7341 10.4054V4.23816C46.7341 3.80757 47.065 3.5283 47.5768 3.5283C47.7497 3.5286 47.9185 3.58196 48.0601 3.68118C48.2018 3.7804 48.3096 3.9207 48.3691 4.08314L49.3828 6.86351L50.3965 4.08314C50.4559 3.9207 50.5638 3.7804 50.7054 3.68118C50.8471 3.58196 51.0158 3.5286 51.1888 3.5283C51.7018 3.5283 52.0327 3.80757 52.0327 4.23816L52.0278 10.4054Z" fill="#E60012"/>
<path d="M27.5655 6.62H26.0929C25.8048 6.62 25.5713 6.85353 25.5713 7.14162V7.32616C25.5713 7.61424 25.8048 7.84778 26.0929 7.84778H27.5655C27.8536 7.84778 28.0872 7.61424 28.0872 7.32616V7.14162C28.0872 6.85353 27.8536 6.62 27.5655 6.62Z" fill="black"/>
<path d="M56.6817 1.43811C56.6817 0.991531 56.368 0.84021 55.9509 0.84021H55.2891V2.90457H55.6077V2.07169H55.9325L56.3914 2.90457H56.7518L56.2597 2.02986C56.3874 1.99477 56.499 1.91677 56.5759 1.80898C56.6527 1.7012 56.6901 1.57022 56.6817 1.43811ZM55.9128 1.80719H55.6077V1.10717H55.9128C56.2068 1.10717 56.3655 1.19452 56.3655 1.44426C56.3655 1.694 56.2068 1.81088 55.9128 1.81088V1.80719Z" fill="black"/>
<path d="M55.932 0C55.5617 0 55.1997 0.109817 54.8917 0.315563C54.5838 0.52131 54.3438 0.813745 54.2021 1.15589C54.0604 1.49803 54.0233 1.87452 54.0955 2.23774C54.1678 2.60095 54.3461 2.93459 54.608 3.19646C54.8699 3.45832 55.2035 3.63666 55.5667 3.7089C55.9299 3.78115 56.3064 3.74407 56.6486 3.60235C56.9907 3.46063 57.2831 3.22063 57.4889 2.91271C57.6946 2.60479 57.8045 2.24277 57.8045 1.87244C57.8041 1.37594 57.6067 0.899865 57.2557 0.548785C56.9046 0.197705 56.4285 0.000325896 55.932 0V0ZM55.932 3.52836C55.6047 3.52739 55.285 3.42944 55.0134 3.2469C54.7417 3.06435 54.5302 2.80539 54.4057 2.50273C54.2811 2.20007 54.249 1.86727 54.3134 1.54638C54.3779 1.22549 54.536 0.930894 54.7678 0.699802C54.9995 0.46871 55.2946 0.311487 55.6157 0.247991C55.9368 0.184495 56.2695 0.217574 56.5718 0.34305C56.874 0.468525 57.1324 0.68077 57.3141 0.952976C57.4959 1.22518 57.5928 1.54514 57.5928 1.87244C57.5927 2.09027 57.5496 2.30593 57.466 2.50708C57.3824 2.70823 57.26 2.89093 57.1057 3.04473C56.9515 3.19853 56.7684 3.32041 56.567 3.40339C56.3656 3.48638 56.1498 3.52884 55.932 3.52836Z" fill="black"/>
<path d="M4.27344 17.5705V15.2047H4.97099C5.16581 15.2007 5.35818 15.2487 5.52829 15.3437C5.6892 15.4365 5.81959 15.5742 5.90352 15.7399C5.99561 15.9224 6.04164 16.1247 6.03762 16.3291V16.4522C6.0421 16.6574 5.99605 16.8606 5.90352 17.0439C5.81811 17.2101 5.68483 17.3468 5.52091 17.4364C5.34709 17.531 5.15166 17.5789 4.95377 17.5754L4.27344 17.5705ZM4.68434 15.5356V17.242H4.95131C5.0433 17.2472 5.13528 17.2316 5.22045 17.1965C5.30563 17.1614 5.38182 17.1075 5.44341 17.039C5.56906 16.8724 5.63141 16.6666 5.61933 16.4583V16.3267C5.63364 16.1172 5.57447 15.9092 5.45202 15.7386C5.39149 15.6688 5.31547 15.6141 5.23003 15.5788C5.14458 15.5436 5.05209 15.5288 4.95992 15.5356H4.68434Z" fill="#231815"/>
<path d="M7.9121 16.5137H6.9402V17.242H8.07572V17.5705H6.5293V15.2047H8.06465V15.5356H6.9402V16.1889H7.9121V16.5137Z" fill="#231815"/>
<path d="M9.36393 16.6601H8.90504V17.5705H8.49414V15.2047H9.32702C9.55232 15.1904 9.77553 15.2553 9.95814 15.388C10.0337 15.4534 10.0931 15.5354 10.1318 15.6276C10.1704 15.7198 10.1872 15.8197 10.1808 15.9195C10.186 16.0607 10.1459 16.2 10.0664 16.3168C9.98518 16.4274 9.87427 16.5128 9.74654 16.5629L10.2792 17.5471V17.5692H9.8388L9.36393 16.6601ZM8.90504 16.3291H9.32825C9.44576 16.336 9.56158 16.2987 9.65304 16.2246C9.69339 16.1885 9.72532 16.1441 9.74658 16.0943C9.76784 16.0446 9.77791 15.9908 9.77606 15.9367C9.7794 15.8829 9.7715 15.8289 9.75286 15.7783C9.73423 15.7277 9.70526 15.6815 9.6678 15.6427C9.57788 15.5673 9.46262 15.529 9.34547 15.5356H8.90504V16.3291Z" fill="#231815"/>
<path d="M11.187 15.2047L11.8697 17.0181L12.5501 15.2047H13.0815V17.5705H12.6719V16.7905L12.7125 15.7473L12.0125 17.5705H11.7197L11.0283 15.7473L11.0676 16.7893V17.5693H10.6592V15.2047H11.187Z" fill="#231815"/>
<path d="M15.0029 17.0193H14.0876L13.8956 17.5705H13.4688L14.3619 15.2047H14.731L15.6254 17.5705H15.1973L15.0029 17.0193ZM14.202 16.6872H14.8885L14.5452 15.703L14.202 16.6872Z" fill="#231815"/>
<path d="M17.4923 15.5356H16.7542V17.5705H16.347V15.5356H15.6162V15.2047H17.4923V15.5356Z" fill="#231815"/>
<path d="M19.7275 16.4485C19.7324 16.6601 19.6904 16.8702 19.6045 17.0636C19.5326 17.2292 19.4131 17.3697 19.2612 17.4671C19.1056 17.5589 18.9282 17.6073 18.7476 17.6073C18.5669 17.6073 18.3896 17.5589 18.234 17.4671C18.0813 17.3705 17.9606 17.231 17.887 17.0661C17.8023 16.8779 17.7603 16.6733 17.764 16.4669V16.3341C17.7595 16.1225 17.8015 15.9125 17.887 15.7189C17.9592 15.552 18.08 15.4107 18.2335 15.3133C18.3871 15.2159 18.5664 15.1669 18.7482 15.1727C18.9289 15.1695 19.1068 15.2177 19.2612 15.3117C19.4134 15.4079 19.5337 15.5471 19.6069 15.7116C19.6914 15.9024 19.7334 16.1094 19.7299 16.3181L19.7275 16.4485ZM19.3166 16.3254C19.3301 16.114 19.2781 15.9035 19.1677 15.7226C19.1187 15.6579 19.0554 15.6054 18.9827 15.5693C18.9101 15.5331 18.83 15.5143 18.7488 15.5143C18.6676 15.5143 18.5876 15.5331 18.5149 15.5693C18.4422 15.6054 18.3789 15.6579 18.3299 15.7226C18.219 15.8989 18.1653 16.1052 18.1761 16.3131V16.4497C18.1631 16.6615 18.216 16.872 18.3274 17.0525C18.3743 17.1206 18.4375 17.1757 18.5112 17.2129C18.585 17.2501 18.6669 17.2681 18.7494 17.2654C18.8314 17.2692 18.913 17.2521 18.9866 17.2157C19.0602 17.1794 19.1234 17.1249 19.1702 17.0574C19.2792 16.8743 19.3303 16.6624 19.3166 16.4497V16.3254Z" fill="#231815"/>
<path d="M20.6316 17.242H21.7056V17.5705H20.2207V15.2047H20.6316V17.242Z" fill="#231815"/>
<path d="M23.8876 16.4485C23.8925 16.6601 23.8505 16.8702 23.7646 17.0636C23.6928 17.2292 23.5733 17.3697 23.4214 17.4671C23.2657 17.5589 23.0884 17.6073 22.9077 17.6073C22.7271 17.6073 22.5497 17.5589 22.3941 17.4671C22.2415 17.3705 22.1208 17.231 22.0472 17.0661C21.9624 16.8779 21.9204 16.6733 21.9242 16.4669V16.3341C21.9197 16.1225 21.9617 15.9125 22.0472 15.7189C22.1194 15.552 22.2401 15.4107 22.3937 15.3133C22.5473 15.2159 22.7266 15.1669 22.9084 15.1727C23.0891 15.1695 23.267 15.2177 23.4214 15.3117C23.5736 15.4079 23.6938 15.5471 23.7671 15.7116C23.8516 15.9024 23.8936 16.1094 23.8901 16.3181L23.8876 16.4485ZM23.4767 16.3254C23.4896 16.114 23.4377 15.9037 23.3279 15.7226C23.2789 15.6579 23.2156 15.6054 23.1429 15.5693C23.0702 15.5331 22.9901 15.5143 22.909 15.5143C22.8278 15.5143 22.7477 15.5331 22.675 15.5693C22.6024 15.6054 22.539 15.6579 22.4901 15.7226C22.3791 15.8989 22.3254 16.1052 22.3363 16.3131V16.4497C22.3233 16.6615 22.3761 16.872 22.4876 17.0525C22.5344 17.1206 22.5976 17.1757 22.6714 17.2129C22.7451 17.2501 22.827 17.2681 22.9096 17.2654C22.9916 17.2692 23.0732 17.2521 23.1468 17.2157C23.2204 17.1794 23.2835 17.1249 23.3303 17.0574C23.4394 16.8743 23.4904 16.6624 23.4767 16.4497V16.3254Z" fill="#231815"/>
<path d="M26.1939 17.2629C26.1017 17.3794 25.9784 17.4673 25.8383 17.5163C25.6728 17.5764 25.4977 17.6056 25.3216 17.6025C25.137 17.6064 24.9549 17.5596 24.7951 17.4671C24.6416 17.3765 24.5183 17.2425 24.4407 17.0821C24.3564 16.8981 24.3143 16.6976 24.3177 16.4952V16.3107C24.2995 16.0097 24.3903 15.7123 24.5736 15.4729C24.6627 15.3718 24.7735 15.2922 24.8977 15.24C25.0219 15.1878 25.1563 15.1644 25.2909 15.1715C25.5166 15.1589 25.7391 15.2289 25.917 15.3683C26.08 15.5122 26.1806 15.7138 26.1975 15.9305H25.7916C25.7883 15.8698 25.7729 15.8104 25.7462 15.7558C25.7195 15.7012 25.6821 15.6525 25.6361 15.6126C25.5902 15.5728 25.5367 15.5426 25.4789 15.5239C25.421 15.5052 25.36 15.4983 25.2995 15.5037C25.2186 15.4996 25.1381 15.5156 25.0649 15.5501C24.9917 15.5847 24.9282 15.6368 24.8799 15.7017C24.7724 15.877 24.7205 16.0807 24.7311 16.2861V16.4669C24.7185 16.6777 24.775 16.8868 24.8923 17.0624C24.9446 17.1315 25.0129 17.1868 25.0913 17.2237C25.1697 17.2605 25.2559 17.2778 25.3425 17.274C25.423 17.2822 25.5042 17.2738 25.5813 17.2492C25.6583 17.2247 25.7295 17.1845 25.7903 17.1313V16.6687H25.2982V16.3624H26.1951L26.1939 17.2629Z" fill="#231815"/>
<path d="M27.1626 17.5705H26.7529V15.2047H27.1626V17.5705Z" fill="#231815"/>
<path d="M29.557 16.799C29.545 17.0255 29.4442 17.2381 29.2765 17.3908C29.0939 17.5389 28.863 17.6143 28.6281 17.6024C28.4547 17.6053 28.284 17.5587 28.136 17.4683C27.99 17.3768 27.8744 17.2441 27.8039 17.0869C27.7218 16.9069 27.6798 16.7113 27.6808 16.5136V16.2921C27.6776 16.089 27.7196 15.8877 27.8039 15.7029C27.8757 15.5409 27.9944 15.4043 28.1446 15.3104C28.2984 15.2161 28.476 15.1678 28.6564 15.1714C28.886 15.1608 29.1112 15.2367 29.2875 15.3842C29.4538 15.5413 29.5533 15.7562 29.5656 15.9846H29.1547C29.1505 15.848 29.0982 15.7173 29.007 15.6155C28.9091 15.5342 28.7834 15.4941 28.6564 15.5036C28.5769 15.4995 28.4976 15.5153 28.4257 15.5494C28.3538 15.5835 28.2914 15.635 28.2443 15.6992C28.1376 15.8711 28.0865 16.0717 28.0979 16.2737V16.4853C28.0848 16.6898 28.1328 16.8936 28.2357 17.0709C28.2794 17.1363 28.3393 17.1893 28.4096 17.2247C28.4799 17.26 28.5582 17.2766 28.6367 17.2727C28.7691 17.2837 28.9009 17.2446 29.0058 17.1632C29.0991 17.0646 29.1537 16.9358 29.1596 16.8002L29.557 16.799Z" fill="#231815"/>
<path d="M31.3271 17.0193H30.4106L30.2199 17.5705H29.793L30.6861 15.2047H31.0552L31.9496 17.5705H31.5239L31.3271 17.0193ZM30.5262 16.6872H31.2114L30.8682 15.703L30.5262 16.6872Z" fill="#231815"/>
<path d="M32.7146 17.242H33.7874V17.5705H32.3037V15.2047H32.7146V17.242Z" fill="#231815"/>
<path d="M36.464 16.5678H35.5105V17.5705H35.0996V15.2047H36.6017V15.5356H35.5105V16.2394H36.4627L36.464 16.5678Z" fill="#231815"/>
<path d="M38.8996 16.4484C38.9039 16.66 38.8619 16.8699 38.7766 17.0635C38.7043 17.2289 38.5849 17.3692 38.4333 17.4671C38.2778 17.5589 38.1004 17.6074 37.9197 17.6074C37.739 17.6074 37.5617 17.5589 37.4061 17.4671C37.2531 17.3706 37.132 17.231 37.0579 17.066C36.9732 16.8778 36.9312 16.6732 36.9349 16.4669V16.334C36.9304 16.1224 36.9724 15.9125 37.0579 15.7189C37.131 15.5527 37.2512 15.4115 37.4036 15.3129C37.5576 15.2179 37.7357 15.1692 37.9166 15.1727C38.0973 15.1696 38.2752 15.2178 38.4297 15.3117C38.5811 15.4083 38.7009 15.5474 38.7741 15.7115C38.8587 15.9023 38.9006 16.1093 38.8971 16.318L38.8996 16.4484ZM38.4875 16.3254C38.5007 16.1141 38.4492 15.9038 38.3398 15.7226C38.2907 15.6578 38.2273 15.6053 38.1545 15.5692C38.0817 15.533 38.0016 15.5142 37.9203 15.5142C37.8391 15.5142 37.7589 15.533 37.6861 15.5692C37.6133 15.6053 37.5499 15.6578 37.5008 15.7226C37.3905 15.8991 37.3368 16.1052 37.347 16.3131V16.4497C37.3337 16.6616 37.3871 16.8724 37.4996 17.0525C37.5486 17.1177 37.6122 17.1706 37.6852 17.207C37.7582 17.2435 37.8387 17.2624 37.9203 17.2624C38.0019 17.2624 38.0824 17.2435 38.1554 17.207C38.2285 17.1706 38.292 17.1177 38.3411 17.0525C38.4501 16.8693 38.5012 16.6574 38.4875 16.4447V16.3254Z" fill="#231815"/>
<path d="M40.2602 16.66H39.8025V17.5704H39.3916V15.2046H40.2233C40.4486 15.1902 40.6719 15.255 40.8544 15.3879C40.9769 15.5064 41.0546 15.6637 41.0743 15.833C41.0941 16.0023 41.0546 16.1733 40.9626 16.3168C40.8816 16.4271 40.7712 16.5124 40.644 16.5628L41.1755 17.547V17.5692H40.735L40.2602 16.66ZM39.8025 16.3291H40.2245C40.3423 16.3356 40.4584 16.2984 40.5505 16.2245C40.5895 16.1878 40.6201 16.143 40.64 16.0933C40.66 16.0436 40.6689 15.9901 40.6661 15.9366C40.6694 15.8829 40.6616 15.8291 40.6432 15.7785C40.6248 15.7279 40.5962 15.6816 40.5591 15.6426C40.4687 15.5673 40.3531 15.529 40.2356 15.5356H39.8025V16.3291Z" fill="#231815"/>
<path d="M42.0845 15.2047L42.7685 17.0181L43.45 15.2047H43.9815V17.5705H43.5718V16.7905L43.6124 15.7473L42.9136 17.5705H42.6196L41.9196 15.7473L41.9602 16.7893V17.5693H41.5518V15.2047H42.0845Z" fill="#231815"/>
<path d="M46.2788 15.2047V16.7856C46.2834 16.8969 46.2638 17.0079 46.2213 17.1109C46.1788 17.214 46.1145 17.3065 46.0327 17.3823C45.8479 17.5238 45.6215 17.6005 45.3887 17.6005C45.1559 17.6005 44.9295 17.5238 44.7447 17.3823C44.6638 17.3049 44.6006 17.211 44.5594 17.107C44.5182 17.0029 44.5 16.8912 44.506 16.7794V15.2047H44.9157V16.7868C44.9071 16.9189 44.9514 17.049 45.0387 17.1485C45.0859 17.1926 45.1418 17.2264 45.2028 17.2475C45.2639 17.2687 45.3286 17.2769 45.393 17.2715C45.7092 17.2715 45.8679 17.1055 45.8679 16.7708V15.2047H46.2788Z" fill="#231815"/>
<path d="M47.2117 17.242H48.2857V17.5705H46.8008V15.2047H47.2117V17.242Z" fill="#231815"/>
<path d="M50.0383 17.0193H49.1217L48.9298 17.5705H48.5029L49.3973 15.2047H49.7664L50.662 17.5705H50.2327L50.0383 17.0193ZM49.2374 16.6872H49.9226L49.5806 15.703L49.2374 16.6872Z" fill="#231815"/>
</svg>
