<svg width="52" height="13" viewBox="0 0 52 13" fill="none" xmlns="http://www.w3.org/2000/svg">
<path d="M11.1731 2.34622C10.5827 1.7903 9.88825 1.35666 9.12961 1.07027C8.29452 0.756608 7.40838 0.600981 6.51639 0.611323H1.99023V2.53613H6.50056C7.09349 2.52881 7.68236 2.6349 8.23545 2.84868C8.7315 3.04383 9.183 3.3372 9.56284 3.71119C9.93249 4.08722 10.2213 4.5349 10.4115 5.0267C10.6163 5.55379 10.719 6.11502 10.7142 6.68049V6.71609C10.7197 7.27905 10.617 7.83783 10.4115 8.36197C10.2198 8.85064 9.93107 9.29544 9.56284 9.66957C9.18467 10.0432 8.73253 10.3336 8.23545 10.5222C7.68105 10.7304 7.09275 10.8337 6.50056 10.8268H4.11484V10.815H1.99814V12.7536H6.5243C7.41446 12.7601 8.29802 12.6004 9.12961 12.2828C9.88777 11.99 10.5818 11.5526 11.1731 10.995C11.7464 10.4538 12.1994 9.79797 12.5025 9.07017C12.8188 8.31208 12.9789 7.49795 12.9733 6.67653V6.6429C12.9778 5.82798 12.8176 5.02055 12.5025 4.26904C12.198 3.54258 11.7452 2.88767 11.1731 2.34622Z" fill="#F08F5B"/>
<path d="M4.12307 5.66961V4.01978H4.10724H1.99846V5.66961H1.99055H0.348633V7.79223H1.99055H1.99846V9.44404H4.10724H4.12307V7.79223H5.77488V5.66961H4.12307Z" fill="#F08F5B"/>
<path d="M23.8105 3.19482H22.04V12.7536H27.5256V10.8802H23.8105V3.19482Z" fill="#F08F5B"/>
<path d="M28.3838 7.80411C28.13 8.31566 27.998 8.87896 27.998 9.44998C27.9979 10.0119 28.1272 10.5663 28.3759 11.0701C28.6188 11.5805 29.0025 12.0108 29.4817 12.3105C29.8845 12.5702 30.3478 12.721 30.8263 12.748C31.3048 12.7751 31.7822 12.6775 32.2117 12.4648L32.4293 12.3599V12.6784H33.9861V6.21165H32.4372V6.53014L32.2057 6.42727C31.8254 6.23718 31.4063 6.13765 30.9812 6.13647C30.4556 6.13807 29.941 6.28677 29.4956 6.56575C29.014 6.86352 28.6281 7.29335 28.3838 7.80411ZM29.8516 8.5954C29.966 8.34842 30.1522 8.14162 30.3858 8.00193C30.5936 7.86487 30.8371 7.79181 31.086 7.79181C31.335 7.79181 31.5785 7.86487 31.7863 8.00193C32.0209 8.14167 32.2082 8.34835 32.3244 8.5954C32.4571 8.86622 32.5248 9.16424 32.5222 9.46581C32.5237 9.76029 32.4559 10.051 32.3244 10.3145C32.2071 10.5644 32.0203 10.7753 31.7863 10.9218C31.5787 11.0624 31.3338 11.1375 31.0831 11.1375C30.8324 11.1375 30.5874 11.0624 30.3798 10.9218C30.1465 10.7713 29.9612 10.5571 29.8457 10.3046C29.7157 10.0412 29.648 9.75156 29.6479 9.4579C29.6494 9.15802 29.7191 8.86241 29.8516 8.59342V8.5954Z" fill="#F08F5B"/>
<path d="M38.3724 8.0118L38.8313 8.23929L39.8086 7.1493L39.5692 6.88026C39.4381 6.75607 39.2903 6.65086 39.1301 6.5677C38.6838 6.29055 38.1697 6.142 37.6444 6.13843C37.1202 6.14087 36.6071 6.28953 36.1627 6.5677C35.6804 6.86488 35.2933 7.2939 35.047 7.80408C34.7924 8.31118 34.659 8.87048 34.6572 9.43791C34.6555 10.0054 34.7856 10.5654 35.0371 11.0741C35.2787 11.583 35.6611 12.0121 36.139 12.3105C36.5893 12.6005 37.1137 12.7548 37.6494 12.7548C38.185 12.7548 38.7094 12.6005 39.1597 12.3105C39.3034 12.2362 39.4364 12.143 39.5554 12.0335L39.7908 11.7664L38.8353 10.6923L38.3328 10.9316C38.1276 11.0678 37.8868 11.1405 37.6405 11.1405C37.3941 11.1405 37.1533 11.0678 36.9481 10.9316C36.7165 10.7825 36.5315 10.5714 36.414 10.3224C36.2831 10.0586 36.2153 9.7681 36.2161 9.4737C36.2131 9.17145 36.2809 8.87268 36.414 8.60131C36.5281 8.35481 36.7135 8.14812 36.9461 8.00784C37.4407 7.69726 37.8442 7.7032 38.3724 8.0118Z" fill="#F08F5B"/>
<path d="M43.8778 10.9574C43.7318 11.0562 43.5596 11.109 43.3833 11.109C43.207 11.109 43.0347 11.0562 42.8887 10.9574C42.7225 10.8521 42.5894 10.7019 42.5049 10.5241C42.4049 10.3288 42.3527 10.1125 42.3526 9.89309V7.9307H44.04V6.29868H42.3526V4.38574H40.8076V9.90892C40.8083 10.3984 40.922 10.8811 41.14 11.3194C41.3532 11.7608 41.6881 12.1322 42.1053 12.3896C42.487 12.6334 42.9304 12.7629 43.3833 12.7629C43.8361 12.7629 44.2795 12.6334 44.6612 12.3896C44.837 12.304 44.9963 12.1881 45.132 12.0474L45.3496 11.7783L44.4179 10.7002L43.8778 10.9574Z" fill="#F08F5B"/>
<path d="M51.6179 7.80211C51.3694 7.29221 50.981 6.86343 50.4982 6.56573C50.054 6.28585 49.5396 6.13733 49.0145 6.13733C48.4895 6.13733 47.9751 6.28585 47.5309 6.56573C47.0483 6.86344 46.6611 7.29318 46.4152 7.80409C46.1574 8.31459 46.0219 8.87808 46.0195 9.44997C46.0189 10.0128 46.1489 10.5681 46.3993 11.0721C46.6421 11.5814 47.025 12.011 47.5032 12.3105C47.9522 12.5992 48.4748 12.7527 49.0086 12.7527C49.5424 12.7527 50.065 12.5992 50.514 12.3105C50.9917 12.0096 51.3745 11.5795 51.6179 11.0701C51.8709 10.5622 52.0016 10.0022 51.9996 9.43471C51.9975 8.86727 51.8627 8.30817 51.606 7.80211H51.6179ZM50.2608 10.3144C50.1434 10.5636 49.9583 10.7747 49.7267 10.9237C49.5175 11.0631 49.2718 11.1374 49.0205 11.1374C48.7692 11.1374 48.5234 11.0631 48.3143 10.9237C48.0806 10.7733 47.8958 10.5581 47.7821 10.3046C47.65 10.042 47.5822 9.7518 47.5843 9.45788C47.5811 9.15561 47.6489 8.85681 47.7821 8.58549C47.897 8.33885 48.083 8.13219 48.3162 7.99202C48.5247 7.85552 48.7684 7.7828 49.0175 7.7828C49.2667 7.7828 49.5104 7.85552 49.7188 7.99202C49.9512 8.13311 50.137 8.33952 50.2529 8.58549C50.3902 8.85444 50.462 9.15198 50.4626 9.45392C50.4658 9.75285 50.3966 10.0481 50.2608 10.3144Z" fill="#F08F5B"/>
<path d="M18.7183 6.74378C18.5768 6.6079 18.4154 6.49448 18.2395 6.40749C17.8124 6.14551 17.3259 5.99596 16.8254 5.97278C16.3248 5.9496 15.8266 6.05356 15.3771 6.27494V6.03954H13.8281V12.7536H15.3771V9.41635C15.3734 9.13237 15.4415 8.85205 15.5749 8.60133C15.6764 8.37664 15.8432 8.18775 16.0536 8.05929C16.5225 7.78037 16.8548 7.77641 17.3751 8.08105L17.925 8.34416L19.0308 7.09986L18.7183 6.74378Z" fill="#F08F5B"/>
</svg>
