<svg width="62" height="62" viewBox="0 0 62 62" fill="none" xmlns="http://www.w3.org/2000/svg">
<g clip-path="url(#clip0_586_653)">
<path d="M34.4002 48.74V37.8C34.4002 37.8 22.9302 44.47 18.9302 45.54C14.9302 46.61 10.3902 47.94 7.99022 36.74C5.59022 25.53 9.06022 16.46 18.1302 14.86C27.2002 13.26 36.0002 13.79 35.4702 24.46" stroke="#3A3A3A" stroke-width="2.5" stroke-linecap="round" stroke-linejoin="round"/>
<path d="M39.4709 47.67V35.13C39.4709 35.13 56.8809 22.8 54.7409 15.86C54.7409 15.86 55.0409 11.2 38.4009 14.33L35.7109 15.21" stroke="#3A3A3A" stroke-width="2.5" stroke-linecap="round" stroke-linejoin="round"/>
<path d="M13.5098 29.13C13.5098 28.76 13.5198 28.39 13.5498 28.02C13.5598 27.82 13.5798 27.62 13.5998 27.43C13.6098 27.31 13.6398 27.14 13.5998 27.36C13.6098 27.26 13.6298 27.15 13.6498 27.05C13.7898 26.17 14.0198 25.31 14.3498 24.48C14.3798 24.4 14.3798 24.41 14.3298 24.52C14.3498 24.47 14.3798 24.42 14.3998 24.37C14.4498 24.27 14.4998 24.17 14.5498 24.07C14.6498 23.87 14.7598 23.67 14.8798 23.48C14.9998 23.29 15.1298 23.1 15.2598 22.91C15.3098 22.84 15.2998 22.85 15.2398 22.93C15.2798 22.88 15.3098 22.84 15.3498 22.8C15.4198 22.71 15.4998 22.62 15.5798 22.54C15.7398 22.37 15.8998 22.2 16.0798 22.04C16.1698 21.96 16.2598 21.88 16.3498 21.81C16.4198 21.76 16.4098 21.76 16.3298 21.81C16.3798 21.77 16.4298 21.74 16.4798 21.7C16.6898 21.56 16.8898 21.42 17.1098 21.3C17.2198 21.24 17.3298 21.18 17.4498 21.12C17.4898 21.1 17.8398 20.94 17.6898 21C18.3098 20.74 18.7598 20.17 18.5598 19.46C18.3998 18.87 17.6498 18.33 17.0198 18.59C14.8198 19.49 13.1198 21.11 12.1598 23.3C11.3598 25.13 11.0198 27.13 11.0098 29.13C11.0098 30.74 13.5098 30.74 13.5098 29.13V29.13Z" fill="#3A3A3A"/>
</g>
<defs>
<clipPath id="clip0_586_653">
<rect width="50.17" height="37.99" fill="white" transform="translate(6 12)"/>
</clipPath>
</defs>
</svg>
