<svg width="62" height="62" viewBox="0 0 62 62" fill="none" xmlns="http://www.w3.org/2000/svg">
<path d="M30.5605 34.5C38.8448 34.5 45.5605 27.7843 45.5605 19.5C45.5605 11.2157 38.8448 4.5 30.5605 4.5C22.2763 4.5 15.5605 11.2157 15.5605 19.5C15.5605 27.7843 22.2763 34.5 30.5605 34.5Z" stroke="black" stroke-width="2.2" stroke-linecap="round" stroke-linejoin="round"/>
<path d="M30.5605 30.83C36.8179 30.83 41.8905 25.7574 41.8905 19.5C41.8905 13.2426 36.8179 8.17 30.5605 8.17C24.3031 8.17 19.2305 13.2426 19.2305 19.5C19.2305 25.7574 24.3031 30.83 30.5605 30.83Z" stroke="black" stroke-width="2" stroke-linecap="round" stroke-linejoin="round"/>
<path d="M45.5605 44C45.5605 49.06 38.8405 53.17 30.5605 53.17C22.2805 53.17 15.5605 49.06 15.5605 44C15.5605 38.94 22.2705 34.83 30.5605 34.83C38.8505 34.83 45.5605 38.93 45.5605 44Z" stroke="black" stroke-width="2.2" stroke-linecap="round" stroke-linejoin="round"/>
<path d="M45.5 44.17V50.2C45.5 53.85 37.17 57.66 30.57 57.66C24.37 57.66 15.5 54.6 15.5 50.86V44.8" stroke="black" stroke-width="2.2" stroke-linecap="round" stroke-linejoin="round"/>
<path d="M20.5605 24.33L32.7105 13.49" stroke="black" stroke-width="2.2" stroke-linecap="round" stroke-linejoin="round"/>
<path d="M35.9492 16.55L39.5592 13.33" stroke="black" stroke-width="2.2" stroke-linecap="round" stroke-linejoin="round"/>
<path d="M23.3105 27.83L31.2405 20.76" stroke="black" stroke-width="2.2" stroke-linecap="round" stroke-linejoin="round"/>
</svg>
