<svg width="62" height="62" viewBox="0 0 62 62" fill="none" xmlns="http://www.w3.org/2000/svg">
<g clip-path="url(#clip0_586_691)">
<path d="M11.3818 52.18L9.97266 50.3193C16.0607 45.7183 16.9949 40.7825 17.0027 40.728C17.0727 40.3232 17.353 39.9807 17.7345 39.8405C18.1237 39.6926 18.5519 39.7627 18.8711 40.0118C27.1 46.5046 36.3176 47.143 42.6003 46.5358C45.2861 46.2788 47.5283 44.3326 48.1822 41.7012C51.5221 28.1706 48.2056 17.3959 47.1079 14.4142C47.0378 14.2196 46.8821 14.0716 46.6797 14.0094L41.6583 12.3745C41.378 12.2811 41.0744 12.3745 40.9031 12.6158L38.2873 16.1658C38.1004 16.4228 38.1549 16.6875 38.1939 16.7887C38.225 16.8899 38.3418 17.1312 38.6532 17.2246L44.4687 18.9062C44.8657 19.023 45.1772 19.3422 45.2784 19.747C45.3796 20.1518 45.2628 20.58 44.9592 20.8681C42.3434 23.4216 42.0164 30.6618 42.102 33.2387C42.1176 33.737 41.8217 34.1885 41.3546 34.3676C40.8875 34.5466 40.3659 34.4143 40.0389 34.0328C34.6516 27.6645 23.4176 29.2605 23.3009 29.2683C22.787 29.3461 22.2888 29.0736 22.0708 28.6143C18.0614 20.0818 10.9536 21.2418 10.8835 21.2496L10.4709 18.9529C10.5565 18.9374 18.9645 17.5594 23.8147 26.8549C26.4149 26.6057 34.3091 26.2788 39.8054 30.5762C39.9455 27.7969 40.4516 23.515 42.1721 20.6735L37.9992 19.4668C37.0494 19.1943 36.2943 18.4703 35.9829 17.536C35.6715 16.6018 35.8272 15.5742 36.4111 14.7801L39.0269 11.2301C39.7976 10.1791 41.1522 9.75087 42.3901 10.1479L47.4115 11.7828C48.299 12.0709 48.9919 12.7326 49.3111 13.6045C50.4633 16.7419 53.9588 28.0849 50.4555 42.2617C49.568 45.8584 46.5084 48.5054 42.8338 48.8635C37.61 49.3773 27.754 49.2061 18.7932 42.8612C17.9914 44.9709 16.0217 48.6689 11.3818 52.18Z" fill="black"/>
<path d="M35.4996 40.5256C28.851 40.2376 22.8331 34.57 22.584 34.3286L24.1955 32.6393C24.25 32.6937 29.8398 37.9409 35.6008 38.1979L35.4996 40.5334V40.5256Z" fill="black"/>
</g>
<defs>
<clipPath id="clip0_586_691">
<rect width="41.9932" height="42.18" fill="white" transform="translate(9.97266 10)"/>
</clipPath>
</defs>
</svg>
