<svg width="62" height="62" viewBox="0 0 62 62" fill="none" xmlns="http://www.w3.org/2000/svg">
<path d="M41.0421 48.1292C41.5366 49.6479 41.1834 51.661 41.1834 53.2503C41.1834 54.3805 39.4175 54.3805 39.4175 53.2503C39.4175 51.4138 40.1238 48.3411 37.7928 47.8466C35.7797 47.4228 33.2015 47.8466 31.1177 47.8466C27.1621 47.8466 23.1712 48.0232 19.2509 47.8466C13.1056 47.5641 10.9158 39.3703 16.0369 36.4389C15.825 36.333 15.6484 36.1917 15.4365 36.0504C11.6928 33.1543 12.7171 28.0332 16.1429 25.9495C12.9643 24.0776 11.6575 19.5216 14.7655 16.4489C17.5556 13.6941 22.8533 14.683 26.3851 14.683C27.4447 14.683 30.3761 15.2481 30.7999 14.012C31.0824 13.1643 30.7999 11.7163 30.7999 10.8334V8.74959C30.7999 7.61941 32.5658 7.61941 32.5658 8.74959C32.5658 11.681 33.6606 16.3783 29.5637 16.4489C26.0673 16.5196 22.5708 16.2723 19.1096 16.4489C15.2246 16.6608 13.1409 21.4288 16.3548 24.0423C17.3084 24.8193 18.3326 24.9606 19.4275 24.9959C26.1732 24.7133 32.9896 24.9959 39.7353 24.9959H40.8302C41.9604 24.9959 41.9604 26.7618 40.8302 26.7618H29.4931C26.2085 26.7618 22.8886 26.8677 19.6041 26.7618C17.1318 26.8677 14.8361 28.3511 14.8361 31.1412C14.8361 33.9313 17.0965 35.4147 19.6041 35.5206C20.2045 35.5206 20.8049 35.5206 21.4053 35.5206H39.806C40.9362 35.5206 40.9362 37.2865 39.806 37.2865H25.926C23.9835 37.2865 21.4406 37.6044 19.1803 37.3219C18.0854 37.3925 17.0612 37.675 16.1782 38.558C13.1762 41.56 15.825 45.9041 19.6041 46.0454C21.1934 46.0807 22.7827 46.0454 24.3367 46.0454C28.7161 46.0454 33.0956 45.9748 37.5103 46.0454C39.0643 46.0454 40.5123 46.4339 41.0774 48.0939L41.0421 48.1292ZM44.0441 42.443C49.1652 40.5711 49.2006 33.2956 44.5739 31.1059C48.4589 28.2451 47.6113 21.3934 42.4195 20.1573C40.4417 19.6982 38.2167 19.7335 36.0269 19.8394C37.1571 18.674 37.8635 17.0493 37.9694 15.2834C38.0754 13.0937 37.9694 10.904 37.9694 8.71427C37.9694 7.58409 36.2035 7.58409 36.2035 8.71427C36.2035 12.5639 37.4043 19.9454 31.5416 19.9454H20.4164C19.2862 19.9454 19.2862 21.7113 20.4164 21.7113H39.6294C41.254 21.7113 42.808 21.7113 44.0795 22.9827C46.693 25.6316 44.9624 29.6579 41.7131 30.3642C39.029 30.0817 36.0269 30.4702 33.4487 30.4702H21.4053C20.2751 30.4702 20.2751 32.2361 21.4053 32.2361H38.8524C39.5587 32.2361 40.2651 32.2361 40.9362 32.2361C42.4195 32.2361 43.8675 32.342 45.033 33.5075C47.8585 36.333 45.5981 40.783 41.8897 40.9949C38.8877 41.1362 35.8504 40.9949 32.8836 40.9949H22.924C21.7938 40.9949 21.7938 42.7608 22.924 42.7608H39.806C39.806 42.7608 40.1238 42.9374 40.3711 42.9374C45.9513 42.9374 45.033 49.4359 45.033 53.1797C45.033 54.3098 46.7989 54.3098 46.7989 53.1797C46.7989 51.0959 46.9755 48.9415 46.7636 46.8931C46.5517 45.0565 45.5275 43.4319 44.0795 42.3723L44.0441 42.443Z" fill="black"/>
</svg>
