<svg width="62" height="62" viewBox="0 0 62 62" fill="none" xmlns="http://www.w3.org/2000/svg">
<g clip-path="url(#clip0_584_1929)">
<path d="M20.4318 32.8071C12.3675 32.8071 5.82031 37.2783 5.82031 42.8275C5.82031 48.3767 12.3675 52.8479 20.4318 52.8479C28.496 52.8479 35.0432 48.3767 35.0432 42.8275C35.0432 37.2783 28.496 32.8071 20.4318 32.8071ZM20.4318 50.8119C13.4853 50.8119 7.81641 47.2189 7.81641 42.8275C7.81641 38.4361 13.4853 34.8431 20.4318 34.8431C27.3782 34.8431 33.0471 38.4361 33.0471 42.8275C33.0471 47.2189 27.3782 50.8119 20.4318 50.8119ZM30.4123 46.181C24.424 49.8937 17.1582 49.8937 11.1699 46.181C10.092 45.5023 11.09 43.7856 12.1679 44.4643C17.5574 47.8178 24.0247 47.8178 29.4142 44.4643C30.4921 43.7856 31.5301 45.5023 30.4123 46.181ZM56.8406 17.1976C55.7228 11.8081 48.3772 8.73412 40.4726 10.3709C32.5681 12.0077 27.0588 17.7166 28.1766 23.146C29.0948 27.5773 34.1649 30.4118 40.3129 30.4118C41.6703 30.4118 43.1075 30.2521 44.5447 29.9726C52.4492 28.3358 57.9584 22.627 56.8406 17.1976ZM44.1454 28.0164C37.3188 29.4137 31.051 27.0583 30.1727 22.7467C29.2944 18.4352 34.0851 13.7643 40.9118 12.367C42.2691 12.0876 43.5865 11.9678 44.8241 11.9678C49.974 11.9678 54.1659 14.1635 54.8844 17.6367C55.7627 21.9483 50.9721 26.6192 44.1454 28.0164ZM52.9682 21.4692C47.8582 26.3397 40.7121 27.8168 34.125 25.3816C32.9274 24.9424 33.5661 23.0262 34.7638 23.4653C40.7521 25.661 47.0597 24.3436 51.6508 19.9522C52.569 19.0739 53.9263 20.551 53.0081 21.4293L52.9682 21.4692ZM16.5593 28.2161C18.5554 28.2161 20.1523 26.6192 20.1523 24.6231C20.1523 22.627 18.5554 21.0301 16.5593 21.0301C14.5632 21.0301 12.9664 22.627 12.9664 24.6231C12.9664 26.6192 14.5632 28.2161 16.5593 28.2161ZM16.5593 23.0661C17.4376 23.0661 18.1562 23.7847 18.1562 24.663C18.1562 25.5413 17.4376 26.2599 16.5593 26.2599C15.681 26.2599 14.9625 25.5413 14.9625 24.663C14.9625 23.7847 15.681 23.0661 16.5593 23.0661ZM43.3869 39.7535C40.8718 39.7535 38.8358 41.7895 38.8358 44.3046C38.8358 46.8197 40.8718 48.8557 43.3869 48.8557C45.902 48.8557 47.938 46.8197 47.938 44.3046C47.938 41.7895 45.902 39.7535 43.3869 39.7535ZM43.3869 46.8596C41.9896 46.8596 40.8319 45.7019 40.8319 44.3046C40.8319 42.9073 41.9896 41.7496 43.3869 41.7496C44.7842 41.7496 45.9419 42.9073 45.9419 44.3046C45.9419 45.7019 44.7842 46.8596 43.3869 46.8596Z" fill="black"/>
</g>
<defs>
<clipPath id="clip0_584_1929">
<rect width="51.18" height="42.8762" fill="white" transform="translate(5.82031 9.93188)"/>
</clipPath>
</defs>
</svg>
