<svg width="62" height="62" viewBox="0 0 62 62" fill="none" xmlns="http://www.w3.org/2000/svg">
<g clip-path="url(#clip0_584_1923)">
<path d="M55.08 31.2373C55.08 31.2373 45.48 45.7173 31.16 45.7173C16.84 45.7173 7.25 31.2373 7.25 31.2373C7.25 31.2373 16.85 16.7573 31.17 16.7573C45.49 16.7573 55.09 31.2373 55.09 31.2373H55.08Z" stroke="#3A3A3A" stroke-width="2.5" stroke-linecap="round" stroke-linejoin="round"/>
<path d="M41.6904 31.2372C41.6904 37.0472 36.9804 41.7572 31.1704 41.7572C25.3604 41.7572 20.6504 37.0472 20.6504 31.2372C20.6504 25.4272 25.3604 20.7172 31.1704 20.7172C36.9804 20.7172 41.6904 25.4272 41.6904 31.2372Z" stroke="#3A3A3A" stroke-width="2.5" stroke-linecap="round" stroke-linejoin="round"/>
<path d="M35.0609 30.9872C35.0609 32.8272 33.5609 34.3272 31.7209 34.3272C29.8809 34.3272 28.3809 32.8272 28.3809 30.9872C28.3809 29.1472 29.8809 27.6472 31.7209 27.6472C33.5609 27.6472 35.0609 29.1372 35.0609 30.9872Z" fill="#3A3A3A"/>
</g>
<defs>
<clipPath id="clip0_584_1923">
<rect width="50.33" height="35.99" fill="white" transform="translate(6 10.9872)"/>
</clipPath>
</defs>
</svg>
