<svg width="62" height="62" viewBox="0 0 62 62" fill="none" xmlns="http://www.w3.org/2000/svg">
<g clip-path="url(#clip0_586_659)">
<path d="M26.0853 8.62784C26.0763 10.1076 26.2658 13.058 25.7876 14.664C25.2913 16.3242 23.956 17.461 22.9274 18.8325C21.2041 21.1242 20.0582 26.0055 23.6402 27.8642C25.9049 29.0371 27.7996 28.577 29.532 26.583C29.532 26.583 31.12 25.5905 32.0403 26.583C33.8358 28.5228 35.6764 29.0371 37.9321 27.8642C41.5141 25.9965 40.3682 21.1242 38.6449 18.8325C37.6163 17.4701 36.281 16.3242 35.7847 14.664C35.3065 13.058 35.496 10.1076 35.487 8.62784" stroke="#3A3A3A" stroke-width="2.25567" stroke-linecap="round" stroke-linejoin="round"/>
<path d="M26.0853 52.5322C26.0763 51.0525 26.2658 48.1021 25.7876 46.496C25.2913 44.8358 23.956 43.699 22.9274 42.3275C21.2041 40.0358 20.0582 35.1545 23.6402 33.2958C25.9049 32.1229 27.7996 32.5831 29.532 34.5771C29.532 34.5771 31.12 35.5696 32.0403 34.5771C33.8358 32.6372 35.6764 32.1229 37.9321 33.2958C41.5141 35.1635 40.3682 40.0358 38.6449 42.3275C37.6163 43.69 36.281 44.8358 35.7847 46.496C35.3065 48.1021 35.496 51.0525 35.487 52.5322" stroke="#3A3A3A" stroke-width="2.25567" stroke-linecap="round" stroke-linejoin="round"/>
<path d="M13.5359 24.4085C11.7765 27.6386 11.4246 31.5454 13.2201 34.8387C13.9148 36.1109 15.8637 34.974 15.169 33.7018C13.7705 31.1304 14.1224 28.0537 15.4848 25.5453C16.1795 24.2732 14.2306 23.1273 13.5359 24.4085Z" fill="#3A3A3A"/>
<path d="M17.2975 26.5739C16.2689 28.4597 16.0794 30.7334 17.1261 32.6642C17.4058 33.1875 18.1637 33.3951 18.669 33.0702C19.1923 32.7274 19.3727 32.0778 19.075 31.5274C19.0208 31.4281 18.9757 31.3289 18.9216 31.2296C18.8675 31.1123 18.8765 31.1304 18.9396 31.2747C18.9216 31.2206 18.9035 31.1755 18.8855 31.1214C18.8223 30.9409 18.7682 30.7604 18.7321 30.571C18.7231 30.5168 18.7141 30.4627 18.705 30.4086C18.687 30.2822 18.687 30.3003 18.705 30.4717C18.678 30.3995 18.687 30.3003 18.678 30.2281C18.6599 30.0296 18.6599 29.8221 18.678 29.6236C18.678 29.5243 18.696 29.4341 18.696 29.3349C18.7141 29.2085 18.705 29.2266 18.687 29.389C18.687 29.3349 18.705 29.2807 18.7141 29.2266C18.7502 29.0371 18.7953 28.8476 18.8494 28.6672C18.8945 28.4958 18.9396 28.2702 19.0389 28.1168C18.8765 28.3694 19.066 28.0717 19.093 28.0085C19.1381 27.9093 19.1923 27.81 19.2464 27.7108C19.5261 27.1965 19.3908 26.4566 18.8404 26.1679C18.29 25.8792 17.5953 26.0235 17.2975 26.5739Z" fill="#3A3A3A"/>
<path d="M46.0536 25.5454C47.4251 28.0446 47.7679 31.1304 46.3694 33.7018C45.6747 34.974 47.6236 36.1199 48.3183 34.8387C50.1048 31.5454 49.762 27.6296 48.0025 24.4085C47.3078 23.1363 45.3589 24.2732 46.0536 25.5454Z" fill="#3A3A3A"/>
<path d="M42.2822 27.7198C42.3363 27.8191 42.3905 27.9183 42.4356 28.0176C42.4626 28.0717 42.4807 28.1168 42.5077 28.1709C42.5619 28.2882 42.5529 28.2702 42.4897 28.1349C42.4717 28.1439 42.6702 28.6401 42.6792 28.6852C42.7333 28.8657 42.7784 29.0552 42.8145 29.2446C42.8235 29.2988 42.8326 29.3529 42.8416 29.4071C42.8235 29.2446 42.8145 29.2266 42.8326 29.3529C42.8326 29.4522 42.8506 29.5424 42.8506 29.6416C42.8596 29.8401 42.8506 30.0477 42.8506 30.2462C42.8506 30.3274 42.8235 30.4086 42.8235 30.4898C42.8235 30.183 42.8235 30.4898 42.7965 30.589C42.7604 30.7785 42.7062 30.959 42.6431 31.1394C42.625 31.1935 42.607 31.2387 42.5889 31.2928C42.6521 31.1484 42.6611 31.1394 42.607 31.2477C42.5619 31.3469 42.5077 31.4462 42.4536 31.5454C42.1739 32.0597 42.3092 32.7996 42.8596 33.0883C43.41 33.377 44.1048 33.2417 44.4025 32.6823C45.4491 30.7605 45.2597 28.4867 44.2311 26.592C43.9514 26.0777 43.1935 25.8611 42.6882 26.186C42.1829 26.5108 41.9844 27.1785 42.2822 27.7288V27.7198Z" fill="#3A3A3A"/>
</g>
<defs>
<clipPath id="clip0_586_659">
<rect width="37.4712" height="46.16" fill="white" transform="translate(12.0293 7.5)"/>
</clipPath>
</defs>
</svg>
