<svg width="62" height="62" viewBox="0 0 62 62" fill="none" xmlns="http://www.w3.org/2000/svg">
<g clip-path="url(#clip0_586_672)">
<path d="M17.4667 22.1757H19.7075V28.8826H17.4667C16.1995 28.8826 15.1641 27.8549 15.1641 26.58V24.4706C15.1641 23.2033 16.1917 22.1679 17.4667 22.1679V22.1757Z" fill="white" stroke="black" stroke-width="1.93173" stroke-linecap="round" stroke-linejoin="round"/>
<path d="M44.8439 28.8826H42.6031V22.1756H44.8439C46.1111 22.1756 47.1465 23.2033 47.1465 24.4783V26.5877C47.1465 27.8549 46.1188 28.8903 44.8439 28.8903V28.8826Z" fill="white" stroke="black" stroke-width="1.93173" stroke-linecap="round" stroke-linejoin="round"/>
<path d="M35.1708 38.4021H27.1426V44.5759H35.1708V38.4021Z" fill="white" stroke="black" stroke-width="1.93173" stroke-linecap="round" stroke-linejoin="round"/>
<path d="M42.6038 20.3444V29.4312C42.6038 30.9148 42.287 32.3211 41.7152 33.5883C40.1235 37.1581 36.5459 39.6384 32.3888 39.6384H29.924C29.6921 39.6384 29.4681 39.6384 29.244 39.6075C29.159 39.6075 29.0663 39.5998 28.9813 39.5921C28.8035 39.5766 28.6258 39.5612 28.4558 39.5303C28.4172 39.5303 28.3708 39.5225 28.3322 39.5071C28.1236 39.4839 27.9227 39.4453 27.7218 39.3989C27.6754 39.3989 27.6368 39.3834 27.6059 39.368C27.4513 39.3371 27.3045 39.2985 27.1577 39.2521C27.0418 39.2289 26.9336 39.1903 26.8255 39.1594C26.4546 39.0357 26.0914 38.8967 25.7437 38.7421C25.566 38.6648 25.3883 38.5798 25.2183 38.4871C25.2183 38.4871 25.2028 38.4794 25.1951 38.4717C25.0174 38.3867 24.8474 38.2862 24.6851 38.1858C24.1751 37.8844 23.6883 37.5367 23.2402 37.1426C23.0934 37.0113 22.9466 36.8799 22.8075 36.7408C22.6684 36.6018 22.5293 36.4627 22.3979 36.3159C22.2666 36.1691 22.1352 36.0222 22.0116 35.8677C21.888 35.7132 21.7643 35.5586 21.6484 35.3964C21.2312 34.8323 20.8835 34.2296 20.5976 33.5883C20.0258 32.3211 19.709 30.9148 19.709 29.4312V20.3444C19.709 19.6412 19.7785 18.9612 19.9176 18.3045C19.9176 18.289 19.9253 18.2658 19.9331 18.2504C19.964 18.0881 20.0026 17.9258 20.049 17.7636C21.1848 13.367 25.1796 10.1371 29.924 10.1371H32.3888C34.6142 10.1371 36.6773 10.848 38.354 12.0688C38.8408 12.4088 39.2967 12.8029 39.7062 13.2279C39.9844 13.5138 40.2471 13.8074 40.4789 14.1242C40.6025 14.2787 40.7184 14.441 40.8266 14.6033C40.9425 14.7655 41.0507 14.9355 41.1511 15.1055C41.2593 15.291 41.3675 15.4764 41.4679 15.6696C41.5529 15.8318 41.6302 15.9941 41.7075 16.1641L41.7307 16.2105C41.8002 16.3727 41.8697 16.5427 41.9393 16.7204C41.9779 16.8209 42.0166 16.9291 42.0552 17.0372C42.1325 17.2768 42.2097 17.5163 42.2638 17.7636C42.3102 17.9258 42.3488 18.0881 42.3797 18.2504C42.3874 18.2658 42.3952 18.289 42.3952 18.3045C42.4184 18.4281 42.4415 18.544 42.4647 18.6676C42.4802 18.7603 42.4956 18.8531 42.5033 18.9535C42.5729 19.4094 42.6038 19.873 42.6038 20.3444Z" fill="white" stroke="black" stroke-width="1.93173" stroke-linecap="round" stroke-linejoin="round"/>
<path d="M33.3995 31.162C33.3995 32.0429 32.6886 32.7538 31.8077 32.7538H30.5019C29.621 32.7538 28.9102 32.0429 28.9102 31.162" fill="white"/>
<path d="M33.3995 31.162C33.3995 32.0429 32.6886 32.7538 31.8077 32.7538H30.5019C29.621 32.7538 28.9102 32.0429 28.9102 31.162" stroke="black" stroke-width="1.93173" stroke-linecap="round" stroke-linejoin="round"/>
<path d="M21.0444 44.576H41.258C44.596 44.576 47.3004 47.2804 47.3004 50.6184V53.6242H15.002V50.6184C15.002 47.2804 17.7064 44.576 21.0444 44.576Z" fill="white" stroke="black" stroke-width="1.93173" stroke-linecap="round" stroke-linejoin="round"/>
<path d="M25.3723 7.96588H37.3722V8.77721C37.3722 13.5833 33.4701 17.4854 28.6639 17.4854H16.6641V16.6741C16.6641 11.868 20.5661 7.96588 25.3723 7.96588Z" fill="white" stroke="black" stroke-width="1.93173" stroke-linecap="round" stroke-linejoin="round"/>
<path d="M37.3789 7.96588C41.3737 7.96588 44.619 11.2112 44.619 15.206V17.4854C40.6242 17.4854 37.3789 14.2401 37.3789 10.2453V7.96588Z" fill="white" stroke="black" stroke-width="1.93173" stroke-linecap="round" stroke-linejoin="round"/>
<path d="M35.57 23.8138C35.57 24.4087 35.0909 24.8878 34.4959 24.8878C33.9009 24.8878 33.4219 24.4087 33.4219 23.8138" stroke="black" stroke-width="1.93173" stroke-linecap="round" stroke-linejoin="round"/>
<path d="M26.7383 23.8138C26.7383 24.4087 27.2173 24.8878 27.8123 24.8878C28.4073 24.8878 28.8864 24.4087 28.8864 23.8138" stroke="black" stroke-width="1.93173" stroke-linecap="round" stroke-linejoin="round"/>
</g>
<defs>
<clipPath id="clip0_586_672">
<rect width="34.2379" height="47.59" fill="white" transform="translate(14.0371 7)"/>
</clipPath>
</defs>
</svg>
