<svg width="62" height="62" viewBox="0 0 62 62" fill="none" xmlns="http://www.w3.org/2000/svg">
<g clip-path="url(#clip0_586_665)">
<path d="M22.6802 52C22.5902 52 22.5102 51.98 22.4302 51.93L11.9902 45.9C11.8402 45.81 11.7402 45.65 11.7402 45.47V33.42C11.7402 33.24 11.8402 33.08 11.9902 32.99L22.4302 26.96C22.6702 26.82 22.9702 26.9 23.1102 27.14C23.2502 27.38 23.1702 27.68 22.9302 27.82L12.7402 33.7V45.18L22.6802 50.92L32.6202 45.18V38.65C32.6202 38.37 32.8402 38.15 33.1202 38.15C33.4002 38.15 33.6202 38.37 33.6202 38.65V45.47C33.6202 45.65 33.5202 45.81 33.3702 45.9L22.9302 51.93C22.8502 51.97 22.7702 52 22.6802 52Z" fill="black" stroke="black" stroke-miterlimit="10"/>
<path d="M40.5399 38.16C40.3699 38.16 40.1999 38.07 40.1099 37.91C39.9699 37.67 40.0499 37.37 40.2899 37.23L49.8799 31.69C50.1199 31.55 50.4199 31.63 50.5599 31.87C50.6999 32.11 50.6199 32.41 50.3799 32.55L40.7899 38.09C40.7099 38.14 40.6299 38.16 40.5399 38.16Z" fill="black" stroke="black" stroke-miterlimit="10"/>
<path d="M25.4492 29.35C25.1692 29.35 24.9492 29.13 24.9492 28.85V17.91C24.9492 17.63 25.1692 17.41 25.4492 17.41C25.7292 17.41 25.9492 17.63 25.9492 17.91V28.85C25.9492 29.13 25.7292 29.35 25.4492 29.35Z" fill="black" stroke="black" stroke-miterlimit="10"/>
<path d="M50.1599 15.24C50.0799 15.24 49.9899 15.22 49.9099 15.17L40.2899 9.61001C40.0499 9.47001 39.9699 9.17001 40.1099 8.93001C40.2499 8.69001 40.5499 8.61001 40.7899 8.75001L50.4099 14.31C50.6499 14.45 50.7299 14.75 50.5899 14.99C50.4999 15.15 50.3299 15.24 50.1599 15.24Z" fill="black" stroke="black" stroke-miterlimit="10"/>
<path d="M27.2391 15.24C27.0691 15.24 26.8991 15.15 26.8091 14.99C26.6691 14.75 26.7491 14.45 26.9891 14.31L36.6191 8.75001C36.8591 8.61001 37.1591 8.69001 37.2991 8.93001C37.4391 9.17001 37.3591 9.47001 37.1191 9.61001L27.4891 15.17C27.4091 15.22 27.3291 15.24 27.2391 15.24Z" fill="black" stroke="black" stroke-miterlimit="10"/>
<path d="M25.4492 29.43C25.1692 29.43 24.9492 29.21 24.9492 28.93V17.98C24.9492 17.7 25.1692 17.48 25.4492 17.48C25.7292 17.48 25.9492 17.7 25.9492 17.98V28.92C25.9492 29.2 25.7292 29.42 25.4492 29.42V29.43Z" fill="black" stroke="black" stroke-miterlimit="10"/>
<path d="M51.9492 29.43C51.6692 29.43 51.4492 29.21 51.4492 28.93V17.98C51.4492 17.7 51.6692 17.48 51.9492 17.48C52.2292 17.48 52.4492 17.7 52.4492 17.98V28.92C52.4492 29.2 52.2292 29.42 51.9492 29.42V29.43Z" fill="black" stroke="black" stroke-miterlimit="10"/>
<path d="M36.8701 38.16C36.7801 38.16 36.7001 38.14 36.6201 38.09L27.0301 32.55C26.7901 32.41 26.7101 32.11 26.8501 31.87C26.9901 31.63 27.2901 31.55 27.5301 31.69L37.1201 37.23C37.3601 37.37 37.4401 37.67 37.3001 37.91C37.2101 38.07 37.0401 38.16 36.8701 38.16Z" fill="black" stroke="black" stroke-miterlimit="10"/>
<path d="M37.3502 48.42C37.2602 48.42 37.1802 48.4 37.1002 48.35L32.8602 45.91C32.6202 45.77 32.5402 45.47 32.6802 45.23C32.8202 44.99 33.1202 44.91 33.3602 45.05L37.6002 47.49C37.8402 47.63 37.9202 47.93 37.7802 48.17C37.6902 48.33 37.5202 48.42 37.3502 48.42Z" fill="black" stroke="black" stroke-miterlimit="10"/>
<path d="M12.2408 33.92C12.1508 33.92 12.0708 33.9 11.9908 33.85L7.75084 31.41C7.51084 31.27 7.43084 30.97 7.57084 30.73C7.71084 30.49 8.01084 30.41 8.25084 30.55L12.4908 33C12.7308 33.14 12.8108 33.44 12.6708 33.68C12.5808 33.84 12.4108 33.93 12.2408 33.93V33.92Z" fill="black" stroke="black" stroke-miterlimit="10"/>
<path d="M22.6797 27.89C22.3997 27.89 22.1797 27.67 22.1797 27.39V22.5C22.1797 22.22 22.3997 22 22.6797 22C22.9597 22 23.1797 22.22 23.1797 22.5V27.39C23.1797 27.67 22.9597 27.89 22.6797 27.89Z" fill="black" stroke="black" stroke-miterlimit="10"/>
<path d="M22.6797 56.89C22.3997 56.89 22.1797 56.67 22.1797 56.39V51.5C22.1797 51.22 22.3997 51 22.6797 51C22.9597 51 23.1797 51.22 23.1797 51.5V56.39C23.1797 56.67 22.9597 56.89 22.6797 56.89Z" fill="black" stroke="black" stroke-miterlimit="10"/>
<path d="M8.00084 48.42C7.83084 48.42 7.66084 48.33 7.57084 48.17C7.43084 47.93 7.51084 47.63 7.75084 47.49L11.9908 45.04C12.2308 44.9 12.5308 44.98 12.6708 45.22C12.8108 45.46 12.7308 45.76 12.4908 45.9L8.25084 48.35C8.17084 48.4 8.09084 48.42 8.00084 48.42Z" fill="black" stroke="black" stroke-miterlimit="10"/>
<path d="M38.7001 41.34C37.2601 41.34 36.0801 40.16 36.0801 38.72C36.0801 37.28 37.2601 36.1 38.7001 36.1C40.1401 36.1 41.3201 37.28 41.3201 38.72C41.3201 40.16 40.1401 41.34 38.7001 41.34ZM38.7001 37.1C37.8101 37.1 37.0801 37.83 37.0801 38.72C37.0801 39.61 37.8101 40.34 38.7001 40.34C39.5901 40.34 40.3201 39.61 40.3201 38.72C40.3201 37.83 39.5901 37.1 38.7001 37.1Z" fill="black" stroke="black" stroke-miterlimit="10"/>
<path d="M38.7001 10.74C37.2601 10.74 36.0801 9.56 36.0801 8.12C36.0801 6.68 37.2601 5.5 38.7001 5.5C40.1401 5.5 41.3201 6.68 41.3201 8.12C41.3201 9.56 40.1401 10.74 38.7001 10.74ZM38.7001 6.5C37.8101 6.5 37.0801 7.23 37.0801 8.12C37.0801 9.01 37.8101 9.74 38.7001 9.74C39.5901 9.74 40.3201 9.01 40.3201 8.12C40.3201 7.23 39.5901 6.5 38.7001 6.5Z" fill="black" stroke="black" stroke-miterlimit="10"/>
<path d="M25.4501 33.67C24.0101 33.67 22.8301 32.49 22.8301 31.05C22.8301 29.61 24.0101 28.43 25.4501 28.43C26.8901 28.43 28.0701 29.61 28.0701 31.05C28.0701 32.49 26.8901 33.67 25.4501 33.67ZM25.4501 29.43C24.5601 29.43 23.8301 30.16 23.8301 31.05C23.8301 31.94 24.5601 32.67 25.4501 32.67C26.3401 32.67 27.0701 31.94 27.0701 31.05C27.0701 30.16 26.3401 29.43 25.4501 29.43Z" fill="black" stroke="black" stroke-miterlimit="10"/>
<path d="M25.4501 18.48C24.0101 18.48 22.8301 17.3 22.8301 15.86C22.8301 14.42 24.0101 13.24 25.4501 13.24C26.8901 13.24 28.0701 14.42 28.0701 15.86C28.0701 17.3 26.8901 18.48 25.4501 18.48ZM25.4501 14.24C24.5601 14.24 23.8301 14.97 23.8301 15.86C23.8301 16.75 24.5601 17.48 25.4501 17.48C26.3401 17.48 27.0701 16.75 27.0701 15.86C27.0701 14.97 26.3401 14.24 25.4501 14.24Z" fill="black" stroke="black" stroke-miterlimit="10"/>
<path d="M51.9501 33.67C50.5101 33.67 49.3301 32.49 49.3301 31.05C49.3301 29.61 50.5101 28.43 51.9501 28.43C53.3901 28.43 54.5701 29.61 54.5701 31.05C54.5701 32.49 53.3901 33.67 51.9501 33.67ZM51.9501 29.43C51.0601 29.43 50.3301 30.16 50.3301 31.05C50.3301 31.94 51.0601 32.67 51.9501 32.67C52.8401 32.67 53.5701 31.94 53.5701 31.05C53.5701 30.16 52.8401 29.43 51.9501 29.43Z" fill="black" stroke="black" stroke-miterlimit="10"/>
<path d="M51.9501 18.48C50.5101 18.48 49.3301 17.3 49.3301 15.86C49.3301 14.42 50.5101 13.24 51.9501 13.24C53.3901 13.24 54.5701 14.42 54.5701 15.86C54.5701 17.3 53.3901 18.48 51.9501 18.48ZM51.9501 14.24C51.0601 14.24 50.3301 14.97 50.3301 15.86C50.3301 16.75 51.0601 17.48 51.9501 17.48C52.8401 17.48 53.5701 16.75 53.5701 15.86C53.5701 14.97 52.8401 14.24 51.9501 14.24Z" fill="black" stroke="black" stroke-miterlimit="10"/>
</g>
<defs>
<clipPath id="clip0_586_665">
<rect width="48.07" height="52.39" fill="white" transform="translate(7 5)"/>
</clipPath>
</defs>
</svg>
