<svg width="62" height="62" viewBox="0 0 62 62" fill="none" xmlns="http://www.w3.org/2000/svg">
<g clip-path="url(#clip0_586_750)">
<path d="M31.33 55.16C41.1772 55.16 49.16 44.4909 49.16 31.33C49.16 18.1691 41.1772 7.5 31.33 7.5C21.4828 7.5 13.5 18.1691 13.5 31.33C13.5 44.4909 21.4828 55.16 31.33 55.16Z" stroke="black" stroke-width="2.2" stroke-linecap="round" stroke-linejoin="round"/>
<path d="M23.4199 30.84C26.1813 30.84 28.4199 29.1969 28.4199 27.17C28.4199 25.1431 26.1813 23.5 23.4199 23.5C20.6585 23.5 18.4199 25.1431 18.4199 27.17C18.4199 29.1969 20.6585 30.84 23.4199 30.84Z" stroke="black" stroke-width="2.2" stroke-linecap="round" stroke-linejoin="round"/>
<path d="M39.25 30.84C42.0114 30.84 44.25 29.1969 44.25 27.17C44.25 25.1431 42.0114 23.5 39.25 23.5C36.4886 23.5 34.25 25.1431 34.25 27.17C34.25 29.1969 36.4886 30.84 39.25 30.84Z" stroke="black" stroke-width="2.2" stroke-linecap="round" stroke-linejoin="round"/>
<path d="M31.3302 48.17C34.4616 48.17 37.0002 46.7507 37.0002 45C37.0002 43.2493 34.4616 41.83 31.3302 41.83C28.1987 41.83 25.6602 43.2493 25.6602 45C25.6602 46.7507 28.1987 48.17 31.3302 48.17Z" stroke="black" stroke-width="2.2" stroke-linecap="round" stroke-linejoin="round"/>
<path d="M33.3797 32.75C33.3797 32.75 36.3797 38.13 33.9997 38.13H28.6597C26.2897 38.13 29.2797 32.75 29.2797 32.75" stroke="black" stroke-width="2.2" stroke-linecap="round" stroke-linejoin="round"/>
</g>
<defs>
<clipPath id="clip0_586_750">
<rect width="38.67" height="50.67" fill="white" transform="translate(12 6)"/>
</clipPath>
</defs>
</svg>
