<svg width="62" height="62" viewBox="0 0 62 62" fill="none" xmlns="http://www.w3.org/2000/svg">
<g clip-path="url(#clip0_586_678)">
<path d="M40.6274 24.2773C41.6362 24.0957 42.3113 23.1217 42.1319 22.1053C41.0275 15.6505 35.7716 12.7405 31.0538 12.7209C31.0364 12.7209 31.0201 12.7209 31.0038 12.7209C26.3013 12.7209 21.0595 15.582 19.8931 21.989C19.8507 22.1293 19.8301 22.2717 19.8301 22.4239C19.8301 23.4598 20.6671 24.3023 21.6944 24.3023H40.31C40.4035 24.3023 40.5198 24.3001 40.6285 24.2783L40.6274 24.2773ZM20.6986 22.4228C20.6986 22.3499 20.7073 22.2912 20.728 22.2282C20.7345 22.2086 20.7388 22.189 20.7432 22.1695C21.8107 16.2375 26.6567 13.5894 31.0027 13.5894H31.0495C35.4053 13.609 40.2557 16.294 41.2753 22.2532V22.2554C41.372 22.8011 41.0122 23.3239 40.4644 23.4228C40.4089 23.4348 40.3524 23.4315 40.3089 23.4315H34.6019C34.4693 22.2967 33.8258 21.3172 32.9083 20.7433L35.9194 16.7723C36.0651 16.581 36.0271 16.3081 35.8357 16.1625C35.6433 16.0168 35.3716 16.0549 35.2259 16.2462L32.1006 20.3672C31.756 20.2563 31.3886 20.1965 31.0082 20.1965C29.1504 20.1965 27.6296 21.6151 27.4133 23.4315H21.6911C21.1519 23.4315 20.6965 22.9695 20.6965 22.4228H20.6986ZM28.2742 23.4315C28.4808 22.0934 29.6298 21.0661 31.0092 21.0661C31.3669 21.0661 31.7082 21.1357 32.0213 21.2629C32.0582 21.2857 32.0963 21.302 32.1365 21.3129C32.9681 21.6944 33.5823 22.4858 33.7269 23.4326H28.2742V23.4315Z" fill="#141515" stroke="black" stroke-width="1.08704" stroke-miterlimit="10"/>
<path d="M42.199 26.16C40.163 26.3187 38.502 27.9188 37.7552 30.4397C37.0443 32.816 37.1606 35.5727 38.0313 37.274C39.4499 40.5753 38.7988 42.9712 37.9726 46.0051C37.8432 46.4812 37.7095 46.9715 37.5791 47.4835C36.9334 50.0348 38.2346 51.6936 39.8097 52.2067C40.1826 52.3273 40.5782 52.3904 40.9826 52.3904C42.4664 52.3904 44.0394 51.5403 44.8112 49.613C45.5743 47.6965 45.8124 45.7399 46.0417 43.8484C46.1211 43.1962 46.2004 42.5407 46.3005 41.8798C46.4994 40.5144 46.9135 39.2806 47.3125 38.0892C48.1821 35.4934 49.0039 33.041 47.469 29.8038C46.3255 27.3927 44.3046 25.9937 42.199 26.16ZM46.4874 37.812C46.0754 39.0404 45.6504 40.3112 45.4395 41.7504C45.3373 42.4178 45.2569 43.082 45.1775 43.743C44.9449 45.6649 44.7242 47.4791 44.0024 49.2901C43.2198 51.2457 41.4348 51.8219 40.0771 51.3794C38.9738 51.0207 37.878 49.8413 38.4205 47.6987C38.5498 47.1921 38.6824 46.7052 38.8107 46.2345C39.6456 43.1636 40.3684 40.5123 38.8161 36.9054C38.04 35.3868 37.9454 32.8301 38.5868 30.6886C39.227 28.5254 40.6011 27.1568 42.2643 27.0275C42.3523 27.0199 42.4404 27.0166 42.5284 27.0166C44.172 27.0166 45.745 28.2036 46.6798 30.1755C48.0647 33.0964 47.3321 35.2814 46.4842 37.812H46.4874Z" fill="#141515" stroke="black" stroke-width="1.08704" stroke-miterlimit="10"/>
<path d="M24.2461 30.4397C23.4993 27.9178 21.8383 26.3176 19.8023 26.16C17.6988 25.9915 15.6769 27.3916 14.5344 29.8016C12.9811 33.0497 13.8094 35.5086 14.6866 38.1121C15.0856 39.298 15.4986 40.5231 15.7019 41.882C15.803 42.5396 15.8813 43.194 15.9606 43.8452C16.19 45.7377 16.427 47.6966 17.1923 49.6141C17.963 51.5414 19.5359 52.3915 21.0197 52.3904C21.423 52.3904 21.8209 52.3274 22.1927 52.2067C23.7689 51.6947 25.069 50.0359 24.4233 47.4835C24.2928 46.9737 24.1602 46.4834 24.0309 46.0084C23.2047 42.9744 22.5514 40.5775 23.9591 37.3011C24.8429 35.5738 24.9581 32.816 24.2472 30.4397H24.2461ZM23.171 36.9305C21.6318 40.5112 22.3536 43.1647 23.1895 46.2356C23.3178 46.7063 23.4504 47.1922 23.5787 47.6966C24.1211 49.8402 23.0253 51.0197 21.9231 51.3784C20.5643 51.8208 18.7804 51.2447 17.9989 49.2902C17.276 47.4781 17.0564 45.6616 16.8227 43.7397C16.7433 43.0799 16.6629 42.4168 16.5607 41.7515C16.3455 40.3188 15.9204 39.0556 15.5095 37.8338C14.654 35.2966 13.917 33.1052 15.3182 30.1745C16.2541 28.2026 17.826 27.0155 19.4696 27.0155C19.5577 27.0155 19.6457 27.0188 19.7338 27.0253C21.3959 27.1547 22.771 28.5233 23.4112 30.6854C24.0526 32.829 23.958 35.3858 23.1699 36.9294L23.171 36.9305Z" fill="#141515" stroke="black" stroke-width="1.08704" stroke-miterlimit="10"/>
<path d="M54.2564 11.948C53.4085 11.0425 52.2454 10.5435 50.9844 10.5435H11.0148C9.74843 10.5435 8.5853 11.0414 7.73957 11.9447C6.89059 12.8513 6.46773 14.0503 6.55143 15.32L6.83624 19.7747C7.14822 24.6566 7.45259 29.4168 7.75697 34.052C8.13635 39.8785 8.49725 45.5311 8.84184 50.9925C8.97554 53.1068 10.9779 54.8265 13.3052 54.8265H48.6766C51.0127 54.8265 53.0226 53.1068 53.1574 50.9925C53.502 45.5311 53.8629 39.8785 54.2423 34.053C54.5608 29.2059 54.8793 24.2229 55.2065 19.1062L55.4478 15.3211C55.5304 14.0547 55.1076 12.8578 54.2575 11.9491L54.2564 11.948ZM54.3379 19.0496C54.0107 24.1664 53.6922 29.1483 53.3748 33.9954C52.9965 39.8231 52.6345 45.4757 52.2899 50.937C52.1834 52.6013 50.5626 53.9557 48.6766 53.9557H13.3052C11.4279 53.9557 9.81583 52.6013 9.7093 50.937C9.36471 45.4757 9.00272 39.822 8.62443 33.9954C8.32114 29.3603 8.01677 24.6012 7.7037 19.7193L7.4189 15.2635C7.3515 14.2362 7.69174 13.2687 8.37441 12.5393C9.05381 11.8132 9.99193 11.4142 11.0148 11.4142H50.9844C52.003 11.4142 52.94 11.8154 53.6227 12.5437C54.3075 13.2742 54.6477 14.2406 54.5803 15.2646L54.3379 19.0507V19.0496Z" fill="#141515" stroke="black" stroke-width="1.08704" stroke-miterlimit="10"/>
</g>
<defs>
<clipPath id="clip0_586_678">
<rect width="50.0041" height="45.37" fill="white" transform="translate(5.99805 10)"/>
</clipPath>
</defs>
</svg>
