<svg width="62" height="62" viewBox="0 0 62 62" fill="none" xmlns="http://www.w3.org/2000/svg">
<g clip-path="url(#clip0_586_684)">
<path d="M45.4543 19.6366V48.4552H16.8613V19.6366C16.8613 19.1212 16.8935 18.6137 16.9499 18.1144C17.5862 12.8549 21.4523 8.59409 26.5024 7.36178C27.1065 7.20874 27.7267 7.10404 28.363 7.05571C28.7335 7.01544 29.1201 6.99933 29.4986 6.99933H32.809C33.4292 6.99933 34.0413 7.04765 34.6373 7.1282C35.032 7.18458 35.4186 7.26512 35.8052 7.35372C38.9867 8.12694 41.6929 10.1003 43.4246 12.7743C44.7053 14.7476 45.4543 17.1076 45.4543 19.6366Z" fill="white" stroke="black" stroke-width="2.01359" stroke-linecap="round" stroke-linejoin="round"/>
<path d="M16.8885 21.8113H19.2242V28.8025H16.8885C15.5676 28.8025 14.4883 27.7313 14.4883 26.4023V24.2035C14.4883 22.8826 15.5595 21.8033 16.8885 21.8033V21.8113Z" fill="white" stroke="black" stroke-width="2.01359" stroke-linecap="round" stroke-linejoin="round"/>
<path d="M45.424 28.8105H43.0882V21.8194H45.424C46.7449 21.8194 47.8242 22.8906 47.8242 24.2196V26.4184C47.8242 27.7393 46.753 28.8186 45.424 28.8186V28.8105Z" fill="white" stroke="black" stroke-width="2.01359" stroke-linecap="round" stroke-linejoin="round"/>
<path d="M35.3392 38.7255H26.9707V45.1609H35.3392V38.7255Z" fill="white" stroke="black" stroke-width="2.01359" stroke-linecap="round" stroke-linejoin="round"/>
<path d="M43.0878 19.9024V29.3744C43.0878 30.9208 42.7575 32.3867 42.1615 33.7076C40.5023 37.4287 36.7731 40.0142 32.4399 40.0142H29.8705C29.6289 40.0142 29.3953 40.0142 29.1617 39.982C29.0731 39.982 28.9765 39.9739 28.8879 39.9659C28.7026 39.9497 28.5174 39.9336 28.3402 39.9014C28.2999 39.9014 28.2516 39.8934 28.2113 39.8773C27.9939 39.8531 27.7844 39.8128 27.575 39.7645C27.5267 39.7645 27.4864 39.7484 27.4542 39.7323C27.2931 39.7001 27.1401 39.6598 26.9871 39.6115C26.8663 39.5873 26.7535 39.547 26.6407 39.5148C26.2541 39.3859 25.8756 39.241 25.5131 39.0799C25.3279 38.9993 25.1426 38.9107 24.9654 38.8141C24.9654 38.8141 24.9493 38.806 24.9413 38.798C24.756 38.7094 24.5788 38.6047 24.4097 38.5C23.8781 38.1858 23.3707 37.8234 22.9035 37.4126C22.7505 37.2757 22.5974 37.1388 22.4525 36.9938C22.3075 36.8488 22.1625 36.7038 22.0256 36.5508C21.8887 36.3978 21.7517 36.2447 21.6229 36.0836C21.494 35.9226 21.3651 35.7615 21.2443 35.5923C20.8094 35.0044 20.4469 34.3761 20.1489 33.7076C19.5529 32.3867 19.2227 30.9208 19.2227 29.3744V19.9024C19.2227 19.1695 19.2951 18.4607 19.4401 17.7761C19.4401 17.76 19.4482 17.7358 19.4562 17.7197C19.4885 17.5505 19.5287 17.3814 19.577 17.2123C20.761 12.6293 24.9251 9.2626 29.8705 9.2626H32.4399C34.7595 9.2626 36.91 10.0036 38.6578 11.2762C39.1653 11.6306 39.6405 12.0414 40.0674 12.4844C40.3573 12.7824 40.6312 13.0884 40.8728 13.4187C41.0017 13.5797 41.1225 13.7489 41.2352 13.918C41.3561 14.0872 41.4688 14.2644 41.5735 14.4416C41.6863 14.6349 41.7991 14.8282 41.9038 15.0295C41.9924 15.1987 42.0729 15.3678 42.1534 15.545L42.1776 15.5933C42.2501 15.7625 42.3226 15.9397 42.3951 16.1249C42.4353 16.2296 42.4756 16.3424 42.5159 16.4552C42.5964 16.7048 42.677 16.9545 42.7334 17.2123C42.7817 17.3814 42.822 17.5505 42.8542 17.7197C42.8622 17.7358 42.8703 17.76 42.8703 17.7761C42.8944 17.9049 42.9186 18.0258 42.9428 18.1546C42.9589 18.2513 42.975 18.3479 42.983 18.4526C43.0555 18.9278 43.0878 19.4111 43.0878 19.9024Z" fill="white" stroke="black" stroke-width="2.01359" stroke-linecap="round" stroke-linejoin="round"/>
<path d="M27.6719 22.4396V23.8008" stroke="black" stroke-width="2.01359" stroke-linecap="round" stroke-linejoin="round"/>
<path d="M34.6387 22.4396V23.8008" stroke="black" stroke-width="2.01359" stroke-linecap="round" stroke-linejoin="round"/>
<path d="M20.6149 45.1609H41.6852C45.1646 45.1609 47.9837 47.98 47.9837 51.4595V54.5926H14.3164V51.4595C14.3164 47.98 17.1354 45.1609 20.6149 45.1609Z" fill="white" stroke="black" stroke-width="2.01359" stroke-linecap="round" stroke-linejoin="round"/>
<path d="M35.8067 7.35372C35.4201 7.26512 35.0335 7.18458 34.6388 7.1282C34.0428 7.04765 33.4306 6.99933 32.8105 6.99933H29.5001C29.1135 6.99933 28.743 7.03155 28.3645 7.06376C28.3 7.06376 28.2436 7.06376 28.1792 7.07182C28.0423 7.08793 27.9054 7.10404 27.7684 7.12014C27.3415 7.17652 26.9147 7.24901 26.4958 7.35372C21.4458 8.58604 17.5797 12.8468 16.9434 18.1063C17.8938 18.4526 18.9247 18.6459 19.996 18.6459C22.5734 18.6459 24.885 17.5344 26.4958 15.7625V19.0084C29.9914 19.0084 33.044 17.0753 34.6308 14.2241V19.0084C38.6982 19.0084 42.1535 16.3988 43.4181 12.7663C41.6864 10.0922 38.9801 8.11889 35.7986 7.34567L35.8067 7.35372Z" fill="white" stroke="black" stroke-width="2.01359" stroke-linecap="round" stroke-linejoin="round"/>
<path d="M33.4528 32.282C33.4528 31.0098 32.4215 29.9785 31.1493 29.9785C29.877 29.9785 28.8457 31.0098 28.8457 32.282C28.8457 33.5542 29.877 34.5856 31.1493 34.5856C32.4215 34.5856 33.4528 33.5542 33.4528 32.282Z" fill="white" stroke="black" stroke-width="2.01359" stroke-linecap="round" stroke-linejoin="round"/>
</g>
<defs>
<clipPath id="clip0_586_684">
<rect width="35.6889" height="49.6149" fill="white" transform="translate(13.3105 5.99255)"/>
</clipPath>
</defs>
</svg>
