<svg width="18" height="18" viewBox="0 0 18 18" fill="none" xmlns="http://www.w3.org/2000/svg">
<path fill-rule="evenodd" clip-rule="evenodd" d="M8.9998 14.94C5.7238 14.94 3.0589 12.276 3.0589 9.00005C3.0589 5.72495 5.7238 3.06005 8.9998 3.06005C12.2749 3.06005 14.9398 5.72495 14.9398 9.00005C14.9398 12.276 12.2749 14.94 8.9998 14.94ZM8.9998 1.80005C5.0227 1.80005 1.7998 5.02385 1.7998 9.00005C1.7998 12.9762 5.0227 16.2 8.9998 16.2C12.976 16.2 16.1998 12.9762 16.1998 9.00005C16.1998 5.02385 12.976 1.80005 8.9998 1.80005ZM8.9998 11.1744C8.5021 11.1744 8.0998 11.5776 8.0998 12.0744C8.0998 12.5712 8.5021 12.9744 8.9998 12.9744C9.4966 12.9744 9.8998 12.5712 9.8998 12.0744C9.8998 11.5776 9.4966 11.1744 8.9998 11.1744ZM7.49446 5.87084L7.56016 5.80424C8.37106 4.99064 9.69227 4.99064 10.505 5.80244C11.3168 6.61424 11.3168 7.93454 10.505 8.74634L9.51856 9.73364V9.95864C9.51856 10.306 9.23596 10.5886 8.88856 10.5886C8.54026 10.5886 8.25766 10.306 8.25766 9.95864V9.47264C8.25766 9.30524 8.32516 9.14504 8.44216 9.02714L9.61396 7.85534C9.76966 7.69964 9.85516 7.49354 9.85516 7.27484C9.85516 7.05524 9.76966 6.84914 9.61396 6.69344C9.29446 6.37304 8.77246 6.37304 8.45206 6.69344L8.38546 6.76004C8.22886 6.91664 8.14336 7.12274 8.14336 7.34234C8.14336 7.69064 7.86166 7.97234 7.51336 7.97234C7.16596 7.97234 6.88336 7.69064 6.88336 7.34234C6.88336 6.78614 7.10026 6.26324 7.49446 5.87084Z" fill="#999999"/>
</svg>
