<svg width="20" height="20" viewBox="0 0 20 20" fill="none" xmlns="http://www.w3.org/2000/svg">
<path d="M14.0833 1.66675C14.0833 1.25253 13.7475 0.916748 13.3333 0.916748C12.9191 0.916748 12.5833 1.25253 12.5833 1.66675H14.0833ZM12.5833 5.00008C12.5833 5.4143 12.9191 5.75008 13.3333 5.75008C13.7475 5.75008 14.0833 5.4143 14.0833 5.00008H12.5833ZM7.41667 1.66675C7.41667 1.25253 7.08088 0.916748 6.66667 0.916748C6.25245 0.916748 5.91667 1.25253 5.91667 1.66675H7.41667ZM5.91667 5.00008C5.91667 5.4143 6.25245 5.75008 6.66667 5.75008C7.08088 5.75008 7.41667 5.4143 7.41667 5.00008H5.91667ZM2.5 7.58342C2.08579 7.58342 1.75 7.9192 1.75 8.33342C1.75 8.74763 2.08579 9.08342 2.5 9.08342V7.58342ZM17.5 9.08342C17.9142 9.08342 18.25 8.74763 18.25 8.33342C18.25 7.9192 17.9142 7.58342 17.5 7.58342V9.08342ZM4.16667 4.08341H15.8333V2.58341H4.16667V4.08341ZM15.8333 4.08341C16.3396 4.08341 16.75 4.49382 16.75 5.00008H18.25C18.25 3.66539 17.168 2.58341 15.8333 2.58341V4.08341ZM16.75 5.00008V16.6667H18.25V5.00008H16.75ZM16.75 16.6667C16.75 17.173 16.3396 17.5834 15.8333 17.5834V19.0834C17.168 19.0834 18.25 18.0014 18.25 16.6667H16.75ZM15.8333 17.5834H4.16667V19.0834H15.8333V17.5834ZM4.16667 17.5834C3.66041 17.5834 3.25 17.173 3.25 16.6667H1.75C1.75 18.0014 2.83198 19.0834 4.16667 19.0834V17.5834ZM3.25 16.6667V5.00008H1.75V16.6667H3.25ZM3.25 5.00008C3.25 4.49382 3.66041 4.08341 4.16667 4.08341V2.58341C2.83198 2.58341 1.75 3.66539 1.75 5.00008H3.25ZM12.5833 1.66675V5.00008H14.0833V1.66675H12.5833ZM5.91667 1.66675V5.00008H7.41667V1.66675H5.91667ZM2.5 9.08342H17.5V7.58342H2.5V9.08342Z" fill="#666666"/>
</svg>
