<svg width="32" height="32" viewBox="0 0 32 32" fill="none" xmlns="http://www.w3.org/2000/svg">
<rect opacity="0.01" width="32" height="32" fill="#FF0000"/>
<path d="M10.4404 12.6826H9.69044V14.1826H10.4404V12.6826ZM23.4 13.4326L24.1329 13.5919L24.3305 12.6826H23.4V13.4326ZM21.8131 20.7333V21.4833H22.4176L22.546 20.8926L21.8131 20.7333ZM10.9694 20.7333L10.2262 20.8339L10.314 21.4833H10.9694V20.7333ZM9.38251 9L10.1257 8.89948L10.0379 8.25H9.38251V9ZM8 8.25H7.25V9.75H8V8.25ZM10.4404 14.1826H23.4V12.6826H10.4404V14.1826ZM22.6671 13.2733L21.0802 20.574L22.546 20.8926L24.1329 13.5919L22.6671 13.2733ZM21.8131 19.9833H16.5235V21.4833H21.8131V19.9833ZM16.5235 19.9833H10.9694V21.4833H16.5235V19.9833ZM11.7126 20.6328L10.1257 8.89948L8.63928 9.10052L10.2262 20.8339L11.7126 20.6328ZM9.38251 8.25H8V9.75H9.38251V8.25Z" fill="#111111"/>
<rect x="12.1038" y="23.3002" width="1.46667" height="1.46667" rx="0.733333" fill="black" stroke="#111111" stroke-width="1.46667"/>
<rect x="19.028" y="23.3002" width="1.46667" height="1.46667" rx="0.733333" fill="black" stroke="#111111" stroke-width="1.46667"/>
</svg>
