<svg width="158" height="30" viewBox="0 0 158 30" fill="none" xmlns="http://www.w3.org/2000/svg">
<path d="M13.268 18.5876C7.73196 18.5876 4.48454 20.7526 4.48454 24.2474C4.48454 27.7423 7.73196 29.9072 13.268 29.9072C18.8041 29.9072 22.0515 27.7423 22.0515 24.2474C22.0515 20.7526 18.8041 18.5876 13.268 18.5876ZM4.1134 3.61856H11.6907V4.08247C11.6907 4.63918 11.6289 5.38144 11.0412 5.78351C9.34021 6.95876 5.75258 8.53608 2.53608 9.74227L3.92783 12.2784C7.36082 10.9175 10.7938 9.27835 13.299 7.79382C15.7113 9.2165 19.2062 10.8866 22.6392 12.2165L23.9691 9.74227C20.8144 8.53608 17.3814 6.98969 15.5567 5.78351C14.9381 5.38144 14.9072 4.63918 14.9072 4.08247V3.61856H22.4536V1.02062H4.1134V3.61856ZM0 14.2577V16.8557H26.4433V14.2577H14.8454V10.4845H11.6907V14.2577H0ZM13.268 27.3093C9.5567 27.3093 7.63917 26.0412 7.63917 24.2474C7.63917 22.4536 9.5567 21.1856 13.268 21.1856C16.9794 21.1856 18.8969 22.4536 18.8969 24.2474C18.8969 26.0412 16.9794 27.3093 13.268 27.3093Z" fill="#0361FA"/>
<path d="M30.7162 1.17526V3.7732H45.345V5.2268C45.345 5.65979 45.345 6.15464 45.3141 6.58763C45.2213 8.25773 45.0358 11.0103 44.7265 13.0825H26.2935V15.6804H52.7368V13.0825H47.7883C48.1285 11.0103 48.376 8.41237 48.4687 6.68041C48.4997 6.12371 48.4997 5.65979 48.4997 5.2268V1.17526H30.7162ZM49.3966 26.134H34.3966C34.0254 26.134 33.7471 25.8866 33.7471 25.4845V19.0206H30.5306V26.4433C30.5306 26.7526 30.6543 27.0309 30.809 27.2474C31.0873 27.5876 31.7677 28.2371 32.077 28.4845C32.2935 28.6392 32.5718 28.732 32.8193 28.732H49.3966V26.134Z" fill="#0361FA"/>
<path d="M74.9787 8.93814H79.9272V6.34021H74.9787V0H71.8241V16.8557H74.9787V8.93814ZM72.0406 23.6289C72.0406 25.8557 70.2777 27.433 66.9993 27.433C63.721 27.433 61.9581 25.8557 61.9581 23.6289C61.9581 21.4021 63.721 19.7938 66.9993 19.7938C70.2777 19.7938 72.0406 21.4021 72.0406 23.6289ZM75.1334 23.6289C75.1334 20.134 72.4117 17.2268 66.9993 17.2268C61.587 17.2268 58.8653 20.134 58.8653 23.6289C58.8653 27.1237 61.587 30 66.9993 30C72.4117 30 75.1334 27.1237 75.1334 23.6289ZM63.2571 14.5361C65.2365 14.5361 68.2983 14.2887 69.9684 13.9794L69.6591 11.4742C67.9272 11.7526 65.3602 11.9381 63.3189 11.9381H58.2777C57.9066 11.9381 57.6282 11.6907 57.6282 11.2887V4.17526H67.0303V1.57732H54.4736V12.2474C54.4736 12.5567 54.5973 12.8351 54.7519 13.0515C55.0303 13.3918 55.7107 14.0412 56.02 14.2887C56.2365 14.4433 56.5148 14.5361 56.7622 14.5361H63.2571Z" fill="#0361FA"/>
<path d="M82.5918 17.5052C85.4062 16.0825 89.0557 14.0103 91.9629 11.8144C92.8598 11.134 93.5093 10.3608 93.9114 9.40206H99.664V19.9175H102.819V0H99.664V6.80412H94.4062L94.4372 1.60825H81.231V4.20619H91.2516V6.74227C91.2516 8.38144 90.5403 9.09278 89.4578 9.95876C87.3547 11.6598 83.8289 13.6082 81.0454 14.9691L82.5918 17.5052ZM103.746 26.134H89.0867C88.7155 26.134 88.4372 25.8866 88.4372 25.4845V18.6804H85.2207V26.4433C85.2207 26.7526 85.3444 27.0309 85.499 27.2474C85.7774 27.5876 86.4578 28.2371 86.7671 28.4845C86.9836 28.6392 87.2619 28.732 87.5093 28.732H103.746V26.134Z" fill="#0361FA"/>
<path d="M127.72 9H132.514V6.40206H127.72V0H124.566V16.6082H127.72V9ZM124.689 23.5052C124.689 25.8866 122.865 27.4021 119.586 27.4021C116.308 27.4021 114.483 25.8866 114.483 23.5052C114.483 21.1237 116.308 19.5773 119.586 19.5773C122.865 19.5773 124.689 21.1237 124.689 23.5052ZM127.844 23.5052C127.844 19.8247 124.937 16.9794 119.586 16.9794C114.236 16.9794 111.329 19.8247 111.329 23.5052C111.329 27.1856 114.236 30 119.586 30C124.937 30 127.844 27.1856 127.844 23.5052ZM108.39 17.2577C111.452 15.7113 114.823 13.732 117.638 11.567C119.215 10.3608 120.05 8.81443 120.081 6.5567L120.112 1.57732H107.061V4.17526H116.927V6.43299C116.927 8.07217 116.215 8.90722 115.133 9.7732C113.277 11.2577 109.968 13.2371 106.875 14.7216L108.39 17.2577Z" fill="#0361FA"/>
<path d="M153.612 10.299V0.865981H135.89V8.01031C135.89 8.31959 136.014 8.59794 136.168 8.81443C136.447 9.15464 137.127 9.80412 137.437 10.0515C137.653 10.2062 137.931 10.299 138.179 10.299H143.158V12.866H131.467V15.433H157.911V12.866H146.313V10.299H153.612ZM154.323 29.0722V26.5361H139.571C139.199 26.5361 138.952 26.3196 138.952 25.9175V24.2784H153.705V17.2887H135.828V19.8247H150.55V21.8351H135.797V26.8454C135.797 27.1546 135.921 27.433 136.076 27.6495C136.354 27.9897 136.973 28.5773 137.282 28.8247C137.498 28.9794 137.777 29.0722 138.024 29.0722H154.323ZM150.457 7.70103H139.694C139.323 7.70103 139.045 7.45361 139.045 7.05155V3.46392H150.457V7.70103Z" fill="#0361FA"/>
</svg>
