<svg width="244" height="112" viewBox="0 0 244 112" fill="none" xmlns="http://www.w3.org/2000/svg">
<mask id="path-1-inside-1_1745_3103" fill="white">
<path fill-rule="evenodd" clip-rule="evenodd" d="M6 0C2.68629 0 0 2.68629 0 6V106C0 109.314 2.68628 112 5.99999 112H238C241.314 112 244 109.314 244 106V72C244 67.8289 241.881 65.6232 239.825 63.482C237.885 61.4623 236 59.5 236 56C236 52.5 237.885 50.5377 239.825 48.518C241.881 46.3768 244 44.1711 244 40V6C244 2.68629 241.314 0 238 0H6Z"/>
</mask>
<path fill-rule="evenodd" clip-rule="evenodd" d="M6 0C2.68629 0 0 2.68629 0 6V106C0 109.314 2.68628 112 5.99999 112H238C241.314 112 244 109.314 244 106V72C244 67.8289 241.881 65.6232 239.825 63.482C237.885 61.4623 236 59.5 236 56C236 52.5 237.885 50.5377 239.825 48.518C241.881 46.3768 244 44.1711 244 40V6C244 2.68629 241.314 0 238 0H6Z" fill="white"/>
<path d="M239.825 63.482L239.103 64.1747L239.103 64.1747L239.825 63.482ZM239.825 48.518L240.546 49.2108L240.546 49.2108L239.825 48.518ZM1 6C1 3.23857 3.23858 1 6 1V-1C2.13401 -1 -1 2.134 -1 6H1ZM1 106V6H-1V106H1ZM5.99999 111C3.23857 111 1 108.761 1 106H-1C-1 109.866 2.134 113 5.99999 113V111ZM238 111H5.99999V113H238V111ZM243 106C243 108.761 240.761 111 238 111V113C241.866 113 245 109.866 245 106H243ZM243 72V106H245V72H243ZM245 72C245 67.3977 242.607 64.9356 240.546 62.7892L239.103 64.1747C241.155 66.3108 243 68.2602 243 72H245ZM240.546 62.7892C238.593 60.7562 237 59.0575 237 56H235C235 59.9426 237.176 62.1684 239.103 64.1747L240.546 62.7892ZM237 56C237 52.9426 238.593 51.2438 240.546 49.2108L239.103 47.8253C237.176 49.8316 235 52.0574 235 56H237ZM240.546 49.2108C242.607 47.0644 245 44.6023 245 40H243C243 43.7398 241.155 45.6892 239.103 47.8253L240.546 49.2108ZM243 6V40H245V6H243ZM238 1C240.761 1 243 3.23858 243 6H245C245 2.13401 241.866 -1 238 -1V1ZM6 1H238V-1H6V1Z" fill="#E2E5EB" mask="url(#path-1-inside-1_1745_3103)"/>
</svg>
