<svg width="648" height="212" viewBox="0 0 648 212" fill="none" xmlns="http://www.w3.org/2000/svg">
<g filter="url(#filter0_d_1798_3057)">
<path fill-rule="evenodd" clip-rule="evenodd" d="M10 4C6.68632 4 4.00003 6.6863 4.00003 10V202C4.00003 205.314 6.68631 208 10 208H638C641.314 208 644 205.314 644 202V142C644 133.658 639.763 129.246 635.649 124.964C631.77 120.925 628 117 628 110C628 103 631.77 99.0754 635.649 95.0361C639.763 90.7536 644 86.3422 644 78V10C644 6.68629 641.314 4 638 4H10Z" fill="white"/>
</g>
<defs>
<filter id="filter0_d_1798_3057" x="3.05176e-05" y="0" width="648" height="212" filterUnits="userSpaceOnUse" color-interpolation-filters="sRGB">
<feFlood flood-opacity="0" result="BackgroundImageFix"/>
<feColorMatrix in="SourceAlpha" type="matrix" values="0 0 0 0 0 0 0 0 0 0 0 0 0 0 0 0 0 0 127 0" result="hardAlpha"/>
<feOffset/>
<feGaussianBlur stdDeviation="2"/>
<feComposite in2="hardAlpha" operator="out"/>
<feColorMatrix type="matrix" values="0 0 0 0 0 0 0 0 0 0 0 0 0 0 0 0 0 0 0.2 0"/>
<feBlend mode="normal" in2="BackgroundImageFix" result="effect1_dropShadow_1798_3057"/>
<feBlend mode="normal" in="SourceGraphic" in2="effect1_dropShadow_1798_3057" result="shape"/>
</filter>
</defs>
</svg>
