<svg width="320" height="208" viewBox="0 0 320 208" fill="none" xmlns="http://www.w3.org/2000/svg">
<g opacity="0.5">
<path d="M460.999 -49L230.371 207.254L317.725 -49H460.999Z" fill="white" fill-opacity="0.8"/>
<path d="M460.999 84.2237V175.117L230.371 207.254L460.999 84.2237Z" fill="white" fill-opacity="0.8"/>
<path d="M230.628 207.254L0 84.2237V-49L230.628 207.254Z" fill="white" fill-opacity="0.8"/>
<path d="M230.629 207.254V-49H143.274L230.629 207.254Z" fill="white" fill-opacity="0.8"/>
<path d="M0 175.117L230.628 207.254H0V175.117Z" fill="white" fill-opacity="0.8"/>
</g>
<path d="M293.981 52.3533H298.685L295.653 48.7817C295.536 48.6447 295.553 48.4381 295.69 48.3206C295.827 48.2032 296.034 48.2206 296.151 48.3576L299.001 51.7138V46.5827C299.001 46.4021 299.147 46.2564 299.327 46.2564C299.508 46.2564 299.653 46.4021 299.653 46.5827V51.7138L302.503 48.3576C302.62 48.2206 302.827 48.2032 302.964 48.3206C303.101 48.4381 303.118 48.6447 303.001 48.7817L299.969 52.3533H304.674C304.854 52.3533 305 52.4991 305 52.6796C305 52.8602 304.854 53.0059 304.674 53.0059H300.097L303.314 56.795C303.432 56.932 303.414 57.1387 303.277 57.2561C303.216 57.3083 303.14 57.3344 303.066 57.3344C302.973 57.3344 302.881 57.2953 302.816 57.2192L299.653 53.4953V60.1621C299.653 60.3427 299.508 60.4884 299.327 60.4884C299.147 60.4884 299.001 60.3427 299.001 60.1621V53.4953L295.838 57.2192C295.773 57.2953 295.682 57.3344 295.588 57.3344C295.514 57.3344 295.438 57.3083 295.377 57.2561C295.24 57.1387 295.223 56.932 295.34 56.795L298.557 53.0059H293.981C293.8 53.0059 293.654 52.8602 293.654 52.6796C293.654 52.4991 293.8 52.3533 293.981 52.3533Z" fill="#FFDA22"/>
<path d="M205.391 133.071L242.982 126.981L267.398 133.236C267.398 133.236 236.954 142.659 236.819 142.661C236.685 142.663 228.338 143.175 228.338 143.175L205.391 133.071Z" fill="#F5F5F5"/>
<path d="M205.391 133.071C205.234 132.875 192.298 108.094 192.298 108.094C192.298 108.094 191.787 107.35 192.577 107.185L229.885 103.535L242.982 126.981L205.391 133.071Z" fill="url(#paint0_linear_1835_3020)"/>
<path d="M242.981 126.978L258.538 107.278C258.538 107.278 258.834 106.726 259.667 106.773L285.882 108.492C285.882 108.492 287.128 108.531 286.369 109.64L270.534 134.035L242.984 126.976L242.981 126.978Z" fill="url(#paint1_linear_1835_3020)"/>
<path d="M171.898 122.243L196.993 127.059L231.567 142.981C231.567 142.981 230.849 144.201 227.45 143.69L206.368 138.585L171.646 123.409C171.646 123.409 171.035 123.172 171.163 122.624C171.163 122.624 171.213 122.224 171.898 122.243Z" fill="#EC7673"/>
<path d="M231.566 142.981L261.934 133.689L297.175 128.236C297.175 128.236 297.828 128.107 298.061 128.558C298.061 128.558 298.311 129.064 297.745 129.452L262.645 139.475L236.724 143.638C236.724 143.638 232.254 144.356 231.566 142.981Z" fill="#DA3329"/>
<path d="M207.382 47.6811C207.382 47.6811 206.943 58.1501 219.111 55.2833C219.111 55.2833 215.204 58.198 208.274 57.9478C208.274 57.9478 202.806 58.2089 199.624 53.3322C199.624 53.3322 197.633 50.9134 200.385 47.7594C200.385 47.7594 205.105 44.8687 207.384 47.6789L207.382 47.6811Z" fill="url(#paint2_linear_1835_3020)"/>
<path d="M200.191 47.6724C200.191 47.6724 201.22 46.8176 204.326 46.1455L207.787 45.3972C207.787 45.3972 211.467 44.3727 213.999 47.2222C213.999 47.2222 218.454 52.6579 220.024 54.5002C220.024 54.5002 218.956 55.5987 217.214 56.4861L207.367 49.7214L204.261 47.7203C204.261 47.7203 202.547 46.6131 200.196 47.6746L200.191 47.6724Z" fill="url(#paint3_linear_1835_3020)"/>
<path d="M213.312 57.7434C210.987 58.248 208.999 58.2437 207.565 58.1023C205.247 57.8761 203.865 57.2735 203.809 57.2474C200.942 55.6987 199.417 53.9021 198.932 51.9596C198.251 49.2364 200.12 47.7464 200.189 47.6702C202.663 45.9432 205.049 47.9748 205.073 47.9943L217.21 56.4818L216.929 56.5992C215.659 57.13 214.445 57.4954 213.31 57.7412L213.312 57.7434ZM200.418 47.9378C200.418 47.9378 198.543 49.5496 199.267 51.9161C199.82 53.7237 201.194 55.4551 203.946 56.9407C203.987 56.9581 209.362 59.2616 216.507 56.397L204.877 48.2641C204.773 48.1749 202.654 46.3782 200.418 47.9378Z" fill="url(#paint4_linear_1835_3020)"/>
<path d="M232.719 39.4416C232.719 39.4416 238.559 48.4228 226.4 51.3158C226.4 51.3158 231.345 52.1358 237.289 48.8383C237.289 48.8383 242.218 46.637 242.468 40.949C242.468 40.949 242.953 37.943 238.897 36.4029C238.897 36.4029 233.254 35.9657 232.719 39.4416Z" fill="url(#paint5_linear_1835_3020)"/>
<path d="M239.021 36.2398C239.021 36.2398 237.674 35.9462 234.601 36.7379L231.177 37.6189C231.177 37.6189 227.416 38.3562 226.683 41.9779C226.683 41.9779 225.611 48.7208 225.195 51.033C225.195 51.033 226.703 51.5203 228.693 51.5246L233.8 41.2187L235.482 38.0844C235.482 38.0844 236.406 36.3529 239.023 36.2377L239.021 36.2398Z" fill="url(#paint6_linear_1835_3020)"/>
<path d="M228.997 51.505L228.69 51.5268L234.909 38.6956C234.92 38.6673 235.951 35.8266 239.02 36.242C239.12 36.2768 241.522 36.7901 242.359 39.4438C242.964 41.358 242.546 43.6136 240.839 46.2455C240.802 46.2934 239.906 47.4353 237.991 48.6621C236.808 49.4212 235.068 50.3087 232.767 50.9004C231.644 51.1896 230.389 51.4072 228.999 51.5072L228.997 51.505ZM238.959 36.5748C236.188 36.2029 235.266 38.7173 235.222 38.8413L229.265 51.1374C237.021 50.474 240.532 46.0672 240.56 46.0324C242.198 43.507 242.688 41.3297 242.044 39.5504C241.134 37.0381 238.955 36.5748 238.961 36.5726L238.959 36.5748Z" fill="url(#paint7_linear_1835_3020)"/>
<path d="M196.528 50.4044C196.528 50.4044 207.432 55.0592 207.054 57.2561C207.054 57.2561 206.934 58.1849 204.165 58.9114C204.165 58.9114 210.345 59.2116 215.887 55.6509C215.887 55.6509 215.961 52.8536 209.707 48.1901C209.707 48.1901 203.871 43.4983 200.848 45.1579C200.848 45.1579 195.684 48.5359 196.53 50.4044H196.528Z" fill="url(#paint8_linear_1835_3020)"/>
<path d="M201.471 44.7534C201.502 44.7381 191.248 47.1373 191.248 47.1373C191.248 47.1373 184.518 48.599 185.804 54.7591C185.804 54.7591 188.316 64.1253 198.753 61.2562L209.9 58.4003C209.9 58.4003 203.272 59.5031 201.693 57.441C201.693 57.441 198.877 55.5225 198.476 50.6676C198.476 50.6676 198.302 46.3608 201.469 44.7534H201.471Z" fill="url(#paint9_linear_1835_3020)"/>
<path d="M209.903 58.3981C206.762 59.2029 203.108 59.3204 200.685 56.7972C200.639 56.7493 196.58 52.2337 199.006 46.8393C199.027 46.7828 199.652 45.2363 201.442 44.7599C201.453 44.7555 201.463 44.7534 201.474 44.7512C202.812 44.4075 204.413 44.7599 206.231 45.7974C206.586 45.9823 215.108 50.5001 216.207 55.6444L216.235 55.7749L216.111 55.8488C216.057 55.8814 213.275 57.5346 209.905 58.3981H209.903ZM201.64 45.1623C201.64 45.1623 201.62 45.1666 201.611 45.171C200.054 45.5843 199.488 46.9851 199.484 47.0003C197.159 52.175 201.037 56.4992 201.076 56.5427C205.498 61.1453 214.501 56.2403 215.674 55.5704C214.495 50.6741 206.051 46.1998 205.966 46.1542C204.276 45.1928 202.823 44.86 201.64 45.1623Z" fill="url(#paint10_linear_1835_3020)"/>
<path d="M226.558 37.5406C226.558 37.5406 222.632 47.3266 224.45 48.8796C224.45 48.8796 225.192 49.5583 227.548 48.6034C227.548 48.6034 223.656 52.275 217.44 52.4947C217.44 52.4947 215.4 50.2913 216.228 43.0785C216.228 43.0785 216.761 36.0745 219.952 35.7265C219.952 35.7265 225.788 35.5699 226.558 37.5384V37.5406Z" fill="url(#paint11_linear_1835_3020)"/>
<path d="M219.246 35.7504C219.216 35.7548 227.734 31.9874 227.734 31.9874C227.734 31.9874 233.243 29.4229 236.778 35.0805C236.778 35.0805 241.783 43.9899 232.808 47.481L223.37 51.3767C223.37 51.3767 228.556 48.5816 228.138 46.0519C228.138 46.0519 228.641 42.948 225.448 38.8326C225.448 38.8326 222.496 35.2806 219.246 35.7482V35.7504Z" fill="url(#paint12_linear_1835_3020)"/>
<path d="M217.432 52.7797L217.298 52.7884L217.224 52.6687C214.289 47.9334 216.73 39.5765 216.832 39.2307C217.302 37.3883 218.113 36.2181 219.246 35.7504C219.255 35.7461 219.266 35.7417 219.275 35.7395C220.802 35.1283 222.318 36.0223 222.374 36.0549C227.827 39.0371 228.349 44.9121 228.354 44.9774C228.541 48.3467 226.033 50.2804 223.373 51.3789C220.519 52.5578 217.493 52.7753 217.435 52.7797H217.432ZM217.261 39.372C217.237 39.4547 214.818 47.7333 217.524 52.3142C218.779 52.2011 228.252 51.1374 227.91 44.9905C227.906 44.9339 227.401 39.3111 222.17 36.4508C222.157 36.4421 220.784 35.6308 219.455 36.1637C219.447 36.1659 219.438 36.1702 219.431 36.1724C218.429 36.5857 217.702 37.658 217.265 39.3699L217.261 39.372Z" fill="url(#paint13_linear_1835_3020)"/>
<path d="M190.273 79.2969C190.273 79.2969 190.445 79.4122 191.285 79.4188L217.028 76.1386L259.772 56.6319L225.48 51.7182L190.273 79.2969Z" fill="url(#paint14_linear_1835_3020)"/>
<path d="M227.77 43.4939L254.004 44.4032C254.004 44.4032 254.809 44.3488 255.268 45.0057L259.949 55.7248C259.949 55.7248 260.458 56.6449 259.336 56.745L233.336 56.8102L226.676 44.4293C226.676 44.4293 226.993 43.6854 227.772 43.4939H227.77Z" fill="#DA3329"/>
<path d="M185.606 66.5527C185.606 66.5527 184.921 66.8246 185.286 67.7273L190.145 79.1555C190.145 79.1555 190.271 79.5667 191.065 79.1729L233.337 56.808L227.545 44.2378C227.545 44.2378 227.347 43.842 227.773 43.4918C227.773 43.4918 227.564 43.4417 226.905 43.8398L185.61 66.5505L185.606 66.5527Z" fill="#EC7673"/>
<path d="M230.058 130.056C234.76 130.754 237.281 134.058 236.842 138.461C236.402 142.863 233.305 145.334 228.602 144.636C223.9 143.938 221.372 140.706 221.818 136.231C222.266 131.757 225.355 129.358 230.058 130.056Z" fill="#92B0FF"/>
<path d="M237.473 74.3874C226.241 72.7212 216.366 78.1417 215.204 86.9054C214.617 91.3601 217.27 94.0247 220.479 94.7207C224.311 95.5821 227.454 94.0704 228.783 90.7533C229.921 87.919 232.966 86.6857 236.196 87.1643C239.355 87.6319 241.743 90.1116 241.412 93.433C241.167 95.8866 240.447 97.3918 237.991 99.1515C236.379 100.304 233.701 101.444 230.424 102.864C226.254 104.663 225.073 107.93 224.518 113.488L224.079 117.89C224.079 117.89 222.989 124.529 230.502 125.63C230.502 125.63 237.528 127.32 238.261 119.996L238.585 116.748C238.772 114.871 239.268 113.479 241.371 112.4C245.043 110.602 248.664 108.574 251.022 106.36C253.852 103.704 255.253 100.396 255.736 95.5582C256.969 83.2142 249.13 76.1188 237.475 74.3896L237.473 74.3874Z" fill="#92B0FF"/>
<path d="M272.822 84.787C272.822 84.787 276.22 84.6369 279.013 84.6543C279.013 84.6543 279.878 84.7305 280.346 84.3041L279.4 81.4003C279.4 81.4003 277.988 81.7548 275.635 81.6765C275.635 81.6765 274.238 81.6026 272.942 81.8636L272.822 84.787Z" fill="url(#paint15_linear_1835_3020)"/>
<path d="M284.461 71.3315C284.461 71.3315 279.917 70.6681 278.271 72.2473L279.906 69.4979C279.906 69.4979 280.424 68.4386 284.776 68.5256C284.776 68.5256 286.645 68.5756 287.656 68.5386L287.471 71.4142C287.471 71.4142 285.764 71.5099 284.461 71.3294" fill="url(#paint16_linear_1835_3020)"/>
<path d="M277.512 78.3768C277.512 78.3768 283.478 78.9881 284.213 77.7504L284.929 74.8923C284.929 74.8923 282.299 75.8972 277.955 75.547C277.955 75.547 275.924 75.2555 275.35 76.0777L275.693 78.0092L277.512 78.379V78.3768Z" fill="url(#paint17_linear_1835_3020)"/>
<path d="M280.129 84.4542C280.129 84.4542 280.135 84.0649 279.324 83.632L275.287 81.0284C275.287 81.0284 273.368 79.8777 273.636 79.0511L275.35 76.0755C275.35 76.0755 275.45 77.087 276.992 77.7743C276.992 77.7743 279.294 78.7836 281.138 80.1518C281.138 80.1518 282.504 81.0175 282.021 82.0137C282.021 82.0137 280.618 84.2933 280.131 84.4542H280.129Z" fill="url(#paint18_linear_1835_3020)"/>
<path d="M278.654 73.4545C282.071 75.1207 283.324 76.5062 283.324 76.5062C284.361 77.5481 284.013 77.9614 284.013 77.9614C284.468 77.733 285.549 75.6296 285.549 75.6296C286.195 74.5051 285.932 74.1418 285.932 74.1418C284.603 71.3011 280.559 70.1613 280.559 70.1613C280.559 70.1613 279.761 69.8742 279.907 69.4979L278.271 72.2473C278.271 72.2473 277.821 73.0477 278.654 73.4545Z" fill="url(#paint19_linear_1835_3020)"/>
<path d="M209.359 109.116C209.359 109.116 209.974 105.364 210.627 102.306C210.627 102.306 210.901 101.37 210.57 100.777L207.362 101.268C207.362 101.268 207.407 102.882 206.79 105.449C206.79 105.449 206.396 106.965 206.372 108.435L209.361 109.118L209.359 109.116Z" fill="url(#paint20_linear_1835_3020)"/>
<path d="M203.813 102.767C203.813 102.767 205.797 96.3414 204.687 95.3017L201.901 93.977C201.901 93.977 202.338 97.0505 200.994 101.745C200.994 101.745 200.233 103.915 200.948 104.701L203.017 104.687L203.811 102.765L203.813 102.767Z" fill="url(#paint21_linear_1835_3020)"/>
<path d="M204.863 95.5627C204.863 95.5627 204.515 95.1016 203.206 96.0434C203.206 96.0434 201.244 97.59 198.694 100.979L196.034 97.8771C196.034 97.8771 198.127 93.6573 201.359 92.7372C201.359 92.7372 201.794 92.5197 202.808 93.4376C202.808 93.4376 204.73 95.0189 204.865 95.5606L204.863 95.5627Z" fill="url(#paint22_linear_1835_3020)"/>
<path d="M208.589 98.5101C207.486 97.69 206.468 99.1256 206.468 99.1256C204.637 100.89 203.075 103.221 203.075 103.221C201.809 104.957 200.952 104.701 200.952 104.701L203.63 107.141C204.424 107.591 206.044 105.703 206.044 105.703L209.646 101.768C210.277 100.959 210.677 101.04 210.677 101.04C210.621 100.474 208.589 98.5079 208.589 98.5079V98.5101Z" fill="url(#paint23_linear_1835_3020)"/>
<path d="M189.521 106.843L187.576 106.726L187.174 105.053L188.979 105.151L189.521 106.843Z" fill="#FFDA22"/>
<path d="M187.591 82.4379L185.64 83.2231L185.896 81.1284L187.576 80.6934L187.591 82.4379Z" fill="#FFDA22"/>
<path d="M275.593 57.7891L273.642 58.5743L273.898 56.4796L275.575 56.0446L275.593 57.7891Z" fill="#FFDA22"/>
<path d="M260.218 128.975L258.267 129.76L258.523 127.666L260.202 127.231L260.218 128.975Z" fill="#FFFDFF"/>
<path d="M223.343 127.931L221.395 128.719L221.649 126.624L223.328 126.189L223.343 127.931Z" fill="#FFDA22"/>
<path d="M157.505 102.541L158.575 102.434L159.278 103.226L157.725 103.619L157.505 102.541Z" fill="#F9AFAF"/>
<path d="M173.895 109.886L174.928 109.268L173.66 108.551L172.74 109.234L173.895 109.886Z" fill="#F9AFAF"/>
<path d="M225.469 121.297L226.503 120.679L225.235 119.961L224.314 120.644L225.469 121.297Z" fill="#F9AFAF"/>
<path d="M169.584 99.8325L171.311 100.241L170.618 98.2686L168.949 98.0359L169.584 99.8325Z" fill="#DA3329"/>
<path d="M197.718 114.491L199.447 114.9L198.751 112.927L197.083 112.694L197.718 114.491Z" fill="#DA3329"/>
<path d="M180.13 96.3588L178.192 96.1826L176.295 98.8146L178.309 98.919L180.13 96.3588Z" fill="#FFDA22"/>
<path d="M194.955 118.811L193.017 118.635L191.12 121.264L193.134 121.371L194.955 118.811Z" fill="#FFDA22"/>
<path d="M178.366 64.4689L177.922 65.9241L179.597 68.0188L180.001 66.4875L178.366 64.4689Z" fill="#DA3329"/>
<path d="M200.44 82.3552L199.996 83.8104L201.671 85.905L202.076 84.3737L200.44 82.3552Z" fill="#DA3329"/>
<path d="M271.407 49.3625L270.961 50.8177L272.638 52.9124L273.043 51.3789L271.407 49.3625Z" fill="#DA3329"/>
<path d="M218.286 97.181L217.84 98.6362L219.517 100.731L219.921 99.1974L218.286 97.181Z" fill="#DA3329"/>
<path d="M203.684 116.053L202.794 117.262L203.744 119.757L204.619 118.461L203.684 116.053Z" fill="#DA3329"/>
<path d="M185.72 98.1446C185.712 98.1076 184.585 96.6938 184.585 96.6938L186.462 95.9434L187.524 97.429L185.723 98.1425L185.72 98.1446Z" fill="#FFFDFF"/>
<path d="M272.16 62.9006C272.151 62.8637 271.024 61.4498 271.024 61.4498L272.902 60.6994L273.963 62.185L272.162 62.8985L272.16 62.9006Z" fill="#FFFDFF"/>
<path d="M198.748 86.3444C198.776 86.3444 200.212 85.3569 200.212 85.3569L200.005 87.6713L198.546 88.5653L198.748 86.3444Z" fill="#FFFDFF"/>
<path d="M167.074 77.4524C167.1 77.4285 167.644 75.7732 167.644 75.7732L169.345 77.0261L168.701 78.6596L167.074 77.4524Z" fill="#FFFDFF"/>
<path d="M202.2 122.635C202.191 122.598 201.064 121.184 201.064 121.184L202.942 120.433L204.003 121.919L202.202 122.632L202.2 122.635Z" fill="#FFFDFF"/>
<path d="M176.841 106.615L175.717 104.594L177.655 103.161L178.571 105.09L176.841 106.615Z" fill="#DA3329"/>
<path d="M260.153 88.835L258.202 89.6224L258.459 87.5255L260.138 87.0905L260.153 88.835Z" fill="#FFDA22"/>
<path d="M253.284 100.174L254.317 99.5563L253.051 98.8385L252.129 99.5193L253.284 100.174Z" fill="#F9AFAF"/>
<path d="M254.601 105.79L252.666 105.614L250.767 108.246L252.783 108.35L254.601 105.79Z" fill="#FFDA22"/>
<path d="M263.283 71.2793L262.837 72.7345L264.514 74.8292L264.919 73.2979L263.283 71.2793Z" fill="#DA3329"/>
<path d="M244.322 114.913C244.313 114.876 243.187 113.462 243.187 113.462L245.064 112.712L246.125 114.197L244.324 114.911L244.322 114.913Z" fill="#FFFDFF"/>
<path d="M250.828 119.254L249.701 117.234L251.639 115.803L252.555 117.732L250.828 119.254Z" fill="#DA3329"/>
<path d="M280.048 126.439L278.921 124.418L280.859 122.985L281.775 124.914L280.048 126.439Z" fill="#DA3329"/>
<path d="M217.418 121.275L216.291 119.254L218.229 117.821L219.145 119.75L217.418 121.275Z" fill="#DA3329"/>
<path d="M168.209 87.8714L166.645 88.1215L165.519 86.351L167.533 85.9899L168.209 87.8714Z" fill="#F9AFAF"/>
<path d="M173.813 81.3394L172.249 81.5896L171.122 79.819L173.136 79.4601L173.813 81.3394Z" fill="#F9AFAF"/>
<path d="M178.768 112.614L178.333 110.806L176.875 111.274L176.708 113.419L178.768 112.614Z" fill="#FFFDFF"/>
<path d="M251.79 134.363L250.17 133.191L250.722 131.614L252.232 132.69L251.79 134.363Z" fill="#FFDA22"/>
<path d="M150.114 79.2904L148 78.8489L149.351 77.2914L151.041 77.8679L150.114 79.2904Z" fill="#FFDA22"/>
<path d="M247.654 110.75L248.637 111.254L248.818 112.285L247.263 111.744L247.654 110.75Z" fill="#F9AFAF"/>
<path d="M254.618 123.287L255.845 123.359L255.136 122.076L253.97 122.117L254.618 123.287Z" fill="#F9AFAF"/>
<path d="M257.643 106.556L258.919 107.841L259.381 105.86L258.062 104.748L257.643 106.556Z" fill="#DA3329"/>
<path d="M268.649 109.573L267.066 108.359L264.003 109.44L265.693 110.641L268.649 109.573Z" fill="#FFDA22"/>
<path d="M272.529 114.115C272.542 114.08 272.327 112.311 272.327 112.311L274.357 112.74L274.474 114.53L272.529 114.112V114.115Z" fill="#FFFDFF"/>
<path d="M264.088 83.16C264.125 83.1535 265.489 82.1138 265.489 82.1138L266.285 84.0714L264.847 85.0393L264.088 83.16Z" fill="#FFFDFF"/>
<path d="M285.495 61.1975C285.521 61.1975 286.935 60.3057 286.935 60.3057L286.459 62.4961L285.034 63.3009L285.495 61.1997V61.1975Z" fill="#FFFDFF"/>
<path d="M167.115 65.115C167.123 65.0888 166.747 63.4618 166.747 63.4618L168.657 64.6364L168.946 66.246L167.115 65.115Z" fill="#FFFDFF"/>
<path d="M264.696 117.299C264.723 117.299 266.136 116.407 266.136 116.407L265.66 118.598L264.235 119.402L264.696 117.301V117.299Z" fill="#FFFDFF"/>
<path d="M150.593 110.66C150.589 110.634 149.521 109.349 149.521 109.349L151.754 109.538L152.738 110.845L150.593 110.66Z" fill="#FFFDFF"/>
<path d="M260.274 116.066L260.388 113.806L262.839 113.717L262.593 115.787L260.274 116.066Z" fill="#DA3329"/>
<path d="M262.904 96.1022L261.412 95.4387L261.393 93.381L263.331 94.2032L262.904 96.1022Z" fill="#F9AFAF"/>
<path d="M271.275 93.9096L269.785 93.2462L269.764 91.1863L271.704 92.0107L271.275 93.9096Z" fill="#F9AFAF"/>
<path d="M293.52 77.4372L292.03 76.7738L292.008 74.7139L293.946 75.5383L293.52 77.4372Z" fill="#F9AFAF"/>
<path d="M258.706 121.993L259.302 120.285L257.788 119.861L256.487 121.506L258.706 121.993Z" fill="#FFFDFF"/>
<path d="M191.735 101.281L191.08 102.173L192.324 103.211L192.907 102.119L191.735 101.281Z" fill="#F9AFAF"/>
<path d="M266.13 97.8532C266.161 97.8532 266.189 97.8532 266.219 97.8619C266.248 97.8684 266.278 97.8793 266.304 97.8945C266.33 97.9097 266.356 97.9293 266.38 97.9532C266.402 97.9771 266.424 98.0054 266.439 98.038C266.5 98.1577 266.561 98.2773 266.624 98.3969C266.685 98.5166 266.746 98.6362 266.809 98.7558C266.87 98.8755 266.931 98.9951 266.994 99.1147C267.055 99.2344 267.116 99.354 267.179 99.4736C267.183 99.4823 267.209 99.5345 267.259 99.6128C267.309 99.6912 267.383 99.7912 267.483 99.9021C267.583 100.011 267.712 100.128 267.868 100.233C268.025 100.339 268.212 100.433 268.432 100.5C268.532 100.533 268.632 100.566 268.732 100.596C268.832 100.629 268.932 100.661 269.032 100.692C269.132 100.724 269.232 100.757 269.332 100.787C269.432 100.82 269.532 100.853 269.632 100.883C269.702 100.905 269.756 100.946 269.795 100.998C269.835 101.048 269.856 101.109 269.863 101.172C269.869 101.233 269.858 101.296 269.83 101.351C269.802 101.405 269.756 101.451 269.691 101.479C269.597 101.52 269.506 101.562 269.413 101.603L269.134 101.727C269.041 101.768 268.949 101.81 268.856 101.851C268.762 101.892 268.671 101.934 268.577 101.975C268.373 102.062 268.208 102.175 268.073 102.295C267.938 102.414 267.833 102.543 267.755 102.66C267.677 102.778 267.625 102.886 267.59 102.969C267.555 103.05 267.54 103.104 267.538 103.115C267.501 103.239 267.464 103.365 267.424 103.489C267.388 103.613 267.351 103.739 267.311 103.863C267.274 103.987 267.237 104.113 267.198 104.237C267.161 104.361 267.124 104.487 267.085 104.611C267.074 104.644 267.061 104.674 267.042 104.701C267.024 104.727 267.003 104.748 266.979 104.766C266.955 104.783 266.929 104.796 266.9 104.807C266.872 104.816 266.844 104.822 266.813 104.825C266.783 104.825 266.755 104.825 266.724 104.816C266.696 104.809 266.665 104.798 266.639 104.783C266.613 104.768 266.587 104.748 266.563 104.724C266.541 104.701 266.52 104.672 266.504 104.64C266.443 104.52 266.383 104.4 266.32 104.281C266.259 104.161 266.198 104.041 266.135 103.922C266.072 103.802 266.013 103.683 265.95 103.563C265.889 103.443 265.828 103.324 265.765 103.204C265.76 103.195 265.734 103.143 265.684 103.065C265.634 102.989 265.56 102.886 265.46 102.776C265.36 102.667 265.232 102.549 265.075 102.445C264.919 102.338 264.732 102.245 264.514 102.177C264.414 102.145 264.314 102.112 264.214 102.082C264.114 102.049 264.014 102.016 263.914 101.986C263.814 101.953 263.714 101.921 263.614 101.89C263.514 101.858 263.414 101.825 263.313 101.795C263.244 101.773 263.189 101.731 263.15 101.679C263.111 101.629 263.089 101.568 263.083 101.505C263.076 101.444 263.087 101.381 263.116 101.327C263.144 101.272 263.189 101.227 263.255 101.196C263.348 101.155 263.44 101.114 263.533 101.072C263.627 101.031 263.718 100.99 263.812 100.948C263.905 100.907 263.996 100.866 264.09 100.824C264.184 100.783 264.275 100.742 264.368 100.7C264.573 100.613 264.738 100.5 264.873 100.381C265.008 100.261 265.11 100.133 265.188 100.015C265.267 99.8978 265.319 99.789 265.354 99.7064C265.389 99.6259 265.404 99.5715 265.406 99.5606L265.519 99.1865C265.556 99.0625 265.593 98.9364 265.632 98.8124C265.669 98.6884 265.706 98.5623 265.745 98.4383C265.782 98.3143 265.819 98.1881 265.858 98.0641C265.869 98.0315 265.882 98.0011 265.902 97.975C265.921 97.9489 265.941 97.9271 265.965 97.9097C265.989 97.8923 266.015 97.8793 266.043 97.8684C266.072 97.8597 266.1 97.8532 266.13 97.851V97.8532Z" fill="#CC6F29"/>
<path d="M188.391 108.418C188.363 108.424 188.335 108.433 188.309 108.446C188.282 108.459 188.259 108.477 188.239 108.498C188.217 108.52 188.2 108.544 188.187 108.572C188.174 108.601 188.163 108.633 188.158 108.668L188.102 109.057C188.082 109.188 188.065 109.316 188.045 109.447C188.026 109.577 188.008 109.706 187.989 109.836C187.969 109.967 187.952 110.095 187.932 110.225C187.932 110.236 187.924 110.293 187.902 110.378C187.88 110.463 187.843 110.58 187.782 110.708C187.721 110.837 187.639 110.98 187.523 111.119C187.408 111.259 187.26 111.396 187.073 111.511C186.988 111.565 186.903 111.622 186.819 111.676C186.734 111.731 186.649 111.787 186.564 111.842L186.31 112.007C186.225 112.061 186.14 112.118 186.055 112.172C185.996 112.211 185.957 112.264 185.935 112.322C185.916 112.381 185.914 112.444 185.929 112.505C185.944 112.566 185.975 112.622 186.02 112.668C186.066 112.714 186.125 112.746 186.196 112.757C186.299 112.775 186.401 112.792 186.503 112.81C186.605 112.827 186.708 112.844 186.81 112.862C186.912 112.879 187.014 112.897 187.117 112.914L187.423 112.966C187.647 113.001 187.845 113.068 188.013 113.151C188.182 113.234 188.324 113.332 188.439 113.425C188.554 113.519 188.641 113.61 188.7 113.68C188.761 113.749 188.794 113.797 188.798 113.806C188.876 113.917 188.952 114.028 189.031 114.136C189.109 114.247 189.185 114.358 189.263 114.467C189.342 114.578 189.418 114.689 189.496 114.798C189.574 114.909 189.651 115.019 189.729 115.128C189.751 115.159 189.775 115.183 189.799 115.202C189.825 115.222 189.853 115.237 189.881 115.25C189.909 115.261 189.94 115.267 189.97 115.27C190.001 115.272 190.029 115.27 190.06 115.265C190.088 115.259 190.116 115.25 190.142 115.237C190.168 115.224 190.192 115.207 190.212 115.185C190.231 115.163 190.251 115.139 190.264 115.111C190.277 115.083 190.288 115.05 190.292 115.015C190.312 114.885 190.329 114.756 190.349 114.626C190.368 114.495 190.386 114.367 190.405 114.236L190.462 113.847C190.482 113.717 190.499 113.588 190.519 113.458C190.519 113.447 190.527 113.39 190.549 113.305C190.571 113.218 190.608 113.103 190.669 112.975C190.729 112.846 190.812 112.703 190.927 112.564C191.043 112.424 191.191 112.287 191.378 112.172C191.463 112.118 191.547 112.061 191.632 112.007C191.717 111.952 191.802 111.896 191.887 111.842L192.141 111.676C192.226 111.622 192.311 111.565 192.396 111.511C192.454 111.472 192.494 111.42 192.515 111.361C192.535 111.302 192.537 111.239 192.522 111.178C192.507 111.117 192.476 111.061 192.43 111.015C192.385 110.969 192.326 110.937 192.252 110.924C192.15 110.906 192.048 110.889 191.945 110.871C191.843 110.854 191.741 110.837 191.639 110.819L191.332 110.767C191.23 110.75 191.128 110.732 191.025 110.715C190.801 110.68 190.603 110.613 190.436 110.53C190.266 110.447 190.125 110.349 190.012 110.256C189.896 110.162 189.809 110.071 189.751 110.001C189.69 109.932 189.657 109.884 189.653 109.875C189.574 109.764 189.498 109.653 189.42 109.545C189.342 109.434 189.266 109.323 189.187 109.214C189.109 109.103 189.033 108.992 188.955 108.883C188.876 108.772 188.8 108.661 188.722 108.553C188.7 108.522 188.678 108.498 188.652 108.479C188.626 108.459 188.598 108.444 188.57 108.431C188.541 108.42 188.511 108.414 188.48 108.411C188.45 108.409 188.422 108.411 188.391 108.416V108.418Z" fill="#CC6F29"/>
<path d="M288.322 86.3444C288.291 86.3444 288.263 86.351 288.235 86.3597C288.206 86.3684 288.18 86.3814 288.156 86.3988C288.132 86.4162 288.111 86.438 288.093 86.4641C288.076 86.4902 288.061 86.5185 288.05 86.5533C288.011 86.6772 287.971 86.8012 287.932 86.9252C287.893 87.0492 287.854 87.1732 287.815 87.2972C287.776 87.4211 287.736 87.5451 287.697 87.6691C287.658 87.7931 287.619 87.9171 287.58 88.0411C287.578 88.0519 287.56 88.1041 287.525 88.1868C287.491 88.2694 287.436 88.376 287.356 88.4913C287.275 88.6088 287.171 88.7349 287.034 88.8524C286.897 88.9698 286.729 89.0808 286.525 89.1656C286.431 89.2069 286.338 89.2461 286.247 89.2874C286.153 89.3287 286.059 89.3679 285.968 89.4092L285.69 89.531C285.596 89.5724 285.503 89.6115 285.411 89.6528C285.346 89.6811 285.298 89.7268 285.27 89.7812C285.242 89.8356 285.229 89.8965 285.235 89.9595C285.239 90.0204 285.263 90.0813 285.3 90.1336C285.339 90.1858 285.394 90.2271 285.463 90.251C285.563 90.2836 285.661 90.3184 285.761 90.3511C285.862 90.3837 285.959 90.4185 286.059 90.4511C286.159 90.4838 286.257 90.5186 286.357 90.5512C286.457 90.5838 286.555 90.6186 286.655 90.6512C286.873 90.7208 287.06 90.8187 287.214 90.9253C287.371 91.0341 287.495 91.1515 287.595 91.2625C287.695 91.3734 287.767 91.4756 287.815 91.5539C287.863 91.6322 287.889 91.6844 287.893 91.6931C287.952 91.8128 288.013 91.9346 288.074 92.0542C288.132 92.1738 288.193 92.2957 288.252 92.4153C288.311 92.5349 288.372 92.6567 288.433 92.7764C288.491 92.896 288.552 93.0178 288.613 93.1374C288.628 93.1701 288.65 93.1983 288.672 93.2223C288.694 93.2462 288.72 93.2658 288.746 93.281C288.772 93.2962 288.802 93.3071 288.831 93.3158C288.859 93.3223 288.889 93.3267 288.92 93.3245C288.95 93.3245 288.978 93.318 289.007 93.3093C289.035 93.3006 289.061 93.2875 289.085 93.2701C289.109 93.2527 289.131 93.231 289.148 93.207C289.166 93.1809 289.181 93.1527 289.192 93.1179C289.231 92.9939 289.27 92.8699 289.309 92.7459C289.348 92.6219 289.387 92.4979 289.427 92.374L289.544 92.002C289.583 91.878 289.622 91.754 289.661 91.6301C289.664 91.6192 289.681 91.567 289.716 91.4843C289.751 91.4038 289.805 91.2951 289.886 91.1798C289.966 91.0623 290.07 90.9362 290.207 90.8187C290.344 90.7013 290.512 90.5903 290.716 90.5055L290.995 90.3837L291.273 90.2619L291.552 90.1401L291.83 90.0183C291.895 89.99 291.943 89.9443 291.971 89.8899C292 89.8356 292.013 89.7747 292.006 89.7116C292.002 89.6507 291.978 89.5898 291.941 89.5376C291.902 89.4854 291.848 89.444 291.778 89.4201C291.678 89.3875 291.58 89.3527 291.48 89.32C291.38 89.2874 291.282 89.2526 291.182 89.22C291.082 89.1874 290.984 89.1526 290.884 89.1199C290.784 89.0873 290.686 89.0525 290.586 89.0199C290.368 88.9503 290.184 88.8524 290.027 88.7458C289.87 88.6392 289.746 88.5196 289.646 88.4087C289.546 88.2977 289.474 88.1955 289.427 88.1172C289.379 88.0389 289.353 87.9867 289.348 87.978C289.287 87.8583 289.229 87.7365 289.168 87.6169C289.107 87.4973 289.048 87.3755 288.987 87.2558C288.926 87.1362 288.868 87.0144 288.807 86.8947C288.746 86.7751 288.687 86.6533 288.626 86.5337C288.611 86.5011 288.591 86.4728 288.567 86.4488C288.546 86.4249 288.52 86.4053 288.493 86.3901C288.467 86.3749 288.437 86.364 288.409 86.3553C288.38 86.3488 288.35 86.3444 288.319 86.3466L288.322 86.3444Z" fill="#DF5348"/>
<path d="M178.254 92.1999L179.627 90.6425C179.749 90.5055 179.931 90.4402 180.118 90.4685L182.222 90.7991C182.692 90.8731 183.011 90.3728 182.766 89.953L181.661 88.0715C181.563 87.904 181.55 87.7039 181.626 87.5342L182.485 85.6223C182.676 85.196 182.291 84.7065 181.832 84.7957L179.775 85.1894C179.592 85.2242 179.401 85.1655 179.261 85.0306L177.689 83.5189C177.339 83.1818 176.777 83.3797 176.74 83.8539L176.575 85.979C176.56 86.1661 176.455 86.3314 176.292 86.4184L174.461 87.395C174.052 87.6126 174.093 88.2238 174.528 88.4282L176.482 89.3461C176.656 89.4266 176.782 89.5876 176.821 89.7747L177.262 91.8889C177.36 92.3609 177.945 92.5414 178.252 92.1934L178.254 92.1999Z" fill="#DF5348"/>
<path d="M278.272 106.961H285.614L280.883 101.388C280.7 101.172 280.726 100.851 280.941 100.668C281.157 100.485 281.479 100.511 281.661 100.727L286.107 105.962V97.9554C286.107 97.6726 286.336 97.4442 286.618 97.4442C286.901 97.4442 287.13 97.6726 287.13 97.9554V105.962L291.576 100.727C291.758 100.511 292.08 100.485 292.296 100.668C292.511 100.851 292.537 101.172 292.354 101.388L287.623 106.961H294.965C295.247 106.961 295.476 107.189 295.476 107.472C295.476 107.754 295.247 107.983 294.965 107.983H287.824L292.844 113.895C293.026 114.11 293 114.432 292.785 114.615C292.689 114.695 292.572 114.737 292.454 114.737C292.311 114.737 292.165 114.676 292.065 114.556L287.132 108.744V119.148C287.132 119.431 286.903 119.659 286.621 119.659C286.338 119.659 286.11 119.431 286.11 119.148V108.744L281.176 114.556C281.076 114.676 280.933 114.737 280.787 114.737C280.669 114.737 280.552 114.698 280.456 114.615C280.241 114.432 280.215 114.11 280.398 113.895L285.418 107.983H278.277C277.994 107.983 277.766 107.754 277.766 107.472C277.766 107.189 277.994 106.961 278.277 106.961H278.272Z" fill="#FFDA22"/>
<defs>
<linearGradient id="paint0_linear_1835_3020" x1="221.746" y1="132.808" x2="207.493" y2="104.899" gradientUnits="userSpaceOnUse">
<stop stop-color="white"/>
<stop offset="1" stop-color="#F9AFAF"/>
</linearGradient>
<linearGradient id="paint1_linear_1835_3020" x1="242.913" y1="142.924" x2="264.068" y2="114.672" gradientUnits="userSpaceOnUse">
<stop offset="0.42" stop-color="white"/>
<stop offset="1" stop-color="#F49595"/>
</linearGradient>
<linearGradient id="paint2_linear_1835_3020" x1="211.75" y1="56.8376" x2="217.402" y2="37.7534" gradientUnits="userSpaceOnUse">
<stop stop-color="#5E481D"/>
<stop offset="0.09" stop-color="#946C1F"/>
<stop offset="0.65" stop-color="#D0B83E"/>
<stop offset="1" stop-color="#CCB235"/>
</linearGradient>
<linearGradient id="paint3_linear_1835_3020" x1="217.032" y1="60.6779" x2="209.804" y2="38.2801" gradientUnits="userSpaceOnUse">
<stop stop-color="#5E481D"/>
<stop offset="0.43" stop-color="#AB962F"/>
<stop offset="0.63" stop-color="#DBC658"/>
<stop offset="0.9" stop-color="#DBC658"/>
<stop offset="1" stop-color="#CCB235"/>
</linearGradient>
<linearGradient id="paint4_linear_1835_3020" x1="219.232" y1="57.2095" x2="202.626" y2="49.5121" gradientUnits="userSpaceOnUse">
<stop stop-color="#946C1F"/>
<stop offset="0.75" stop-color="#DBC658"/>
<stop offset="1" stop-color="#946C1F"/>
</linearGradient>
<linearGradient id="paint5_linear_1835_3020" x1="237.289" y1="36.6929" x2="241.569" y2="65.5792" gradientUnits="userSpaceOnUse">
<stop stop-color="#5E481D"/>
<stop offset="0.09" stop-color="#946C1F"/>
<stop offset="0.65" stop-color="#D0B83E"/>
<stop offset="1" stop-color="#CCB235"/>
</linearGradient>
<linearGradient id="paint6_linear_1835_3020" x1="233.345" y1="35.2957" x2="234.842" y2="47.861" gradientUnits="userSpaceOnUse">
<stop stop-color="#5E481D"/>
<stop offset="0.14" stop-color="#CAB95C"/>
<stop offset="0.51" stop-color="#EFE4AB"/>
<stop offset="0.84" stop-color="#EFE4AB"/>
<stop offset="1" stop-color="#CCB235"/>
</linearGradient>
<linearGradient id="paint7_linear_1835_3020" x1="234.561" y1="51.3797" x2="245.942" y2="37.0671" gradientUnits="userSpaceOnUse">
<stop stop-color="#946C1F"/>
<stop offset="0.75" stop-color="#DBC658"/>
<stop offset="1" stop-color="#946C1F"/>
</linearGradient>
<linearGradient id="paint8_linear_1835_3020" x1="213.86" y1="58.1999" x2="209.748" y2="42.3838" gradientUnits="userSpaceOnUse">
<stop stop-color="#5E481D"/>
<stop offset="0.21" stop-color="#946C1F"/>
<stop offset="0.65" stop-color="#D0B83E"/>
<stop offset="1" stop-color="#CCB235"/>
</linearGradient>
<linearGradient id="paint9_linear_1835_3020" x1="205.16" y1="60.7084" x2="200.878" y2="44.2516" gradientUnits="userSpaceOnUse">
<stop offset="0.07" stop-color="#5E481D"/>
<stop offset="0.31" stop-color="#E8D30F"/>
<stop offset="0.62" stop-color="#FFF036"/>
<stop offset="0.82" stop-color="#E8D30F"/>
<stop offset="1" stop-color="#CCB235"/>
</linearGradient>
<linearGradient id="paint10_linear_1835_3020" x1="204.762" y1="52.0489" x2="219.477" y2="47.0454" gradientUnits="userSpaceOnUse">
<stop stop-color="#946C1F"/>
<stop offset="0.75" stop-color="#DBC658"/>
<stop offset="1" stop-color="#946C1F"/>
</linearGradient>
<linearGradient id="paint11_linear_1835_3020" x1="226.317" y1="51.6215" x2="219.267" y2="36.272" gradientUnits="userSpaceOnUse">
<stop stop-color="#5E481D"/>
<stop offset="0.29" stop-color="#946C1F"/>
<stop offset="0.61" stop-color="#D0B83E"/>
<stop offset="0.81" stop-color="#CCB235"/>
<stop offset="1" stop-color="#946C1F"/>
</linearGradient>
<linearGradient id="paint12_linear_1835_3020" x1="233.993" y1="48.8363" x2="226.594" y2="32.7265" gradientUnits="userSpaceOnUse">
<stop stop-color="#5E481D"/>
<stop offset="0.43" stop-color="#AB962F"/>
<stop offset="0.63" stop-color="#DBC658"/>
<stop offset="0.9" stop-color="#DBC658"/>
<stop offset="1" stop-color="#CCB235"/>
</linearGradient>
<linearGradient id="paint13_linear_1835_3020" x1="228.614" y1="41.0825" x2="215.809" y2="45.8625" gradientUnits="userSpaceOnUse">
<stop stop-color="#946C1F"/>
<stop offset="0.75" stop-color="#DBC658"/>
<stop offset="1" stop-color="#946C1F"/>
</linearGradient>
<linearGradient id="paint14_linear_1835_3020" x1="223.92" y1="73.8787" x2="221.877" y2="62.632" gradientUnits="userSpaceOnUse">
<stop stop-color="#ED7C7B"/>
<stop offset="1" stop-color="#881B11"/>
</linearGradient>
<linearGradient id="paint15_linear_1835_3020" x1="266.59" y1="71.1618" x2="262.709" y2="65.7328" gradientUnits="userSpaceOnUse">
<stop offset="0.1" stop-color="#DA3329"/>
<stop offset="0.54" stop-color="#EC7673"/>
<stop offset="0.68" stop-color="#EB7370"/>
<stop offset="0.75" stop-color="#E96C68"/>
<stop offset="0.81" stop-color="#E6605B"/>
<stop offset="0.86" stop-color="#E14F48"/>
<stop offset="0.91" stop-color="#DB392F"/>
<stop offset="0.92" stop-color="#DA3329"/>
</linearGradient>
<linearGradient id="paint16_linear_1835_3020" x1="283.836" y1="70.2637" x2="291.288" y2="70.8135" gradientUnits="userSpaceOnUse">
<stop offset="0.1" stop-color="#DA3329"/>
<stop offset="0.54" stop-color="#EC7673"/>
<stop offset="0.68" stop-color="#EB7370"/>
<stop offset="0.75" stop-color="#E96C68"/>
<stop offset="0.81" stop-color="#E6605B"/>
<stop offset="0.86" stop-color="#E14F48"/>
<stop offset="0.91" stop-color="#DB392F"/>
<stop offset="0.92" stop-color="#DA3329"/>
</linearGradient>
<linearGradient id="paint17_linear_1835_3020" x1="263.44" y1="61.9444" x2="273.717" y2="63.1703" gradientUnits="userSpaceOnUse">
<stop offset="0.1" stop-color="#DA3329"/>
<stop offset="0.54" stop-color="#EC7673"/>
<stop offset="0.68" stop-color="#EB7370"/>
<stop offset="0.75" stop-color="#E96C68"/>
<stop offset="0.81" stop-color="#E6605B"/>
<stop offset="0.86" stop-color="#E14F48"/>
<stop offset="0.91" stop-color="#DB392F"/>
<stop offset="0.92" stop-color="#DA3329"/>
</linearGradient>
<linearGradient id="paint18_linear_1835_3020" x1="283.604" y1="85.8964" x2="273.177" y2="77.1662" gradientUnits="userSpaceOnUse">
<stop offset="0.05" stop-color="#5E481D"/>
<stop offset="0.38" stop-color="#DDB81B"/>
<stop offset="0.51" stop-color="#F2D766"/>
<stop offset="0.84" stop-color="#F2CF3B"/>
<stop offset="1" stop-color="#CCB235"/>
</linearGradient>
<linearGradient id="paint19_linear_1835_3020" x1="287.456" y1="79.0694" x2="277.148" y2="69.2747" gradientUnits="userSpaceOnUse">
<stop offset="0.05" stop-color="#5E481D"/>
<stop offset="0.38" stop-color="#DDB81B"/>
<stop offset="0.51" stop-color="#F2D766"/>
<stop offset="0.84" stop-color="#F2CF3B"/>
<stop offset="1" stop-color="#CCB235"/>
</linearGradient>
<linearGradient id="paint20_linear_1835_3020" x1="207.334" y1="95.1449" x2="204.568" y2="108.82" gradientUnits="userSpaceOnUse">
<stop offset="0.1" stop-color="#DA3329"/>
<stop offset="0.54" stop-color="#EC7673"/>
<stop offset="0.68" stop-color="#EB7370"/>
<stop offset="0.75" stop-color="#E96C68"/>
<stop offset="0.81" stop-color="#E6605B"/>
<stop offset="0.86" stop-color="#E14F48"/>
<stop offset="0.91" stop-color="#DB392F"/>
<stop offset="0.92" stop-color="#DA3329"/>
</linearGradient>
<linearGradient id="paint21_linear_1835_3020" x1="201.09" y1="93.8811" x2="198.324" y2="107.556" gradientUnits="userSpaceOnUse">
<stop offset="0.1" stop-color="#DA3329"/>
<stop offset="0.54" stop-color="#EC7673"/>
<stop offset="0.68" stop-color="#EB7370"/>
<stop offset="0.75" stop-color="#E96C68"/>
<stop offset="0.81" stop-color="#E6605B"/>
<stop offset="0.86" stop-color="#E14F48"/>
<stop offset="0.91" stop-color="#DB392F"/>
<stop offset="0.92" stop-color="#DA3329"/>
</linearGradient>
<linearGradient id="paint22_linear_1835_3020" x1="209" y1="89.2436" x2="198.47" y2="99.2563" gradientUnits="userSpaceOnUse">
<stop offset="0.05" stop-color="#5E481D"/>
<stop offset="0.38" stop-color="#DDB81B"/>
<stop offset="0.51" stop-color="#F2D766"/>
<stop offset="0.84" stop-color="#F2CF3B"/>
<stop offset="1" stop-color="#CCB235"/>
</linearGradient>
<linearGradient id="paint23_linear_1835_3020" x1="197.886" y1="106.019" x2="213.248" y2="94.4517" gradientUnits="userSpaceOnUse">
<stop offset="0.02" stop-color="#FFA300"/>
<stop offset="0.38" stop-color="#DDB81B"/>
<stop offset="0.51" stop-color="#F2D766"/>
<stop offset="0.84" stop-color="#F2CF3B"/>
<stop offset="1" stop-color="#CCB235"/>
</linearGradient>
</defs>
</svg>
