<svg width="20" height="20" viewBox="0 0 20 20" fill="none" xmlns="http://www.w3.org/2000/svg">
<path d="M17.1667 10C17.1667 9.72388 16.9429 9.50002 16.6667 9.50002C16.3906 9.50002 16.1667 9.72388 16.1667 10H17.1667ZM16.6667 18.3334V18.8334C16.9429 18.8334 17.1667 18.6095 17.1667 18.3334H16.6667ZM3.33341 18.3334H2.83341C2.83341 18.6095 3.05727 18.8334 3.33341 18.8334V18.3334ZM3.83341 10C3.83341 9.72388 3.60956 9.50002 3.33341 9.50002C3.05727 9.50002 2.83341 9.72388 2.83341 10H3.83341ZM1.66675 5.83335V5.33335C1.39061 5.33335 1.16675 5.55721 1.16675 5.83335H1.66675ZM18.3334 5.83335H18.8334C18.8334 5.55721 18.6096 5.33335 18.3334 5.33335V5.83335ZM18.3334 10V10.5C18.6096 10.5 18.8334 10.2762 18.8334 10H18.3334ZM1.66675 10H1.16675C1.16675 10.2762 1.39061 10.5 1.66675 10.5V10ZM9.50008 18.3334C9.50008 18.6095 9.72394 18.8334 10.0001 18.8334C10.2762 18.8334 10.5001 18.6095 10.5001 18.3334H9.50008ZM6.25008 5.83335L6.25008 5.33335L6.25008 5.83335ZM4.16675 3.75002L3.66675 3.75002L4.16675 3.75002ZM6.25008 1.66669V1.16669V1.66669ZM13.7501 5.83335V5.33335V5.83335ZM13.7501 1.66669V2.16669V1.66669ZM16.1667 10V18.3334H17.1667V10H16.1667ZM16.6667 17.8334H3.33341V18.8334H16.6667V17.8334ZM3.83341 18.3334V10H2.83341V18.3334H3.83341ZM1.66675 6.33335H18.3334V5.33335H1.66675V6.33335ZM17.8334 5.83335V10H18.8334V5.83335H17.8334ZM18.3334 9.50002H1.66675V10.5H18.3334V9.50002ZM2.16675 10V5.83335H1.16675V10H2.16675ZM10.5001 18.3334V5.83335H9.50008V18.3334H10.5001ZM10.0001 5.33335H6.25008V6.33335H10.0001V5.33335ZM6.25008 5.33335C5.83016 5.33335 5.42743 5.16654 5.1305 4.86961L4.42339 5.57671C4.90786 6.06118 5.56494 6.33335 6.25008 6.33335L6.25008 5.33335ZM5.1305 4.86961C4.83356 4.57267 4.66675 4.16995 4.66675 3.75002L3.66675 3.75002C3.66675 4.43516 3.93892 5.09224 4.42339 5.57671L5.1305 4.86961ZM4.66675 3.75002C4.66675 3.33009 4.83356 2.92737 5.1305 2.63043L4.42339 1.92333C3.93892 2.4078 3.66675 3.06488 3.66675 3.75002L4.66675 3.75002ZM5.1305 2.63043C5.42743 2.3335 5.83016 2.16669 6.25008 2.16669V1.16669C5.56494 1.16669 4.90786 1.43886 4.42339 1.92333L5.1305 2.63043ZM6.25008 2.16669C7.43037 2.16669 8.23707 3.00253 8.78072 3.99098C9.04676 4.47468 9.23039 4.96303 9.34763 5.33326C9.40596 5.51747 9.44717 5.67022 9.47351 5.77559C9.48666 5.82822 9.49608 5.86887 9.50203 5.89554C9.50501 5.90887 9.50712 5.9187 9.5084 5.92476C9.50904 5.9278 9.50948 5.92989 9.50971 5.93101C9.50982 5.93157 9.50989 5.93188 9.5099 5.93195C9.50991 5.93199 9.5099 5.93196 9.50988 5.93187C9.50987 5.93182 9.50985 5.93171 9.50985 5.93169C9.50982 5.93156 9.50979 5.93141 10.0001 5.83335C10.4904 5.7353 10.4903 5.73512 10.4903 5.73493C10.4903 5.73484 10.4902 5.73463 10.4902 5.73446C10.4901 5.73412 10.4901 5.73371 10.49 5.73324C10.4898 5.7323 10.4895 5.7311 10.4892 5.72966C10.4886 5.72677 10.4878 5.72289 10.4868 5.71804C10.4848 5.70834 10.4818 5.69476 10.478 5.67758C10.4703 5.64322 10.459 5.59435 10.4436 5.53305C10.413 5.41055 10.3663 5.23778 10.301 5.03137C10.1708 4.62035 9.96382 4.06703 9.65694 3.50906C9.05476 2.41418 7.98646 1.16669 6.25008 1.16669V2.16669ZM10.0001 6.33335H13.7501V5.33335H10.0001V6.33335ZM13.7501 6.33335C14.4352 6.33335 15.0923 6.06118 15.5768 5.57671L14.8697 4.86961C14.5727 5.16654 14.17 5.33335 13.7501 5.33335V6.33335ZM15.5768 5.57671C16.0612 5.09224 16.3334 4.43516 16.3334 3.75002H15.3334C15.3334 4.16995 15.1666 4.57267 14.8697 4.86961L15.5768 5.57671ZM16.3334 3.75002C16.3334 3.06488 16.0612 2.4078 15.5768 1.92333L14.8697 2.63043C15.1666 2.92737 15.3334 3.33009 15.3334 3.75002H16.3334ZM15.5768 1.92333C15.0923 1.43886 14.4352 1.16669 13.7501 1.16669V2.16669C14.17 2.16669 14.5727 2.3335 14.8697 2.63043L15.5768 1.92333ZM13.7501 1.16669C12.0137 1.16669 10.9454 2.41418 10.3432 3.50906C10.0363 4.06703 9.82935 4.62035 9.69919 5.03137C9.63383 5.23778 9.58714 5.41055 9.55651 5.53305C9.54119 5.59435 9.52985 5.64322 9.52217 5.67758C9.51834 5.69476 9.51541 5.70834 9.51336 5.71804C9.51234 5.72289 9.51153 5.72677 9.51094 5.72966C9.51064 5.7311 9.5104 5.7323 9.51021 5.73324C9.51011 5.73371 9.51003 5.73412 9.50996 5.73446C9.50992 5.73463 9.50988 5.73484 9.50987 5.73493C9.50983 5.73512 9.50979 5.7353 10.0001 5.83335C10.4904 5.93141 10.4903 5.93156 10.4903 5.93169C10.4903 5.93171 10.4903 5.93182 10.4903 5.93187C10.4903 5.93196 10.4903 5.93199 10.4903 5.93195C10.4903 5.93188 10.4903 5.93157 10.4905 5.93101C10.4907 5.92989 10.4911 5.9278 10.4918 5.92476C10.493 5.9187 10.4952 5.90887 10.4981 5.89554C10.5041 5.86887 10.5135 5.82822 10.5267 5.77559C10.553 5.67022 10.5942 5.51747 10.6525 5.33326C10.7698 4.96303 10.9534 4.47468 11.2194 3.99098C11.7631 3.00253 12.5698 2.16669 13.7501 2.16669V1.16669Z" fill="#666666"/>
</svg>
