<svg width="20" height="20" viewBox="0 0 20 20" fill="none" xmlns="http://www.w3.org/2000/svg">
<path d="M17.1665 10C17.1665 9.72388 16.9426 9.50002 16.6665 9.50002C16.3904 9.50002 16.1665 9.72388 16.1665 10H17.1665ZM16.6665 18.3334V18.8334C16.9426 18.8334 17.1665 18.6095 17.1665 18.3334H16.6665ZM3.33317 18.3334H2.83317C2.83317 18.6095 3.05703 18.8334 3.33317 18.8334V18.3334ZM3.83317 10C3.83317 9.72388 3.60931 9.50002 3.33317 9.50002C3.05703 9.50002 2.83317 9.72388 2.83317 10H3.83317ZM1.6665 5.83335V5.33335C1.39036 5.33335 1.1665 5.55721 1.1665 5.83335H1.6665ZM18.3332 5.83335H18.8332C18.8332 5.55721 18.6093 5.33335 18.3332 5.33335V5.83335ZM18.3332 10V10.5C18.6093 10.5 18.8332 10.2762 18.8332 10H18.3332ZM1.6665 10H1.1665C1.1665 10.2762 1.39036 10.5 1.6665 10.5V10ZM9.49984 18.3334C9.49984 18.6095 9.7237 18.8334 9.99984 18.8334C10.276 18.8334 10.4998 18.6095 10.4998 18.3334H9.49984ZM6.24984 5.83335L6.24984 5.33335L6.24984 5.83335ZM4.1665 3.75002L3.6665 3.75002L4.1665 3.75002ZM6.24984 1.66669V1.16669V1.66669ZM13.7498 5.83335V5.33335V5.83335ZM13.7498 1.66669V2.16669V1.66669ZM16.1665 10V18.3334H17.1665V10H16.1665ZM16.6665 17.8334H3.33317V18.8334H16.6665V17.8334ZM3.83317 18.3334V10H2.83317V18.3334H3.83317ZM1.6665 6.33335H18.3332V5.33335H1.6665V6.33335ZM17.8332 5.83335V10H18.8332V5.83335H17.8332ZM18.3332 9.50002H1.6665V10.5H18.3332V9.50002ZM2.1665 10V5.83335H1.1665V10H2.1665ZM10.4998 18.3334V5.83335H9.49984V18.3334H10.4998ZM9.99984 5.33335H6.24984V6.33335H9.99984V5.33335ZM6.24984 5.33335C5.82991 5.33335 5.42718 5.16654 5.13025 4.86961L4.42314 5.57671C4.90761 6.06118 5.56469 6.33335 6.24984 6.33335L6.24984 5.33335ZM5.13025 4.86961C4.83332 4.57267 4.6665 4.16995 4.6665 3.75002L3.6665 3.75002C3.6665 4.43516 3.93868 5.09224 4.42314 5.57671L5.13025 4.86961ZM4.6665 3.75002C4.6665 3.33009 4.83332 2.92737 5.13025 2.63043L4.42314 1.92333C3.93868 2.4078 3.6665 3.06488 3.6665 3.75002L4.6665 3.75002ZM5.13025 2.63043C5.42718 2.3335 5.82991 2.16669 6.24984 2.16669V1.16669C5.56469 1.16669 4.90761 1.43886 4.42314 1.92333L5.13025 2.63043ZM6.24984 2.16669C7.43012 2.16669 8.23683 3.00253 8.78048 3.99098C9.04652 4.47468 9.23015 4.96303 9.34739 5.33326C9.40572 5.51747 9.44692 5.67022 9.47326 5.77559C9.48642 5.82822 9.49583 5.86887 9.50179 5.89554C9.50477 5.90887 9.50688 5.9187 9.50816 5.92476C9.5088 5.9278 9.50923 5.92989 9.50946 5.93101C9.50958 5.93157 9.50964 5.93188 9.50966 5.93195C9.50966 5.93199 9.50966 5.93196 9.50964 5.93187C9.50963 5.93182 9.50961 5.93171 9.5096 5.93169C9.50958 5.93156 9.50955 5.93141 9.99984 5.83335C10.4901 5.7353 10.4901 5.73512 10.4901 5.73493C10.49 5.73484 10.49 5.73463 10.49 5.73446C10.4899 5.73412 10.4898 5.73371 10.4897 5.73324C10.4895 5.7323 10.4893 5.7311 10.489 5.72966C10.4884 5.72677 10.4876 5.72289 10.4866 5.71804C10.4845 5.70834 10.4816 5.69476 10.4777 5.67758C10.4701 5.64322 10.4587 5.59435 10.4434 5.53305C10.4128 5.41055 10.3661 5.23778 10.3007 5.03137C10.1706 4.62035 9.96358 4.06703 9.6567 3.50906C9.05451 2.41418 7.98622 1.16669 6.24984 1.16669V2.16669ZM9.99984 6.33335H13.7498V5.33335H9.99984V6.33335ZM13.7498 6.33335C14.435 6.33335 15.0921 6.06118 15.5765 5.57671L14.8694 4.86961C14.5725 5.16654 14.1698 5.33335 13.7498 5.33335V6.33335ZM15.5765 5.57671C16.061 5.09224 16.3332 4.43516 16.3332 3.75002H15.3332C15.3332 4.16995 15.1664 4.57267 14.8694 4.86961L15.5765 5.57671ZM16.3332 3.75002C16.3332 3.06488 16.061 2.4078 15.5765 1.92333L14.8694 2.63043C15.1664 2.92737 15.3332 3.33009 15.3332 3.75002H16.3332ZM15.5765 1.92333C15.0921 1.43886 14.435 1.16669 13.7498 1.16669V2.16669C14.1698 2.16669 14.5725 2.3335 14.8694 2.63043L15.5765 1.92333ZM13.7498 1.16669C12.0135 1.16669 10.9452 2.41418 10.343 3.50906C10.0361 4.06703 9.8291 4.62035 9.69895 5.03137C9.63358 5.23778 9.5869 5.41055 9.55627 5.53305C9.54094 5.59435 9.5296 5.64322 9.52193 5.67758C9.51809 5.69476 9.51517 5.70834 9.51312 5.71804C9.51209 5.72289 9.51129 5.72677 9.51069 5.72966C9.5104 5.7311 9.51015 5.7323 9.50996 5.73324C9.50987 5.73371 9.50978 5.73412 9.50972 5.73446C9.50968 5.73463 9.50964 5.73484 9.50962 5.73493C9.50958 5.73512 9.50955 5.7353 9.99984 5.83335C10.4901 5.93141 10.4901 5.93156 10.4901 5.93169C10.4901 5.93171 10.49 5.93182 10.49 5.93187C10.49 5.93196 10.49 5.93199 10.49 5.93195C10.49 5.93188 10.4901 5.93157 10.4902 5.93101C10.4904 5.92989 10.4909 5.9278 10.4915 5.92476C10.4928 5.9187 10.4949 5.90887 10.4979 5.89554C10.5038 5.86887 10.5133 5.82822 10.5264 5.77559C10.5528 5.67022 10.594 5.51747 10.6523 5.33326C10.7695 4.96303 10.9532 4.47468 11.2192 3.99098C11.7628 3.00253 12.5696 2.16669 13.7498 2.16669V1.16669Z" fill="#3182F6"/>
</svg>
