<svg width="24" height="24" viewBox="0 0 24 24" fill="none" xmlns="http://www.w3.org/2000/svg">
<g id="&#236;&#149;&#132;&#236;&#157;&#180;&#236;&#189;&#152;/24*24/&#234;&#184;&#176;&#237;&#148;&#132;&#237;&#138;&#184;">
<path id="Fill 1" fill-rule="evenodd" clip-rule="evenodd" d="M8.33162 19.1033H2.56433C1.91865 19.1033 1.39453 18.5775 1.39453 17.9296V7.97303C1.39453 7.32619 1.91865 6.79932 2.56433 6.79932H8.33162V19.1033ZM4.78481 3.90093C4.93527 3.631 5.19634 3.45304 5.49925 3.41005C5.54508 3.40405 5.59092 3.40006 5.63675 3.40006C5.89184 3.40006 6.13496 3.50103 6.31831 3.68599L7.97635 5.34758H5.63277C5.28004 5.34758 4.97513 5.17263 4.79577 4.8677C4.61742 4.56177 4.61343 4.21086 4.78481 3.90093ZM11.741 3.68603C11.9582 3.46708 12.2592 3.37111 12.5611 3.4101C12.866 3.45309 13.126 3.63104 13.2755 3.90098C13.4469 4.2099 13.4429 4.56182 13.2635 4.86774C13.0852 5.17267 12.7803 5.34763 12.4266 5.34763H10.085L11.741 3.68603ZM15.4943 5.39957H14.5408C14.8776 4.70374 14.8736 3.90493 14.4939 3.2191C14.1293 2.56326 13.4955 2.12836 12.7532 2.02339C12.0069 1.92041 11.2835 2.16535 10.7544 2.69623L9.02957 4.42581L7.30576 2.69623C6.77666 2.16535 6.05127 1.91941 5.30794 2.02339C4.5666 2.12736 3.93188 2.56326 3.56719 3.2191C3.18655 3.90393 3.18157 4.70374 3.51836 5.39957H2.56479C1.15087 5.39957 0 6.55429 0 7.97295V17.9295C0 19.3482 1.15087 20.5029 2.56479 20.5029H10.025C10.4106 20.5029 10.7225 20.19 10.7225 19.8031C10.7225 19.4162 10.4106 19.1032 10.025 19.1032H9.72706V6.79923H15.4943C16.14 6.79923 16.6641 7.3261 16.6641 7.97295V12.6548C16.6641 13.0417 16.977 13.3546 17.3626 13.3546C17.7473 13.3546 18.0601 13.0417 18.0601 12.6548V7.97295C18.0601 6.55429 16.9083 5.39957 15.4943 5.39957Z" fill="#333333"/>
<path id="Combined Shape" fill-rule="evenodd" clip-rule="evenodd" d="M21.4833 18.8929C21.4833 18.1381 21.9476 17.4832 22.6043 17.2013V16.1855H14.041V17.1893C14.7096 17.4662 15.1809 18.1251 15.1809 18.8929C15.1809 19.6617 14.7086 20.3215 14.041 20.5965V21.5992H22.6043V20.5845C21.9476 20.3035 21.4833 19.6477 21.4833 18.8929ZM23.9997 17.7552C23.9997 18.1381 23.6948 18.449 23.3132 18.455C23.07 18.459 22.8787 18.651 22.8787 18.8929C22.8787 19.1348 23.07 19.3268 23.3132 19.3308C23.6948 19.3368 23.9997 19.6487 23.9997 20.0306V21.7702C23.9997 22.448 23.4507 22.9999 22.7751 22.9999H13.8711C13.1965 22.9999 12.6465 22.448 12.6465 21.7702V20.0336C12.6465 19.6467 12.9584 19.3338 13.344 19.3338C13.5891 19.3338 13.7854 19.1368 13.7854 18.8929C13.7854 18.65 13.5891 18.452 13.347 18.452C12.9614 18.452 12.6465 18.1381 12.6465 17.7522V16.0146C12.6465 15.3378 13.1965 14.7859 13.8711 14.7859H22.7751C23.4507 14.7859 23.9997 15.3378 23.9997 16.0146V17.7552ZM20.5912 20.4165C20.5912 20.8034 20.2794 21.1164 19.8938 21.1164C19.5081 21.1164 19.1963 20.8034 19.1963 20.4165V17.3693C19.1963 16.9824 19.5081 16.6694 19.8938 16.6694C20.2794 16.6694 20.5912 16.9824 20.5912 17.3693V20.4165Z" fill="#3182F6"/>
</g>
</svg>
