<svg width="56" height="56" viewBox="0 0 56 56" fill="none" xmlns="http://www.w3.org/2000/svg">
<rect x="0.5" y="0.5" width="55" height="55" rx="27.5" fill="#F9FAFC"/>
<path d="M16.4911 28.6518L14.643 29.7188L15.776 31.6812L14.8186 32.234L13.6856 30.2716L11.847 31.3331L11.3438 30.4614L13.1824 29.3999L12.0549 27.447L13.0123 26.8943L14.1398 28.8472L15.9879 27.7802L16.4911 28.6518ZM22.9462 27.4336L23.4549 28.3148L19.6444 30.5148L19.1356 29.6336L20.5312 28.8278L18.213 24.8125C18.1213 24.6537 18.0317 24.4875 17.944 24.3137L17.4318 25.7144C17.4003 25.7919 17.3596 25.8535 17.3098 25.8992C17.2613 25.9399 17.2089 25.9701 17.1526 25.9899C17.0995 26.0079 17.0475 26.0168 16.9965 26.0165C16.9438 26.0131 16.8996 26.0027 16.864 25.9851L16.1983 25.6899L17.2676 22.691L18.2345 22.1327L21.7077 28.1486L22.9462 27.4336ZM27.3499 21.4743C27.6964 22.0745 27.9329 22.6344 28.0593 23.1542C28.1872 23.6689 28.2202 24.1367 28.1584 24.5577C28.0997 24.9768 27.9561 25.3477 27.7274 25.6702C27.5 25.9878 27.207 26.2501 26.8481 26.4573C26.4893 26.6645 26.1156 26.7871 25.7269 26.8252C25.3395 26.8583 24.9497 26.7955 24.5574 26.6367C24.1651 26.4779 23.7781 26.2145 23.3962 25.8464C23.0125 25.4752 22.6474 24.9895 22.3009 24.3893C21.9526 23.786 21.7145 23.227 21.5867 22.7123C21.4589 22.1975 21.4243 21.7306 21.4829 21.3115C21.5416 20.8924 21.683 20.5249 21.9071 20.2092C22.1326 19.8885 22.4248 19.6245 22.7836 19.4174C23.1425 19.2102 23.5171 19.0892 23.9076 19.0542C24.2995 19.0143 24.6916 19.0737 25.0839 19.2325C25.4793 19.3895 25.868 19.652 26.2498 20.02C26.6349 20.3862 27.0015 20.871 27.3499 21.4743ZM26.1353 22.1756C25.8474 21.677 25.5726 21.2853 25.3107 21.0004C25.0489 20.7155 24.8001 20.512 24.5644 20.3898C24.3319 20.2657 24.1143 20.2114 23.9115 20.2269C23.7069 20.2392 23.5189 20.2948 23.3474 20.3938C23.1791 20.491 23.0385 20.6251 22.9255 20.7961C22.8139 20.9622 22.7537 21.1769 22.7449 21.4403C22.7361 21.7036 22.7895 22.0199 22.9053 22.3892C23.0243 22.7566 23.2277 23.1895 23.5155 23.6881C23.8034 24.1866 24.0766 24.5793 24.3353 24.866C24.5972 25.1509 24.8444 25.3554 25.0769 25.4794C25.3094 25.6034 25.5264 25.6602 25.7278 25.6498C25.9306 25.6343 26.1161 25.578 26.2844 25.4809C26.4559 25.3819 26.599 25.2484 26.7138 25.0805C26.8267 24.9095 26.8876 24.6923 26.8964 24.4289C26.9084 24.1637 26.8565 23.8465 26.7407 23.4773C26.6249 23.108 26.4231 22.6741 26.1353 22.1756ZM32.8759 18.2839C33.2224 18.8841 33.4588 19.444 33.5853 19.9637C33.7131 20.4784 33.7461 20.9463 33.6844 21.3673C33.6257 21.7864 33.4821 22.1572 33.2534 22.4798C33.026 22.7973 32.7329 23.0597 32.3741 23.2669C32.0153 23.474 31.6415 23.5967 31.2529 23.6348C30.8655 23.6679 30.4757 23.605 30.0834 23.4463C29.6911 23.2875 29.3041 23.024 28.9222 22.656C28.5385 22.2848 28.1734 21.7991 27.8269 21.1989C27.4786 20.5956 27.2405 20.0366 27.1127 19.5218C26.9849 19.0071 26.9503 18.5402 27.0089 18.1211C27.0675 17.7019 27.2089 17.3345 27.4331 17.0188C27.6586 16.6981 27.9508 16.4341 28.3096 16.2269C28.6684 16.0198 29.0431 15.8987 29.4336 15.8638C29.8255 15.8238 30.2176 15.8833 30.6099 16.0421C31.0053 16.199 31.394 16.4615 31.7758 16.8296C32.1608 17.1958 32.5275 17.6806 32.8759 18.2839ZM31.6613 18.9852C31.3734 18.4866 31.0986 18.0949 30.8367 17.81C30.5748 17.5251 30.3261 17.3215 30.0904 17.1993C29.8579 17.0753 29.6403 17.021 29.4375 17.0365C29.2329 17.0487 29.0448 17.1044 28.8734 17.2034C28.7051 17.3006 28.5645 17.4347 28.4515 17.6057C28.3399 17.7718 28.2797 17.9865 28.2709 18.2498C28.262 18.5132 28.3155 18.8295 28.4313 19.1987C28.5503 19.5661 28.7537 19.9991 29.0415 20.4977C29.3294 20.9962 29.6026 21.3888 29.8613 21.6756C30.1232 21.9605 30.3704 22.1649 30.6029 22.289C30.8354 22.413 31.0523 22.4698 31.2538 22.4594C31.4565 22.4439 31.6421 22.3876 31.8104 22.2904C31.9818 22.1914 32.125 22.058 32.2397 21.8901C32.3527 21.7191 32.4136 21.5018 32.4224 21.2385C32.4344 20.9733 32.3825 20.6561 32.2667 20.2868C32.1509 19.9176 31.9491 19.4837 31.6613 18.9852ZM36.1313 16.4298C36.3663 16.2941 36.5546 16.1473 36.6962 15.9893C36.8361 15.8281 36.932 15.6606 36.9839 15.4866C37.0373 15.3076 37.0476 15.1238 37.0149 14.9352C36.9804 14.7435 36.9072 14.5507 36.7954 14.357C36.6891 14.1729 36.5642 14.0227 36.4209 13.9064C36.2776 13.7902 36.1185 13.7126 35.9437 13.6739C35.7689 13.6351 35.5786 13.6391 35.3728 13.6859C35.1651 13.7296 34.9422 13.8202 34.7041 13.9577L33.7467 14.5105L35.1739 16.9825L36.1313 16.4298ZM34.1321 12.967C34.5925 12.7011 35.0222 12.525 35.4211 12.4387C35.82 12.3523 36.185 12.3427 36.5159 12.4099C36.8468 12.4771 37.1426 12.6154 37.4032 12.8248C37.667 13.0324 37.8915 13.2966 38.0767 13.6173C38.2692 13.9507 38.3905 14.2892 38.4407 14.6328C38.4891 14.9732 38.4599 15.3077 38.3531 15.636C38.2463 15.9644 38.0567 16.2814 37.7843 16.5868C37.515 16.8905 37.1565 17.1715 36.7088 17.43L35.7514 17.9828L37.1512 20.4072L35.8699 21.147L31.8934 14.2595L34.1321 12.967Z" fill="black"/>
<path d="M15.7576 43.0524L13.9952 44.0699L15.0897 45.9656L13.8894 46.6586L12.7949 44.7629L11.0421 45.7749L10.4316 44.7175L12.1844 43.7055L11.0954 41.8193L12.2957 41.1263L13.3847 43.0125L15.1471 41.995L15.7576 43.0524ZM17.2248 39.7729C17.3403 39.6724 17.4557 39.5825 17.5708 39.5033C17.686 39.4241 17.8007 39.3515 17.915 39.2855C18.2802 39.0747 18.6346 38.9441 18.9782 38.894C19.3218 38.8438 19.6448 38.8605 19.9472 38.9442C20.2477 39.0247 20.5207 39.1677 20.7663 39.3731C21.0133 39.5735 21.222 39.8213 21.3925 40.1166C21.607 40.4881 21.7365 40.8664 21.7809 41.2514C21.8268 41.6314 21.7963 42.0004 21.6897 42.3584C21.583 42.7163 21.4019 43.0516 21.1464 43.3643C20.8921 43.672 20.5713 43.9376 20.1839 44.1613C19.9585 44.2915 19.7288 44.3923 19.4949 44.4638C19.2641 44.5335 19.0354 44.581 18.8085 44.6061C18.583 44.6262 18.3638 44.6278 18.1509 44.611C17.9362 44.5911 17.732 44.5565 17.5385 44.5073L17.6438 43.6337C17.6548 43.5427 17.6828 43.4629 17.728 43.3945C17.7713 43.3229 17.8295 43.266 17.9026 43.2239C17.9978 43.1689 18.1023 43.1445 18.216 43.1509C18.3311 43.1522 18.4562 43.1561 18.5913 43.1628C18.7278 43.1645 18.8773 43.1522 19.04 43.126C19.2027 43.0998 19.3825 43.0299 19.5794 42.9162C19.7763 42.8026 19.9262 42.6737 20.0293 42.5295C20.1305 42.3821 20.1919 42.2281 20.2135 42.0675C20.2364 41.9018 20.2238 41.7334 20.1758 41.5622C20.129 41.3859 20.0562 41.212 19.9572 41.0406C19.7628 40.704 19.52 40.5033 19.2286 40.4387C18.9354 40.3709 18.6142 40.4378 18.2649 40.6395C17.9537 40.8191 17.6828 41.0539 17.4521 41.3437L16.3946 41.624L14.9805 37.8107L18.5338 35.7592L18.8858 36.3689C18.9445 36.4705 18.9817 36.5717 18.9977 36.6726C19.0136 36.7735 19.0049 36.8759 18.9717 36.9797C18.9399 37.0786 18.8785 37.1775 18.7875 37.2766C18.6947 37.3726 18.5705 37.4654 18.4149 37.5553L16.7573 38.5123L17.2248 39.7729ZM26.5619 35.7476C26.9121 36.3541 27.1504 36.9172 27.2769 37.4369C27.4033 37.9567 27.435 38.4295 27.3719 38.8555C27.3119 39.2796 27.1644 39.6548 26.9294 39.981C26.6975 40.3054 26.3974 40.5739 26.029 40.7866C25.6607 40.9993 25.2781 41.1249 24.8812 41.1635C24.4875 41.2003 24.092 41.1386 23.6947 40.9785C23.2974 40.8183 22.9053 40.5536 22.5185 40.1842C22.1348 39.8129 21.7679 39.3241 21.4177 38.7176C21.0675 38.1111 20.8276 37.5489 20.698 37.031C20.5715 36.5112 20.5383 36.0393 20.5982 35.6152C20.6582 35.191 20.8034 34.8193 21.034 34.4999C21.2658 34.1755 21.5659 33.907 21.9343 33.6943C22.3026 33.4816 22.6852 33.356 23.0821 33.3174C23.4803 33.2738 23.8781 33.332 24.2754 33.4922C24.6758 33.6505 25.0695 33.9143 25.4564 34.2837C25.8432 34.6531 26.2117 35.1411 26.5619 35.7476ZM25.0377 36.6276C24.7609 36.1481 24.5043 35.7733 24.2679 35.5033C24.0298 35.2301 23.8095 35.0356 23.607 34.9196C23.4078 34.8018 23.2263 34.7478 23.0626 34.7576C22.8971 34.7642 22.7492 34.8052 22.619 34.8803C22.4888 34.9555 22.3795 35.0631 22.291 35.2031C22.2038 35.3381 22.1614 35.5213 22.1638 35.7528C22.1694 35.9825 22.2309 36.2687 22.3484 36.6116C22.4672 36.9494 22.6651 37.3581 22.9419 37.8376C23.2206 38.3202 23.4765 38.6975 23.7097 38.9693C23.946 39.2393 24.1631 39.4358 24.361 39.5586C24.5603 39.6764 24.7411 39.7329 24.9035 39.7281C25.0671 39.7183 25.2141 39.6758 25.3443 39.6006C25.4745 39.5254 25.5847 39.4194 25.6751 39.2826C25.7636 39.1426 25.8067 38.9568 25.8043 38.7253C25.8032 38.4888 25.7449 38.2008 25.6292 37.8611C25.5135 37.5214 25.3164 37.1102 25.0377 36.6276ZM32.0879 32.5571C32.4381 33.1637 32.6764 33.7268 32.8028 34.2465C32.9293 34.7662 32.961 35.2391 32.8979 35.665C32.8379 36.0892 32.6904 36.4644 32.4553 36.7906C32.2235 37.115 31.9234 37.3835 31.555 37.5962C31.1867 37.8089 30.8041 37.9345 30.4072 37.9731C30.0135 38.0099 29.618 37.9482 29.2207 37.788C28.8234 37.6279 28.4313 37.3631 28.0445 36.9937C27.6608 36.6225 27.2939 36.1337 26.9437 35.5271C26.5935 34.9206 26.3536 34.3584 26.224 33.8405C26.0975 33.3208 26.0642 32.8489 26.1242 32.4247C26.1842 32.0006 26.3294 31.6288 26.5599 31.3095C26.7918 30.9851 27.0919 30.7165 27.4603 30.5039C27.8286 30.2912 28.2112 30.1656 28.6081 30.127C29.0063 30.0833 29.4041 30.1416 29.8014 30.3017C30.2018 30.4601 30.5955 30.7239 30.9823 31.0933C31.3692 31.4627 31.7377 31.9506 32.0879 32.5571ZM30.5637 33.4371C30.2868 32.9577 30.0303 32.5829 29.7939 32.3129C29.5558 32.0397 29.3355 31.8451 29.133 31.7292C28.9337 31.6113 28.7523 31.5573 28.5886 31.5672C28.4231 31.5738 28.2752 31.6147 28.145 31.6899C28.0148 31.7651 27.9055 31.8726 27.817 32.0127C27.7298 32.1477 27.6874 32.3309 27.6898 32.5624C27.6954 32.7921 27.7569 33.0783 27.8744 33.4211C27.9932 33.759 28.1911 34.1677 28.4679 34.6471C28.7466 35.1298 29.0025 35.5071 29.2356 35.7789C29.472 36.0489 29.6891 36.2453 29.887 36.3682C30.0863 36.486 30.2671 36.5425 30.4295 36.5376C30.5931 36.5278 30.7401 36.4853 30.8703 36.4102C31.0005 36.335 31.1107 36.229 31.2011 36.0921C31.2896 35.9521 31.3327 35.7664 31.3303 35.5349C31.3292 35.2984 31.2709 35.0103 31.1552 34.6707C31.0395 34.331 30.8423 33.9198 30.5637 33.4371ZM35.3633 30.5835C35.7824 30.3415 36.0263 30.0674 36.095 29.761C36.1637 29.4546 36.0944 29.122 35.8873 28.7632C35.7956 28.6044 35.6884 28.4737 35.5656 28.371C35.4428 28.2683 35.3056 28.1993 35.154 28.164C35.0037 28.1238 34.8393 28.1213 34.6607 28.1567C34.4853 28.1902 34.296 28.2656 34.0928 28.383L33.2545 28.867L34.525 31.0675L35.3633 30.5835ZM33.397 27.1779C33.886 26.8956 34.3391 26.7123 34.7562 26.6281C35.1747 26.539 35.5553 26.5309 35.8981 26.6039C36.2441 26.6752 36.5508 26.8178 36.8183 27.0317C37.0857 27.2456 37.312 27.5129 37.4972 27.8337C37.697 28.1798 37.8248 28.5294 37.8805 28.8825C37.9362 29.2357 37.9093 29.5814 37.7998 29.9198C37.6904 30.2582 37.4933 30.5879 37.2087 30.9089C36.9254 31.2249 36.544 31.5213 36.0645 31.7981L35.2262 32.2821L36.5655 34.6018L34.9555 35.5313L30.9488 28.5914L33.397 27.1779ZM41.7499 28.5474L42.3494 29.5858L43.0639 29.1733C44.6738 28.2438 45.7037 27.5857 46.7585 26.6846L46.0461 25.7368C45.024 26.6063 44.0267 27.2329 42.4644 28.1349L41.7499 28.5474ZM38.9229 23.6509L41.9754 28.938L43.2424 28.2065L40.7729 23.9292L43.4974 22.3562L42.9144 21.3464L38.9229 23.6509ZM44.1972 19.5643L49.3067 28.4142L50.5737 27.6827L45.4642 18.8328L44.1972 19.5643ZM43.7892 23.8517L44.3832 24.8805L47.0792 23.324L46.4852 22.2952L43.7892 23.8517ZM49.1181 18.1013L50.6911 20.8258C50.8598 21.118 51.0101 21.4186 51.142 21.7277C51.2721 22.0337 51.3947 22.3524 51.5099 22.6839L50.5096 23.2614C50.2801 22.9959 50.0654 22.7304 49.8655 22.4647C49.6637 22.1959 49.4785 21.9155 49.3098 21.6233L47.7368 18.8988L49.1181 18.1013ZM51.1499 25.1844C51.0839 25.0701 51.0431 24.9518 51.0275 24.8295C51.0152 24.7054 51.0244 24.5858 51.0553 24.4706C51.0893 24.3535 51.1452 24.245 51.223 24.1451C51.299 24.042 51.3973 23.9556 51.5179 23.8859C51.6354 23.8181 51.7578 23.777 51.8851 23.7628C52.0105 23.7454 52.1324 23.7513 52.2508 23.7803C52.3692 23.8093 52.4774 23.8612 52.5756 23.9358C52.6769 24.0085 52.7605 24.1021 52.8265 24.2164C52.8925 24.3307 52.9326 24.4515 52.9468 24.5788C52.9624 24.7011 52.9531 24.8207 52.9191 24.9377C52.885 25.0548 52.8291 25.1633 52.7513 25.2632C52.6736 25.3632 52.5759 25.4471 52.4584 25.5149C52.3378 25.5846 52.2147 25.6281 52.0893 25.6455C51.9638 25.6629 51.8419 25.657 51.7235 25.628C51.6083 25.5971 51.5001 25.5453 51.3988 25.4725C51.2988 25.3948 51.2159 25.2987 51.1499 25.1844Z" fill="#3182F6"/>
<rect x="0.5" y="0.5" width="55" height="55" rx="27.5" stroke="#E2E5EB"/>
</svg>
