<svg width="48" height="48" viewBox="0 0 48 48" fill="none" xmlns="http://www.w3.org/2000/svg">
<circle opacity="0.9" cx="24" cy="24" r="23.5" stroke="#E2E5EB"/>
<circle cx="24" cy="24" r="21" fill="#F4F6FB"/>
<path fill-rule="evenodd" clip-rule="evenodd" d="M24.0004 30.581C19.8104 30.581 16.4004 27.1759 16.4004 22.9897C16.4004 18.8045 19.8104 15.3994 24.0004 15.3994C28.1904 15.3994 31.6004 18.8045 31.6004 22.9897C31.6004 27.1759 28.1904 30.581 24.0004 30.581ZM33 22.9897C33 18.0324 28.963 14 24 14C19.037 14 15 18.0324 15 22.9897C15 27.1888 17.9 30.7138 21.802 31.6966V33.3008C21.802 33.6864 22.115 34 22.502 34C22.889 34 23.202 33.6864 23.202 33.3008V31.9394C23.466 31.9623 23.73 31.9793 24 31.9793C24.27 31.9793 24.535 31.9623 24.799 31.9394V33.3008C24.799 33.6864 25.112 34 25.499 34C25.886 34 26.199 33.6864 26.199 33.3008V31.6966C30.101 30.7128 33 27.1888 33 22.9897Z" fill="#333333"/>
<path fill-rule="evenodd" clip-rule="evenodd" d="M24.9776 22.8214L23.3086 22.8243V20.9695H24.9786C25.4826 20.9695 25.8916 21.385 25.8916 21.8954C25.8916 22.4058 25.4826 22.8214 24.9776 22.8214ZM24.8031 19.1116H22.2421C21.8061 19.1116 21.4531 19.4652 21.4531 19.9007V26.539C21.4531 27.0514 21.8681 27.467 22.3801 27.467C22.8931 27.467 23.3081 27.0514 23.3081 26.539V24.6802L24.9781 24.6782C26.5561 24.6782 27.8311 23.3437 27.7431 21.7386C27.6641 20.2872 26.2581 19.1116 24.8031 19.1116Z" fill="#3182F6"/>
</svg>
