<svg width="56" height="56" viewBox="0 0 56 56" fill="none" xmlns="http://www.w3.org/2000/svg">
<rect x="1" y="1" width="54" height="54" rx="27" fill="white"/>
<path d="M22.7342 19.6917L11.4759 26.1917L12.2884 27.599L16.9432 24.9115L17.3261 25.5746L13.9161 27.5433L14.713 28.9235L21.4653 25.0251L21.7309 25.4852L14.9786 29.3836L16.8458 32.6177L25.8308 27.4302L25.0105 26.0094L17.947 30.0875L17.6501 29.5733L24.4159 25.667L22.6034 22.5277L19.2476 24.4652L18.8647 23.8021L23.5467 21.099L22.7342 19.6917ZM10.886 24.295L12.2419 25.4247C14.5542 23.9454 15.7658 22.4971 16.0506 21.1779C17.3355 21.5908 19.209 21.2579 21.6193 20.0107L21.3595 18.2482C18.8488 19.5714 17.4231 19.727 16.7025 19.3852L20.0381 17.4595L19.21 16.0251L15.5835 18.1188L15.0522 17.1987L13.1037 18.3237L13.6349 19.2438L10.022 21.3298L10.8501 22.7641L14.1654 20.8501C14.0943 21.6489 13.2535 22.8019 10.886 24.295ZM26.289 13.2551L25.5546 11.9831L23.579 13.1237L24.2431 14.2739C25.1806 15.8977 25.3429 17.9601 23.5702 19.8586L25.5241 20.8053C26.6309 19.5348 27.0412 18.0891 26.9252 16.6226C28.0526 17.3879 29.4166 17.7191 30.9898 17.3971L31.1062 15.255C28.7346 15.8034 27.1523 14.7503 26.289 13.2551ZM27.7989 22.4328L34.443 18.5969L36.1539 21.5603L38.0889 20.4432L35.4952 15.9506L26.9161 20.9038L27.7989 22.4328ZM28.9852 14.2063L31.1773 12.9407L33.2633 16.5536L35.1983 15.4364L30.9171 8.0211L28.982 9.13829L30.2633 11.3575L28.0711 12.6231L28.9852 14.2063ZM23.0428 41.9865L21.1203 43.0965L22.3143 45.1645L21.0048 45.9205L19.8108 43.8525L17.8986 44.9565L17.2326 43.8029L19.1448 42.6989L17.9568 40.6412L19.2663 39.8852L20.4543 41.9429L22.3768 40.8329L23.0428 41.9865ZM29.9575 40.3291L30.6295 41.493L26.3167 43.983L25.6447 42.8191L27.0996 41.9791L24.8946 38.1599C24.8386 38.0629 24.7843 37.9649 24.7318 37.8659C24.6772 37.7635 24.6244 37.66 24.5734 37.5556L24.1248 38.7706C24.0826 38.8735 24.0274 38.9539 23.9592 39.0117C23.8924 39.0641 23.8232 39.1041 23.7513 39.1317C23.6775 39.1559 23.6056 39.1674 23.5357 39.1662C23.4637 39.1616 23.4056 39.1489 23.3614 39.1283L22.4621 38.7468L23.6782 35.405L25.0084 34.637L28.7104 41.0491L29.9575 40.3291ZM34.8294 34.0176C35.2114 34.6792 35.4713 35.2935 35.6093 35.8605C35.7473 36.4275 35.7818 36.9433 35.713 37.408C35.6475 37.8707 35.4866 38.28 35.2302 38.6359C34.9773 38.9898 34.6499 39.2827 34.248 39.5147C33.8462 39.7467 33.4288 39.8838 32.9959 39.9259C32.5664 39.966 32.1349 39.8987 31.7015 39.724C31.2681 39.5493 30.8404 39.2605 30.4184 38.8575C29.9998 38.4525 29.5995 37.9192 29.2175 37.2576C28.8355 36.5959 28.5738 35.9826 28.4324 35.4176C28.2944 34.8507 28.2581 34.3358 28.3235 33.8731C28.3889 33.4104 28.5474 33.0049 28.7989 32.6565C29.0518 32.3026 29.3792 32.0096 29.781 31.7776C30.1829 31.5456 30.6003 31.4086 31.0332 31.3665C31.4676 31.3189 31.9015 31.3824 32.335 31.5571C32.7718 31.7298 33.2013 32.0177 33.6233 32.4206C34.0453 32.8236 34.4474 33.3559 34.8294 34.0176ZM33.1666 34.9776C32.8646 34.4545 32.5847 34.0457 32.3269 33.7511C32.067 33.4531 31.8267 33.2408 31.6059 33.1143C31.3885 32.9858 31.1905 32.9269 31.0119 32.9376C30.8314 32.9448 30.6701 32.9895 30.528 33.0715C30.386 33.1535 30.2667 33.2708 30.1702 33.4236C30.0751 33.5709 30.0288 33.7708 30.0314 34.0233C30.0375 34.2738 30.1046 34.5861 30.2328 34.9601C30.3625 35.3287 30.5783 35.7745 30.8803 36.2976C31.1843 36.8241 31.4635 37.2357 31.7178 37.5322C31.9756 37.8268 32.2125 38.041 32.4284 38.175C32.6458 38.3036 32.8431 38.3652 33.0202 38.3599C33.1987 38.3492 33.359 38.3029 33.501 38.2209C33.6431 38.1389 33.7634 38.0232 33.8619 37.8739C33.9585 37.7212 34.0055 37.5186 34.0029 37.266C34.0017 37.008 33.938 36.6938 33.8119 36.3232C33.6857 35.9527 33.4706 35.5041 33.1666 34.9776ZM40.8577 30.5371C41.2397 31.1987 41.4997 31.813 41.6377 32.38C41.7756 32.947 41.8102 33.4628 41.7413 33.9275C41.6759 34.3902 41.515 34.7995 41.2586 35.1554C41.0056 35.5093 40.6782 35.8022 40.2764 36.0342C39.8746 36.2662 39.4572 36.4033 39.0242 36.4454C38.5947 36.4855 38.1633 36.4182 37.7299 36.2435C37.2965 36.0688 36.8687 35.78 36.4467 35.377C36.0281 34.972 35.6279 34.4387 35.2459 33.7771C34.8639 33.1155 34.6021 32.5021 34.4607 31.9372C34.3227 31.3702 34.2865 30.8554 34.3519 30.3927C34.4173 29.93 34.5757 29.5244 34.8272 29.176C35.0802 28.8221 35.4076 28.5292 35.8094 28.2972C36.2112 28.0652 36.6286 27.9281 37.0616 27.886C37.496 27.8384 37.9299 27.902 38.3633 28.0767C38.8002 28.2494 39.2296 28.5372 39.6517 28.9402C40.0737 29.3431 40.4757 29.8755 40.8577 30.5371ZM39.1949 31.4971C38.8929 30.974 38.613 30.5652 38.3552 30.2706C38.0954 29.9726 37.8551 29.7604 37.6342 29.6338C37.4168 29.5053 37.2188 29.4464 37.0403 29.4571C36.8597 29.4644 36.6984 29.509 36.5564 29.591C36.4144 29.673 36.2951 29.7904 36.1985 29.9431C36.1034 30.0904 36.0572 30.2903 36.0598 30.5428C36.0658 30.7934 36.133 31.1056 36.2612 31.4796C36.3908 31.8482 36.6066 32.294 36.9086 32.8171C37.2126 33.3436 37.4918 33.7552 37.7462 34.0517C38.004 34.3463 38.2408 34.5606 38.4568 34.6946C38.6742 34.8231 38.8714 34.8847 39.0485 34.8795C39.2271 34.8687 39.3874 34.8224 39.5294 34.7404C39.6714 34.6584 39.7917 34.5427 39.8903 34.3935C39.9868 34.2407 40.0338 34.0381 40.0312 33.7856C40.0301 33.5276 39.9664 33.2133 39.8402 32.8427C39.714 32.4722 39.4989 32.0236 39.1949 31.4971ZM44.4308 28.3841C44.8881 28.1201 45.1542 27.821 45.2291 27.4867C45.304 27.1525 45.2285 26.7896 45.0025 26.3982C44.9025 26.225 44.7855 26.0824 44.6515 25.9703C44.5176 25.8583 44.3679 25.7831 44.2025 25.7446C44.0386 25.7007 43.8592 25.698 43.6644 25.7366C43.4731 25.7732 43.2665 25.8555 43.0448 25.9835L42.1303 26.5115L43.5163 28.9121L44.4308 28.3841ZM42.2858 24.6688C42.8193 24.3608 43.3136 24.1609 43.7686 24.0691C44.2251 23.9718 44.6404 23.963 45.0143 24.0427C45.3917 24.1204 45.7263 24.2759 46.0181 24.5093C46.3099 24.7427 46.5568 25.0343 46.7588 25.3842C46.9768 25.7618 47.1162 26.1432 47.1769 26.5284C47.2377 26.9137 47.2083 27.2909 47.0889 27.66C46.9695 28.0292 46.7546 28.3889 46.444 28.739C46.135 29.0837 45.7189 29.4071 45.1958 29.7091L44.2813 30.2371L45.7423 32.7676L43.986 33.7816L39.615 26.2108L42.2858 24.6688Z" fill="#3182F6"/>
<rect x="1" y="1" width="54" height="54" rx="27" stroke="#3182F6" stroke-width="2"/>
<circle cx="28" cy="28" r="23.5" stroke="#3182F6" stroke-dasharray="2 2"/>
</svg>
