<svg width="20" height="20" viewBox="0 0 20 20" fill="none" xmlns="http://www.w3.org/2000/svg">
<g id="icon/picto/20X20/parking">
<path id="Combined Shape" fill-rule="evenodd" clip-rule="evenodd" d="M2.40039 8.98969C2.40039 13.1759 5.81039 16.581 10.0004 16.581C14.1904 16.581 17.6004 13.1759 17.6004 8.98969C17.6004 4.8045 14.1904 1.39941 10.0004 1.39941C5.81039 1.39941 2.40039 4.8045 2.40039 8.98969ZM10 0C14.963 0 19 4.03236 19 8.98966C19 13.1888 16.101 16.7128 12.199 17.6966V19.3008C12.199 19.6864 11.886 20 11.499 20C11.112 20 10.799 19.6864 10.799 19.3008V17.9394C10.535 17.9623 10.27 17.9793 10 17.9793C9.73 17.9793 9.466 17.9623 9.202 17.9394V19.3008C9.202 19.6864 8.889 20 8.502 20C8.115 20 7.802 19.6864 7.802 19.3008V17.6966C3.9 16.7138 1 13.1888 1 8.98966C1 4.03236 5.037 0 10 0ZM9.30859 8.82435L10.9776 8.82135C11.4826 8.82135 11.8916 8.40583 11.8916 7.89542C11.8916 7.385 11.4826 6.96948 10.9786 6.96948H9.30859V8.82435ZM8.24213 5.11157H10.8031C12.2581 5.11157 13.6641 6.28722 13.7431 7.73855C13.8311 9.34371 12.5561 10.6782 10.9781 10.6782L9.30812 10.6802V12.539C9.30812 13.0514 8.89313 13.467 8.38013 13.467C7.86812 13.467 7.45312 13.0514 7.45312 12.539V5.90066C7.45312 5.46517 7.80613 5.11157 8.24213 5.11157Z" fill="#666666"/>
</g>
</svg>
