<svg width="24" height="24" viewBox="0 0 24 24" fill="none" xmlns="http://www.w3.org/2000/svg">
<g id="&#236;&#149;&#132;&#236;&#157;&#180;&#236;&#189;&#152;/24*24/&#237;&#143;&#172;&#236;&#157;&#184;&#237;&#138;&#184;">
<g id="Group 16">
<path id="Combined Shape" fill-rule="evenodd" clip-rule="evenodd" d="M0 11.0743C0 4.96771 5.00952 0 11.1669 0C17.3243 0 22.3338 4.96771 22.3338 11.0743C22.3338 11.4596 22.0212 11.7712 21.6369 11.7712C21.2516 11.7712 20.939 11.4596 20.939 11.0743C20.939 5.73726 16.5557 1.39375 11.1669 1.39375C5.77807 1.39375 1.39474 5.73726 1.39474 11.0743C1.39474 16.4124 5.77807 20.7559 11.1669 20.7559C11.5522 20.7559 11.8638 21.0675 11.8638 21.4527C11.8638 21.838 11.5522 22.1496 11.1669 22.1496C5.00952 22.1496 0 17.1809 0 11.0743ZM10.1826 10.2742L12.1647 10.2712C12.7083 10.2712 13.1483 9.82422 13.1483 9.27369C13.1483 8.72316 12.7083 8.27517 12.1667 8.27517H10.1826V10.2742ZM9.03376 6.27515H11.9785C13.5445 6.27515 15.0557 7.54146 15.1414 9.10545C15.2359 10.8337 13.8641 12.2722 12.1667 12.2722L10.1826 12.2752V14.2753V14.2762C10.1826 14.8288 9.73561 15.2768 9.18409 15.2768C8.63157 15.2768 8.18457 14.8288 8.18457 14.2762V7.12533C8.18457 6.65544 8.56586 6.27515 9.03376 6.27515Z" fill="#333333"/>
<path id="Combined Shape_2" fill-rule="evenodd" clip-rule="evenodd" d="M18.1114 15.1615C19.8556 15.1615 20.9487 15.5478 21.2941 15.7897C20.9477 16.0306 19.8556 16.4169 18.1114 16.4169C16.3682 16.4169 15.2761 16.0306 14.9297 15.7897C15.2751 15.5478 16.3672 15.1615 18.1114 15.1615ZM18.1113 17.8106C20.4309 17.8106 22.7723 17.1854 22.7723 15.7897C22.7723 14.3929 20.4309 13.7677 18.1113 13.7677C15.7917 13.7677 13.4512 14.3929 13.4512 15.7897C13.4512 17.1854 15.7917 17.8106 18.1113 17.8106ZM22.0854 20.2323C21.7012 20.2323 21.4005 20.4961 21.4005 20.8804C21.2611 21.0945 20.1183 21.6062 18.1113 21.6062C16.1043 21.6062 14.9624 21.0945 14.8459 20.978C14.8459 20.5927 14.5333 20.2811 14.148 20.2811C13.7638 20.2811 13.4512 20.5927 13.4512 20.978C13.4512 22.3747 15.7917 22.9999 18.1113 22.9999C20.4309 22.9999 22.7714 22.3747 22.7714 20.978C22.7714 20.5927 22.4707 20.2323 22.0854 20.2323ZM21.3826 18.2054C21.4194 17.855 21.7161 17.5822 22.0755 17.5822C22.4607 17.5822 22.7723 17.8938 22.7723 18.2791C22.7723 19.6768 20.4318 20.301 18.1122 20.301C15.7917 20.301 13.4521 19.6768 13.4521 18.2791C13.4521 17.8938 13.7638 17.5822 14.149 17.5822C14.5084 17.5822 14.8051 17.855 14.8419 18.2054C15.045 18.4314 16.1759 18.9072 18.1122 18.9072C20.0476 18.9072 21.1805 18.4314 21.3826 18.2054Z" fill="#FEBA02"/>
</g>
</g>
</svg>
