<svg width="20" height="20" viewBox="0 0 20 20" fill="none" xmlns="http://www.w3.org/2000/svg">
<path d="M12.8333 17.5C12.8333 17.7761 13.0571 18 13.3333 18C13.6094 18 13.8333 17.7761 13.8333 17.5H12.8333ZM13.3333 15.8333L13.8333 15.8333L13.3333 15.8333ZM9.99992 12.5V12V12.5ZM4.16658 12.5L4.16658 12L4.16658 12.5ZM0.833252 15.8333H0.333252H0.833252ZM0.333252 17.5C0.333252 17.7761 0.55711 18 0.833252 18C1.10939 18 1.33325 17.7761 1.33325 17.5H0.333252ZM17.1666 6.66667C17.1666 6.39052 16.9427 6.16667 16.6666 6.16667C16.3904 6.16667 16.1666 6.39052 16.1666 6.66667H17.1666ZM16.1666 11.6667C16.1666 11.9428 16.3904 12.1667 16.6666 12.1667C16.9427 12.1667 17.1666 11.9428 17.1666 11.6667H16.1666ZM19.1666 9.66667C19.4427 9.66667 19.6666 9.44281 19.6666 9.16667C19.6666 8.89052 19.4427 8.66667 19.1666 8.66667V9.66667ZM14.1666 8.66667C13.8904 8.66667 13.6666 8.89052 13.6666 9.16667C13.6666 9.44281 13.8904 9.66667 14.1666 9.66667V8.66667ZM13.8333 17.5V15.8333H12.8333V17.5H13.8333ZM13.8333 15.8333C13.8333 14.8167 13.4294 13.8416 12.7105 13.1228L12.0034 13.8299C12.5347 14.3612 12.8333 15.0819 12.8333 15.8333L13.8333 15.8333ZM12.7105 13.1228C11.9916 12.4039 11.0166 12 9.99992 12L9.99992 13C10.7514 13 11.472 13.2985 12.0034 13.8299L12.7105 13.1228ZM9.99992 12H4.16658V13H9.99992V12ZM4.16658 12C3.14992 12 2.1749 12.4039 1.45601 13.1228L2.16312 13.8299C2.69447 13.2985 3.41514 13 4.16658 13L4.16658 12ZM1.45601 13.1228C0.73712 13.8416 0.333252 14.8167 0.333252 15.8333H1.33325C1.33325 15.0819 1.63176 14.3612 2.16312 13.8299L1.45601 13.1228ZM0.333252 15.8333V17.5H1.33325V15.8333H0.333252ZM9.91658 5.83333C9.91658 7.39814 8.64806 8.66667 7.08325 8.66667V9.66667C9.20034 9.66667 10.9166 7.95042 10.9166 5.83333H9.91658ZM7.08325 8.66667C5.51844 8.66667 4.24992 7.39814 4.24992 5.83333H3.24992C3.24992 7.95042 4.96616 9.66667 7.08325 9.66667V8.66667ZM4.24992 5.83333C4.24992 4.26853 5.51844 3 7.08325 3V2C4.96616 2 3.24992 3.71624 3.24992 5.83333H4.24992ZM7.08325 3C8.64806 3 9.91658 4.26853 9.91658 5.83333H10.9166C10.9166 3.71624 9.20034 2 7.08325 2V3ZM16.1666 6.66667V11.6667H17.1666V6.66667H16.1666ZM19.1666 8.66667H14.1666V9.66667H19.1666V8.66667Z" fill="#3182F6"/>
</svg>
