<svg width="20" height="20" viewBox="0 0 20 20" fill="none" xmlns="http://www.w3.org/2000/svg">
<path fill-rule="evenodd" clip-rule="evenodd" d="M8.39797 16.5285H3.08999C2.34933 16.5285 1.74634 15.9255 1.74634 15.1848V6.25159C1.74634 5.51027 2.34933 4.90787 3.08999 4.90787H8.39797V16.5285ZM4.92035 2.25908C5.07359 1.98311 5.34083 1.79996 5.65291 1.75698C5.69963 1.75012 5.74635 1.74701 5.79307 1.74701C6.0547 1.74701 6.3045 1.85042 6.49324 2.03918L8.16581 3.7112L8.13902 3.73861H5.78996C5.43302 3.73861 5.11283 3.55546 4.93156 3.24772C4.75091 2.9406 4.74718 2.57056 4.92035 2.25908V2.25908ZM11.4242 2.03912C11.6472 1.81672 11.9568 1.71331 12.2658 1.75692C12.5779 1.80053 12.8445 1.98305 12.9977 2.25903C13.1715 2.57051 13.1672 2.93992 12.9865 3.24766C12.8059 3.55478 12.4857 3.73855 12.1281 3.73855H9.77907L9.75228 3.71114L11.4242 2.03912ZM14.8279 3.7859H13.9683C14.3358 3.13802 14.3408 2.36555 13.977 1.71331C13.6518 1.12773 13.0837 0.739005 12.4209 0.646184C11.7525 0.552117 11.1053 0.772645 10.6312 1.24609L8.95867 2.91812L7.28673 1.24672C6.8133 0.772645 6.16234 0.552117 5.4983 0.646184C4.83426 0.738382 4.26677 1.12711 3.94098 1.71269C3.57719 2.36617 3.5828 3.13802 3.94908 3.7859H3.09006C1.73083 3.7859 0.624512 4.89165 0.624512 6.25157V15.1848C0.624512 16.5441 1.73083 17.6505 3.09006 17.6505H10.4095C10.7197 17.6505 10.9707 17.3988 10.9707 17.0892C10.9707 16.7796 10.7197 16.5285 10.4095 16.5285H9.51993V4.90785H14.8279C15.5692 4.90785 16.1716 5.51025 16.1716 6.25157V10.4441C16.1716 10.7537 16.4226 11.0054 16.7322 11.0054C17.0418 11.0054 17.2928 10.7537 17.2928 10.4441V6.25157C17.2928 4.89165 16.1871 3.7859 14.8279 3.7859V3.7859Z" fill="#3182F6"/>
<path fill-rule="evenodd" clip-rule="evenodd" d="M16.6858 15.8928L18.5857 13.9928C18.8044 13.7741 18.8044 13.4184 18.5857 13.1997C18.3665 12.9805 18.0114 12.9805 17.7921 13.1997L15.8928 15.0998L13.9923 13.1997C13.773 12.9805 13.4179 12.9805 13.1987 13.1997C12.98 13.4184 12.98 13.7741 13.1987 13.9928L15.0986 15.8928L13.1987 17.7928C12.98 18.0115 12.98 18.3672 13.1987 18.5858C13.3083 18.6955 13.4522 18.7503 13.5955 18.7503C13.7394 18.7503 13.8826 18.6955 13.9923 18.5858L15.8928 16.6858L17.7921 18.5858C17.9018 18.6955 18.0457 18.7503 18.1889 18.7503C18.3328 18.7503 18.4761 18.6955 18.5857 18.5858C18.8044 18.3672 18.8044 18.0115 18.5857 17.7928L16.6858 15.8928Z" fill="#3182F6"/>
</svg>
