<svg width="48" height="48" viewBox="0 0 48 48" fill="none" xmlns="http://www.w3.org/2000/svg">
<circle opacity="0.9" cx="24" cy="24" r="23.5" stroke="#E2E5EB"/>
<circle cx="23.9999" cy="24" r="20.5714" fill="#F4F6FB"/>
<path fill-rule="evenodd" clip-rule="evenodd" d="M15.3965 28.3492V30.3071C15.3965 30.4714 15.5311 30.6058 15.6957 30.6058H32.3045C32.4691 30.6058 32.6037 30.4714 32.6037 30.3071V28.3492C31.0488 28.0265 29.8768 26.6482 29.8768 25.001C29.8768 23.3529 31.0488 21.9746 32.6037 21.6509V19.694C32.6037 19.5297 32.4691 19.3953 32.3045 19.3953H15.6957C15.5311 19.3953 15.3965 19.5297 15.3965 19.694V21.6509C16.9514 21.9746 18.1234 23.3529 18.1234 25.001C18.1234 26.6482 16.9514 28.0265 15.3965 28.3492ZM32.3044 32H15.6956C14.76 32 14 31.2401 14 30.307V27.0266H14.6982C15.8173 27.0266 16.7269 26.1184 16.7269 25.001C16.7269 23.8836 15.8173 22.9744 14.6982 22.9744H14V19.694C14 18.7599 14.76 18 15.6956 18H32.3044C33.24 18 34 18.7599 34 19.694V22.9744H33.3018C32.1827 22.9744 31.2731 23.8836 31.2731 25.001C31.2731 26.1184 32.1827 27.0266 33.3018 27.0266H34V30.307C34 31.2401 33.24 32 32.3044 32Z" fill="#333333"/>
<path fill-rule="evenodd" clip-rule="evenodd" d="M26.746 29.31C26.36 29.31 26.0479 28.9983 26.0479 28.6129V21.3878C26.0479 21.0024 26.36 20.6907 26.746 20.6907C27.132 20.6907 27.4442 21.0024 27.4442 21.3878V28.6129C27.4442 28.9983 27.132 29.31 26.746 29.31Z" fill="#3182F6"/>
</svg>
