<svg width="48" height="48" viewBox="0 0 48 48" fill="none" xmlns="http://www.w3.org/2000/svg">
<circle opacity="0.9" cx="24" cy="24" r="23.5" stroke="#E2E5EB"/>
<circle opacity="0.9" cx="24" cy="24" r="21" fill="#F4F6FB"/>
<path fill-rule="evenodd" clip-rule="evenodd" d="M29.2199 26.6166L27.8719 27.1676L20.8779 20.2366L21.4219 18.9296C21.4959 18.7816 21.6339 18.6796 21.8009 18.6506C21.9719 18.6226 22.1439 18.6736 22.2679 18.7956L29.3379 25.8016C29.4589 25.9216 29.5119 26.0856 29.4829 26.2516C29.4529 26.4196 29.3469 26.5566 29.2199 26.6166ZM17.157 31.5485C16.841 31.6945 16.615 31.5035 16.553 31.4405C16.477 31.3645 16.316 31.1555 16.466 30.8355L20.297 21.6335L26.464 27.7435L17.157 31.5485ZM23.2536 17.8015C22.8096 17.3605 22.1756 17.1635 21.5586 17.2715C20.9426 17.3805 20.4156 17.7815 20.1506 18.3445L15.1866 30.2675C14.8386 31.0025 14.9856 31.8495 15.5596 32.4285C15.9366 32.8075 16.4316 33.0055 16.9286 33.0055C17.1966 33.0055 17.4646 32.9475 17.7156 32.8315L27.9696 28.6395L27.9756 28.6375L29.7796 27.8995C30.3496 27.6355 30.7536 27.1085 30.8616 26.4925C30.9696 25.8785 30.7686 25.2475 30.3236 24.8065L23.2536 17.8015Z" fill="#333333"/>
<path fill-rule="evenodd" clip-rule="evenodd" d="M30.9984 17.5461C31.6914 17.5461 32.0134 18.1351 32.0194 18.5541C32.0264 18.9501 31.8074 19.1501 31.3494 19.1661H31.3264C30.9064 19.1661 30.4324 18.7661 30.1394 18.1601C30.1284 18.1391 30.1184 18.1171 30.1084 18.0961C30.4794 17.7601 30.8024 17.5461 30.9984 17.5461ZM28.2722 20.2581C28.5192 19.8951 28.8052 19.5191 29.0992 19.1661C29.6512 20.0441 30.4722 20.5671 31.3242 20.5671C31.3492 20.5671 31.3722 20.5661 31.3952 20.5651C32.6062 20.5251 33.4392 19.6881 33.4202 18.5301C33.4002 17.3591 32.4892 16.1461 30.9982 16.1461C30.6432 16.1461 30.2692 16.2861 29.8982 16.5121C29.9722 16.0581 30.1682 15.5901 30.5382 15.1521C30.7882 14.8581 30.7512 14.4161 30.4562 14.1661C30.1632 13.9171 29.7202 13.9511 29.4702 14.2481C28.5212 15.3671 28.3382 16.6271 28.5272 17.6831C27.8842 18.3731 27.3582 19.1111 27.1132 19.4731C26.8972 19.7931 26.9802 20.2291 27.3012 20.4441C27.6202 20.6631 28.0572 20.5781 28.2722 20.2581Z" fill="#3182F6"/>
<path fill-rule="evenodd" clip-rule="evenodd" d="M24.4666 17.1643C24.8536 17.1643 25.1666 16.8513 25.1666 16.4643V15.0223C25.1666 14.6363 24.8536 14.3223 24.4666 14.3223C24.0796 14.3223 23.7666 14.6363 23.7666 15.0223V16.4643C23.7666 16.8513 24.0796 17.1643 24.4666 17.1643Z" fill="#3182F6"/>
<path fill-rule="evenodd" clip-rule="evenodd" d="M33.3024 22.8948H31.8484C31.4614 22.8948 31.1484 23.2078 31.1484 23.5948C31.1484 23.9818 31.4614 24.2948 31.8484 24.2948H33.3024C33.6894 24.2948 34.0024 23.9818 34.0024 23.5948C34.0024 23.2078 33.6894 22.8948 33.3024 22.8948Z" fill="#3182F6"/>
</svg>
