<svg width="24" height="24" viewBox="0 0 24 24" fill="none" xmlns="http://www.w3.org/2000/svg">
<mask id="path-1-inside-1_1326_3131" fill="white">
<path fill-rule="evenodd" clip-rule="evenodd" d="M21 5.5H3C2.72386 5.5 2.5 5.72386 2.5 6V9.40135C2.05874 9.14609 1.54643 9 1 9V6C1 4.89543 1.89543 4 3 4H21C22.1046 4 23 4.89543 23 6V9C22.4536 9 21.9413 9.14609 21.5 9.40135V6C21.5 5.72386 21.2761 5.5 21 5.5ZM21.5 14.5987V18C21.5 18.2761 21.2761 18.5 21 18.5H3C2.72386 18.5 2.5 18.2761 2.5 18V14.5987C2.05874 14.8539 1.54643 15 1 15V18C1 19.1046 1.89543 20 3 20H21C22.1046 20 23 19.1046 23 18V15C22.4536 15 21.9413 14.8539 21.5 14.5987Z"/>
</mask>
<path fill-rule="evenodd" clip-rule="evenodd" d="M21 5.5H3C2.72386 5.5 2.5 5.72386 2.5 6V9.40135C2.05874 9.14609 1.54643 9 1 9V6C1 4.89543 1.89543 4 3 4H21C22.1046 4 23 4.89543 23 6V9C22.4536 9 21.9413 9.14609 21.5 9.40135V6C21.5 5.72386 21.2761 5.5 21 5.5ZM21.5 14.5987V18C21.5 18.2761 21.2761 18.5 21 18.5H3C2.72386 18.5 2.5 18.2761 2.5 18V14.5987C2.05874 14.8539 1.54643 15 1 15V18C1 19.1046 1.89543 20 3 20H21C22.1046 20 23 19.1046 23 18V15C22.4536 15 21.9413 14.8539 21.5 14.5987Z" fill="#C4C4C4"/>
<path d="M2.5 9.40135L1.99927 10.267L3.5 11.1351V9.40135H2.5ZM1 9H0V10H1V9ZM23 9V10H24V9H23ZM21.5 9.40135H20.5V11.1351L22.0007 10.267L21.5 9.40135ZM21.5 14.5987L22.0007 13.733L20.5 12.8649V14.5987H21.5ZM2.5 14.5987H3.5V12.8649L1.99927 13.733L2.5 14.5987ZM1 15V14H0V15H1ZM23 15H24V14H23V15ZM3 6.5H21V4.5H3V6.5ZM3.5 6C3.5 6.27614 3.27614 6.5 3 6.5V4.5C2.17157 4.5 1.5 5.17157 1.5 6H3.5ZM3.5 9.40135V6H1.5V9.40135H3.5ZM1 10C1.36595 10 1.70612 10.0974 1.99927 10.267L3.00073 8.53574C2.41136 8.19481 1.72691 8 1 8V10ZM0 6V9H2V6H0ZM3 3C1.34315 3 0 4.34315 0 6H2C2 5.44772 2.44772 5 3 5V3ZM21 3H3V5H21V3ZM24 6C24 4.34315 22.6569 3 21 3V5C21.5523 5 22 5.44771 22 6H24ZM24 9V6H22V9H24ZM22.0007 10.267C22.2939 10.0974 22.6341 10 23 10V8C22.2731 8 21.5886 8.19481 20.9993 8.53574L22.0007 10.267ZM20.5 6V9.40135H22.5V6H20.5ZM21 6.5C20.7239 6.5 20.5 6.27614 20.5 6H22.5C22.5 5.17157 21.8284 4.5 21 4.5V6.5ZM20.5 14.5987V18H22.5V14.5987H20.5ZM20.5 18C20.5 17.7239 20.7239 17.5 21 17.5V19.5C21.8284 19.5 22.5 18.8284 22.5 18H20.5ZM21 17.5H3V19.5H21V17.5ZM3 17.5C3.27614 17.5 3.5 17.7239 3.5 18H1.5C1.5 18.8284 2.17157 19.5 3 19.5V17.5ZM3.5 18V14.5987H1.5V18H3.5ZM1.99927 13.733C1.70612 13.9026 1.36595 14 1 14V16C1.72691 16 2.41136 15.8052 3.00073 15.4643L1.99927 13.733ZM0 15V18H2V15H0ZM0 18C0 19.6569 1.34314 21 3 21V19C2.44772 19 2 18.5523 2 18H0ZM3 21H21V19H3V21ZM21 21C22.6569 21 24 19.6569 24 18H22C22 18.5523 21.5523 19 21 19V21ZM24 18V15H22V18H24ZM23 14C22.6341 14 22.2939 13.9026 22.0007 13.733L20.9993 15.4643C21.5886 15.8052 22.2731 16 23 16V14Z" fill="#333333" mask="url(#path-1-inside-1_1326_3131)"/>
<path d="M23 15C21.3431 15 20 13.6569 20 12C20 10.3431 21.3431 9 23 9" stroke="#333333" stroke-width="1.5"/>
<path d="M1 15C2.65685 15 4 13.6569 4 12C4 10.3431 2.65685 9 1 9" stroke="#333333" stroke-width="1.5"/>
<line x1="16.75" y1="8.75" x2="16.75" y2="15.25" stroke="#00C300" stroke-width="1.5" stroke-linecap="round"/>
</svg>
