<svg width="20" height="20" viewBox="0 0 20 20" fill="none" xmlns="http://www.w3.org/2000/svg">
<g id="icon/picto/20X20/calender">
<path id="Fill 1" fill-rule="evenodd" clip-rule="evenodd" d="M17.3004 17.6H2.70037C2.53537 17.6 2.40137 17.466 2.40137 17.3V8.28003H17.6004V17.3C17.6004 17.466 17.4654 17.6 17.3004 17.6ZM2.70037 3.81201H4.73637V4.52401C4.73637 4.91101 5.04937 5.22401 5.43637 5.22401C5.82237 5.22401 6.13637 4.91101 6.13637 4.52401V3.81201H13.8644V4.52401C13.8644 4.91101 14.1784 5.22401 14.5654 5.22401C14.9514 5.22401 15.2654 4.91101 15.2654 4.52401V3.81201H17.3004C17.4654 3.81201 17.6004 3.94701 17.6004 4.11201V6.87901H2.40137V4.11201C2.40137 3.94701 2.53537 3.81201 2.70037 3.81201ZM17.3 2.412H15.265V1.701C15.265 1.314 14.951 1 14.565 1C14.178 1 13.864 1.314 13.864 1.701V2.412H6.136V1.701C6.136 1.314 5.822 1 5.436 1C5.049 1 4.736 1.314 4.736 1.701V2.412H2.7C1.763 2.412 1 3.175 1 4.112V17.3C1 18.238 1.763 19 2.7 19H17.3C18.237 19 19 18.238 19 17.3V4.112C19 3.175 18.237 2.412 17.3 2.412Z" fill="#666666"/>
</g>
</svg>
