<svg width="20" height="20" viewBox="0 0 20 20" fill="none" xmlns="http://www.w3.org/2000/svg">
<g id="filter">
<path id="Vector" d="M18.3334 2.5L18.7152 2.82286C18.8409 2.67422 18.8689 2.46614 18.787 2.28956C18.705 2.11298 18.5281 2 18.3334 2V2.5ZM1.66675 2.5V2C1.47209 2 1.29512 2.11298 1.21319 2.28956C1.13126 2.46614 1.15926 2.67422 1.28496 2.82286L1.66675 2.5ZM8.33342 10.3833H8.83342C8.83342 10.2651 8.79153 10.1507 8.7152 10.0605L8.33342 10.3833ZM8.33342 15.8333H7.83342C7.83342 16.0227 7.94042 16.1959 8.10981 16.2805L8.33342 15.8333ZM11.6667 17.5L11.4431 17.9472C11.5981 18.0247 11.7822 18.0164 11.9296 17.9253C12.077 17.8342 12.1667 17.6733 12.1667 17.5H11.6667ZM11.6667 10.3833L11.285 10.0605C11.2086 10.1507 11.1667 10.2651 11.1667 10.3833H11.6667ZM18.3334 2H1.66675V3H18.3334V2ZM1.28496 2.82286L7.95163 10.7062L8.7152 10.0605L2.04853 2.17714L1.28496 2.82286ZM7.83342 10.3833V15.8333H8.83342V10.3833H7.83342ZM8.10981 16.2805L11.4431 17.9472L11.8904 17.0528L8.55702 15.3861L8.10981 16.2805ZM12.1667 17.5V10.3833H11.1667V17.5H12.1667ZM12.0485 10.7062L18.7152 2.82286L17.9516 2.17714L11.285 10.0605L12.0485 10.7062Z" fill="#666666"/>
</g>
</svg>
