<svg width="20" height="20" viewBox="0 0 20 20" fill="none" xmlns="http://www.w3.org/2000/svg">
<path d="M18.3332 2.5L18.715 2.82286C18.8407 2.67422 18.8687 2.46614 18.7867 2.28956C18.7048 2.11298 18.5278 2 18.3332 2V2.5ZM1.6665 2.5V2C1.47184 2 1.29487 2.11298 1.21295 2.28956C1.13102 2.46614 1.15902 2.67422 1.28472 2.82286L1.6665 2.5ZM8.33317 10.3833H8.83317C8.83317 10.2651 8.79129 10.1507 8.71496 10.0605L8.33317 10.3833ZM8.33317 15.8333H7.83317C7.83317 16.0227 7.94017 16.1959 8.10956 16.2805L8.33317 15.8333ZM11.6665 17.5L11.4429 17.9472C11.5979 18.0247 11.782 18.0164 11.9294 17.9253C12.0768 17.8342 12.1665 17.6733 12.1665 17.5H11.6665ZM11.6665 10.3833L11.2847 10.0605C11.2084 10.1507 11.1665 10.2651 11.1665 10.3833H11.6665ZM18.3332 2H1.6665V3H18.3332V2ZM1.28472 2.82286L7.95139 10.7062L8.71496 10.0605L2.04829 2.17714L1.28472 2.82286ZM7.83317 10.3833V15.8333H8.83317V10.3833H7.83317ZM8.10956 16.2805L11.4429 17.9472L11.8901 17.0528L8.55678 15.3861L8.10956 16.2805ZM12.1665 17.5V10.3833H11.1665V17.5H12.1665ZM12.0483 10.7062L18.715 2.82286L17.9514 2.17714L11.2847 10.0605L12.0483 10.7062Z" fill="#3182F6"/>
</svg>
