<svg width="20" height="20" viewBox="0 0 20 20" fill="none" xmlns="http://www.w3.org/2000/svg">
<path d="M9.1665 3.83352C9.44265 3.83352 9.6665 3.60966 9.6665 3.33352C9.6665 3.05737 9.44265 2.83352 9.1665 2.83352V3.83352ZM3.33317 3.33352L3.33317 2.83352L3.33317 3.33352ZM1.6665 5.00018H1.1665H1.6665ZM1.6665 16.6668H1.1665H1.6665ZM17.1665 10.8335C17.1665 10.5574 16.9426 10.3335 16.6665 10.3335C16.3904 10.3335 16.1665 10.5574 16.1665 10.8335H17.1665ZM15.4165 2.0835L15.063 1.72995L15.4165 2.0835ZM16.6665 1.56573L16.6665 1.06573L16.6665 1.56573ZM17.9165 2.0835L17.563 2.43706L17.9165 2.0835ZM17.9165 4.5835L17.563 4.22995L17.563 4.22995L17.9165 4.5835ZM9.99984 12.5002L10.1211 12.9852C10.209 12.9633 10.2893 12.9178 10.3534 12.8537L9.99984 12.5002ZM6.6665 13.3335L6.18143 13.2122C6.13884 13.3826 6.18876 13.5629 6.31295 13.6871C6.43714 13.8112 6.61738 13.8612 6.78777 13.8186L6.6665 13.3335ZM7.49984 10.0002L7.14628 9.64661C7.0822 9.71069 7.03674 9.79098 7.01477 9.8789L7.49984 10.0002ZM9.1665 2.83352H3.33317V3.83352H9.1665V2.83352ZM3.33317 2.83352C2.75853 2.83352 2.20743 3.06179 1.80111 3.46812L2.50821 4.17522C2.727 3.95643 3.02375 3.83352 3.33317 3.83352L3.33317 2.83352ZM1.80111 3.46812C1.39478 3.87445 1.1665 4.42555 1.1665 5.00018H2.1665C2.1665 4.69076 2.28942 4.39402 2.50821 4.17522L1.80111 3.46812ZM1.1665 5.00018V16.6668H2.1665V5.00018H1.1665ZM1.1665 16.6668C1.1665 17.2415 1.39478 17.7926 1.80111 18.1989L2.50821 17.4918C2.28942 17.273 2.1665 16.9763 2.1665 16.6668H1.1665ZM1.80111 18.1989C2.20743 18.6052 2.75853 18.8335 3.33317 18.8335V17.8335C3.02375 17.8335 2.72701 17.7106 2.50821 17.4918L1.80111 18.1989ZM3.33317 18.8335H14.9998V17.8335H3.33317V18.8335ZM14.9998 18.8335C15.5745 18.8335 16.1256 18.6052 16.5319 18.1989L15.8248 17.4918C15.606 17.7106 15.3093 17.8335 14.9998 17.8335V18.8335ZM16.5319 18.1989C16.9382 17.7926 17.1665 17.2415 17.1665 16.6668H16.1665C16.1665 16.9763 16.0436 17.273 15.8248 17.4918L16.5319 18.1989ZM17.1665 16.6668V10.8335H16.1665V16.6668H17.1665ZM15.7701 2.43706C16.0078 2.1993 16.3303 2.06573 16.6665 2.06573L16.6665 1.06573C16.0651 1.06573 15.4882 1.30466 15.063 1.72995L15.7701 2.43706ZM16.6665 2.06573C17.0027 2.06573 17.3252 2.1993 17.563 2.43706L18.2701 1.72995C17.8448 1.30466 17.268 1.06573 16.6665 1.06573L16.6665 2.06573ZM17.563 2.43706C17.8007 2.67481 17.9343 2.99727 17.9343 3.3335L18.9343 3.3335C18.9343 2.73205 18.6953 2.15524 18.2701 1.72995L17.563 2.43706ZM17.9343 3.3335C17.9343 3.66973 17.8007 3.9922 17.563 4.22995L18.2701 4.93705C18.6953 4.51177 18.9343 3.93495 18.9343 3.3335L17.9343 3.3335ZM17.563 4.22995L9.64628 12.1466L10.3534 12.8537L18.2701 4.93705L17.563 4.22995ZM9.87857 12.0151L6.54524 12.8484L6.78777 13.8186L10.1211 12.9852L9.87857 12.0151ZM7.15158 13.4548L7.98491 10.1214L7.01477 9.8789L6.18143 13.2122L7.15158 13.4548ZM7.85339 10.3537L15.7701 2.43706L15.063 1.72995L7.14628 9.64661L7.85339 10.3537Z" fill="#666666"/>
</svg>
