<svg width="56" height="56" viewBox="0 0 56 56" fill="none" xmlns="http://www.w3.org/2000/svg">
<rect x="0.5" y="0.5" width="55" height="55" rx="27.5" fill="#F9FAFC"/>
<path d="M13.0122 26.8943L14.1397 28.8471L15.9878 27.7801L16.491 28.6518L14.6429 29.7188L15.7759 31.6812L14.8185 32.234L13.6855 30.2715L11.847 31.333L11.3437 30.4614L13.1823 29.3999L12.0548 27.447L13.0122 26.8943ZM19.1356 29.6336L20.5312 28.8278L18.2129 24.8125C18.1231 24.6569 18.0334 24.4906 17.9439 24.3136L17.4317 25.7144C17.4002 25.7919 17.3596 25.8534 17.3097 25.8991C17.2613 25.9398 17.2089 25.9701 17.1526 25.9899C17.0994 26.0079 17.0474 26.0167 16.9965 26.0165C16.9437 26.0131 16.8995 26.0026 16.864 25.985L16.1982 25.6899L17.2675 22.691L18.2344 22.1327L21.7077 28.1486L22.9461 27.4336L23.4548 28.3147L19.6443 30.5147L19.1356 29.6336ZM27.3498 21.4743C27.6963 22.0745 27.9328 22.6344 28.0593 23.1541C28.1871 23.6688 28.2201 24.1367 28.1583 24.5577C28.0997 24.9768 27.956 25.3476 27.7273 25.6702C27.5 25.9877 27.2069 26.2501 26.8481 26.4573C26.4892 26.6644 26.1155 26.7871 25.7268 26.8252C25.3395 26.8583 24.9496 26.7954 24.5573 26.6367C24.1651 26.4779 23.778 26.2144 23.3961 25.8464C23.0125 25.4752 22.6474 24.9895 22.3009 24.3893C21.9525 23.786 21.7145 23.227 21.5866 22.7122C21.4588 22.1975 21.4242 21.7306 21.4828 21.3115C21.5415 20.8923 21.6829 20.5249 21.907 20.2092C22.1326 19.8885 22.4247 19.6245 22.7836 19.4173C23.1424 19.2102 23.517 19.0891 23.9076 19.0542C24.2994 19.0142 24.6915 19.0737 25.0838 19.2325C25.4792 19.3894 25.8679 19.6519 26.2498 20.02C26.6348 20.3862 27.0015 20.871 27.3498 21.4743ZM26.1352 22.1756C25.8474 21.677 25.5725 21.2853 25.3106 21.0004C25.0488 20.7155 24.8 20.5119 24.5643 20.3897C24.3318 20.2657 24.1142 20.2114 23.9114 20.2269C23.7068 20.2391 23.5188 20.2948 23.3473 20.3938C23.179 20.491 23.0384 20.6251 22.9254 20.7961C22.8139 20.9622 22.7536 21.1769 22.7448 21.4402C22.736 21.7036 22.7895 22.0199 22.9053 22.3891C23.0242 22.7565 23.2276 23.1895 23.5155 23.6881C23.8033 24.1866 24.0766 24.5792 24.3353 24.866C24.5971 25.1509 24.8443 25.3553 25.0768 25.4794C25.3093 25.6034 25.5263 25.6602 25.7277 25.6498C25.9305 25.6343 26.116 25.578 26.2843 25.4808C26.4558 25.3818 26.5989 25.2484 26.7137 25.0805C26.8266 24.9095 26.8875 24.6922 26.8963 24.4289C26.9083 24.1637 26.8564 23.8465 26.7406 23.4772C26.6248 23.108 26.423 22.6741 26.1352 22.1756ZM32.8758 18.2839C33.2223 18.884 33.4588 19.444 33.5852 19.9637C33.7131 20.4784 33.7461 20.9463 33.6843 21.3672C33.6256 21.7864 33.482 22.1572 33.2533 22.4798C33.0259 22.7973 32.7329 23.0597 32.374 23.2668C32.0152 23.474 31.6415 23.5966 31.2528 23.6348C30.8654 23.6679 30.4756 23.605 30.0833 23.4462C29.691 23.2874 29.304 23.024 28.9221 22.6559C28.5384 22.2847 28.1733 21.799 27.8268 21.1989C27.4785 20.5955 27.2404 20.0365 27.1126 19.5218C26.9848 19.0071 26.9502 18.5402 27.0088 18.121C27.0675 17.7019 27.2089 17.3345 27.433 17.0188C27.6585 16.698 27.9507 16.4341 28.3095 16.2269C28.6684 16.0197 29.043 15.8987 29.4335 15.8638C29.8254 15.8238 30.2175 15.8832 30.6098 16.042C31.0052 16.199 31.3939 16.4615 31.7757 16.8296C32.1608 17.1958 32.5274 17.6805 32.8758 18.2839ZM31.6612 18.9851C31.3733 18.4866 31.0985 18.0949 30.8366 17.81C30.5748 17.5251 30.326 17.3215 30.0903 17.1993C29.8578 17.0753 29.6402 17.021 29.4374 17.0364C29.2328 17.0487 29.0448 17.1044 28.8733 17.2034C28.705 17.3005 28.5644 17.4346 28.4514 17.6057C28.3398 17.7717 28.2796 17.9864 28.2708 18.2498C28.262 18.5132 28.3154 18.8295 28.4312 19.1987C28.5502 19.5661 28.7536 19.9991 29.0415 20.4976C29.3293 20.9962 29.6025 21.3888 29.8612 21.6755C30.1231 21.9604 30.3703 22.1649 30.6028 22.2889C30.8353 22.413 31.0523 22.4698 31.2537 22.4593C31.4565 22.4439 31.642 22.3876 31.8103 22.2904C31.9818 22.1914 32.1249 22.058 32.2397 21.8901C32.3526 21.719 32.4135 21.5018 32.4223 21.2384C32.4343 20.9732 32.3824 20.656 32.2666 20.2868C32.1508 19.9176 31.949 19.4837 31.6612 18.9851ZM35.7513 17.9828L37.1511 20.4072L35.8698 21.1469L31.8933 14.2594L34.132 12.9669C34.5924 12.7011 35.0221 12.525 35.421 12.4386C35.8199 12.3523 36.1849 12.3427 36.5158 12.4099C36.8468 12.4771 37.1425 12.6154 37.4032 12.8248C37.667 13.0324 37.8914 13.2965 38.0766 13.6173C38.2691 13.9507 38.3905 14.2892 38.4406 14.6328C38.489 14.9732 38.4598 15.3076 38.353 15.636C38.2462 15.9644 38.0566 16.2813 37.7842 16.5868C37.5149 16.8904 37.1565 17.1715 36.7087 17.43L35.7513 17.9828ZM35.1738 16.9825L36.1312 16.4297C36.3662 16.2941 36.5545 16.1473 36.6962 15.9893C36.836 15.8281 36.9319 15.6605 36.9839 15.4866C37.0372 15.3076 37.0475 15.1238 37.0148 14.9352C36.9803 14.7434 36.9072 14.5507 36.7953 14.357C36.689 14.1728 36.5642 14.0226 36.4208 13.9064C36.2775 13.7901 36.1184 13.7126 35.9436 13.6738C35.7688 13.635 35.5785 13.6391 35.3727 13.6859C35.165 13.7296 34.9421 13.8202 34.704 13.9577L33.7466 14.5104L35.1738 16.9825Z" fill="black"/>
<path d="M18.5903 41.4169L16.8279 42.4344L17.9224 44.3301L16.7221 45.0231L15.6276 43.1274L13.8748 44.1394L13.2643 43.0819L15.0171 42.0699L13.9281 40.1837L15.1284 39.4907L16.2174 41.3769L17.9798 40.3594L18.5903 41.4169ZM18.095 38.6544C17.946 38.2789 17.8687 37.9213 17.8631 37.5816C17.8607 37.2401 17.9163 36.9222 18.0301 36.6279C18.147 36.3317 18.3198 36.0626 18.5484 35.8206C18.7751 35.5753 19.0473 35.361 19.3648 35.1777C19.7078 34.9797 20.041 34.8529 20.3646 34.7974C20.6863 34.7386 20.9869 34.7386 21.2665 34.7974C21.546 34.8562 21.7966 34.9677 22.0184 35.1318C22.2383 35.2927 22.4179 35.4938 22.5573 35.7352C22.6838 35.9543 22.7734 36.1608 22.8261 36.3548C22.877 36.5456 22.8937 36.7285 22.8763 36.9037C22.8602 37.0739 22.8118 37.2394 22.7311 37.4003C22.6518 37.5562 22.546 37.7104 22.4139 37.8629C23.3382 37.6891 24.0249 37.9913 24.4741 38.7692C24.6868 39.1376 24.8052 39.4968 24.8295 39.8469C24.8538 40.197 24.8055 40.5276 24.6846 40.8388C24.5668 41.1481 24.3868 41.4341 24.1447 41.6966C23.9007 41.9561 23.6183 42.1783 23.2976 42.3635C22.9674 42.5542 22.6535 42.6888 22.3559 42.7675C22.0566 42.8429 21.7638 42.8638 21.4775 42.8301C21.1895 42.7931 20.9014 42.7012 20.6133 42.5542C20.3284 42.4054 20.0369 42.2011 19.7388 41.9414L20.2421 41.2952C20.375 41.1295 20.5237 41.0203 20.6881 40.9678C20.8525 40.9152 20.9995 40.9277 21.129 41.0054C21.4241 41.1864 21.6858 41.2915 21.9143 41.3205C22.144 41.3444 22.3669 41.2941 22.5828 41.1694C22.7479 41.0741 22.8753 40.9646 22.9648 40.841C23.0556 40.7123 23.116 40.5822 23.1458 40.4506C23.1771 40.314 23.1812 40.1783 23.1584 40.0433C23.1355 39.9083 23.091 39.7837 23.025 39.6694C22.9389 39.5201 22.8507 39.3932 22.7607 39.2885C22.672 39.1788 22.5552 39.1086 22.4105 39.0779C22.2657 39.0472 22.0836 39.0655 21.8643 39.1329C21.6462 39.1952 21.3658 39.3254 21.0228 39.5234L20.4343 38.5041C20.7233 38.3373 20.9438 38.1803 21.096 38.0332C21.2481 37.8861 21.3499 37.7469 21.4011 37.6157C21.4537 37.4795 21.4638 37.3466 21.4314 37.2171C21.399 37.0877 21.3443 36.9562 21.2673 36.8229C21.1096 36.5498 20.9219 36.3787 20.7042 36.3096C20.4879 36.2356 20.2447 36.2764 19.9748 36.4323C19.7557 36.5588 19.6039 36.7248 19.5193 36.9303C19.436 37.1307 19.4153 37.3332 19.4572 37.5377C19.4913 37.7508 19.4709 37.9172 19.396 38.0367C19.321 38.1561 19.1743 38.2578 18.9559 38.3415L18.095 38.6544ZM27.2535 41.5466C27.1507 41.5298 27.0754 41.4801 27.0277 41.3975C27.0094 41.3658 27.0003 41.3244 27.0006 41.2735C27.0026 41.2257 27.0113 41.1784 27.0266 41.1315C27.0427 41.0714 27.0596 40.9981 27.0774 40.9116C27.0971 40.8283 27.113 40.7386 27.1253 40.6426C27.1376 40.5466 27.1415 40.447 27.137 40.3437C27.1356 40.2387 27.1204 40.1353 27.0912 40.0335C26.9778 40.0864 26.8638 40.1162 26.7492 40.1231C26.6346 40.13 26.5254 40.1168 26.4216 40.0836C26.3159 40.0472 26.219 39.9931 26.1309 39.9212C26.041 39.8461 25.9639 39.753 25.8997 39.6418C25.8411 39.5402 25.8061 39.4355 25.7947 39.3278C25.7814 39.2169 25.7914 39.1095 25.8246 39.0057C25.8591 38.8968 25.913 38.7958 25.9863 38.7027C26.0627 38.6078 26.1613 38.5255 26.282 38.4558C26.4248 38.3733 26.5634 38.3272 26.6975 38.3175C26.8298 38.3047 26.9556 38.3209 27.075 38.3663C27.1925 38.4086 27.2992 38.4761 27.3951 38.5689C27.4924 38.6567 27.5759 38.7609 27.6455 38.8816C27.7372 39.0403 27.8099 39.2249 27.8636 39.4352C27.9154 39.6424 27.9428 39.8658 27.9457 40.1055C27.9517 40.3433 27.9306 40.5926 27.8822 40.8534C27.8337 41.1143 27.7539 41.372 27.6427 41.6268L27.2535 41.5466ZM27.872 33.6257C27.9875 33.5251 28.1029 33.4352 28.218 33.356C28.3332 33.2768 28.4479 33.2042 28.5623 33.1382C28.9274 32.9274 29.2818 32.7969 29.6254 32.7467C29.969 32.6965 30.292 32.7133 30.5944 32.797C30.8949 32.8775 31.168 33.0204 31.4135 33.2258C31.6605 33.4262 31.8692 33.6741 32.0397 33.9694C32.2542 34.3409 32.3837 34.7192 32.4282 35.1042C32.474 35.4842 32.4435 35.8532 32.3369 36.2111C32.2302 36.5691 32.0491 36.9044 31.7936 37.217C31.5393 37.5247 31.2185 37.7904 30.8311 38.014C30.6057 38.1442 30.376 38.2451 30.1421 38.3166C29.9114 38.3863 29.6826 38.4337 29.4557 38.4588C29.2303 38.4789 29.011 38.4806 28.7981 38.4638C28.5834 38.4438 28.3792 38.4093 28.1857 38.3601L28.291 37.4864C28.302 37.3954 28.33 37.3157 28.3752 37.2473C28.4185 37.1757 28.4767 37.1188 28.5498 37.0766C28.645 37.0216 28.7495 36.9973 28.8633 37.0036C28.9783 37.0049 29.1034 37.0089 29.2385 37.0156C29.375 37.0172 29.5245 37.005 29.6872 36.9788C29.8499 36.9526 30.0297 36.8827 30.2266 36.769C30.4235 36.6553 30.5734 36.5264 30.6765 36.3822C30.7777 36.2349 30.8391 36.0809 30.8607 35.9202C30.8836 35.7546 30.871 35.5862 30.823 35.4149C30.7762 35.2387 30.7034 35.0648 30.6044 34.8933C30.41 34.5567 30.1672 34.3561 29.8758 34.2915C29.5827 34.2236 29.2614 34.2906 28.9121 34.4922C28.6009 34.6719 28.33 34.9066 28.0993 35.1965L27.0418 35.4768L25.6277 31.6634L29.181 29.6119L29.533 30.2216C29.5917 30.3232 29.629 30.4245 29.6449 30.5254C29.6608 30.6263 29.6521 30.7286 29.6189 30.8325C29.5871 30.9313 29.5257 31.0303 29.4347 31.1294C29.3419 31.2253 29.2177 31.3182 29.0621 31.408L27.4045 32.365L27.872 33.6257ZM37.2091 29.6003C37.5593 30.2068 37.7976 30.77 37.9241 31.2897C38.0505 31.8094 38.0822 32.2823 38.0191 32.7082C37.9591 33.1324 37.8116 33.5075 37.5766 33.8338C37.3447 34.1582 37.0446 34.4267 36.6762 34.6394C36.3079 34.852 35.9253 34.9777 35.5284 35.0163C35.1347 35.053 34.7392 34.9914 34.3419 34.8312C33.9446 34.6711 33.5526 34.4063 33.1657 34.0369C32.782 33.6657 32.4151 33.1768 32.0649 32.5703C31.7148 31.9638 31.4748 31.4016 31.3452 30.8837C31.2187 30.364 31.1855 29.8921 31.2454 29.4679C31.3054 29.0438 31.4506 28.672 31.6812 28.3526C31.913 28.0282 32.2131 27.7597 32.5815 27.5471C32.9498 27.3344 33.3324 27.2087 33.7293 27.1701C34.1275 27.1265 34.5253 27.1848 34.9226 27.3449C35.323 27.5032 35.7167 27.7671 36.1036 28.1365C36.4904 28.5059 36.8589 28.9938 37.2091 29.6003ZM35.6849 30.4803C35.4081 30.0008 35.1515 29.6261 34.9152 29.3561C34.677 29.0829 34.4567 28.8883 34.2542 28.7723C34.055 28.6545 33.8735 28.6005 33.7098 28.6103C33.5443 28.617 33.3964 28.6579 33.2662 28.7331C33.136 28.8082 33.0267 28.9158 32.9382 29.0558C32.851 29.1909 32.8086 29.3741 32.811 29.6056C32.8166 29.8352 32.8781 30.1215 32.9956 30.4643C33.1145 30.8022 33.3123 31.2108 33.5891 31.6903C33.8678 32.173 34.1237 32.5502 34.3569 32.8221C34.5932 33.0921 34.8103 33.2885 35.0083 33.4113C35.2075 33.5291 35.3883 33.5856 35.5507 33.5808C35.7144 33.571 35.8613 33.5285 35.9915 33.4533C36.1217 33.3782 36.232 33.2722 36.3223 33.1353C36.4108 32.9953 36.4539 32.8096 36.4515 32.5781C36.4504 32.3416 36.3921 32.0535 36.2764 31.7138C36.1607 31.3742 35.9636 30.963 35.6849 30.4803ZM42.7351 26.4099C43.0853 27.0164 43.3236 27.5795 43.4501 28.0992C43.5765 28.619 43.6082 29.0918 43.5451 29.5178C43.4851 29.9419 43.3376 30.3171 43.1026 30.6433C42.8707 30.9677 42.5706 31.2363 42.2022 31.4489C41.8339 31.6616 41.4513 31.7872 41.0544 31.8258C40.6607 31.8626 40.2652 31.8009 39.8679 31.6408C39.4706 31.4807 39.0785 31.2159 38.6917 30.8465C38.308 30.4753 37.9411 29.9864 37.5909 29.3799C37.2407 28.7734 37.0008 28.2112 36.8712 27.6933C36.7447 27.1736 36.7115 26.7016 36.7714 26.2775C36.8314 25.8534 36.9766 25.4816 37.2071 25.1622C37.439 24.8378 37.7391 24.5693 38.1075 24.3566C38.4758 24.144 38.8584 24.0183 39.2553 23.9797C39.6535 23.9361 40.0513 23.9944 40.4486 24.1545C40.849 24.3128 41.2427 24.5767 41.6296 24.946C42.0164 25.3154 42.3849 25.8034 42.7351 26.4099ZM41.2109 27.2899C40.9341 26.8104 40.6775 26.4357 40.4411 26.1657C40.203 25.8925 39.9827 25.6979 39.7802 25.5819C39.581 25.4641 39.3995 25.4101 39.2358 25.4199C39.0703 25.4266 38.9224 25.4675 38.7922 25.5426C38.662 25.6178 38.5527 25.7254 38.4642 25.8654C38.377 26.0004 38.3346 26.1837 38.337 26.4152C38.3426 26.6448 38.4041 26.9311 38.5216 27.2739C38.6404 27.6117 38.8383 28.0204 39.1151 28.4999C39.3938 28.9826 39.6497 29.3598 39.8828 29.6317C40.1192 29.9017 40.3363 30.0981 40.5342 30.2209C40.7335 30.3387 40.9143 30.3952 41.0767 30.3904C41.2403 30.3806 41.3873 30.3381 41.5175 30.2629C41.6477 30.1877 41.7579 30.0817 41.8483 29.9449C41.9368 29.8049 41.9799 29.6191 41.9775 29.3877C41.9764 29.1512 41.9181 28.8631 41.8024 28.5234C41.6867 28.1837 41.4896 27.7726 41.2109 27.2899ZM46.0105 24.4363C46.4296 24.1943 46.6735 23.9201 46.7422 23.6137C46.8109 23.3073 46.7416 22.9747 46.5345 22.6159C46.4428 22.4571 46.3356 22.3264 46.2128 22.2237C46.09 22.121 45.9528 22.052 45.8012 22.0168C45.6509 21.9765 45.4865 21.9741 45.3079 22.0094C45.1325 22.043 44.9432 22.1184 44.74 22.2357L43.9017 22.7197L45.1722 24.9203L46.0105 24.4363ZM44.0442 21.0307C44.5332 20.7483 44.9863 20.5651 45.4034 20.4809C45.8219 20.3917 46.2025 20.3836 46.5453 20.4567C46.8913 20.5279 47.198 20.6705 47.4655 20.8844C47.7329 21.0984 47.9593 21.3657 48.1444 21.6864C48.3443 22.0325 48.472 22.3822 48.5277 22.7353C48.5834 23.0884 48.5565 23.4342 48.4471 23.7726C48.3376 24.111 48.1405 24.4407 47.8559 24.7617C47.5726 25.0777 47.1912 25.3741 46.7117 25.6509L45.8734 26.1349L47.2127 28.4545L45.6027 29.384L41.596 22.4442L44.0442 21.0307Z" fill="#3182F6"/>
<rect x="0.5" y="0.5" width="55" height="55" rx="27.5" stroke="#E2E5EB"/>
</svg>
