<svg width="32" height="32" viewBox="0 0 32 32" fill="none" xmlns="http://www.w3.org/2000/svg">
<circle cx="16" cy="16" r="16" fill="black"/>
<path d="M22.7691 19.6084C22.4642 20.3371 22.0903 21.035 21.6525 21.6925C20.9218 22.7975 19.8987 24.1771 18.6389 24.1771C17.5135 24.1874 17.2241 23.4464 15.6968 23.4464C14.1695 23.4464 13.8509 24.1771 12.7256 24.1771C11.4599 24.1654 10.4909 22.9246 9.766 21.8197C7.73742 18.733 7.5255 15.1113 8.77655 13.1851C9.66515 11.8156 11.0667 11.0147 12.385 11.0147C13.7282 11.0147 14.5773 11.7455 15.6808 11.7455C16.7579 11.7455 17.4141 11.0147 18.9662 11.0147C20.1355 11.0147 21.3821 11.6534 22.2678 12.7583C19.3652 14.3557 19.8373 18.5006 22.7691 19.6084Z" fill="white"/>
<path d="M17.7883 9.79004C18.3525 9.05928 18.7807 8.03621 18.6258 7C17.705 7.06285 16.6264 7.64892 15.9951 8.41329C15.4236 9.10605 14.953 10.135 15.1357 11.1346C16.1441 11.1653 17.1847 10.5646 17.7883 9.79004Z" fill="white"/>
</svg>
